<?xml version="1.0" encoding="utf-8"?>
<svg xmlns="http://www.w3.org/2000/svg" data-name="Layer 1" id="Layer_1" viewBox="0 0 310.96 97.28">
  <path d="m186.61,12.62c-.31.83-.64,1.65-.93,2.48-.79,2.23-1.54,4.47-2.35,6.7-.7,1.91-1.46,3.8-2.17,5.71-.6,1.62-1.17,3.25-1.77,4.87-.46,1.23-.97,2.45-1.43,3.68-.45,1.19-.86,2.4-1.29,3.6-.46,1.26-.93,2.51-1.4,3.76-.87,2.31-1.74,4.62-2.61,6.93-.2.52-.38,1.04-.57,1.57-.23.65-.67.94-1.37.93-1.98-.01-3.96,0-5.94,0-.52,0-1.04,0-1.56,0-.89,0-1.21-.21-1.47-1.04-.5-1.57-.97-3.14-1.46-4.72-.82-2.63-1.65-5.26-2.47-7.89-.63-2.02-1.25-4.05-1.89-6.07-.06-.2-.22-.36-.34-.54-.12.18-.3.34-.36.54-.49,1.57-.96,3.15-1.44,4.72-.6,1.97-1.22,3.93-1.83,5.89-.78,2.51-1.56,5.03-2.35,7.54-.09.27-.17.55-.26.82-.14.42-.42.62-.89.63-2.58.03-5.16.07-7.74.1-.1,0-.21,0-.31,0-.86-.04-.99-.18-1.27-.99-.52-1.5-1.07-2.98-1.62-4.47-1.91-5.15-3.82-10.3-5.74-15.45-1.19-3.18-2.39-6.35-3.58-9.54-.72-1.93-1.4-3.87-2.14-5.79-.52-1.34-1.12-2.65-1.69-3.98,3.88,0,7.75,0,11.62,0-.29.15-.24.37-.14.63.53,1.47,1.07,2.94,1.58,4.41,1.84,5.39,3.67,10.78,5.51,16.17.28.82.54,1.64.83,2.45.05.13.19.29.31.32.22.05.32-.14.37-.33.07-.26.12-.52.2-.78.82-2.63,1.66-5.25,2.48-7.88,1.33-4.26,2.65-8.52,3.96-12.78.22-.72.36-1.47.54-2.21,2.62,0,5.25,0,7.88,0,.03.22.03.45.09.66.12.41.28.82.41,1.23,1.14,3.67,2.27,7.34,3.41,11.02,1.09,3.53,2.19,7.07,3.28,10.6.03.1.05.2.1.29.13.24.39.26.55.04.06-.08.09-.18.12-.28.47-1.45.93-2.9,1.42-4.34,1.11-3.29,2.22-6.58,3.35-9.87.97-2.82,1.96-5.63,2.93-8.45.1-.29.14-.6.21-.89,3.75,0,7.5,0,11.25,0Z"/>
  <path d="m204.98,12.62c-.29.24-.18.51-.07.78.73,1.81,1.47,3.62,2.17,5.45,1.99,5.12,3.96,10.25,5.94,15.37.73,1.88,1.48,3.75,2.21,5.63,1.16,2.99,2.31,5.99,3.48,8.98.35.9.75,1.78,1.12,2.68.06.13.11.27.16.4.23.69.11.82-.63.83-1.67.02-3.33.07-5,.09-1.27.01-2.54,0-3.81,0-.19,0-.37-.01-.56-.03-.39-.04-.65-.24-.78-.61-.34-.95-.68-1.9-1.03-2.84-.45-1.19-.92-2.38-1.35-3.58-.19-.53-.51-.74-1.07-.72-1.29.06-2.58.09-3.87.11-.64,0-1.29-.05-1.93-.06-2.48-.02-4.96-.03-7.44-.05-.12,0-.25,0-.37,0-.31,0-.48.12-.59.43-.8,2.18-1.63,4.35-2.44,6.53-.17.45-.43.72-.95.73-.56,0-1.12.09-1.68.09-2.46,0-4.92,0-7.37,0-1.09,0-1.17-.16-.77-1.16,1.75-4.42,3.5-8.84,5.24-13.26,1.39-3.52,2.78-7.05,4.15-10.57,1.29-3.3,2.56-6.6,3.85-9.89.6-1.53,1.23-3.06,1.85-4.58.11-.26.19-.51-.08-.72h11.62Zm-5.83,23.65c1.1,0,2.2,0,3.31,0,.84,0,.92-.11.63-.9-.26-.71-.57-1.41-.83-2.12-.73-1.98-1.45-3.98-2.18-5.96-.2-.54-.43-1.07-.65-1.6-.07-.16-.1-.43-.34-.35-.14.04-.25.25-.31.41-.1.25-.12.52-.21.77-1.07,2.91-2.15,5.82-3.22,8.73-.07.19-.15.39-.19.58-.06.24.05.4.31.42.17.01.33.01.5.01,1.06,0,2.12,0,3.18,0Z"/>
  <path d="m117.48,12.62c.06.26.1.52.2.77,1.85,4.73,3.71,9.46,5.56,14.2,1.34,3.43,2.69,6.86,4.02,10.29.95,2.44,1.86,4.88,2.81,7.32.68,1.74,1.39,3.48,2.07,5.22.25.65.44,1.32.65,1.99.07.23-.02.33-.28.33-3.02.02-6.04.05-9.05.08-.08,0-.17,0-.25,0-.62.01-1.01-.29-1.22-.86-.39-1.04-.78-2.08-1.17-3.12-.42-1.1-.85-2.18-1.27-3.28-.11-.28-.27-.46-.57-.5-.23-.03-.45-.07-.68-.06-1.31.05-2.62.16-3.93.16-2.46,0-4.91-.07-7.37-.12-.54-.01-1.08-.06-1.62-.07-.53,0-.88.19-1.07.74-.61,1.77-1.26,3.52-1.9,5.28-.13.35-.27.69-.4,1.04-.2.53-.6.77-1.15.79-.19,0-.37.01-.56.01-2.31,0-4.62,0-6.94,0-.66,0-1.33-.05-1.99-.11-.51-.05-.64-.27-.42-.69.98-1.87,1.63-3.87,2.42-5.81,1.12-2.79,2.2-5.59,3.29-8.39,2.32-5.96,4.63-11.93,6.96-17.89.84-2.17,1.72-4.32,2.57-6.48.1-.26.12-.55.18-.82,3.71,0,7.42,0,11.12,0Zm-5.58,12.57c-.12.2-.17.25-.19.31-.64,1.82-1.27,3.65-1.91,5.47-.23.66-.47,1.31-.73,1.97-.35.88-.71,1.75-1.06,2.63-.2.51-.09.66.47.7.17.01.33,0,.5,0,1.35,0,2.71,0,4.06,0,.71,0,1.42,0,2.12,0,.93-.01,1.02-.15.67-1.02-.21-.51-.44-1.02-.63-1.54-.93-2.51-1.84-5.02-2.77-7.53-.12-.31-.32-.59-.54-.99Z"/>
  <path d="m305.48,64.41c-2.37.05-4.74.14-7.12.14-95.28,0-190.55,0-285.83,0-1.71,0-3.42,0-5.12-.03-.64,0-1.29-.07-1.93-.11,0-.66,0-1.32,0-1.97.28.23.61.23.95.23,5.79-.04,11.58-.1,17.37-.1,33.27,0,66.53,0,99.8,0,40.51,0,81.03,0,121.54,0,18.33,0,36.66,0,54.99.01,1.5,0,3,.06,4.5.1.29,0,.57.09.86.14v1.6Z"/>
  <path d="m237.44,33.66c.05-.8.05-1.6.17-2.39.18-1.14.91-1.85,2-2.24,1.43-.51,3.3.48,3.61,1.97.23,1.11.37,2.23.25,3.37-.08.78-.21,1.54-.34,2.31-.06.4-.26.75-.63.95-.85.46-1.75.74-2.75.55-1.15-.22-1.82-.94-2.13-2.01-.1-.33-.12-.69-.14-1.03-.02-.49,0-.99,0-1.48-.02,0-.03,0-.05,0Zm4.04.11s0,0,0,0c0-.62,0-1.23,0-1.85,0-.4-.17-.71-.48-.96-.53-.43-1.17-.28-1.4.35-.12.34-.2.71-.22,1.08-.04.63-.03,1.27-.02,1.91,0,.37,0,.74.05,1.11.12.85.41,1.05,1.26.92.02,0,.04,0,.06-.01.68-.12.73-.16.74-.82.01-.57,0-1.15,0-1.72Z"/>
  <path d="m57.02,38.13c-.69,0-1.37.01-2.06,0-.57-.01-.7-.16-.65-.72.03-.35.09-.69.15-1.04.32-1.86.63-3.72.97-5.58.18-.96.43-1.15,1.44-1.17,1.25-.02,2.5-.02,3.75-.02.75,0,.95.14.97.58.02.47-.45.99-.96,1.06-.18.02-.37.01-.56.01-.58,0-1.17.01-1.75-.03-.59-.04-.93.23-1.16.73-.39.82-.3,1.01.62,1.07.58.04,1.16,0,1.75,0,.17,0,.33-.02.5,0,.45.07.56.22.53.67,0,.12-.03.25-.05.37-.09.45-.23.6-.71.62-.46.02-.92,0-1.37,0-.35,0-.71-.01-1.06-.01-.27,0-.56,0-.69.31-.17.37-.39.76-.22,1.17.06.14.28.26.44.29.3.05.62.03.93.02.62-.01,1.25-.05,1.87-.05.29,0,.61.03.74.34.15.35,0,.63-.24.9-.29.33-.66.48-1.1.48-.35,0-.71,0-1.06,0-.33,0-.67,0-1,0h0Z"/>
  <path d="m232.77,38.15c-.58,0-1.17.01-1.75,0-1.33-.03-1.62-.42-1.16-1.64.18-.47.46-.93.79-1.31.63-.73,1.34-1.4,2.01-2.1.27-.28.52-.59.76-.89.26-.33.24-.69.06-1.05-.29-.56-.77-.62-1.18-.16-.12.14-.22.3-.33.45-.12.16-.24.34-.38.49-.33.36-.75.49-1.05.35-.32-.15-.54-.6-.52-1.05.04-.55.25-1.03.61-1.45.99-1.14,3.18-1.22,4.22-.12.24.26.43.61.53.95.29,1.04.19,2.04-.58,2.88-.59.64-1.2,1.25-1.8,1.87-.16.16-.33.32-.45.51-.14.21-.06.35.2.38.27.03.54.01.81.01.48,0,.96-.02,1.44.02.45.03.58.18.63.61.1.86-.17,1.19-1.04,1.22-.6.02-1.21,0-1.81,0,0,0,0,.02,0,.02Z"/>
  <path d="m66.3,29.54c.52.1,1.17.15,1.77.35.75.26.95.91.6,1.6-.16.32-.31.38-.66.25-.12-.04-.23-.1-.34-.16-.77-.47-1.59-.4-2.42-.25-.23.04-.46.11-.5.39-.05.3-.02.59.26.77.19.12.4.22.6.32.51.24,1.03.46,1.52.72,1.62.87,1.69,3.03.11,3.98-1.37.82-2.85.84-4.33.33-.56-.19-.99-.89-.98-1.46,0-.34.25-.56.64-.49.36.07.74.17,1.06.35.67.37,1.36.32,2.07.25.16-.01.32-.1.46-.18.32-.18.42-.43.2-.71-.23-.3-.54-.57-.86-.77-.5-.32-1.08-.54-1.57-.89-.34-.24-.61-.61-.86-.95-.22-.29-.26-.65-.17-1,.12-.43.25-.87.43-1.28.23-.53.69-.83,1.24-.95.52-.11,1.07-.14,1.74-.22Z"/>
  <path d="m249.38,32.8c0,.92,0,1.85,0,2.77,0,.57.08.61.63.7.36.06.74.14,1.07.3.31.14.54.42.48.79-.06.37-.36.57-.7.62-.53.08-1.07.15-1.61.14-1.02,0-2.04-.05-3.06-.09-.08,0-.17,0-.25-.03-.46-.09-.78-.42-.76-.77.04-.51.41-.94.87-.97.33-.02.67-.01,1-.01.28,0,.42-.15.42-.42,0-1.25,0-2.5-.02-3.76,0-.13-.09-.34-.16-.36-.14-.03-.34.03-.44.12-.27.25-.5.55-.75.82-.1.11-.21.21-.32.29-.24.18-.35.15-.43-.15-.18-.67-.05-1.33.32-1.89.67-1.03,1.58-1.79,2.79-2.16.32-.1.55-.02.66.27.12.32.23.66.25,1,.03.92.01,1.85.01,2.77h0Z"/>
  <path d="m255.16,28.89c.67,0,1.33-.02,2,0,.69.03.92.27.95.96.01.28.03.59-.06.85-.3.89-.61,1.78-.97,2.65-.46,1.12-1.03,2.2-1.44,3.33-.32.88-.87,1.36-1.78,1.49-.58.08-.79-.15-.63-.69.04-.14.1-.27.16-.4.75-1.69,1.5-3.38,2.25-5.07.1-.22.19-.46.24-.7.07-.37-.07-.54-.46-.55-.58-.02-1.16,0-1.75,0-.19,0-.37,0-.56-.01-.64-.04-.84-.23-.86-.81-.02-.65.26-1.02.87-1.05.68-.03,1.37,0,2.06,0,0,0,0,0,0,0Z"/>
  <path d="m73.92,29.61c.96,0,1.92,0,2.87,0,.29,0,.6-.02.72.34.12.35.03.65-.21.91-.23.26-.53.39-.89.39-.37,0-.75,0-1.12,0-.59.02-.8.18-.89.74-.27,1.58-.54,3.16-.8,4.74-.08.45-.19.88-.51,1.23-.2.22-.42.42-.75.34-.32-.08-.49-.33-.54-.62-.05-.32-.09-.66-.04-.97.23-1.48.49-2.96.74-4.44.01-.06.03-.12.04-.18.11-.66,0-.81-.7-.83-.37-.01-.75,0-1.12,0-.45-.02-.74-.28-.81-.7-.06-.35.18-.72.59-.84.23-.07.49-.08.74-.09.9,0,1.79,0,2.69,0,0,0,0,0,0,0Z"/>
  <path d="m78.84,37.13c.01.49-.52,1.02-1.04,1.04-.55.01-1.05-.52-1.07-1.14-.02-.56.38-.94.98-.95.64,0,1.11.44,1.13,1.05Z"/>
  <path d="m163.86,80.01c.03-.11.08-.22.1-.34.28-1.26.54-2.53.84-3.79.31-1.27.46-1.37,1.79-1.39.02,0,.04,0,.06,0,1.09.02,1.16-.04.91,1.13-.3,1.44-.77,2.85-1.17,4.28-.31,1.13-.6,2.26-.93,3.39-.28.93-.76,1.24-1.75,1.24-.52,0-.88-.22-1.08-.69-.16-.38-.32-.76-.42-1.16-.27-1.01-.5-2.03-.75-3.05-.01-.06-.01-.12-.03-.18-.08-.26-.23-.32-.38-.12-.17.22-.32.48-.39.75-.26.95-.47,1.91-.71,2.87-.06.22-.13.44-.23.63-.52.98-1.09,1.09-2.07.85-.44-.11-.69-.43-.81-.86-.45-1.66-.9-3.33-1.36-4.99-.25-.91-.54-1.81-.8-2.72-.09-.31-.14-.64-.18-.96-.03-.24.11-.41.36-.39.58.03,1.16.06,1.74.13.34.04.46.33.57.6.36.88.59,1.79.72,2.73.07.49.17.97.27,1.45.05.26.22.31.38.1.16-.2.3-.45.37-.7.28-.97.52-1.94.78-2.92.04-.14.06-.28.11-.42.22-.69.48-.91,1.13-.96.62-.04,1.12.15,1.38.74.14.32.26.65.34.99.23.92.42,1.84.65,2.76.09.35.26.67.39,1.01.06,0,.12-.01.17-.02Z"/>
  <path d="m99.88,79.49c0,1.29-.02,2.59,0,3.88.02.79-.3,1.2-1.31,1.11-.65-.05-1.18-.39-1.56-.92-.91-1.25-1.83-2.5-2.75-3.74-.16-.22-.32-.43-.51-.62-.18-.19-.33-.13-.37.13-.03.18-.02.37-.02.55,0,1.15.01,2.3.01,3.45,0,.2,0,.41-.04.61-.08.4-.3.64-.71.65-.43.02-.87-.02-1.3-.1-.39-.07-.6-.35-.62-.75-.01-.37-.02-.74-.01-1.11.01-2.3.02-4.6.04-6.9,0-1.11.14-1.21,1.25-1.26.78-.03,1.35.21,1.8.86.82,1.19,1.7,2.33,2.55,3.5.05.07.09.14.15.19.12.1.26.27.37.26.24-.03.19-.27.18-.45-.03-1.17-.07-2.34-.09-3.51,0-.73.1-.82.82-.84.44-.01.87-.02,1.31,0,.59.02.73.15.76.74.03.43.01.86.01,1.29,0,.99,0,1.97,0,2.96h0Z"/>
  <path d="m268.48,79.33c0-1.29,0-2.59,0-3.88,0-.78.15-.92.95-.95,1.53-.07,1.62-.01,2.51,1.25.81,1.15,1.63,2.28,2.45,3.42.08.12.17.24.27.34.14.14.29.1.34-.07.06-.21.07-.44.06-.67-.02-1.05-.06-2.09-.08-3.14,0-.18.02-.37.04-.55.05-.33.25-.53.58-.55.46-.03.92-.05,1.37-.01.49.04.64.23.65.73.01.84,0,1.68,0,2.53,0,1.72,0,3.45,0,5.17,0,.37-.05.74-.14,1.09-.11.42-.36.58-.79.53-.79-.1-1.47-.39-1.95-1.07-.93-1.32-1.87-2.62-2.82-3.92-.17-.24-.43-.42-.65-.63-.32.25-.17.6-.17.91-.01,1.15.01,2.3,0,3.45,0,.98-.21,1.17-1.22,1.21-.12,0-.25,0-.37,0-.67-.05-.99-.35-1.03-1-.02-.47,0-.94-.01-1.42,0-.92,0-1.85,0-2.77Z"/>
  <path d="m236.97,79.44c0-1.4,0-2.79,0-4.19,0-.68.05-.75.75-.75,1.52,0,3.04.03,4.56.01,1.75-.02,3.27,2.24,3.02,3.48-.04.2-.04.41-.06.61-.09.84-.46,1.52-1.18,2-.55.37-.56.67-.18,1.23.44.64.9,1.28,1.27,1.97.37.69.26.82-.52.82-.19,0-.38-.02-.56,0-.82.1-1.41-.28-1.88-.88-.25-.32-.44-.69-.68-1.03-.28-.41-.56-.81-.86-1.2-.09-.11-.29-.24-.38-.21-.12.05-.24.24-.25.38-.05.45-.07.9-.08,1.34,0,.18.04.37.04.55,0,.69-.18.9-.86.93-.44.02-.87.02-1.31,0-.65-.03-.84-.25-.84-.89,0-1.19.02-2.38.02-3.57,0-.21,0-.41,0-.62h-.01Zm3.94-.51c.21-.02.4-.02.58-.05.97-.14,1.08-.28.99-1.23-.05-.46-.16-.64-.62-.71-.51-.07-1.03-.06-1.54-.06-.26,0-.44.16-.43.42.02.4.05.81.13,1.21.03.14.22.29.37.35.16.07.36.05.53.06Z"/>
  <path d="m69.71,79.4c0-1.36,0-2.71,0-4.07,0-.73.1-.85.82-.83,1.35.02,2.71.02,4.06.12,1.89.15,3.16,1.25,3.87,2.9.63,1.46.54,2.96-.17,4.42-.62,1.27-1.72,1.92-3,2.33-.49.16-1.02.2-1.54.23-.96.06-1.91.07-2.87.1-.83.03-1.18-.29-1.18-1.13,0-1.36,0-2.71,0-4.07h0Zm2.92-.1h0c0,.62-.02,1.23,0,1.85.03.8.32,1.05,1.1.89.38-.08.75-.23,1.12-.37.5-.2.79-.58.92-1.09.06-.26.14-.52.14-.79,0-.76-.02-1.55-.62-2.12-.58-.54-1.3-.8-2.1-.8-.47,0-.55.07-.56.53-.01.64,0,1.27,0,1.91Z"/>
  <path d="m218.61,74.48c.77.03,1.54.03,2.3.11,2.2.22,3.47,1.57,4.09,3.54.62,1.97.04,4.33-2.11,5.62-.8.48-1.69.7-2.61.74-1.16.05-2.33.06-3.49.07-.58,0-.83-.25-.83-.83,0-2.85,0-5.7.02-8.56,0-.58.06-.65.64-.66.66-.02,1.33,0,2,0,0,0,0-.02,0-.03Zm3.76,4.83c-.06-.36-.08-.74-.2-1.08-.11-.3-.27-.64-.52-.81-.62-.43-1.34-.65-2.11-.61-.56.03-.67.17-.67.74,0,1.15,0,2.29,0,3.44,0,.18,0,.37.05.55.09.41.32.64.74.59.95-.11,1.82-.42,2.31-1.34.24-.46.38-.95.4-1.48Z"/>
  <path d="m204.48,79.33c0-1.27,0-2.55,0-3.82,0-.86.13-.98,1.02-1.01.17,0,.33,0,.5,0,.76-.03,1.3.29,1.72.92.83,1.23,1.68,2.45,2.53,3.67.11.15.21.3.34.44.2.24.34.21.4-.1.06-.3.07-.61.06-.91-.01-1.03-.06-2.05-.06-3.08,0-.69.19-.86.9-.91.31-.02.63-.03.94,0,.64.05.8.21.8.85,0,2.03,0,4.07,0,6.1,0,.55.01,1.11,0,1.66-.04,1.3-.67,1.7-1.88,1.21-.4-.16-.71-.42-.96-.76-.78-1.09-1.56-2.18-2.36-3.26-.32-.43-.68-.83-1.03-1.23-.06-.06-.18-.08-.27-.11-.04.09-.1.18-.1.27-.01.23,0,.45,0,.68.03,1.11.08,2.22.09,3.32,0,1.08-.23,1.29-1.33,1.28-.15,0-.29,0-.44-.03-.54-.09-.81-.36-.84-.91-.03-.47-.02-.94-.02-1.42,0-.95,0-1.89,0-2.84Z"/>
  <path d="m227.21,79.44c0-1.38,0-2.75,0-4.13,0-.72.09-.81.84-.82,1.85,0,3.71,0,5.56.01.12,0,.25.01.37.04.52.1.63.22.64.73,0,.33.01.66,0,.99-.02.5-.08.57-.59.58-.89.02-1.79,0-2.69,0-.21,0-.42,0-.62.03-.14.02-.33.07-.38.16-.13.22-.27.49-.25.72.03.29.35.31.6.32.9,0,1.79,0,2.69,0,.78,0,.9.09,1.02.83.04.26.07.53.07.8-.01.59-.29.86-.89.87-.73.01-1.46,0-2.19,0-.21,0-.42,0-.62,0-.32,0-.5.14-.59.44-.22.74.01,1.06.84,1.08.79.02,1.58.02,2.37.02.15,0,.29,0,.44,0,.6.04.77.2.79.8.01.35.02.7-.02,1.05-.03.37-.18.49-.56.54-.08.01-.17.01-.25.01-1.92,0-3.83,0-5.75,0-.71,0-.84-.15-.84-.84,0-1.42,0-2.83,0-4.25,0,0,0,0,0,0Z"/>
  <path d="m169.48,79.41c0-1.32,0-2.63,0-3.95,0-.79.14-.95.94-.96,1.83-.01,3.67-.01,5.5,0,.71,0,.87.16.96.86.04.28.06.58.01.85-.08.49-.24.62-.76.63-.96.01-1.92,0-2.87,0-.19,0-.38-.02-.56.02-.17.05-.36.14-.45.27-.38.53-.18.92.48.94.94.02,1.87,0,2.81,0,.69,0,.78.06.87.74.04.3.08.61.07.92-.03.62-.4.89-1.03.87-.87-.03-1.75-.04-2.62-.03-.51,0-.69.26-.69.88,0,.44.15.62.65.63.93.03,1.87.02,2.8.03,1.09.01,1.27-.08,1.31,1.16,0,.14.04.29.04.43,0,.42-.13.6-.56.68-.35.07-.7.1-1.05.1-1.58.02-3.17.02-4.75.03-.92,0-1.08-.13-1.09-1.07-.01-1.11,0-2.22,0-3.33,0-.25,0-.49,0-.74Z"/>
  <path d="m80.98,79.42c0-1.27,0-2.55,0-3.82,0-.16,0-.33,0-.49.04-.42.14-.53.57-.58.21-.03.42-.03.62-.03,1.71,0,3.41.03,5.12.01.48,0,.78.15.98.58.23.49.27.95-.05,1.4-.08.12-.26.22-.41.25-.32.07-.66.11-.99.11-.87.02-1.75,0-2.62.01-.24,0-.52-.03-.59.32-.08.41.08.84.41.94.23.07.49.08.74.08.81,0,1.62-.04,2.43-.04.47,0,.54.05.61.5.06.34.1.69.12,1.04.04.59-.18.85-.78.87-.71.02-1.42,0-2.12,0-.31,0-.63,0-.94.02-.39.03-.45.12-.48.5-.06.81.22,1.08,1.05,1.05.97-.03,1.95-.04,2.92-.04.38,0,.63.18.71.57.07.36.11.73.12,1.1,0,.33-.2.54-.51.61-.35.07-.7.13-1.05.13-1.44.02-2.87.01-4.31,0-.29,0-.58-.03-.87-.07-.53-.08-.67-.23-.7-.76-.02-.27,0-.53,0-.8,0-1.15,0-2.3,0-3.45h0Z"/>
  <path d="m266.39,79.94c.3,2.53-2.67,4.71-4.88,4.68-2.44-.03-4.89-1.88-4.98-4.72-.04-1.26.35-2.52,1.3-3.44.97-.94,2.16-1.55,3.56-1.58,2.69-.07,5.22,2.43,5,5.05Zm-2.91-.23c0-1.14-.1-1.5-.57-2.06-.84-.99-2.46-.88-3.05.24-.52,1-.55,2.05-.15,3.1.28.74.86,1.14,1.67,1.17.8.03,1.39-.32,1.79-1.01.29-.48.32-1.01.3-1.44Z"/>
  <path d="m119.89,84.56c-.37-.04-.74-.09-1.11-.13-.37-.04-.61-.24-.72-.59-.44-1.34-.88-1.32-1.98-1.31-.48,0-.96-.03-1.43-.05-.58-.03-.79.13-.91.68-.22,1.07-.54,1.34-1.65,1.34-.33,0-.67-.05-.98-.15-.35-.11-.43-.33-.34-.68.04-.16.11-.31.17-.46.5-1.26,1.01-2.52,1.5-3.78.54-1.4,1.08-2.8,1.6-4.21.15-.41.42-.66.86-.68.6-.03,1.21-.04,1.81-.04.35,0,.58.2.7.52.17.44.34.88.51,1.32.62,1.65,1.24,3.31,1.87,4.96.21.56.48,1.09.72,1.64.12.28.26.56.37.85.24.64.18.72-.49.73-.17,0-.33,0-.5,0,0,0,0,.02,0,.03Zm-3.27-4.77c-.12-.5-.23-.99-.38-1.48-.03-.11-.2-.24-.31-.25-.1,0-.25.13-.3.24-.22.51-.44,1.02-.61,1.55-.05.15-.03.4.07.5.27.28.65.24.99.13.36-.11.51-.33.55-.69Z"/>
  <path d="m43.79,84.48c-.81.05-1.62.07-2.4-.16-.4-.12-.63-.44-.7-.81-.16-.78-.71-.93-1.38-.95-.62-.01-1.25-.04-1.87-.02-.57.02-.67.13-.8.66-.21.88-.66,1.26-1.56,1.31-.27.01-.54.02-.81,0-.4-.04-.56-.21-.54-.61,0-.2.06-.41.13-.6,1.05-2.68,2.1-5.36,3.15-8.05.17-.43.45-.69.91-.71.42-.02.83-.02,1.25-.01.64.01,1.05.36,1.28.91.1.24.15.51.25.76.9,2.34,1.79,4.69,2.71,7.03.15.4.44.74.4,1.25Zm-5.93-4.74c0,.06,0,.12,0,.18.05.47.4.75.9.71.4-.03.62-.3.56-.79-.06-.46-.17-.92-.32-1.37-.12-.37-.34-.4-.58-.12-.34.4-.56.85-.57,1.39Z"/>
  <path d="m201.51,84.54c-.1,0-.29-.02-.48-.03-.8-.06-1.34-.43-1.49-1.24-.08-.45-.38-.64-.77-.66-.91-.04-1.83-.05-2.74-.06-.26,0-.42.15-.49.39-.08.26-.15.51-.23.77-.15.45-.45.73-.95.77-.41.03-.83.04-1.25.03-.37,0-.53-.18-.51-.54,0-.2.07-.4.15-.59.98-2.53,1.97-5.05,2.94-7.59.42-1.09.58-1.25,1.76-1.26,1.65,0,1.52.15,1.97,1.23.72,1.72,1.36,3.48,2.04,5.23.32.82.63,1.65.94,2.48.04.1.08.19.11.29.16.54,0,.76-.59.79-.1,0-.21,0-.4,0Zm-4.8-4.71c.09.25.12.48.24.62.23.25.56.23.87.14.29-.08.47-.25.5-.56.07-.7-.26-1.27-.62-1.83-.12-.19-.32-.13-.39.05-.22.52-.41,1.06-.61,1.57Z"/>
  <path d="m181.91,84.66c-.38-.08-1.13-.23-1.87-.4-.52-.12-.84-.45-.94-.96-.07-.34-.12-.69-.12-1.03,0-.55.22-.67.77-.51.68.2,1.35.39,2.04.56.3.07.63.1.93.07.3-.04.61-.15.87-.3.31-.17.35-.42.09-.66-.28-.26-.61-.49-.96-.66-.43-.2-.91-.3-1.35-.48-.46-.19-.91-.41-1.34-.65-1.04-.58-1.52-1.83-1.03-3.17.3-.82.91-1.3,1.66-1.66,1.46-.69,2.93-.64,4.42-.08.36.13.64.35.69.73.07.56.13,1.14.1,1.71-.02.43-.17.46-.55.24-.84-.49-1.7-.86-2.71-.79-.15.01-.29.02-.43.04-.25.05-.5.11-.52.43-.02.31.03.58.36.71.17.07.34.15.52.22.57.21,1.14.4,1.7.61.31.12.62.24.91.41,2.26,1.3,1.63,3.89-.07,4.87-.84.48-1.76.73-3.13.74Z"/>
  <path d="m250.56,84.66c-.91-.01-1.76-.27-2.61-.55-.32-.11-.54-.32-.58-.66-.05-.43-.13-.86-.11-1.28.03-.59.21-.65.76-.44.58.22,1.17.45,1.77.57.48.1.99.1,1.48.05.31-.03.63-.21.9-.38.29-.17.3-.39.02-.59-.32-.23-.67-.41-1.03-.56-.58-.23-1.18-.4-1.76-.63-1.19-.46-1.95-1.29-2.15-2.57-.09-.55,0-1.06.31-1.53.38-.59.89-1.06,1.53-1.32.99-.41,2.02-.65,3.1-.38.4.1.81.19,1.2.33.59.2.91.62.96,1.24.02.31.06.61.07.92.03.51-.21.68-.7.49-.25-.1-.49-.23-.73-.34-.82-.37-1.68-.47-2.56-.37-.23.03-.54.13-.63.3-.15.29.09.58.33.72.43.24.9.42,1.36.6.54.22,1.11.36,1.62.63,1.59.83,2.11,2.26,1.47,3.9-.24.62-.75.99-1.32,1.24-.86.38-1.75.65-2.71.62Z"/>
  <path d="m52.68,76.27c-.06.46-.09.8-.17,1.14-.05.25-.22.33-.47.2-.33-.18-.66-.36-1-.51-1.77-.79-3.41.57-3.32,2.1.03.49.07.99.2,1.45.17.58.6.98,1.2,1.16.81.25,1.62.4,2.42-.06.07-.04.15-.07.23-.09.64-.18.9-.05.86.6-.02.29,0,.57,0,.86.01.51-.23.86-.7,1.06-.86.38-1.74.52-2.67.32-.91-.2-1.74-.52-2.49-1.08-2.67-2.02-2.74-5.81-.12-7.87,1.36-1.07,2.9-1.49,4.62-1.06.45.11.92.27,1.13.7.17.35.2.78.27,1.08Z"/>
  <path d="m62.12,76.5c0,.21.01.41,0,.62-.03.45-.18.54-.53.28-.67-.48-1.4-.56-2.19-.46-1.05.13-1.68.78-1.93,1.69-.29,1.03-.19,2.05.73,2.81.2.17.44.33.69.4.92.28,1.84.33,2.72-.14.24-.13.4-.01.44.17.15.71.2,1.43-.22,2.08-.07.11-.21.21-.34.26-.78.3-1.57.51-2.43.34-2.49-.52-4.06-1.96-4.65-4.42-.27-1.11.02-2.15.57-3.08.99-1.66,2.53-2.59,4.47-2.78.48-.05,1,.03,1.48.14.78.18,1.11.6,1.18,1.39.02.22,0,.45,0,.68,0,0,0,0,.01,0Z"/>
  <path d="m106.02,74.52c1.04,0,2.08,0,3.12,0,.12,0,.25,0,.37,0,.99.05,1.11.17,1.11,1.12,0,.12,0,.25,0,.37,0,.83-.02.84-.89.85-.48,0-.96,0-1.44,0-.84,0-.94.09-.94.91,0,1.83,0,3.65,0,5.48,0,.06,0,.12,0,.18,0,.9-.19,1.1-1.09,1.08-.37,0-.75,0-1.12-.06-.44-.07-.61-.26-.66-.69-.03-.2-.02-.41-.02-.61,0-1.76,0-3.53,0-5.29,0-.16,0-.33,0-.49-.03-.39-.1-.47-.49-.49-.39-.02-.79,0-1.19-.01-.21,0-.42,0-.62-.03-.51-.07-.65-.22-.68-.71-.02-.27-.01-.53,0-.8.02-.57.11-.68.67-.77.23-.03.46-.04.68-.04,1.06,0,2.12,0,3.18,0h0Z"/>
  <path d="m143.7,84.53c-.31-.03-.62-.07-.93-.08-.34,0-.48-.21-.52-.5-.02-.14-.02-.29-.02-.43,0-.37-.03-.74.01-1.11.14-1.37-.28-2.58-.99-3.74-.76-1.23-1.44-2.49-2.15-3.75-.06-.11-.14-.3-.09-.38.06-.09.25-.12.38-.12.48.01.95.06,1.43.08.62.03,1.06.31,1.34.86.19.37.36.74.57,1.1.27.46.56.91.87,1.35.22.32.38.3.63,0,.05-.06.1-.13.14-.2.4-.76.82-1.52,1.18-2.3.24-.51.59-.78,1.14-.79.42-.01.83-.03,1.25-.02.63.01.75.21.44.77-.69,1.24-1.4,2.47-2.11,3.7-.11.2-.22.39-.34.59-.65,1.03-.94,2.13-.83,3.35.03.31.02.62,0,.92-.03.46-.18.61-.65.66-.25.03-.5,0-.75,0,0,.01,0,.02,0,.03Z"/>
  <path d="m131.73,79.48c0-1.21,0-2.42,0-3.63,0-.16,0-.33.01-.49.05-.65.22-.82.89-.85.43-.02.88-.02,1.31.04.59.07.69.2.69.8,0,1.81,0,3.61,0,5.42,0,.18,0,.37,0,.55.04.63.21.81.84.82.91.02,1.83,0,2.74,0,.66,0,.84.15.9.8.02.29.03.57,0,.86-.03.54-.18.69-.72.71-.5.02-1,.01-1.5.01-1.37,0-2.74.01-4.12.01-.86,0-1.07-.21-1.07-1.05,0-1.33,0-2.67,0-4,0,0,0,0,.01,0Z"/>
  <path d="m122.73,79.48c0-1.21,0-2.42,0-3.63,0-.14,0-.29,0-.43.04-.7.21-.88.9-.91.46-.01.92,0,1.37.05.53.07.62.2.62.74,0,1.01,0,2.01,0,3.02,0,.96,0,1.93,0,2.89.01.76.19.93.97.94.89,0,1.79,0,2.68,0,.66,0,.79.14.82.8.02.27.03.53.02.8-.01.46-.12.58-.57.65-.33.05-.66.09-.99.09-1.6.02-3.2.03-4.81.03-.78,0-1.04-.26-1.05-1.05-.01-1.33,0-2.67,0-4,0,0,0,0,0,0Z"/>
  <path d="m64.48,79.5c0-1.35,0-2.71,0-4.06,0-.77.2-.98.98-1.03.37-.02.75-.02,1.12.03.51.06.65.21.67.72.05,1.39.12,2.78.12,4.18,0,1.45-.06,2.91-.11,4.36-.02.7-.24.9-.95.93-.39.01-.79,0-1.18,0-.35,0-.54-.18-.58-.52-.03-.24-.05-.49-.05-.73,0-1.29,0-2.58,0-3.88Z"/>
</svg>