<?xml version="1.0" encoding="utf-8"?>
<svg xmlns="http://www.w3.org/2000/svg" data-name="Layer 2" id="Layer_2" viewBox="0 0 150.67 118.39">
  <defs>
    <style>
      .cls-1 {
        fill: #616161;
      }
    </style>
  </defs>
  <path class="cls-1" d="m133.64,106.86H19.77c-.31,0-.64-.06-.94.01-1.7.42-2.1-.39-1.9-1.9.11-.81.12-1.63.12-2.44V15.44c0-2.67,1.34-4,4.01-4h109.48c.63,0,1.33-.14,1.86.1.58.26,1.22.34,1.21,1.6-.06,24.98.02,49.96.09,74.94,0,5.79.05,11.58.07,17.38,0,.43-.08.85-.14,1.39h0Zm-31.09-13c.35.11.7.31,1.05.31,5.59.02,11.18.04,16.76,0,.57,0,1.13-.31,1.35-.38v-59.97h-4.9c-.6-.12-1.2-.35-1.79-.34-5.05.09-10.1.22-15.15.34-1.74-.02-3.48-.03-5.22-.05-.28-.1-.56-.29-.84-.29-4.91-.02-9.82-.02-14.73,0-.46,0-.92.24-1.39.37-1.65-.03-3.31-.06-4.96-.09-5.54-.03-11.08-.06-16.62-.09-.12,0-.23.09-.35.14h-5.08c-5.14-.11-10.29-.23-15.43-.32-.46,0-.93.18-1.4.27-1.44,0-2.89-.08-4.33.04-.39.03-1.05.66-1.05,1.02-.02,3.26.14,6.51.14,9.77.02,16.52,0,33.04,0,49.62,8.91,0,17.57.02,26.23-.02,1.34,0,2.68-.23,4.03-.36,3.54-.02,7.09-.06,10.63-.05,11.01.02,22.03.05,33.04.08h0Z"/>
  <path d="m116.81,33.82h4.9v59.98c-.22.07-.78.37-1.35.38-5.59.03-11.18.02-16.76,0-.35,0-.7-.2-1.05-.31h-.03c.12-.13.33-.26.33-.38-.02-3.23-.06-6.45-.1-9.68-.38-.16-.77-.44-1.15-.45-2.05-.04-4.1-.02-6.16-.02-4.16,0-4.72-.72-3.87-4.89.04-.22.11-.43.16-.64-.35-.07-.7-.21-1.05-.21-13.5,0-26.99,0-40.49.02-.72,0-1.45.19-2.17.3-.04,3.01-.03,6.02-.16,9.03-.06,1.46.36,2,1.9,1.95,3.12-.12,6.24-.04,9.11-.04v4.98c-1.34.12-2.68.35-4.03.36-8.66.03-17.32.02-26.23.02,0-16.58.01-33.1,0-49.62,0-3.26-.16-6.51-.14-9.77,0-.36.66-.99,1.05-1.02,1.43-.12,2.88-.04,4.33-.04.11.66.31,1.33.31,1.99.02,6.73.01,13.46.01,20.19v3.95h16.51v-26.08h5.08c.12.65.35,1.31.35,1.96.03,6.48.02,12.96.02,19.44v4.66h16.6v-26.11c1.65.03,3.31.06,4.96.09.13.65.36,1.3.36,1.96.03,5.29.02,10.58.02,15.86v8.19h16.57v-26.09c1.74.02,3.48.03,5.22.04.09.61.25,1.22.25,1.83.02,7.11,0,14.21,0,21.32v2.98h16.53v-2c0-4.65-.02-9.31,0-13.96.02-3.39.09-6.78.14-10.17h.02Z"/>
  <path class="cls-1" d="m91.74,77.82c-.48.07-.97.21-1.45.21-13.78.01-27.57.01-41.35,0-.31,0-.61-.07-.92-.12.73-.11,1.45-.3,2.17-.3,13.5-.02,26.99-.02,40.49-.02.35,0,.7.14,1.05.21v.02Z"/>
  <path class="cls-1" d="m102.52,93.87c.08-3.36.16-6.71.24-10.06.04,3.23.08,6.45.1,9.68,0,.13-.22.26-.33.38h-.01Z"/>
</svg>