<?xml version="1.0" encoding="utf-8"?>
<svg xmlns="http://www.w3.org/2000/svg" data-name="Layer 3" id="Layer_3" viewBox="0 0 165.52 37.21">
  <path d="m124.11,11.99c-.04.09-.09.18-.12.27-1.71,5.97-3.87,11.79-5.81,17.69-.09.26-.23.33-.46.33-.87,0-1.73-.02-2.6,0-.28,0-.33-.17-.39-.37-.58-1.85-1.19-3.69-1.74-5.54-1-3.38-1.97-6.77-2.94-10.16-.2-.7-.34-1.41-.61-2.12-.02.15-.04.31-.04.46-.08,2.18-.14,4.35-.24,6.53-.13,2.77-.29,5.54-.44,8.32-.05.93-.11,1.86-.15,2.78-.01.29-.13.39-.42.38-1.04-.01-2.08-.02-3.12,0-.32,0-.39-.13-.37-.4.08-1.22.16-2.44.24-3.66.15-2.31.31-4.61.46-6.92.23-3.39.46-6.78.69-10.18.03-.48,0-.95,0-1.46.14-.01.24-.03.34-.03,1.63,0,3.25,0,4.88,0,.26,0,.4.07.49.34,1.66,5.16,3.5,10.27,4.71,15.57.07.3.16.6.28,1,.09-.18.15-.25.17-.33.81-3.58,1.97-7.05,3.18-10.5.66-1.89,1.33-3.78,1.97-5.67.1-.3.24-.41.57-.4,1.53.02,3.06.02,4.6,0,.31,0,.42.09.44.4.16,2.9.32,5.81.49,8.71.17,2.94.35,5.89.53,8.83.08,1.41.16,2.81.25,4.22.03.39-.09.51-.49.5-1.03-.02-2.05-.04-3.08,0-.48.02-.54-.21-.55-.56-.04-.92-.07-1.83-.11-2.75-.13-2.72-.28-5.44-.38-8.16-.08-2.31-.08-4.62-.12-6.93,0-.05-.01-.1-.02-.14l-.1-.02Z"/>
  <path d="m21.35,26.61c.16.76.31,1.48.46,2.21,0,.03,0,.05.01.08.2,1,.21,1.03-.76,1.31-2.46.7-4.96.84-7.48.45-1.89-.29-3.62-.98-5.13-2.16-1.92-1.5-3.08-3.49-3.61-5.85-.57-2.56-.52-5.1.35-7.58,1.16-3.34,3.44-5.62,6.78-6.76,3.21-1.1,6.46-1.04,9.69,0,.58.19.56.22.4.82-.25.89-.49,1.79-.76,2.73-.17-.07-.3-.12-.43-.17-2.48-.88-4.98-1.04-7.46-.08-2.24.87-3.6,2.6-4.2,4.89-.54,2.06-.52,4.14.21,6.16.96,2.67,2.93,4.21,5.71,4.6,2.03.29,4.07.21,6.01-.61.05-.02.1-.02.21-.03Z"/>
  <path d="m76.15,13.81c1.43-.07,2.8.2,4.08.82,1.89.92,3.17,2.4,3.83,4.38.72,2.16.72,4.35-.01,6.49-1.05,3.08-3.33,4.73-6.47,5.27-1.72.29-3.4.11-5.01-.58-2.51-1.09-3.98-3.05-4.51-5.69-.41-2.05-.29-4.09.58-6.01,1.46-3.22,4.12-4.56,7.52-4.68Zm4.03,8.52c0-.29.02-.59,0-.88-.1-1.35-.49-2.59-1.44-3.58-1.67-1.75-4.58-1.28-5.75.98-1.18,2.26-1.15,4.62-.05,6.9.82,1.71,2.5,2.47,4.21,2,1.28-.35,2.04-1.3,2.54-2.46.41-.94.57-1.93.49-2.96Z"/>
  <path d="m38.92,14.13c0,.22,0,.37,0,.53,0,3.77-.01,7.55,0,11.32,0,1.42.09,2.84.14,4.26,0,.2-.04.3-.26.3-1.13,0-2.26,0-3.43,0-.07-.84-.14-1.65-.21-2.41-.49.5-.94,1.04-1.47,1.48-1.92,1.56-5,1.72-7.08.37-1.27-.82-1.93-2.08-2.23-3.51-.19-.89-.29-1.81-.31-2.72-.04-3.08-.02-6.17-.03-9.25,0-.29.08-.39.39-.39,1.15.02,2.29.02,3.44,0,.32,0,.4.11.4.42-.01,2.76-.03,5.53,0,8.29,0,.82.08,1.65.27,2.44.65,2.69,3.62,2.75,5.11,1.27.72-.72,1.09-1.6,1.09-2.61,0-3.08-.02-6.16-.05-9.25,0-.55-.02-.55.52-.55,1.21,0,2.42,0,3.7,0Z"/>
  <path d="m133.29,17.87c-.19-.63-.38-1.27-.58-1.91-.23-.76-.24-.77.48-1.09,2.4-1.05,4.9-1.37,7.45-.83,2.53.53,4.09,2.27,4.46,4.84.1.68.14,1.37.15,2.06.02,2.35,0,4.7.03,7.05,0,.83.11,1.66.17,2.54-.61,0-1.2,0-1.8,0-.49,0-.99,0-1.48,0-.46,0-.54-.09-.58-.56-.03-.41-.08-.81-.14-1.32-.14.15-.21.22-.27.29-1.64,1.81-4.78,2.47-7.03,1.46-1.82-.81-2.91-2.58-2.84-4.59.07-2.09,1.05-3.62,2.89-4.62,1.63-.89,3.4-1.19,5.22-1.33.42-.03.85-.08,1.28-.07.4.02.43-.17.39-.48-.19-1.58-1.19-2.49-2.88-2.58-1.59-.08-3.09.26-4.51.98-.09.05-.19.1-.29.14-.02,0-.05,0-.13,0Zm7.83,4.71c-1.24-.06-2.43-.02-3.57.4-1.54.56-2.07,1.33-2.03,2.96.02.8.41,1.38,1.14,1.73.63.3,1.29.29,1.95.15,1.25-.26,2.42-1.38,2.5-2.49.06-.9.01-1.8.01-2.75Z"/>
  <path d="m96.45,9.87c-.52-.08-1.01-.19-1.51-.22-1.47-.1-2.48.59-2.83,2.02-.17.71-.15,1.47-.21,2.21-.02.26.16.26.34.26.97,0,1.95,0,2.92,0,.1,0,.21.01.36.02,0,.73,0,1.44,0,2.16,0,.98,0,.98-.99.98-.76,0-1.52.02-2.28,0-.3,0-.35.11-.35.37,0,4.14,0,8.29,0,12.43,0,.35-.09.45-.44.45-1.09-.02-2.19-.03-3.28,0-.44.01-.5-.15-.49-.53.01-3.88,0-7.76,0-11.64,0-1.09,0-1.08-1.07-1.09-.38,0-.88.09-1.1-.11-.19-.18-.06-.7-.07-1.07,0-.54,0-1.09-.01-1.63,0-.28.09-.38.37-.37.51.02,1.01-.01,1.52.02.31.02.37-.09.37-.39,0-1.36.18-2.7.72-3.97.86-2.02,2.46-3.06,4.58-3.39,1.08-.17,2.15-.05,3.21.17.38.08.5.25.45.64-.1.88-.17,1.77-.25,2.67Z"/>
  <path d="m58.56,27.37c.03.95.07,1.92.08,2.88,0,.1-.15.26-.26.28-1.72.4-3.45.58-5.13-.17-1.26-.56-1.94-1.61-2.25-2.92-.33-1.4-.25-2.83-.27-4.24-.03-1.83-.05-3.67-.04-5.5,0-.36-.12-.42-.44-.41-.51.02-1.01,0-1.52,0-.26,0-.39-.07-.38-.36.02-.82.02-1.65,0-2.47,0-.29.1-.37.38-.36.53.02,1.07-.01,1.6,0,.29.01.36-.09.36-.36,0-.98.02-1.96.03-2.95,0-.2.01-.36.26-.42,1.19-.27,2.38-.55,3.58-.82.08-.02.16-.01.27-.02,0,.22,0,.43,0,.64,0,1.18,0,2.36-.01,3.55,0,.3.09.39.38.39,1.05-.01,2.11,0,3.16-.01.36,0,.49.08.48.47-.03.77-.01,1.54,0,2.31,0,.3-.07.42-.4.42-1.09-.02-2.18,0-3.28-.01-.22,0-.34.03-.34.3.01,2.43,0,4.86.02,7.29,0,.43.1.87.23,1.29.25.84.8,1.25,1.68,1.27.58.01,1.16-.04,1.82-.07Z"/>
  <path d="m160.35,17.63c-.41-.12-.79-.25-1.19-.35-1.09-.28-2.19-.35-3.28-.09-1.57.37-2.7,1.32-3.27,2.83-.8,2.12-.64,4.16.83,5.97.78.96,1.86,1.44,3.09,1.54,1.34.11,2.65-.02,3.95-.59.16.81.33,1.57.45,2.33.13.84.12.84-.72,1.07-2.37.64-4.75.82-7.12,0-3.08-1.07-4.7-3.33-5.11-6.5-.21-1.59-.08-3.16.5-4.66,1.09-2.81,3.2-4.45,6.09-5.1,2.04-.46,4.07-.35,6.07.31.37.12.47.29.37.67-.21.78-.38,1.57-.57,2.36-.02.07-.06.14-.1.23Z"/>
  <path d="m42,6.64h4.25v23.9c-.78,0-1.55,0-2.31,0-.52,0-1.04-.02-1.56,0-.32.02-.41-.1-.41-.41.01-2.07,0-4.14,0-6.22,0-5.63,0-11.26,0-16.9,0-.12.01-.23.02-.39Z"/>
</svg>