<?xml version="1.0" encoding="utf-8"?>
<svg xmlns="http://www.w3.org/2000/svg" data-name="Layer 4" id="Layer_4" viewBox="0 0 169.72 41.82">
  <defs>
    <style>
      .cls-1 {
        fill: #292929;
      }
    </style>
  </defs>
  <path class="cls-1" d="m9.92,31.33c-1.19,0-2.17-.02-3.15,0-.72.02-1.27-.48-1.27-1.24.02-5.81,0-11.63,0-17.44v-1.29c0-.5.48-.98.98-.98,2.06,0,4.12,0,6.17,0,.45,0,.91.14,1.36.24.78.18,1.5.53,2.19.94.78.46,1.4,1.09,1.96,1.78.32.4.63.82.85,1.28.26.53.43,1.09.61,1.65.19.6.23,1.23.24,1.87,0,1.73.03,3.47.02,5.2,0,1.68-.48,3.22-1.48,4.59-.3.42-.61.84-.98,1.2-1.14,1.1-2.51,1.77-4.07,2.06-1.21.22-2.43.02-3.43.11v.02Zm-1.88-10.5v7.86c0,.2.06.27.26.27,1.29,0,2.59,0,3.88,0,.18,0,.37,0,.55-.04,1.68-.23,2.92-1.13,3.81-2.53.59-.91.82-1.93.81-3,0-1.77-.02-3.54-.04-5.31,0-.33-.03-.66-.08-.98-.2-1.2-.82-2.18-1.72-2.99-.85-.76-1.83-1.28-2.99-1.32-1.43-.04-2.86-.03-4.29-.04-.18,0-.2.09-.2.24v7.84h.01Z"/>
  <path class="cls-1" d="m93.11,20.75v-9.34c0-.58.38-.97.95-1.01.33-.02.66,0,1,0,1.63,0,3.25-.02,4.88,0,1.18.02,2.31.32,3.35.9.89.49,1.66,1.11,2.33,1.87.55.63.96,1.35,1.28,2.11.15.35.27.72.35,1.09.09.39.13.79.17,1.18.03.27.06.55.06.82,0,1.76.02,3.52,0,5.29,0,1.11-.28,2.16-.79,3.16-.41.81-.91,1.56-1.51,2.22-.6.66-1.34,1.18-2.18,1.53-.53.22-1.07.4-1.62.57-.22.07-.45.09-.68.12-.9.14-1.81.03-2.72.05-.93.02-1.85,0-2.78,0-.41,0-.81.07-1.22.05-.13,0-.26-.17-.38-.26-.4-.29-.48-.7-.48-1.17v-9.2h0v.03Zm2.48,8.19h4.38c.68,0,1.33-.18,1.93-.49.92-.48,1.7-1.12,2.24-2.03.51-.85.81-1.75.81-2.75v-5.21c0-.32-.13-.65-.09-.96.05-.36,0-.7-.15-1-.23-.52-.47-1.06-.8-1.52-.93-1.29-2.19-2.07-3.8-2.18-.96-.07-1.92-.03-2.88-.04h-1.35c-.15,0-.28,0-.21.23.03.07-.02.17-.02.25v14.65c0,.08,0,.16,0,.24-.02.27-.03.54-.05.81h0Z"/>
  <path class="cls-1" d="m121.69,21.74s-.09-.04-.11-.05c-.13.09-.22.19-.33.23-.49.19-.98.37-1.49.56.23.36.46.72.69,1.09.57.92,1.17,1.83,1.71,2.76.25.43.52.84.85,1.22.16.19.22.47.35.69.24.38.51.75.74,1.13.24.39.46.78.66,1.18.17.34-.06.74-.45.76-.57.03-1.15.03-1.72,0-.14,0-.31-.17-.39-.3-.36-.55-.68-1.12-1.03-1.67-.38-.62-.77-1.23-1.15-1.85-.42-.69-.86-1.37-1.27-2.06-.19-.32-.34-.67-.52-.99-.09-.16-.25-.28-.35-.43-.29-.43-.55-.87-.84-1.3-.06-.09-.2-.18-.3-.18-.63-.02-1.26,0-1.89,0-.17,0-.21.08-.21.23v7.84c0,.58-.16.74-.75.74h-1.19c-.47,0-.59-.12-.59-.6v-2.55c0-5.54,0-11.07,0-16.61,0-.79.48-1.19,1.18-1.19,1.85,0,3.7,0,5.56,0,.93,0,1.81.27,2.63.73,1.67.93,2.69,2.34,3.03,4.2.19,1.02.15,2.07-.2,3.07-.39,1.11-1.05,2.03-1.92,2.81-.2.18-.43.33-.68.52v.02Zm-7.07-5.3h0v3.49c0,.22.09.25.27.25.95,0,1.91.03,2.86,0,.52,0,1.06,0,1.54-.13,1.31-.36,2.2-1.21,2.57-2.53.18-.66.13-1.33,0-2.01-.19-1.09-1.41-2.58-2.96-2.7-1.18-.09-2.37-.04-3.56-.05-.19,0-.38-.02-.56,0-.07,0-.17.13-.17.2,0,1.15,0,2.31,0,3.46h0Z"/>
  <path class="cls-1" d="m34.36,25.74h-7.49c-.24,0-.34.07-.41.3-.46,1.45-.95,2.89-1.43,4.34-.06.17-.11.34-.16.51-.07.24-.33.43-.65.44-.39,0-.77,0-1.16,0-.16,0-.31-.17-.47,0-.1-.11-.28-.21-.29-.32-.02-.21.04-.43.1-.63.19-.6.4-1.2.59-1.8.96-2.91,1.92-5.83,2.88-8.74.58-1.77,1.17-3.54,1.74-5.31.21-.64.4-1.3.61-1.94.17-.55.33-1.11.54-1.64.15-.38.26-.52.69-.53.62,0,1.24,0,1.86,0,.15,0,.31.07.46.1.21.05.16.23.21.37.24.7.5,1.38.76,2.07.13.34.28.68.4,1.03.1.29.14.61.24.9.11.33.26.65.38.98.08.24.13.48.21.72.21.62.43,1.23.65,1.85.02.07.03.14.04.22,0,.06,0,.13.02.18.27.63.38,1.31.63,1.94.2.51.39,1.03.51,1.56.1.49.36.92.48,1.39.13.5.31.99.47,1.48.16.48.33.96.49,1.44.17.53.32,1.07.5,1.61.24.72.49,1.43.73,2.14.02.06.04.12.06.18.12.5-.08.76-.6.76h-1.35c-.36,0-.49-.11-.6-.45-.42-1.29-.84-2.57-1.26-3.86-.14-.42-.27-.85-.4-1.29h.02Zm-.73-2.26c-1.05-3.28-2.1-6.53-3.15-9.78-.02,0-.04.02-.06.03-1.05,3.24-2.1,6.48-3.15,9.75h6.36Z"/>
  <path class="cls-1" d="m154.3,23.38v7.3c0,.5-.15.65-.66.65h-1.35c-.27,0-.41-.13-.48-.39-.15-.53-.02-1.05-.02-1.58-.02-5.51,0-11.02,0-16.53,0-.47-.02-.95-.02-1.42,0-.57.4-1,.98-1.02.31,0,.63,0,.94,0h4.31c.86,0,1.71.11,2.49.51.48.24.92.59,1.42.78.26.1.31.43.61.42.02,0,.04.03.06.05.29.33.6.65.85,1.01.19.27.34.57.48.87.3.63.48,1.31.58,2,.17,1.17,0,2.3-.45,3.39-.26.65-.73,1.17-1.14,1.72-.72.96-1.71,1.49-2.8,1.88-.68.25-1.4.36-2.13.36h-3.68.02Zm0-10.59v7.91c0,.22.06.3.28.3h3.26c1.04,0,1.96-.35,2.73-1.04,1.13-1.02,1.57-2.33,1.32-3.81-.33-1.96-2.05-3.36-4.05-3.38h-3.18c-.11,0-.23.02-.35.03h0Z"/>
  <path class="cls-1" d="m145.46,23.89c-.05.11-.07.18-.11.24-1.34,2.29-2.68,4.58-4.03,6.87-.27.45-.53.91-.81,1.35-.5.76-1.2,1.24-2.08,1.46-.36.09-.73.18-1.09.19-.58,0-1.09-.29-1.59-.55-.46-.24-.9-.52-1.34-.77-.9-.52-1.8-1.04-2.7-1.56-.31-.18-.64-.34-.93-.55-.38-.27-.78-.51-1.16-.77-.48-.33-.87-.72-1.25-1.13-.66-.71-1.06-1.55-1.16-2.53-.06-.63.13-1.17.45-1.71.44-.72,1.11-1.17,1.8-1.61.59-.38,1.24-.65,1.89-.91.3-.12.59-.28.9-.39.34-.11.7-.18,1.05-.26.5-.11.99-.25,1.49-.32.77-.11,1.54-.16,2.31-.23.48-.05.97-.08,1.45-.14.15-.02.24-.14.19-.32-.27-1-.53-2-.8-3-.11-.4-.22-.8-.32-1.19,0-.04,0-.13.02-.13.05,0,.12,0,.16,0,.36.17.59.45.8.78.78,1.24,1.59,2.46,2.38,3.69.11.16.24.18.41.18,1.46,0,2.93,0,4.39.05.29,0,.6.13.86.26.55.29.55.89.03,1.22-.36.23-.76.36-1.18.36-1.2,0-2.41,0-3.61-.03-1-.03-.73-.13-1.27.63-.77,1.07-1.52,2.17-2.29,3.24-.14.19-.32.37-.51.51-.11.08-.29.08-.44.13.45-1.43.89-2.81,1.32-4.19.02-.05.03-.1.04-.15.06-.28,0-.34-.28-.32-.42.03-.84.08-1.26.09-1.12.05-2.21.25-3.3.49-1.18.26-2.34.62-3.39,1.25-.57.34-1.11.73-1.46,1.32-.54.93-.43,1.88.48,2.61.33.27.68.53,1.04.75.61.36,1.24.67,1.86,1.02,1.22.69,2.43,1.39,3.65,2.09.43.25.85.5,1.37.5.86,0,1.52-.39,1.95-1.12.29-.48.52-.99.8-1.48.28-.49.61-.95.9-1.44.36-.6.71-1.2,1.06-1.81.43-.74.85-1.48,1.27-2.22.04-.06.07-.13.09-.19.05-.2.19-.26.38-.26.24,0,.51.07.72-.02.29-.12.53.05.83,0l.02.02Z"/>
  <path class="cls-1" d="m47.96,12.65v16.4h2.86c.43,0,.54.11.54.54v1.26c0,.28-.13.43-.41.46-.17.02-.34,0-.51,0h-7.82c-.56,0-.73-.19-.69-.75.02-.36,0-.72-.01-1.08,0-.09-.06-.23-.02-.26.12-.09.26-.15.4-.18s.29-.02.43-.02h2.65c.03-.28.08-.55.08-.83,0-1.74-.02-3.48-.03-5.22v-9.98c0-.25-.13-.38-.39-.38-.83,0-1.65,0-2.48,0-.53,0-.64-.11-.64-.64v-1.1c0-.41.32-.66.73-.56.09.02.19.04.29.04h7.77c.55,0,.66.11.66.65v1.1c0,.39-.1.51-.51.52h-2.89v.02Z"/>
  <path class="cls-1" d="m73.77,18.65c.22-.38.41-.71.6-1.04,1.07-1.78,2.15-3.55,3.21-5.33.16-.27.26-.56.42-.83.19-.31.39-.61.62-.88.09-.11.29-.17.45-.18.54-.02,1.08.02,1.62,0,.59-.04.69.44.47.84-.11.19-.24.37-.36.56-.29.49-.57.98-.88,1.46-.53.83-1.1,1.64-1.59,2.5-.34.59-.74,1.13-1.07,1.72-.22.38-.46.75-.7,1.13-.5.8-1,1.61-1.49,2.41-.05.09-.09.19-.09.29,0,2.25.02,4.51.03,6.76,0,.63-.02,1.27-.03,1.9v1.14c-.2.19-.47.25-.78.23-.37-.02-.74,0-1.11,0-.46,0-.6-.14-.6-.6v-3.86c0-1.81.01-3.61,0-5.42,0-.22-.14-.45-.26-.65-1.1-1.81-2.21-3.61-3.33-5.42-.79-1.28-1.6-2.56-2.39-3.85-.11-.17-.2-.36-.26-.56-.11-.34.08-.58.44-.59.58,0,1.17-.02,1.75,0,.15,0,.34.12.43.25.33.48.62.99.93,1.49,1.24,2.03,2.47,4.06,3.7,6.09.08.13.15.26.25.42l.02.03Z"/>
  <path class="cls-1" d="m58.55,28.95h7.37c.52,0,.79.37.69.87-.06.28-.03.58-.03.88,0,.46-.16.62-.62.62h-8.74c-.75,0-1.21-.46-1.21-1.22V12.53c0-.54,0-1.07-.01-1.61,0-.4.22-.61.63-.59.43.02.85.04,1.28.04.49,0,.63.14.63.62v17.96Z"/>
  <path class="cls-1" d="m128.43,21.76c.47-.76.89-1.45,1.3-2.14.31-.52.6-1.05.91-1.57.3-.51.61-1.02.9-1.54.33-.59.64-1.18.98-1.77.26-.44.54-.87.81-1.31.18-.3.32-.63.53-.9.19-.25.43-.48.68-.68.88-.7,1.9-.85,2.96-.65.43.08.83.31,1.24.48.09.04.17.1.29.17.31-.55.61-1.09.93-1.62.39-.64.65-1.38,1.24-1.88.38-.32.82-.61,1.34-.64.23-.02.5,0,.7.12,1.06.58,2.09,1.2,3.15,1.78.39.21.67.55.84.9.31.64.32,1.34-.03,1.99-.3.56-.65,1.1-.96,1.66-.13.24-.23.49-.36.73-.09.16-.2.31-.31.46-.13.17-.04.27.1.35,1.54.81,2.12,2.12,2.05,3.79,0,.06-.02.12-.03.18-.02.07-.05.13-.06.15-.39-.18-.77-.37-1.17-.51-.22-.08-.32-.19-.3-.4.06-.69-.3-1.2-.8-1.58-.58-.44-1.23-.79-1.86-1.16-.95-.56-1.9-1.12-2.86-1.67-.97-.55-1.97-1.08-2.94-1.63-.93-.53-2.01-.16-2.56.58-.41.55-.74,1.15-1.09,1.74-.31.52-.6,1.04-.9,1.56-.66,1.13-1.32,2.26-1.97,3.4-.14.25-.34.39-.6.51-.62.3-1.23.63-1.84.94-.08.04-.16.09-.31.18v-.02Zm17.96-10.11c-.06-.45-.14-.85-.48-1.06-.89-.56-1.8-1.1-2.72-1.6-.61-.33-1.21.03-1.47.42-.56.87-1.07,1.76-1.62,2.64-.15.25-.06.36.15.48,1.37.79,2.74,1.59,4.11,2.39.13.08.21.08.3-.07.48-.84.97-1.67,1.44-2.51.13-.24.2-.51.28-.7h0Z"/>
</svg>