<?xml version="1.0" encoding="utf-8"?>
<svg xmlns="http://www.w3.org/2000/svg" id="a" viewBox="0 0 476 141.36">
  <path d="M96.29,124.61l-4.41-2.06c1.52-3.2,2.98-6.3,4.46-9.4,4.41-9.25,8.8-18.51,13.26-27.74,.66-1.36,.34-1.89-.93-2.56-10.31-5.43-20.97-10.01-32.28-12.83-4.22-1.05-8.63-1.33-12.96-1.92-2.35-.32-4.72-.54-7.08-.86-1.19-.16-2,.07-2.64,1.25-.6,1.11-1.56,2.04-2.5,3.22-3.42-2.72-6.73-5.35-10.05-7.98-2.87,3.02-.29,5.64,.5,8.75-1.72,.41-3.34,.79-4.94,1.2-.35,.09-.75,.19-.99,.42-2.81,2.77-5.6,5.55-8.36,8.36-.43,.44-.68,1.04-1.22,1.9,.91,0,1.47-.08,2,.01,1.99,.35,3.97,.75,5.95,1.15,.57,.12,1.13,.36,1.71,.4,2.8,.19,5.61,.31,8.41,.5,3.56,.24,5.79,2.67,8.26,4.7l-.26,.73c-.73-.18-1.77-.11-2.14-.58-2.79-3.49-6.5-3.61-10.53-3.53-2.7,.06-4.5,.31-6.06,3.03-2.35,4.09-5.93,4.62-10.01,2.16-1.08-.65-1.73-.66-2.58,.32-1.16,1.35-2.55,2.5-3.7,3.85-.4,.47-.6,1.34-.49,1.96,.27,1.41,.79,2.78,1.26,4.36-1.24,.42-2.39,.84-3.56,1.21-1.02,.33-1.38,.74-.5,1.68,2.12,2.29,4.48,3.84,7.79,4.05,4.36,.27,8.68,1.11,13.04,1.46,2.24,.18,4.53,0,6.77-.3,3.53-.48,7.02-1.27,10.55-1.77,1.12-.16,2.39,0,3.46,.4,2.68,.98,5.3,2.16,7.92,3.3,.79,.34,1.68,.68,2.23,1.29,3.3,3.62,6.51,7.32,9.88,11.14l-3.78,3.31c-1.88-2.15-3.96-4.03-5.43-6.29-2.97-4.58-7.68-6.25-12.39-7.98-.75-.28-1.71-.15-2.55-.02-3.58,.56-7.16,1.1-10.7,1.81-3.61,.72-7.1-.17-10.63-.51-4.25-.4-8.48-.97-12.71-1.47-.32-.04-.71,.03-.96-.12-3.24-2.08-6.62-4.08-7.98-7.99-.53-1.52-.71-3.15-1.09-4.72-.28-1.16,0-2.05,.87-2.91,3.1-3.08,6.09-6.28,9.23-9.33,1.67-1.62,2.96-3.4,3.63-5.63,.83-2.75,2.37-5,4.51-6.96,2.55-2.33,4.97-4.81,7.3-7.36,.79-.86,1.26-2.07,1.66-3.19,.8-2.23,1.46-4.51,2.19-6.76,.06-.2,.19-.39,.34-.54,.74-.76,5.23-1.15,5.99-.39,2.09,2.1,4.69,2.61,7.49,2.92,8.05,.87,16.14,1.61,24.12,2.92,4.6,.75,9.02,2.55,13.54,3.81,6.4,1.78,12.31,4.73,18.14,7.77,7.95,4.15,16.36,7.01,24.84,9.77,1.44,.47,2.88,.93,4.3,1.45,1.21,.44,2.18,.22,3.08-.72,1.78-1.88,3.62-3.71,5.41-5.58,1.8-1.89,1.82-2.42,.16-4.5-2.47-3.11-4.99-6.19-7.44-9.32-.51-.65-.94-.84-1.76-.54-4.49,1.61-7.4,.57-9.53-3.67-.87-1.73-1.86-2.34-3.74-2.11-1.49,.18-3.03,.08-4.53-.04-2.49-.2-4.57,.52-6.25,2.4-.46,.52-.98,1.06-1.59,1.36-.58,.29-1.31,.27-1.97,.39l-.21-.46c.22-.33,.38-.74,.67-.98,2.61-2.13,5.23-4.15,8.89-4.12,2.32,.02,4.64-.24,6.95-.43,.68-.06,1.4-.19,2.01-.48,2.02-.95,4.09-1.3,6.31-.99,.46,.06,.96-.2,1.44-.31-.12-.49-.1-1.08-.38-1.45-2.71-3.57-5.5-7.08-8.19-10.66-.87-1.16-1.66-.8-2.63-.25-1.04,.58-.72,1.29-.33,2.05,.55,1.05,1.09,2.11,1.7,3.13,.51,.86,.27,1.36-.58,1.79-3.79,1.91-2.98,2.35-5-1.43-1.04-1.95-2.06-3.92-3.17-5.83-.58-.99-.35-1.56,.62-2.04,3.34-1.64,6.64-3.37,10.02-4.95,2.06-.96,3.58-2.34,4.52-4.41,.64-1.42,1.45-2.78,2.09-4.2,.4-.89,.63-1.85,.93-2.78l-.45-.28c-.47,.37-1,.69-1.39,1.13-2,2.28-4.48,3.86-7.22,5.1-4.03,1.83-8.04,3.72-12.1,5.48-1.73,.75-2.84,1.77-3.13,3.73-.23,1.54-.71,3.05-1.24,4.52-.44,1.22-.16,2.17,.52,3.18,1.29,1.92,2.51,3.89,3.91,6.06-1.28,.83-2.46,1.65-3.71,2.34-.21,.12-.89-.23-1.1-.54-1.67-2.46-3.37-4.9-4.83-7.48-.43-.76-.34-1.98-.14-2.91,.47-2.16,1.11-4.28,1.76-6.39,.41-1.32-.08-1.81-1.36-1.81-3.03,0-6.06-.07-9.08,.02-.87,.03-1.79,.41-2.57,.84-11.58,6.4-23.15,12.82-34.68,19.31-1.27,.72-1.9,.57-2.47-.71-.41-.93-.95-1.8-1.51-2.85,1.4-.81,2.68-1.58,3.99-2.31,10.9-6.07,21.79-12.16,32.73-18.15,1.21-.66,2.74-1.02,4.13-1.05,4.75-.12,9.51,.03,14.27-.07,1.31-.03,2.69-.35,3.89-.87,4.06-1.78,8.07-3.66,12.04-5.61,1.14-.56,2.21-1.35,3.13-2.23,4.8-4.65,9.54-9.36,14.3-14.05,.18-.18,.38-.33,.89-.76-.76,3.68-1.43,6.99-2.12,10.29-.41,1.95-.96,3.88-1.24,5.85-.68,4.85-3.46,8.8-5.6,13-.45,.89-1.68,1.47-2.67,1.97-1.1,.55-1.13,1.05-.44,1.96,2.89,3.84,5.69,7.74,8.63,11.54,.88,1.14,1.16,2.16,.41,3.37-.94,1.51-.59,2.73,.48,4.07,2.05,2.57,3.55,5.75,6,7.8,3.08,2.57,4.16,6.17,6.26,9.21,.63,.92,.51,1.55-.3,2.36-3.86,3.85-7.63,7.79-11.51,11.62-.4,.39-1.38,.53-1.96,.35-7-2.23-13.99-4.49-20.94-6.86-1.44-.49-1.99-.12-2.58,1.14-5.6,11.85-11.24,23.68-16.88,35.52-.21,.43-.45,.85-.8,1.5Z"/>
  <path d="M441.32,83.07c.5-.59,.85-.98,1.17-1.38,4.32-5.29,13.01-6.95,18.7-3.53,3.75,2.26,5.39,5.88,5.66,10.02,.29,4.57,.21,9.16,.25,13.75,.03,3.99-.03,7.99,.03,11.98,.02,1.18-.29,1.65-1.54,1.59-1.83-.09-3.68-.1-5.51,0-1.4,.08-1.87-.34-1.86-1.8,.07-6.9,.07-13.81,0-20.72-.02-1.71-.21-3.45-.62-5.11-.51-2.1-2.03-3.37-4.15-3.88-5.55-1.34-10.44,2.52-10.49,8.36-.05,7.07-.05,14.14,.02,21.2,.01,1.43-.31,2.06-1.87,1.94-1.72-.13-3.46-.11-5.18,0-1.4,.09-1.87-.34-1.85-1.8,.07-6.96,.05-13.92,0-20.88-.01-1.5-.13-3.03-.47-4.48-.57-2.5-2.25-3.97-4.8-4.44-5.3-.98-9.9,2.73-9.94,8.16-.06,7.23-.05,14.46,0,21.69,.01,1.32-.33,1.83-1.71,1.75-1.83-.11-3.68-.1-5.51,0-1.34,.07-1.76-.37-1.75-1.73,.05-9.06,.03-18.13,.03-27.19,0-2.64,.04-5.29,0-7.93-.02-1.02,.29-1.46,1.38-1.43,2.11,.06,4.21,.04,6.32,0,.9-.01,1.27,.32,1.23,1.24-.05,1.21-.01,2.43,.15,3.75,2.94-3.92,6.81-5.82,11.58-5.81,4.83,0,8.56,1.96,10.71,6.67Z"/>
  <path d="M362.2,77.62c-2.89,0-5.53,.04-8.16-.05-.34-.01-.82-.62-.97-1.04-2.23-6.51-10.95-9.08-16.51-4.93-3.12,2.33-3.78,9.28,1.3,10.91,3.47,1.12,7.14,1.61,10.7,2.45,2.1,.49,4.22,.96,6.24,1.71,6.94,2.58,9.33,7.45,8.81,14.48-.55,7.36-5.68,12.79-13.43,14.42-5.27,1.11-10.53,.88-15.67-.85-6.23-2.1-10.74-7.42-10.99-15.45,2.89,0,5.79-.04,8.68,.06,.28,0,.68,.86,.78,1.36,.72,3.67,2.51,6.5,6.28,7.49,4.48,1.18,8.98,1.42,12.71-1.97,4.11-3.74,2.94-10.08-2.28-11.84-3.35-1.13-6.94-1.54-10.42-2.28-3.67-.78-7.29-1.74-10.21-4.26-6.03-5.2-5.52-15.9,1.01-21.18,4.41-3.57,9.61-4.45,15.11-4.13,4.87,.29,9.41,1.46,12.91,5.15,2.55,2.69,3.72,5.98,4.12,9.93Z"/>
  <path d="M163.45,89.25c0-8.04,.03-16.07-.03-24.11-.01-1.41,.38-1.85,1.82-1.84,9.62,.06,19.23,.07,28.85,0,1.44,0,1.93,.44,1.82,1.84-.1,1.23-.11,2.49,0,3.72,.13,1.48-.5,1.81-1.87,1.8-6.43-.06-12.86,.01-19.29-.05-1.47-.01-2.01,.43-1.97,1.94,.09,3.72,.06,7.44,.01,11.16-.02,1.27,.48,1.7,1.72,1.69,5.02-.05,10.05,.02,15.07-.05,1.36-.02,1.83,.42,1.73,1.75-.1,1.23-.09,2.48,0,3.72,.09,1.24-.42,1.56-1.6,1.55-5.02-.05-10.05,.02-15.07-.05-1.44-.02-1.89,.48-1.86,1.87,.06,3.99,.08,7.98,0,11.97-.03,1.55,.6,1.91,2.03,1.9,6.7-.05,13.4-.02,20.1-.02q2.25,0,2.25,2.32c0,1.08-.08,2.16,.02,3.23,.12,1.36-.42,1.74-1.75,1.74-8.81-.05-17.61-.02-26.42-.02-1.24,0-2.49-.08-3.73,.02-1.41,.11-1.86-.36-1.84-1.81,.07-8.09,.03-16.18,.03-24.27Z"/>
  <path d="M272.64,98.04c-.81,0-1.34,0-1.87,0-7.84,0-15.67,0-23.51,0-2.38,0-2.49,.15-2.14,2.51,1.12,7.49,8.37,11.5,15.36,8.46,1.8-.78,3.14-2.04,3.86-3.94,.17-.45,.73-1.05,1.14-1.07,2.2-.11,4.41-.05,6.75-.05-.04,.52,0,.89-.1,1.22-1.31,4.79-4.04,8.29-8.97,9.74-4.83,1.42-9.71,1.61-14.53,.08-6.06-1.93-10.03-6-11.64-12.19-1.59-6.09-1.18-12.03,2.03-17.53,3.15-5.39,8.09-8.08,14.24-8.6,3.61-.31,7.15,.13,10.44,1.72,5.6,2.69,7.69,7.72,8.6,13.41,.32,1.99,.23,4.05,.34,6.24Zm-17.82-5.52c2.76,0,5.51,.04,8.27-.04,.47-.01,1.29-.51,1.34-.87,.34-2.73-1.94-6.61-4.5-7.91-6.25-3.17-13.55,.61-14.68,7.58-.2,1.22,.49,1.24,1.3,1.24,2.76,0,5.51,0,8.27,0Z"/>
  <path d="M393.97,110.33c-2.02,2.97-4.74,4.93-8.24,5.52-4.98,.83-9.75,.48-13.45-3.59-2.21-2.43-3.13-5.46-3.19-8.63-.15-8.41-.1-16.83-.15-25.25,0-.99,.5-1.16,1.32-1.15,2,.03,4,.07,6-.01,1.23-.05,1.56,.39,1.55,1.58-.05,6.85-.03,13.7-.02,20.56,0,.97,.03,1.95,.15,2.91,.73,5.61,4.77,8.15,10.24,6.48,4-1.22,6.15-4.22,6.17-8.84,.04-6.91,.05-13.81-.03-20.72-.02-1.58,.45-2.08,2.01-1.97,1.72,.13,3.46,.1,5.18,0,1.34-.08,1.74,.37,1.74,1.73-.06,10.57-.04,21.15-.04,31.73,0,1.13-.03,2.27,.03,3.4,.05,1.02-.29,1.47-1.39,1.43-2-.07-4-.07-6,0-1.11,.04-1.59-.3-1.51-1.46,.08-1.17,.02-2.34,.02-3.51l-.39-.19Z"/>
  <path d="M312.53,90.5c-2.6,0-5.02,.03-7.43-.04-.31,0-.79-.55-.88-.92-.96-3.95-3.99-6.06-8.23-6.25-4.21-.19-8.02,2.02-9.66,5.82-2.07,4.78-2.06,9.67-.15,14.48,1.62,4.1,5.4,6.23,10.15,6,4.25-.2,7.18-2.6,8.56-6.91,.15-.46,.66-1.11,1.03-1.12,2.2-.11,4.41-.05,6.83-.05-.06,.69-.05,1.21-.15,1.7-1.47,6.88-5.78,10.98-12.6,12.3-7.05,1.36-13.6,.29-18.88-5.05-3.9-3.94-5.13-8.93-5.02-14.26,.18-8.21,3.42-14.77,11.34-18.02,6.49-2.66,13.06-2.32,19.11,1.5,3.8,2.4,5.55,6.14,5.96,10.84Z"/>
  <path d="M236.7,115.28c-3.37,0-6.37,.05-9.38-.05-.44-.01-.97-.63-1.27-1.08-2.47-3.74-4.89-7.5-7.34-11.26-.25-.39-.54-.76-.99-1.39-1.15,1.69-2.19,3.17-3.19,4.68-1.73,2.61-3.48,5.21-5.15,7.85-.58,.92-1.27,1.33-2.38,1.29-2.31-.07-4.62-.02-7.28-.02,1.02-1.55,1.84-2.84,2.7-4.1,3.18-4.69,6.35-9.38,9.6-14.03,.67-.95,.67-1.64,.02-2.59-3.48-5.14-6.91-10.31-10.35-15.47-.29-.44-.57-.89-1.03-1.62,3.29,0,6.34-.05,9.38,.05,.42,.01,.91,.69,1.21,1.16,2.04,3.11,4.04,6.25,6.07,9.38,.31,.48,.67,.93,1.19,1.64,1.58-2.43,3-4.63,4.44-6.81,1.15-1.75,1.97-4.12,3.6-5.06,1.56-.9,3.99-.31,6.03-.36,.8-.02,1.6,0,2.71,0-1.11,1.63-2.09,3.08-3.08,4.52-2.72,3.96-5.41,7.94-8.2,11.85-.72,1.02-.67,1.72,.01,2.71,4.18,6.09,8.29,12.22,12.68,18.7Z"/>
</svg>