<?xml version="1.0" encoding="utf-8"?>
<svg xmlns="http://www.w3.org/2000/svg" id="a" viewBox="0 0 426.16 121.66">
  <defs>
    <style>.b{fill:#6a6a6a;}.c{fill:#fff;}.d{fill:#fefefe;}.e{fill:#fafafa;}.f{fill:#8b8b8b;}.g{fill:#9c9c9c;}.h{fill:#9d9d9d;}.i{fill:#c4c4c4;}.j{fill:#d3d3d3;}.k{fill:#d4d4d4;}.l{fill:#252525;}.m{fill:#242424;}.n{fill:#1f1f1f;}.o{fill:#222;}.p{fill:#212121;}.q{fill:#262626;}.r{fill:#393939;}.s{fill:#515151;}</style>
  </defs>
  <path class="n" d="M117.93,12.99c.23-.73,.39-1.48,.83-2.15,1.1-1.67,2.77-2.21,4.61-2.44,.44-.06,.9-.03,1.35-.03,4.57,0,9.14,0,13.72,0,1.5,0,2.95,.18,4.31,.86,.31,.15,.58,.18,.9,.01,1.41-.72,2.93-.88,4.5-.87,4.57,.02,9.14,0,13.72,0,1.63,0,3.21,.2,4.59,1.19,.36,.26,.71,.24,1.06-.01,1.32-.95,2.83-1.16,4.4-1.17,1.87-.01,3.74,.05,5.6-.02,1.19-.05,2.27,.47,3.43,.44,1.09-.03,2.12-.48,3.24-.44,1.8,.07,3.61,.03,5.41,.02,2.06-.01,3.97,.38,5.43,1.87,.45,.09,.67-.17,.9-.38,1.23-1.08,2.72-1.45,4.29-1.47,4.44-.04,8.89-.04,13.33,0,1.22,0,2.43,.26,3.51,.9,.37,.22,.69,.25,1.07,.03,1.32-.76,2.77-.96,4.27-.95,1.74,.01,3.48,.07,5.22-.02,1.19-.06,2.28,.46,3.44,.4,1.08-.05,2.13-.46,3.25-.39,1.47,.09,2.96-.15,4.41,.33,.24,.08,.53,.11,.76,.05,2.67-.67,5.39-.23,8.08-.36,1.04-.05,2.05,.09,3.05,.39,1.8,.54,2.99,1.67,3.5,3.5,.05,.19,.11,.37,.15,.56,.37,1.56,.25,8-.08,9.61-.25,1.2-.84,2.14-1.74,2.92-.24,.21-.52,.4-.71,.64-.15,.19-.31,.46-.12,.7,.1,.13,.3,.19,.47,.25,.12,.04,.25,.03,.38,.03,2.83,.05,5.67,.08,8.5,.17,.87,.03,1.5-.18,1.79-1.08,.08-.24,.28-.43,.41-.65,.18-.3,.18-.62-.03-.91-.97-1.39-1.13-2.98-1.15-4.6-.03-1.67-.03-3.35-.05-5.02-.01-.85,.14-1.67,.36-2.48,.52-1.97,1.73-3.23,3.75-3.72,.88-.21,1.76-.34,2.67-.34,2.38,.02,4.77,.01,7.15,.01,.77,0,1.53,.09,2.3,.21,2.37,.37,4.4,1.39,6.14,3.02,.14,.13,.3,.22,.44,.32,.31-.08,.42-.32,.54-.54,1.11-2.13,3.02-2.86,5.26-3.01,.64-.04,1.29-.01,1.93-.01,3.48,0,6.96,.01,10.43,0,1.9-.01,3.73,.15,5.3,1.37,.28,.22,.6,.23,.89,0,1.57-1.22,3.41-1.39,5.3-1.37,2.58,.02,5.15-.03,7.73,.01,3.54,.06,6.71,1.08,9.18,3.79,.08,.09,.21,.13,.33,.21,.45-.02,.39-.42,.5-.69,1.01-2.28,2.93-3.21,5.25-3.28,3.41-.1,6.83-.16,10.24,.03,2.38,.13,4.7,.78,6.61,2.4,.39,.33,.81,.61,1.26,.95,.2-.24,.4-.41,.52-.63,1.21-2.08,3.18-2.71,5.4-2.77,1.93-.05,3.86-.01,5.8-.01,3.22,0,6.43,.02,9.65-.01,1.05-.01,2.05,.18,3.04,.43,.31,.08,.61,.21,.9,.34,.46,.2,.78,.79,1.33,.64,.52-.13,.67-.76,1.04-1.1,1.46-1.33,3.13-1.94,5.12-1.5,1.58,.35,3.08,.93,4.58,1.5,1.1,.42,1.95,1.22,2.54,2.1,.52,.04,.76-.19,1-.38,2.25-1.86,4.98-2.5,7.75-2.57,2.71-.07,5.37,.57,7.65,2.25,.83,.61,1.65,1.22,2.54,1.74,1.87,1.07,2.55,2.9,2.65,4.88,.12,2.44,.07,4.89-.06,7.33-.13,2.44-.1,4.88-.15,7.32-.01,.45,.24,.71,.54,.96,2.99,2.42,4.07,5.67,4.07,9.38,0,.97,.03,1.93-.02,2.9-.15,2.62-.8,5.06-2.51,7.15-.88,1.07-2,1.81-3.11,2.58-.37,.25-.78,.45-1.17,.67-.31,.17-.47,.43-.4,.79,.01,.06,.02,.13,.04,.19,.65,2,.48,4.07,.53,6.12,.05,2.22-.39,4.35-.92,6.48-.26,1.02-.74,1.92-1.39,2.73-.44,.54-.42,1.03,.04,1.54,1.27,1.39,1.78,3.11,2.1,4.9,.11,.63,.17,1.27,.19,1.91,.03,1.03,.02,2.06-.02,3.09-.11,2.69-.72,5.2-2.46,7.37-1.45,1.81-3.2,3.13-5.45,3.78-2.73,.78-5.53,1.23-8.3,1.79-6.43,1.31-12.87,2.6-19.31,3.86-1.64,.32-3.3,.54-4.97,.72-2.8,.3-5.52-.18-8.18-1.05-1.88-.62-3.4-1.83-4.71-3.27-1.4-1.54-2.46-3.28-2.87-5.38-.28-1.45-.64-2.88-.63-4.38,0-1.31-.17-1.42-1.51-1.16-2.84,.55-5.68,1.12-8.52,1.68-.76,.15-1.51,.3-2.27,.45-.42,.08-.67,.32-.76,.75-.25,1.2-.56,2.39-.55,3.62,0,1.38-.32,2.69-.71,3.98-.42,1.38-1.32,2.5-2.43,3.42-3.99,3.29-8.58,4.19-13.59,3.37-.7-.11-1.38-.31-2.07-.47-1.6-.37-2.98-1.16-4.27-2.16-.58-.45-.72-.44-1.12,.07-2.03,2.54-4.85,3.38-7.88,3.36-3.1-.03-6.17-.58-8.72-2.59-.67-.53-1.36-.63-2.16-.46-.63,.13-1.27,.23-1.91,.25-4.53,.14-8.96,.92-13.36,1.9-2.95,.66-5.88,1.4-8.83,2.08-.54,.13-.92,.39-1.18,.89-.17,.34-.42,.65-.65,.96-.8,1.06-1.81,1.8-3.11,2.14-1.44,.37-2.87,.68-4.37,.66-1.87-.01-3.73,.03-5.6,.06-.97,.02-1.92-.11-2.86-.39-1.88-.56-3.08-1.75-3.55-3.68-.21-.88-.35-1.76-.36-2.67,0-2.64-.02-5.28-.04-7.92,0-.32-.06-.64-.11-.95,0-.03-.12-.04-.18-.05-.05,0-.13,0-.16,.04-.08,.1-.17,.2-.2,.31-.14,.49-.28,.99-.4,1.49-1.21,5.16-4.16,9.05-8.62,11.86-1.04,.66-2.16,1.14-3.34,1.5-5.42,1.63-10.87,1.98-16.38,.5-.43-.12-.89-.18-1.31-.32-.57-.19-1.12-.17-1.7-.03-3.56,.88-7.17,.58-10.76,.22-.82-.08-1.67-.29-2.4-.66-1.38-.7-2.3-1.82-2.63-3.39-.57-2.77-1.14-5.55-1.75-8.31-.57-2.57-.09-2.27-3.02-2.28-.19,0-.39,.02-.58,.05-.28,.04-.47,.22-.54,.48-.12,.43-.24,.87-.33,1.31-.53,2.45-.99,4.92-1.59,7.36-.67,2.72-2.36,4.47-5.15,5.15-1.64,.4-3.27,.67-4.96,.61-2.83-.1-5.67-.13-8.42-.93-.45-.13-.88-.2-1.32-.05-2.31,.76-4.7,.7-7.08,.73-1.16,.01-2.32,.06-3.48,0-1.42-.06-2.82-.29-4-1.2-.9-.69-1.53-1.55-1.8-2.66-.28-1.13-.44-2.27-.44-3.43,0-4.12,0-8.24-.02-12.36,0-.52,0-1.03-.02-1.54-.03-.57-.26-.85-.61-.8-.41,.06-.48,.38-.49,.71-.02,.51-.02,1.03-.02,1.54-.01,3.73-.05,7.47-.02,11.2,.01,1.38-.2,2.71-.62,3.99-.69,2.09-2.11,3.48-4.25,4.1-1.12,.32-2.26,.49-3.43,.48-1.93-.02-3.86,0-5.8-.01-.7,0-1.42-.07-2.11-.18-2.16-.34-3.6-1.58-4.4-3.6-.71-1.79-1.43-3.59-2.14-5.38-.19-.48-.38-.96-.59-1.42-.04-.09-.19-.16-.3-.19-.15-.04-.23,.06-.23,.23-.01,.64-.06,1.29-.04,1.93,.05,1.24-.13,2.44-.47,3.62-.61,2.13-1.93,3.6-4.09,4.23-1.49,.43-3,.72-4.56,.71-2.45-.02-4.89,.18-7.34-.05-.25-.02-.52-.01-.77,.04-2.75,.53-5.52,.28-8.28,.16-.9-.04-1.78-.21-2.66-.43-2.09-.51-3.33-1.85-3.83-3.89-.33-1.38-.6-2.77-.89-4.15-.39-1.83-.76-3.66-1.16-5.48-.17-.74-.29-.86-1.04-.86-3.13,0-2.6-.39-3.23,2.47-.5,2.26-.93,4.54-1.49,6.79-.66,2.65-2.33,4.35-5,5.05-1.69,.44-3.4,.7-5.15,.63-2.89-.12-5.8-.12-8.59-1.04-.39-.13-.73-.13-1.12,.02-1.7,.68-3.49,.9-5.3,.79-2.73-.17-5.39,.33-8.05,.76-8.64,1.39-17.28,2.79-25.92,4.2-1.14,.19-2.28,.38-3.42,.59-2.14,.38-4.08-.13-5.85-1.33-1.83-1.24-2.8-3.04-3.01-5.17-.25-2.49-.42-5.01,.31-7.47,.02-.06,.01-.13,.04-.19,.84-1.48,.93-3.2,1.54-4.74,.57-1.45,.83-2.97,1.38-4.39,.63-1.62,1.02-3.3,1.5-4.96,.37-1.26,1.2-2.27,2.23-3.08,.45-.36,.95-.67,1.41-1.01,.23-.17,.18-.53-.09-.61-.68-.2-1.36-.39-2.04-.54-3.73-.81-7.32-2-10.66-3.88-6.49-3.65-11.62-8.69-15.35-15.14-1.29-2.23-1.76-4.68-1.93-7.21-.08-1.28-.09-2.58-.02-3.86,.31-5.45,2.6-9.75,7.45-12.51,1.08-.62,2.25-.95,3.45-1.18,.92-.18,1.62-.56,2.21-1.36,1.26-1.7,2.95-2.79,5.06-3.29,2.58-.6,5.2-.92,7.8-1.35,7.68-1.28,15.38-2.46,23.04-3.81,2.55-.45,4.97-.38,7.39,.51,.72,.27,.92,.19,1.06-.6,.16-.87,.94-1.45,1.03-2.25,.09-.82-.81-1.4-.96-2.26-.17-1.01-.42-2.01-.4-3.05,.03-1.54,.02-3.09-.01-4.64-.02-.91,.13-1.79,.36-2.67,.51-1.99,1.75-3.22,3.74-3.73,.88-.23,1.76-.37,2.67-.35,1.74,.03,3.48,.05,5.22,0,1.06-.03,2.05,.22,3.04,.5,.95,.26,1.7,.89,2.33,1.65,.28,.34,.42,.81,.94,1,.12-.1,.29-.19,.38-.33,1.24-2.03,3.2-2.71,5.42-2.78,2.12-.07,4.25-.07,6.37,0,1.35,.04,2.68,.27,3.82,1.14,.96,.73,1.63,1.62,1.92,2.8,.25,1,.4,2.02,.42,3.05,.01,.45,.29,.67,.74,.72,1,.11,1.21,0,1.56-.97,.28-.79,.58-1.57,.8-2.38,.72-2.62,2.51-4.03,5.11-4.28,2.04-.2,4.1-.26,6.15,.16,1.87,.38,3.09,1.47,3.93,3.1,.15,.29,.25,.59,.37,.89,.2,.2,.29,.6,.71,.36Z"/>
  <path class="i" d="M117.93,12.99c.03,.25,0,.5-.3,.5-.12,0-.28-.2-.35-.34-.07-.15-.05-.34-.07-.52l.71,.36Z"/>
  <path class="j" d="M266.67,62.95c.22-.84,.35-1.65,.44-2.47,.82-7.96,2.58-15.74,4.31-23.54,.27-1.23,.93-1.94,2.19-2.06,.19-.02,.38-.08,.57-.09,2.44-.17,4.89-.15,7.34-.06,.59,.02,.85,.33,.7,.89-.44,1.61-.92,3.22-1.39,4.82-.18,.61-.68,.9-1.2,1.17-1.89,.99-3.05,2.59-3.56,4.6-1.59,6.24-3.6,12.36-5.08,18.63-1.26,5.39-2.55,10.77-3.83,16.16-.33,1.38-.66,2.75-.99,4.13-.22,.95-.28,1.91-.25,2.88,.09,2.87,1.26,5.18,3.89,6.41,1.4,.65,1.7,1.53,1.58,2.87-.13,1.43-.38,1.75-1.84,1.98-2.43,.38-4.88,.26-7.33,.23-.86,0-1.09-.29-1.15-1.21-.04-.58-.02-1.16-.03-1.74-.02-7.34-.04-14.68-.04-22.02,0-1.11-.16-2.17-.5-3.22-3.09-9.76-6.16-19.52-9.26-29.28-.22-.71-.34-1.49-.94-2.24-.21,.65-.33,1.14-.52,1.61-.27,.65-.53,1.32-.9,1.92-.91,1.48-1.09,1.33-2.3,.83-1.99-.81-4.1-1.11-6.22-1.26-1.62-.11-3.22,.13-4.75,.66-2.34,.82-3.37,2.46-3.12,4.91,.14,1.35,.46,2.66,1.11,3.88,.75,1.43,1.57,2.81,2.57,4.08,2.82,3.6,5.63,7.2,8.44,10.81,.95,1.22,1.85,2.47,2.65,3.8,1.93,3.23,2.83,6.73,2.93,10.48,.08,3.18-.24,6.31-1.29,9.32-1.76,5.04-5.24,8.15-10.52,9.14-3.19,.6-6.4,.58-9.61,.09-1.6-.24-3.15-.67-4.54-1.54-.53-.33-.91-.3-1.32,.22-.47,.59-1.17,.77-1.9,.82-2.51,.15-5.02,.07-7.53-.02-.68-.03-1.05-.41-1.19-1.05-.37-1.76-.75-3.53-1.12-5.29-.43-2.08-.85-4.16-1.29-6.24-.09-.44-.21-.88-.33-1.31-.14-.5-.49-.73-.99-.77-.32-.02-.64-.04-.96-.04-2.9,0-5.79,0-8.69,0-.32,0-.64,.02-.96,.05-.51,.04-.84,.31-.97,.8-.12,.43-.22,.87-.31,1.32-.59,2.84-1.18,5.67-1.77,8.51-.09,.44-.21,.88-.28,1.32-.3,1.99-1.07,2.77-3.24,2.78-2.06,0-4.12-.05-6.18-.08-.19,0-.39-.03-.58-.06-1.07-.17-1.32-.49-1.06-1.57,.79-3.32,1.62-6.63,2.44-9.94,4.09-16.63,8.18-33.25,12.28-49.88,.11-.44,.23-.87,.33-1.31,.29-1.21,1.11-1.89,2.29-2.06,1.99-.28,3.98-.16,5.97,.05,.5,.05,.8,.38,.95,.85,.08,.24,.14,.49,.2,.74,3.3,13.44,6.6,26.88,9.9,40.32,1,4.06,1.98,8.13,2.98,12.19,.12,.5,.27,.99,.43,1.48,.03,.09,.19,.19,.29,.2,.09,0,.24-.1,.28-.2,.2-.47,.35-.97,.57-1.43,.24-.52,.52-1.03,.82-1.52,.14-.23,.43-.3,.68-.18,.4,.2,.78,.44,1.17,.67,1.75,1.01,3.63,1.65,5.64,1.89,1.22,.15,2.43,.08,3.65-.17,2.1-.44,3.4-1.71,4.08-3.69,.61-1.76,.52-3.55,.25-5.35-.19-1.28-.66-2.48-1.27-3.63-.73-1.37-1.61-2.64-2.53-3.88-2.73-3.66-5.47-7.32-8.21-10.99-1.39-1.86-2.73-3.76-3.71-5.87-1.64-3.54-2.18-7.23-1.57-11.1,.8-5.09,4.54-9.52,10.33-10.7,4.19-.86,8.44-.86,12.67-.11,1.41,.25,2.74,.71,3.95,1.48,.35,.22,.72,.32,.98-.15,.29-.51,.8-.63,1.31-.71,.57-.08,1.15-.16,1.73-.16,2.38-.03,4.76-.03,7.15-.04,.19,0,.39,.01,.58,.01,.66,0,1.11,.28,1.27,.95,.06,.25,.15,.49,.2,.75,1.14,5.42,2.52,10.78,3.39,16.25,.5,3.18,.89,6.37,1.33,9.56,.03,.23-.02,.51,.33,.74Z"/>
  <path class="c" d="M373.64,41.94c.6-.47,.64-.95,.8-1.35,.77-1.91,2.15-3,4.2-3.23,1.15-.13,2.3-.29,3.46-.35,4.18-.2,8.36-.49,12.54-.51,5.02-.03,10.04-.35,15.06,.04,.58,.04,1.16,.08,1.72,.2,1.81,.4,3,1.63,3.27,3.38,.27,1.76-.39,3.18-1.83,4.18-1.23,.85-2.6,1.42-4.11,1.56-2.63,.25-5.25,.51-7.88,.74-3.72,.32-7.44,.61-11.16,.92-.13,.01-.26,.04-.38,.04-1.1,.01-1.73,.48-2.01,1.62-.4,1.69-.99,3.33-1.46,5-.14,.48-.37,.97-.22,1.56,.93,.29,1.88,.08,2.83,.03,3.86-.2,7.71-.43,11.57-.62,1.09-.05,2.19-.02,3.28-.03,.85,0,1.67,.17,2.45,.5,1.51,.64,2.35,1.77,2.31,3.45-.02,.83-.11,1.67-.25,2.49-.33,2-1.53,3.23-3.5,3.64-1.38,.28-2.79,.45-4.2,.64-2.49,.33-4.98,.63-7.47,.96-3.19,.42-6.39,.72-9.61,.83-1.1,.04-1.24,.13-1.49,1.11-.66,2.55-1.27,5.12-1.9,7.68-.02,.06-.02,.13-.03,.19-.09,.61,.13,.86,.72,.79,1.66-.19,3.32-.41,4.98-.59,3.45-.38,6.91-.73,10.36-1.12,1.47-.17,2.93-.4,4.39-.64,1.56-.26,3.07,.08,4.59,.35,.12,.02,.24,.09,.36,.13,1.63,.57,2.87,1.56,3.04,3.38,.17,1.84-.73,3.22-2.2,4.23-.81,.55-1.75,.79-2.71,.98-6,1.17-12,2.34-17.99,3.52-2.84,.56-5.67,1.19-8.51,1.7-2.03,.37-4.1,.4-6.16,.22-3.07-.27-5.42-2.45-5.9-5.47-.18-1.15-.14-2.3,.13-3.45,1.61-6.76,3.21-13.52,4.8-20.28,.97-4.13,1.93-8.27,2.91-12.4,.12-.5,.27-.99,.17-1.47-.24-.13-.41-.11-.57,0-1.28,.95-2.79,1.33-4.31,1.59-1.39,.24-2.81,.38-4.22,.46-2.89,.17-5.79,.26-8.68,.43-2.19,.12-4.35,.41-6.52,.75-.96,.15-1.48,.6-1.72,1.53-.73,2.87-1.51,5.72-2.26,8.58-.31,1.17-.61,2.35-.93,3.57,1,.37,1.89,.14,2.77,.07,2.19-.16,4.37-.26,6.56-.23,1.5,.02,2.92,.39,4.28,1.04,1.21,.58,2.07,1.52,2.69,2.68,.67,1.25,.61,2.49-.21,3.65-.96,1.35-2.21,2.35-3.87,2.68-.88,.18-1.78,.33-2.67,.39-2.89,.18-5.79,.31-8.68,.46-1.03,.06-2.06,.13-3.08,.23-.98,.09-1.06,.13-1.27,1.11-.58,2.64-1.15,5.28-1.68,7.93-.33,1.64-.78,3.26-.7,4.96,.03,.7-.34,1.21-.86,1.65-.8,.67-1.67,1.23-2.68,1.48-2.28,.56-4.56,.67-6.85-.03-2.17-.67-3.27-2.19-3.54-4.36-.14-1.09-.08-2.17,.19-3.26,2.87-11.49,5.74-22.97,8.55-34.47,.47-1.94,1.05-3.84,1.66-5.74,.14-.43,.28-.86,.45-1.27,.61-1.49,1.71-2.39,3.3-2.65,.83-.13,1.66-.25,2.49-.32,1.92-.16,3.85-.33,5.77-.44,5.59-.3,11.19-.6,16.78-.85,1.41-.06,2.84-.05,4.25,.07,2.72,.23,5.21,.97,6.6,3.78Z"/>
  <path class="j" d="M146.49,74.81c0-.83,.06-1.66-.01-2.48-.4-4.55-.64-9.11-.64-13.68,0-6.89,0-13.77,0-20.66,0-2.71,.23-3.01,2.9-3.17,1.99-.12,3.99-.13,5.98-.13,1.23,0,1.4,.23,1.45,1.5,.02,.39,0,.77,0,1.16,0,19.44,0,38.87,0,58.31,0,.71,.02,1.42-.06,2.12-.12,1.07-.67,1.57-1.76,1.71-.38,.05-.77,.04-1.16,.04-1.67,0-3.35,.01-5.02,0-1.91-.01-1.91-.02-2.66-1.85-.05-.12-.09-.24-.14-.36-2.87-7.24-5.75-14.47-8.59-21.72-1.93-4.92-3.31-10.02-4.5-15.16-.14-.61-.31-1.22-.48-1.87-.51,.32-.32,.73-.3,1.06,.16,2.89,.35,5.78,.51,8.67,.09,1.67,.22,3.34,.22,5.01,.03,7.66,.02,15.32,.02,22.98,0,.51,0,1.03-.07,1.54-.08,.71-.48,1.18-1.2,1.33-.31,.07-.63,.11-.95,.16-2.31,.32-4.63,.21-6.94,.19-.84-.01-1.13-.34-1.21-1.19-.03-.26-.02-.51-.02-.77,.01-19.57,.02-39.13,.03-58.7,0-.32,0-.64,0-.97,.02-2.78,.38-3.15,3.09-3.17,1.54-.01,3.09-.03,4.63-.03,.45,0,.9,.02,1.35,.02,.65,0,1.1,.29,1.34,.9,.3,.78,.6,1.56,.9,2.34,2.32,5.87,4.59,11.75,6.98,17.59,2.32,5.68,4.13,11.5,5.54,17.46,.15,.62,.33,1.23,.49,1.84h.25Z"/>
  <path class="j" d="M115.66,99.51c-1.22,0-2.44,0-3.67,0-.67,0-1.08-.37-1.22-1.01-.29-1.32-.58-2.64-.85-3.96-.51-2.46-1.01-4.91-1.52-7.37-.06-.32-.12-.63-.2-.94-.32-1.21-.48-1.39-1.7-1.4-3.15-.03-6.31-.03-9.46,0-1.32,.01-1.5,.17-1.79,1.53-.69,3.21-1.33,6.42-2,9.64-.12,.57-.24,1.13-.38,1.69-.29,1.14-1.05,1.73-2.2,1.84-.32,.03-.64,.07-.96,.06-1.99-.02-3.99-.04-5.98-.09-.44-.01-.89-.11-1.32-.22-.33-.09-.54-.38-.49-.73,.09-.57,.21-1.14,.35-1.7,2.92-11.87,5.84-23.74,8.76-35.61,1.89-7.68,3.78-15.37,5.68-23.05,.11-.44,.24-.87,.33-1.31,.25-1.33,1.13-1.98,2.39-2.16,1.92-.27,3.85-.18,5.78,0,.56,.05,.95,.37,1.11,.92,.11,.37,.19,.75,.29,1.12,4.8,19.55,9.6,39.11,14.4,58.66,.18,.75,.38,1.5,.47,2.26,.11,.92-.29,1.47-1.19,1.71-.49,.13-1.01,.17-1.53,.19-1.03,.03-2.06,0-3.09,0v-.07Z"/>
  <path class="c" d="M281.04,81.95c.28,.24,.61,.19,.92,.15,1.47-.19,2.93-.37,4.4-.6,2.35-.36,4.68-.83,7.06-1.01,1.79-.14,3.55-.56,5.33-.83,1.43-.22,2.81-.05,4.12,.63,.82,.42,1.3,1.06,1.33,1.97,.04,1.16,.1,2.32-.01,3.47-.21,2.04-1.92,3.7-4,3.79-6.14,.28-12.12,1.47-18.08,2.83-1.57,.36-3.11,.82-4.67,1.2-1.44,.34-2.89,.56-4.39,.57-2.7,.01-5.75-2.13-6.01-5.66-.12-1.64,.22-3.21,.58-4.77,1.16-4.95,2.4-9.87,3.56-14.82,1.19-5.07,2.5-10.11,4-15.1,.65-2.15,1.16-4.35,1.76-6.51,.17-.62,.39-1.23,.64-1.82,.68-1.56,1.8-2.66,3.46-3.12,.93-.26,1.87-.53,2.82-.61,2.47-.22,4.87,.16,7.21,.98,2.84,.99,2.97,3.26,2.3,5.1-.26,.72-.65,1.4-1.09,2.03-.56,.8-.95,1.66-1.27,2.58-2.03,5.9-4.09,11.78-6.13,17.68-1.2,3.46-2.37,6.94-3.56,10.41-.16,.48-.44,.94-.3,1.48Z"/>
  <path class="j" d="M61.95,35.78c1.35-.86,2.84-1.14,4.42-1.13,5.79,.02,11.58,.03,17.37,.04,1.22,0,2.44-.02,3.67-.03,.58,0,1.16,0,1.74,.04,.68,.05,.91,.3,.98,.95,.03,.32,.04,.64,.03,.96,0,1.22-.02,2.44-.04,3.67,0,.45-.04,.9-.11,1.34-.24,1.38-.66,1.76-2.02,1.85-.51,.03-1.03,.02-1.54,.02-2.64,0-5.28-.01-7.91,0-1.83,.02-1.95,.14-1.97,2-.03,4.05-.02,8.11-.02,12.16,0,.32,0,.64,.04,.96,.08,.78,.31,1.02,1.09,1.08,.64,.05,1.29,.04,1.93,.04,2.32,0,4.63,0,6.95,.03,.87,.01,1.16,.31,1.14,1.19-.04,1.99-.13,3.99-.22,5.98-.01,.32-.08,.64-.18,.94-.22,.67-.67,1.1-1.4,1.14-.58,.04-1.16,.04-1.74,.04-2.06,0-4.12-.01-6.18,.03-1.12,.02-1.36,.26-1.4,1.38-.05,1.41-.04,2.83-.04,4.25,0,6.88,0,13.77,0,20.65,0,.77,0,1.55-.13,2.31-.21,1.29-.76,1.75-2.08,1.82-.96,.05-1.93,0-2.89,.02-1.22,.02-2.44,.05-3.67,.07-1.99,.2-2.41-.02-2.41-1.9,0-3.84,0-7.68,.14-11.53,.24-6.4,.67-12.84-.34-19.22-.22-1.41,.1-2.82-.24-4.2-.4-.7-.07-1.36,.1-2.03,.26-1,.41-2-.17-2.96,.83-5.35,.31-10.75,.39-16.12,.03-1.81-.45-2.07-2.26-1.57-.53,.15-1,.19-1.49-.07-1.16-1.77-1.01-3.03,.48-4.21Z"/>
  <path class="j" d="M178.68,71.75c0,7.98,0,15.95,0,23.93,0,.58,.01,1.16-.02,1.74-.07,1.26-.36,1.59-1.56,1.8-.7,.12-1.4,.22-2.11,.24-1.61,.05-3.22,.07-4.82,.05-1.45-.02-1.6-.21-1.65-1.73-.02-.58,0-1.16,0-1.74,0-14.86,0-29.72,0-44.58,0-1.93-.12-3.85-.22-5.78-.05-1.03-.27-1.26-1.27-1.3-.96-.04-1.93-.02-2.89-.03-1.93,0-3.86,0-5.79-.03-.91-.02-1.2-.27-1.22-1.13-.04-2.19-.06-4.37,0-6.56,.04-1.35,.58-1.83,1.91-1.92,.38-.03,.77-.01,1.16-.01,9.07-.01,18.14-.02,27.21-.03,.64,0,1.29,0,1.93,.05,.65,.05,.93,.31,.96,.98,.05,1.03,.05,2.06,.05,3.09,0,1.16,.02,2.32-.01,3.47-.05,1.69-.4,2.05-2.06,2.09-2.12,.04-4.25,.01-6.37,.02-.51,0-1.03-.01-1.54,0-1.45,.05-1.59,.2-1.64,1.72-.01,.39,0,.77,0,1.16,0,8.17,0,16.34,0,24.51h-.02Z"/>
  <path class="h" d="M30.59,36.91c.75-.45,1.62-.31,2.43-.44,4.16-.69,8.32-1.37,12.49-2.05,.57-.09,1.14-.12,1.71-.18,3.6-.49,4.57,.01,5.04,3.45,1.33,9.63,2.11,19.3,.57,28.98-.42,2.66-1.07,5.24-2.73,7.53-1.78,2.44-.66,6.32,2.18,8.4,.41,.3,.85,.57,1.32,.79,2.87,1.37,3.1,1.9,2.29,5.11-.17,.53-.53,.9-1.06,.99-3.94,.68-7.84,1.62-11.84,1.84-.2-.09-.38-.22-.55-.36-.99-2.45-1.15-4.53,1.42-6.38,2.32-1.68,2.77-6.64,1.26-9.07-.18-.1-.35-.19-.53-.29-2.55-1.38-4.15-3.61-5.46-6.09-3.58-6.76-5.64-14.06-7.43-21.45-.35-1.43-.63-2.89-.96-4.33-.5-2.16-.81-4.29-.15-6.46Z"/>
  <path class="c" d="M304.68,85.59c.12-.71,.2-1.68,.47-2.6,1.29-4.52,2.16-9.14,3.23-13.71,1.53-6.58,2.98-13.18,4.45-19.77,.25-1.13,.43-2.27,.67-3.41,.14-.69,.29-1.39,.52-2.06,.91-2.68,2.84-4.21,5.57-4.78,2.65-.55,4.98,.05,6.93,1.96,1.57,1.53,2.05,3.37,1.41,5.48-.06,.18-.09,.38-.17,.55-1.62,3.4-2.22,7.11-3.23,10.69-2.49,8.79-4.67,17.66-6.92,26.51-.27,1.06-.51,2.13-.75,3.19-.29,1.27-.86,2.41-1.62,3.47-.52,.73-1.17,1.19-2.05,1.29-2.55,.29-4.86-.24-6.82-1.98-1.02-.91-1.37-2.15-1.56-3.44-.06-.38-.07-.77-.12-1.41Z"/>
  <path class="h" d="M55.39,88.37c-.01-.71,0-1.41-.04-2.12-.05-.93-.47-1.59-1.43-1.82-2.22-.52-3.42-2.14-4.34-4.06-.53-1.11-.89-2.27-1.08-3.49-.13-.84-.09-1.67,.47-2.39,1.79-2.32,2.39-5.1,2.88-7.89,.88-5.02,1.05-10.1,.76-15.16-.25-4.28-.52-8.58-1.14-12.83-.16-1.08-.4-2.15-.9-3.13-.38-.75-.95-1.19-1.82-1.2-.51,0-1.03-.03-1.54-.05,.3-.1,.59-.25,.9-.29,2.52-.39,5.04-.78,7.56-1.14,.56-.08,1.15-.13,1.71-.09,1.42,.1,2.55,.75,3.34,1.95,.31,.47,.52,1.05,1.21,1.11-.47,1.29-.58,2.59-.03,3.89,.94,.71,.99,1.74,.97,2.78-.13,6.66-.3,13.32-2.78,19.65-.17,.43-.06,.89-.02,1.33-.22,1.35-1.2,2.32-1.9,3.4-.49,.75-.58,1.46-.63,2.26-1.7,1.91-3.28,3.93-5.39,5.45-1.66,1.19-1.82,2.16-.92,3.98,.93,1.9,2.49,3.08,4.46,3.76,1.17,.4,2.38,.53,3.62,.53,1.25,0,2.44,.07,3.12,1.43,.68,1.37,.24,2.47-.62,3.54-1.53,1.42-3.43,1.23-5.29,1.19-.48,.01-.88-.14-1.14-.58Z"/>
  <path class="h" d="M44.96,75.6c-2.37-.13-4.52-.93-6.48-2.24-1.03-.69-2.11-1.1-3.34-1.35-10.21-1.99-18.05-7.45-23.42-16.38-2.19-3.64-1.58-8.14,1.38-10.97,1.55-1.48,3.4-2.27,5.55-2.33,.32,0,.64-.01,.96,0,1.4,.06,1.52-.04,1.84-1.35,.44-1.79,1.66-2.87,3.46-3.21,.88-.17,1.75-.43,2.67-.36,.1,.16,.27,.37,.22,.52-1.3,3.75,.14,7.25,1.14,10.72,2.05,7.17,4.46,14.22,9.11,20.24,1.94,2.51,4.03,4.86,6.92,6.33l-.03-.02c.11,.08,.15,.17,.11,.26-.03,.09-.07,.14-.1,.14Z"/>
  <path class="c" d="M230.02,25.75c.8-3.24,1.6-6.49,2.4-9.73,.14-.56,.3-1.12,.47-1.67,.08-.26,.3-.41,.57-.45,.13-.02,.26-.04,.38-.04,4.22,.07,3.27-.69,4.28,3.17,.7,2.67,1.31,5.37,1.96,8.05,.1,.43,.14,.89,.57,1.17,.48-.65,.55-1.43,.75-2.17,.57-2.04,1.11-4.09,1.65-6.14,.1-.37-.04-.62-.45-.67-.26-.03-.51-.04-.77-.07-.37-.04-.56-.27-.61-.62-.02-.13-.03-.26-.03-.38,0-2.51-.21-2.35,2.23-2.35,1.35,0,2.7-.01,4.05,0,1.41,.02,1.46,.08,1.48,1.57,0,.26,0,.51,0,.77-.04,.77-.03,.81-1.01,1.04-.43,.1-.69,.3-.82,.7-.17,.55-.32,1.11-.48,1.67-1,3.53-1.99,7.05-2.99,10.58-.12,.43-.25,.86-.39,1.29-.11,.32-.31,.57-.68,.6-1.41,.09-2.82,.14-4.23-.02-.27-.03-.47-.2-.55-.47-.15-.56-.31-1.12-.44-1.68-.67-2.74-1.34-5.49-2.01-8.23-.56,.11-.56,.53-.65,.87-.64,2.56-1.27,5.11-1.91,7.67-.06,.25-.1,.51-.17,.75-.29,1.01-.43,1.14-1.46,1.17-1.03,.03-2.06,0-3.09,0-.67,0-1.03-.3-1.22-.97-.72-2.6-1.48-5.19-2.23-7.78-.48-1.67-.98-3.33-1.43-5.01-.19-.69-.46-1.18-1.28-1.13-.56,.03-.8-.3-.81-.83,0-.06,0-.13,0-.19,0-2.5-.21-2.34,2.23-2.35,1.54,0,3.09,0,4.63,.02,.63,.01,.81,.21,.86,.79,.02,.26,.02,.51,.02,.77q.02,1.62-1.62,1.99c-.13,.96,.35,1.83,.54,2.74,.2,.94,.48,1.87,.74,2.8,.25,.93,.51,1.86,.76,2.79,.24,.31,.48,.3,.73,0Z"/>
  <path class="c" d="M87.37,19.16c-.74,.82-.87,1.47-1.11,2.05-1.31,3.22-2.61,6.44-3.89,9.67-.3,.76-.71,1.11-1.57,1.08-2.54-.09-2.12,.3-3.08-1.99-1.25-2.96-2.49-5.93-3.74-8.89-.17-.39-.22-.87-.67-1.07-.23,.09-.29,.26-.3,.45-.02,2.45-.03,4.89-.04,7.34,0,.58,.16,1.01,.83,1.06,.28,.02,.44,.23,.48,.51,.02,.13,.03,.26,.03,.38,0,2.41,.25,2.38-2.23,2.37-1.22,0-2.45,0-3.67-.03-.67-.02-.87-.27-.91-.98-.03-.45-.03-.9,0-1.35,.03-.68,.05-.75,.91-.93,.54-.11,.78-.36,.79-.89,0-2.19,.01-4.38,.01-6.56,0-1.09-.02-2.19-.03-3.28,0-.53-.25-.76-.79-.88-.84-.19-.87-.25-.89-.97-.05-2.59-.14-2.4,2.18-2.4,1.48,0,2.96,.02,4.44,0,.6,0,.95,.26,1.17,.8,.82,2.03,1.65,4.05,2.48,6.07,.7,1.73,1.4,3.46,2.1,5.19,.1,.23,.24,.45,.36,.66,.5-.13,.55-.54,.68-.88,1.26-3.3,2.52-6.61,3.78-9.92,.14-.36,.29-.72,.41-1.08,.18-.55,.53-.84,1.13-.84,1.93,.01,3.86,0,5.79,.02,.7,0,.88,.22,.92,.95,.02,.45,0,.9,.01,1.35,.01,.68-.23,1.1-1,1.1-.49,0-.63,.37-.63,.79-.01,1.03-.02,2.06-.02,3.09,0,2.25,0,4.5,0,6.76,0,.5,.17,.8,.74,.94,.86,.21,.84,.26,.89,.96,0,.13,0,.26,0,.39,.04,1.89,.02,1.93-1.9,1.94-1.35,0-2.7-.01-4.05-.04-.44,0-.72-.26-.74-.72-.02-.58-.02-1.16-.02-1.74,0-.42,.16-.74,.63-.82,.48-.09,.56-.47,.57-.87,0-1.74,.01-3.48,0-5.21,0-1.08-.04-2.15-.06-3.56Z"/>
  <path class="c" d="M180.81,24.16c-1.09,0-2.19-.02-3.28,0-.6,.02-.78,.22-.8,.84-.03,.96-.03,1.93,0,2.9,.02,.71,.07,.74,.92,.92,.91,.2,.93,.22,.97,1.1,.1,2.14,.06,2.19-2.04,2.2-1.61,0-3.22,0-4.83-.03-.61-.01-.82-.24-.85-.8-.03-.58-.02-1.16,0-1.74,0-.46,.26-.63,.71-.72,1.1-.21,1.12-.24,1.12-1.34,.02-2.19,0-4.38,0-6.57,0-.9,0-1.8-.02-2.7-.03-.76-.07-.79-.87-.98-.91-.22-.91-.22-.95-1.11-.01-.32-.01-.64,0-.97,.03-1.21,.09-1.29,1.34-1.31,1.67-.02,3.35-.02,5.02,0,1.32,.02,1.36,.08,1.38,1.47,0,.32,0,.64-.01,.97-.04,.72-.08,.76-.92,.94-.92,.2-.96,.2-.96,1.08,0,2.84-.36,2.63,2.52,2.67,1.61,.02,3.22,0,4.83-.04,.61-.02,.8-.23,.83-.83,.03-.64,.03-1.29,0-1.93-.03-.72-.06-.73-.9-.93-.79-.19-.87-.24-.9-.97-.08-2.7-.1-2.4,2.16-2.41,1.55,0,3.09-.01,4.64,.01,.71,.01,.9,.21,.95,.92,.03,.45,.03,.9,.01,1.35-.04,.85-.09,.9-.98,1.1-.83,.19-.88,.2-.89,.95-.02,3.15-.03,6.31-.02,9.46,0,.95,.04,.99,1.08,1.17,.54,.1,.79,.34,.8,.87,.05,2.47,.14,2.44-2.19,2.43-1.48,0-2.96,.01-4.44-.02-.92-.02-1.07-.21-1.12-1.17-.02-.39-.02-.77,0-1.16,.03-.71,.09-.77,.91-.95,.86-.19,.93-.21,.91-.92-.09-4.44,.75-3.69-3.52-3.77-.19,0-.39,0-.58,0v.02Z"/>
  <path class="s" d="M55.39,88.37l1.17,.02c.99,.55,1.38,1.39,1.82,2.46,.83,2.04,1.65,4.11,2.74,6.05,.76,1.34,.9,2.64-.34,3.81-.95,.43-1.98,.52-2.99,.69-4.55,.76-9.1,1.48-13.65,2.2-.63,.1-1.27,.13-1.91,.2-1.71-.48-1.84-1.82-1.61-3.2,.44-2.64,.38-5.32,.75-7.96,.11-.8,.11-1.72,1.23-1.88,3.66-.92,7.42-1.31,11.12-2,.56-.1,1.11-.26,1.67-.4Z"/>
  <path class="c" d="M349.92,23.64c1.11,.9,1.49,1.98,1.75,3.13,.1,.44,.22,.87,.36,1.3,.08,.25,.24,.49,.53,.49,1.17,.01,1.09,.84,1.1,1.62,.02,1.91,.02,1.92-1.9,1.93-.9,0-1.8,0-2.7-.04-.42-.02-.71-.24-.79-.7-.17-1.01-.34-2.03-.52-3.04-.09-.51-.18-1.02-.32-1.51-.35-1.17-1.13-1.84-2.37-1.91-.32-.02-.64-.03-.96-.02-.93,.02-1.08,.17-1.11,1.15-.02,.51-.02,1.03,0,1.54,.03,.89,.02,.92,1.05,1.22,.46,.14,.62,.4,.63,.82,0,.51,.02,1.03,0,1.54-.04,.67-.26,.9-.97,.91-1.86,.02-3.73,.03-5.59,0-.72-.01-.92-.24-.96-.91-.02-.32-.02-.64-.02-.96,.01-1.12,0-1.14,1.24-1.41,.48-.1,.64-.39,.64-.8,.02-1.73,.02-3.47,.02-5.2,0-1.54,0-3.08-.02-4.63-.01-.73-.06-.76-.89-.95-.92-.21-.94-.23-.98-1.09,0-.19,0-.39,0-.58,0-1.69,0-1.71,1.71-1.72,2.51-.01,5.01,0,7.52,0,.91,0,1.81,.11,2.66,.39,3.02,1,4.24,3.57,3.46,6.56-.24,.9-.83,1.58-1.57,2.13-.25,.19-.51,.38-.95,.71Z"/>
  <path class="c" d="M325.55,23.64c1.24,1.02,1.57,2.34,1.84,3.67,.15,.76,.43,1.32,1.31,1.39,.35,.03,.53,.33,.54,.69,0,.19,.02,.39,.02,.58,.07,2.13,.06,2.14-2.08,2.15-.84,0-1.67,0-2.51-.04-.43-.02-.71-.25-.79-.69-.11-.63-.23-1.26-.35-1.9-.15-.82-.25-1.66-.46-2.47-.37-1.42-1.13-2.01-2.62-2.11-.26-.02-.51-.02-.77-.01-.93,.03-1.08,.17-1.11,1.15-.02,.58,0,1.16,0,1.74,0,.59,.18,1.01,.86,1.03,.57,.02,.77,.36,.79,.88,.06,2.51,.13,2.42-2.19,2.42-1.48,0-2.96,0-4.44-.04-.59-.01-.82-.26-.86-.81-.03-.45-.03-.9-.02-1.35,.03-.91,.03-.91,.94-1.1,.91-.2,.95-.2,.96-1.1,0-3.15,0-6.3-.02-9.46,0-.81-.03-.85-1.02-1.02-.53-.09-.83-.28-.84-.83,0-.06,0-.13-.01-.19,0-2.51-.23-2.37,2.21-2.37,2.25,0,4.5,.01,6.76,0,.98,0,1.94,.09,2.86,.38,2.45,.78,4.31,2.84,3.56,6.36-.16,.77-.58,1.43-1.18,1.95-.38,.34-.8,.64-1.38,1.1Z"/>
  <path class="c" d="M280.45,22.98c.22,.28,.34,.43,.46,.58,2.46,3.03,.8,7.67-3.03,8.42-.5,.1-1.02,.14-1.53,.14-2.44,.01-4.89,0-7.33,0-.26,0-.52-.01-.77-.04-.43-.04-.72-.26-.74-.72-.02-.45-.03-.9-.02-1.35,.02-.97,.03-.97,1.04-1.19,.73-.16,.82-.22,.82-1.03,.02-2.12,.01-4.24,0-6.37,0-1.09-.03-2.19-.04-3.28,0-.52-.21-.8-.76-.9-1.04-.2-1.06-.24-1.07-1.18-.02-2.33-.18-2.21,2.18-2.2,1.93,0,3.86,.02,5.79,.02,.78,0,1.54,.05,2.3,.23,3.06,.73,4.88,3.86,4.01,6.86-.22,.76-.76,1.32-1.3,2.01Z"/>
  <path class="d" d="M206.9,13.86c2.06,0,4.12-.02,6.18,0,.84,0,1.03,.2,1.04,1.03,.03,1.41,.02,2.83,0,4.24-.01,.7-.22,.87-.96,.91-.45,.03-.9,.01-1.35,.01-1.63,0-1.53-.11-1.6-1.45-.05-.9-.2-1.03-1.02-1.05-.96-.03-1.93,0-2.89,.02-.45,.01-.71,.28-.72,.73-.02,.71-.02,1.41,0,2.12,.02,.45,.29,.69,.75,.7,.45,.01,.9,0,1.35,.02,1.45,.04,1.46,.04,1.46,1.57,0,1.94,.13,1.94-1.85,1.96-1.72,.01-1.72,.04-1.75,1.7,0,.58,0,1.16,.04,1.73,.03,.44,.29,.7,.75,.71,.58,.02,1.16,.03,1.74,.02,2.09-.01,2.23,.22,2.19-2.03,0-.19,.02-.38,.06-.57,.05-.29,.23-.45,.51-.48,.19-.02,.38-.05,.58-.05,3.04,.01,2.72-.31,2.74,2.63,0,1.03-.02,2.06-.04,3.08,0,.37-.26,.59-.6,.65-.31,.06-.64,.06-.96,.06-3.73,0-7.46,.01-11.19,0-1.66,0-1.72-.09-1.72-1.76,0-.26,0-.51,.01-.77,.02-.45,.25-.66,.7-.75,1.14-.25,1.16-.27,1.17-1.28,0-2.96,0-5.92-.02-8.88,0-.91-.03-.91-.9-1.16-.88-.25-.9-.28-.95-1.16,0-.13,0-.26,0-.39-.02-2.28-.05-2.13,2.07-2.14,1.74,0,3.47,0,5.21,0h0Z"/>
  <path class="d" d="M297.49,13.85c1.87,0,3.73,0,5.6,0,.32,0,.64,.02,.96,.06,.29,.03,.5,.22,.5,.5,.03,1.67,.03,3.34,.03,5.01,0,.38-.28,.58-.63,.59-.84,.03-1.67,.02-2.51,0-.46,0-.66-.3-.7-.75-.05-.5,.16-1.08-.24-1.48-.46-.45-1.1-.22-1.66-.27-.13-.01-.26-.01-.39,0-.74,.08-1.74-.34-2.17,.34-.52,.8-.24,1.87-.12,2.82,.03,.28,.3,.4,.57,.41,.71,.03,1.42,.03,2.12,.05,.45,.01,.72,.23,.75,.7,.01,.19,.02,.39,.02,.58-.02,2.33,.23,2.23-2.16,2.23-.26,0-.51,.02-.77,.04-.38,.04-.55,.28-.6,.63-.02,.13-.03,.26-.03,.39,.03,3.61-.47,3.05,3.01,3.11,.19,0,.39,0,.58,0,.9-.04,1.07-.16,1.07-.98,0-2.43-.07-2.12,2.45-2.15,.26,0,.52,0,.77,.03,.35,.04,.62,.23,.62,.6,.02,1.67,.02,3.35,.02,5.02,0,.46-.29,.69-.73,.73-.38,.03-.77,.04-1.16,.04-3.54,0-7.08,0-10.62,0-.45,0-.9-.04-1.35-.08-.28-.03-.48-.21-.51-.49-.05-.51-.09-1.03-.08-1.54,.02-.96,.02-.99,1.07-1.18,.54-.09,.81-.33,.81-.86,.01-1.61,.03-3.22,.02-4.83,0-1.48-.02-2.96-.06-4.44-.02-.9-.03-.96-.91-1.15-.6-.13-.92-.39-.92-1.01,0-.39-.02-.77-.02-1.16,.02-1.43,.09-1.51,1.55-1.52,1.93-.02,3.86,0,5.79,0Z"/>
  <path class="c" d="M409.16,20.05c-.32,0-.64,.01-.96,0-.87-.04-.87-.04-1.12-.95-.47-1.72-2.11-2.6-3.71-1.98-.58,.22-.99,.59-1.07,1.24-.09,.71,.16,1.27,.8,1.61,.34,.18,.71,.3,1.07,.43,1.22,.41,2.43,.83,3.66,1.22,4.46,1.43,4.25,7.2,1.46,9.43-2.56,2.05-7.97,2.08-10.1-1.02-.21-.31-.36-.73-.8-.78-.88-.1-.91-.72-.93-1.4-.05-2.23-.02-2.28,2.17-2.32,.26,0,.51,0,.77,0,1.18,.03,1.28,.01,1.47,1.23,.3,1.93,2.74,2.43,3.97,1.78,.64-.34,.95-.86,.98-1.54,.03-.63-.26-1.14-.81-1.44-.45-.24-.93-.43-1.41-.6-.97-.34-1.96-.63-2.92-.99-2.74-1.04-3.94-2.96-3.68-5.84,.15-1.74,1-3.02,2.5-3.88,2.42-1.39,7.22-1.38,9.35,1.52,.18,.25,.44,.6,.69,.62,.94,.09,.93,.72,.93,1.39,0,.13,0,.26,0,.39q0,1.89-1.92,1.9c-.13,0-.26,0-.39,0h0Z"/>
  <path class="k" d="M44.97,75.23c-2.5-.38-4.38-1.84-5.98-3.63-3.2-3.59-5.54-7.73-7.38-12.16-2.18-5.25-3.82-10.66-5.06-16.2-.18-.81-.35-1.65-.33-2.48,.02-1.26,.54-2.37,1.36-3.33,.98-.3,1.99-.46,3.01-.52,.9,.41,.98,.44,.8,1.02-.4,1.28-.22,2.53,.03,3.81,1.1,5.69,2.5,11.31,4.33,16.8,1.14,3.42,2.41,6.79,4.12,9.98,.85,1.59,1.81,3.12,2.98,4.5,.66,.78,1.42,1.48,2.13,2.21Z"/>
  <path class="d" d="M114.39,32.13c-.51,0-1.03,0-1.54,0-1.64-.03-1.66-.05-1.71-1.78,0-.19-.02-.39-.02-.58,0-.7,.05-.74,.88-.95,.73-.18,.8-.26,.65-.85-.1-.37-.23-.74-.35-1.1-.13-.4-.37-.66-.83-.65-1.41,0-2.83,0-4.24,0-.42,0-.74,.15-.88,.59-.13,.43-.29,.85-.4,1.29-.11,.45,.03,.61,.6,.73,.12,.03,.26,.02,.38,.03,.37,.02,.6,.19,.62,.58,.01,.19,.02,.38,.03,.58,.04,2.12,.04,2.12-2.1,2.13-1.29,0-2.57,0-3.86-.03-.67-.02-.88-.27-.91-.98-.02-.51,0-1.03,0-1.54,0-.34,.11-.69,.5-.7,.74-.01,.99-.49,1.18-1.07,.69-2.07,1.38-4.15,2.08-6.22,.74-2.19,1.46-4.39,2.22-6.58,.39-1.14,.42-1.14,1.66-1.16,.84-.01,1.67,.03,2.51,0,.71-.03,1.06,.33,1.25,.94,.27,.86,.56,1.71,.84,2.57,1.12,3.42,2.26,6.83,3.37,10.26,.21,.64,.39,1.23,1.22,1.27,.29,.01,.42,.26,.44,.53,.02,.26,.03,.51,.04,.77,.03,1.9,.02,1.92-1.89,1.94-.58,0-1.16,0-1.74,0Z"/>
  <path class="d" d="M369.32,21.21c1.17-1.07,1.65-2.41,2.36-3.53-.11-.54-.51-.39-.78-.46-.27-.07-.48-.18-.53-.47-.04-.25-.05-.51-.05-.77-.01-2.21-.14-2.13,2.06-2.13,1.61,0,3.21,0,4.82,.02,.62,.01,.8,.21,.83,.81,.03,.51,.01,1.03,.02,1.54,0,.57-.11,1.02-.83,1.02-.42,0-.7,.27-.93,.6-1.51,2.08-3.03,4.15-4.55,6.22-.24,.32-.38,.67-.39,1.07,0,.96-.02,1.93,.02,2.89,.02,.57,.18,.69,.86,.79,.19,.03,.38,.02,.58,.04,.49,.03,.64,.35,.67,.77,.01,.26,.02,.51,.02,.77,0,1.67-.02,1.71-1.72,1.73-1.8,.02-3.6,.01-5.4-.02-.72-.01-.93-.25-.98-.91-.02-.32-.02-.64-.02-.96q.01-1.19,1.23-1.41c.66-.12,.75-.22,.8-.85,0-.13,0-.26,.01-.39q.1-2.83-1.52-5.16c-1.03-1.48-2.06-2.95-3.07-4.44-.31-.45-.67-.69-1.24-.77-.81-.12-.86-.2-.87-.97-.03-2.52-.22-2.4,2.17-2.39,1.54,0,3.09,0,4.63,.02,.72,.01,.91,.22,.95,.92,.03,.58,.01,1.16-.01,1.73-.01,.25-.1,.46-.34,.64-.79,.58-.8,.6-.4,1.3,.5,.89,1.02,1.76,1.6,2.75Z"/>
  <path class="d" d="M131.7,13.85c2.06,0,4.11,0,6.17,0,.45,0,.9,0,1.35,.04,.36,.03,.61,.27,.61,.62,.03,1.41,.04,2.82,.02,4.24,0,.35-.27,.6-.62,.63-.64,.05-1.28,.05-1.92,.06-1.1,.01-1.34-.14-1.41-1.29-.06-1.04-.27-1.15-1.33-1.13-.06,0-.13,0-.19,0-.06,0-.13,0-.19,.01-.44,.04-.72,.25-.74,.72-.02,.38-.02,.77-.02,1.16,0,2.63,0,5.27,0,7.9,0,.32,0,.64,0,.96,.04,.85,.06,.87,.99,1.07,.84,.18,.9,.21,.91,.94,.03,2.35,.26,2.37-2.24,2.36-1.48,0-2.96,.01-4.43-.02-.84-.02-1-.21-1.04-1.03-.02-.38-.02-.77-.01-1.16,.03-.89,.03-.98,.94-1.07,.83-.08,.95-.46,.95-1.14-.02-3.21-.04-6.42-.06-9.64,0-.38,0-.81-.46-.96-.49-.16-1.01-.22-1.47,.09-.13,.09-.21,.32-.24,.49-.05,.38-.04,.77-.08,1.15-.03,.28-.22,.45-.49,.51-.19,.04-.38,.07-.57,.07-3.13,0-2.75,.28-2.75-2.6,0-3.41-.44-2.93,2.95-2.97,1.8-.02,3.6,0,5.4,0Z"/>
  <path class="d" d="M155.08,13.85c2.25,0,4.51-.01,6.76,0,1.2,.01,1.27,.1,1.3,1.36,.02,1.03,.02,2.06,0,3.09-.02,.94-.17,1.07-1.16,1.12-.39,.02-.77,.01-1.16,0q-1.41-.02-1.61-1.46c-.11-.81-.27-.95-1.12-.97-.26,0-.52,0-.77,.03-.35,.06-.58,.26-.62,.63-.02,.19-.03,.38-.03,.58,0,3.09-.02,6.18,0,9.27,0,1.09,.02,1.13,1.13,1.31,.57,.09,.77,.36,.77,.88,.02,2.45,.23,2.43-2.18,2.42-1.54,0-3.09,0-4.63-.03-.69-.02-.87-.24-.91-.96-.02-.45-.02-.9,0-1.35,.03-.76,.05-.77,.89-.95,.92-.2,.98-.23,.98-1.08,0-3.22,0-6.44-.02-9.65,0-.95-1.1-1.48-1.91-.93-.14,.09-.25,.3-.27,.47-.06,.38-.04,.77-.08,1.15-.04,.37-.28,.58-.64,.59-.83,.02-1.67,.03-2.5,0-.44-.02-.68-.31-.68-.77,0-1.35-.01-2.7,0-4.05,0-.46,.32-.68,.76-.69,1.67-.01,3.35-.02,5.02-.02,.9,0,1.8,0,2.7,0h0Z"/>
  <path class="r" d="M60.79,100.71c0-.51,0-1.02,0-1.52,.01-.95-.24-1.76-1.12-2.26-.44-.25-.57-.63-.54-1.12,.07-1.27-.23-2.4-1.38-3.14-.36-.23-.52-.58-.45-.98,.19-1.2-.31-2.24-.73-3.3,.81-.15,1.61-.32,2.43-.43,.89-.12,1.73-.37,2.5-.82,1.43-.59,2.64-.44,3.36,.86,.18-8.33-.35-16.82,.3-25.31,.03-.21,.13-.39,.3-.53,.33,.09,.61,.26,.65,.62,.05,.51,.08,1.03,.08,1.54,.02,8.69,.03,17.37,.04,26.06,0,2.25-.04,4.5-.06,6.75,0,.39,0,.77,.03,1.16,.07,.86,.15,.94,1.18,1.23,.12,.03,.25,.05,.38,.07-2.26,.74-4.58,1.11-6.95,1.12Z"/>
  <path class="b" d="M42.61,90.77c-.44,.99-.44,2-.12,3.01,.14,.45,.21,.87-.1,1.28-.73,.99-.59,2.06-.23,3.13,.14,.43,.33,.88,0,1.29-1.04,1.31-.76,2.63-.09,3.97,.06,.12,.11,.23,.17,.35-.87,.25-1.76,.42-2.67,.42-.87,.31-1.77,.26-2.62,0-1.23-.37-1.64-1.64-1.2-2.45,1.07-1.96,.58-4.25,1.61-6.15,.54-1,0-2.03,.23-3,.16-.67,.08-1.4,.52-2,1.12-.33,2.23-.71,3.42-.72,.5,.02,.85,.3,1.13,.68-.02,.06-.04,.12-.05,.19Z"/>
  <path class="s" d="M37.97,91.12c.32,.32,.65,.64,.55,1.16-.17,.87,.1,1.63,.54,2.37,.28,.47,.1,.79-.31,1.13-1.26,1.06-1.41,1.7-.74,3.14,.43,.93,.44,.91-.36,1.5-1.05,.78-1.26,1.53-.84,2.64,.25,.67,.71,1.05,1.42,1.1,.45,.03,.89,.04,1.34,.07-1.72,.55-3.51,.7-5.28,.9-.79,.09-1.55-.16-1.92-.97-.4-.89-.14-2.01,.6-2.62,.44-.36,.93-.66,1.44-1.03-.17-.25-.32-.45-.44-.67-.69-1.26-.55-2.17,.53-3.04,.39-.32,.86-.55,1.29-.82,.18-.49-.32-.64-.48-.95-.5-.93-.42-1.67,.24-2.48,.55-.67,1.32-1,2.03-1.42,.13-.14,.26-.14,.4,0Z"/>
  <path class="k" d="M42.66,90.58l-1.16,.15c-1.17,.25-2.22,.04-2.64-1.18-.49-1.42,.18-2.45,1.47-3.11,.64-.41,1.33-.75,1.92-1.23,2.91-2.39,3.86-5.83,2.72-9.61v-.4c.59,.17,1,.52,1.16,1.15,.62,2.51,.56,4.97-.42,7.38-.35,.85-.86,1.61-1.72,2-1.33,.6-1.48,1.66-1.24,2.89,.07,.38,.23,.74,.31,1.11,.08,.36-.17,.59-.39,.83Z"/>
  <path class="e" d="M390.53,13.94c-.06,.21-.09,.4-.18,.56-.88,1.7-1.76,3.4-2.66,5.08-.28,.53-.51,.59-1.11,.39-.36-.12-.71-.27-1.06-.43-.42-.19-.53-.51-.39-.94,.59-1.82,1.19-3.64,1.78-5.45,.15-.45,.47-.59,.9-.45,.79,.26,1.57,.54,2.34,.84,.16,.06,.26,.26,.39,.39Z"/>
  <path class="g" d="M40.32,86.44c-.2,.33-.46,.64-.6,.99-.29,.74-.29,1.51,.04,2.25,.33,.74,1.01,.93,1.73,1.05-1.13,.53-2.35,.25-3.52,.39-.13,0-.26,0-.4,0-.16-.1-.33-.19-.48-.32-1.6-1.4-.67-3.37,.82-3.75,.8-.2,1.6-.42,2.4-.63Z"/>
  <path class="f" d="M230.02,25.75c0,.18,0,.36-.03,.52-.02,.1-.13,.22-.22,.24-.2,.06-.35-.08-.41-.25-.05-.16-.04-.35-.06-.52h.73Z"/>
  <path class="n" d="M203.12,51.43c.58,.56,.54,1.16,.6,1.71,.41,3.71,.88,7.41,1.56,11.08,.55,2.97,1.16,5.94,1.74,8.9,.42,2.16,.28,2.36-1.89,2.39-1.29,.02-2.57,0-3.86,0-.39,0-.77-.02-1.15-.07-.64-.1-.92-.44-.83-1.06,.1-.7,.25-1.39,.39-2.09,.6-2.97,1.28-5.92,1.77-8.9,.6-3.62,1.03-7.26,1.54-10.89,.04-.31,.09-.62,.15-1.08Z"/>
  <path class="n" d="M101.97,51.54c.16,1.19,.35,2.38,.48,3.58,.63,5.95,1.73,11.82,2.98,17.66,.09,.44,.2,.88,.27,1.32,.16,1.04-.03,1.37-1.01,1.39-1.93,.04-3.85,.01-5.78,0-.25,0-.51-.09-.74-.19-.33-.14-.46-.44-.41-.79,.1-.63,.21-1.27,.33-1.9,.6-3.02,1.3-6.03,1.8-9.07,.6-3.67,1.03-7.37,1.54-11.06,.04-.31,.11-.61,.17-.92l.38-.02Z"/>
  <path class="n" d="M59.24,63.55c-.37-.5-.09-.99,.07-1.46,.97-2.93,1.59-5.94,1.97-9,.48-3.82,.7-7.66,.58-11.51-.02-.64-.12-1.28,.06-1.91,.82-.61,1.59-1.29,2.61-1.57,1.2-.33,1.55-.13,1.59,1.08,.04,1.09,.05,2.18,.05,3.26,0,4.16-.02,8.32,.02,12.48,0,1.07-.2,2.02-.8,2.9-.28,2.58-3.8,5.85-6.16,5.74Z"/>
  <path class="h" d="M59.24,63.55c2.29-1.66,4.28-3.63,6.16-5.73,.96,.74,.89,1.75,.65,2.76-.13,.55-.4,1.06-.6,1.59,0,.11,0,.21,0,.31-.17,1.21-.9,2.08-1.78,2.83-1.4,1.2-2.91,2.26-4.49,3.21-.71,.43-1.47,.85-2.26,.12-.16-.3-.2-.62-.05-.93,.7-1.44,1.27-2.96,2.38-4.17Z"/>
  <path class="n" d="M56.91,68.64c2.52-1.17,4.73-2.81,6.81-4.63,.58-.51,1.15-1.02,1.72-1.53,.45,.76,.36,1.61,.36,2.44,0,6.6,0,13.19,.01,19.79,0,1.6,0,3.2,0,4.8,0,.38-.05,.77-.11,1.14-.06,.34-.29,.55-.62,.67-.31,.12-.73-.13-.69-.43,.03-.25,.14-.5,.17-.75,.11-1.18-.36-1.99-1.45-2.41-.53-.21-1.13-.23-1.61-.6,.13-.43,.34-.84,.39-1.28,.12-1.13-.58-2.02-1.7-2.15-.63-.08-1.28-.02-1.92-.02-2.05,0-3.9-.63-5.54-1.87-2.02-1.52-2.98-3.62-3.27-6.07-.06-.51,.12-.87,.56-1.11,.22-.12,.45-.24,.67-.37,1.62-.94,3.05-2.12,4.16-3.64,.58-.78,1.28-1.42,2.06-1.98Z"/>
  <path class="n" d="M19.4,45.48c.19,.04,.7,.1,1.19,.23,1.02,.25,1.64,.87,1.92,1.92,.69,2.61,1.61,5.15,2.64,7.66,1.62,3.94,3.61,7.68,6.14,11.12,.22,.3,.39,.65,.55,.99,.03,.05-.13,.28-.18,.27-.32-.04-.63-.09-.94-.19-3.27-1.08-6.24-2.74-8.91-4.91-2.87-2.34-5.27-5.09-7.18-8.26-.68-1.13-1.09-2.32-1.02-3.65,.14-2.89,2.55-5.18,5.77-5.17Z"/>
  <path class="o" d="M343,19.35c-.03-2.28-.13-2.11,2.22-2.1,.51,0,1.03,.03,1.51,.16,1.06,.29,1.62,1.07,1.6,2.1-.02,1.01-.64,1.77-1.73,1.99-1.01,.2-2.03,.15-3.05,.05-.36-.04-.54-.32-.55-.67-.01-.51,0-1.02,0-1.53Z"/>
  <path class="p" d="M320.6,17.21c.47,.04,1.05,.03,1.61,.15,1.15,.26,1.78,1.11,1.74,2.19-.04,.98-.7,1.74-1.8,1.94-1.01,.18-2.03,.16-3.05,.03-.27-.04-.47-.24-.47-.52-.01-1.08,0-2.17,.02-3.25,0-.28,.24-.45,.51-.47,.44-.04,.89-.05,1.44-.08Z"/>
  <path class="l" d="M273.33,26.74c-.02-2.23-.1-2.08,2.07-2.09,.19,0,.39,0,.58,0,1.3,.09,2.03,.85,2.01,2.08-.02,1.22-.76,2.02-2.03,2.09-.64,.04-1.28,0-1.92-.01-.46-.01-.69-.29-.71-.73-.02-.45,0-.9,0-1.34Z"/>
  <path class="q" d="M275.19,17.24c.25,0,.51,.01,.76,0,1.04-.06,1.81,.98,1.86,2.04,.05,1.01-.65,1.87-1.64,2.04-.25,.04-.51,.04-.76,.05-2.09,.07-2.11,.05-2.11-2.07,0-.06,0-.13,0-.19,0-1.93-.07-1.88,1.89-1.87Z"/>
  <path class="m" d="M111.08,22.93c-1.29,.32-2.34,.32-3.52-.01,.46-1.75,.93-3.43,1.71-5.25,.84,1.78,1.21,3.45,1.81,5.26Z"/>
</svg>