<?xml version="1.0" encoding="utf-8"?>
<svg xmlns="http://www.w3.org/2000/svg" data-name="Layer 2" id="Layer_2" viewBox="0 0 221.1 37.21">
  <path d="m207.35,24.65v-15.91c2.62.03,5.22-.16,7.76.14,2.99.35,4.51,2.71,4.14,5.73-.18,1.47-.84,2.63-2.1,3.47-3.19,2.13-6.36,4.29-9.54,6.44-.06.04-.13.07-.26.14Z"/>
  <path d="m194.21,8.7h10.68c.01.14.04.28.04.41,0,2.61,0,5.23,0,7.84,0,.4-.14.62-.48.85-3.08,2.04-6.14,4.12-9.2,6.18-.32.22-.64.44-1.03.71v-15.99Z"/>
  <path d="m192.41,8.72c-2.22,5.3-4.43,10.56-6.69,15.94-2.26-5.38-4.47-10.64-6.69-15.94h13.39Z"/>
  <path d="m110.59,8.78c2.46,0,4.88-.12,7.29.03,2.32.15,3.86,1.57,4.26,3.68.36,1.91.1,3.7-1.48,5.07-.87.75-1.92,1.1-3.04,1.18-1.1.09-2.21.09-3.32.1-.35,0-.45.11-.45.45,0,1.54-.01,3.08-.02,4.62,0,.12-.01.24-.02.4h-3.22v-15.54Zm3.27,4.9h0c0,.65-.02,1.31.01,1.96,0,.14.17.39.26.39,1.06-.02,2.13.04,3.16-.16,1.16-.23,1.7-1.14,1.6-2.29-.1-1.23-.71-1.95-1.92-2.1-.92-.11-1.87-.06-2.8-.1-.26,0-.31.12-.31.34,0,.65,0,1.31,0,1.96Z"/>
  <path d="m23.92,24.35c0-2.14,0-4.23,0-6.31,0-.4-.08-.8-.16-1.19-.15-.78-.6-1.3-1.41-1.42-.82-.12-1.52.14-2.01.83-.42.59-.56,1.28-.56,1.99,0,1.85,0,3.7,0,5.55,0,.17,0,.34,0,.55-1,0-1.97,0-2.93-.02-.08,0-.22-.23-.22-.35-.02-.76,0-1.52-.01-2.29,0-4.23-.01-8.46-.02-12.69,0-.09.01-.18.02-.29h3.15v5.67c.24-.23.39-.38.54-.51,1.6-1.46,4.45-1.27,5.81.4.71.87.93,1.93.95,3.02.03,2.24.01,4.48.02,6.72,0,.21-.03.36-.3.36-.94,0-1.87,0-2.87,0Z"/>
  <path d="m53.17,8.71c0,.79-.02,1.53,0,2.28.01.37-.11.48-.47.48-2.05-.01-4.09,0-6.14,0-.61,0-.61,0-.61.6,0,1.04.02,2.08,0,3.12,0,.38.13.48.49.48,1.89,0,3.78.02,5.67,0,.39,0,.52.11.5.5-.03.65-.02,1.31,0,1.96,0,.33-.12.43-.44.42-1.89,0-3.78.01-5.67,0-.41,0-.57.08-.56.53.03,1.72.01,3.45.01,5.22h-3.26v-15.59h10.48Z"/>
  <path d="m152.81,25.97c.41.03.78.07,1.15.07,1.49-.02,2.34-1.06,1.94-2.48-.43-1.49-.97-2.95-1.47-4.41-.63-1.82-1.27-3.63-1.91-5.45-.05-.16-.09-.32-.14-.52,1.06,0,2.05-.01,3.05.02.12,0,.3.19.34.33.73,2.5,1.45,5.01,2.17,7.51.03.12.07.23.2.35.06-.2.12-.39.17-.59.73-2.42,1.46-4.84,2.2-7.26.04-.14.23-.35.35-.35.96-.03,1.93-.02,2.95-.02-.17.5-.31.94-.47,1.37-1.21,3.37-2.42,6.75-3.64,10.12-.36,1-.82,1.94-1.6,2.7-.69.68-1.52,1.05-2.46,1.12-.82.06-1.65,0-2.47-.02-.12,0-.34-.17-.35-.27-.03-.74-.02-1.48-.02-2.22Z"/>
  <path d="m126.7,16.72c-.9,0-1.77,0-2.64,0-.09,0-.18-.01-.33-.02,0-.19,0-.37.03-.54.32-1.62,1.31-2.64,2.9-3.09,1.34-.38,2.69-.36,4.02.02,1.57.45,2.59,1.7,2.68,3.34.08,1.49.07,2.98.1,4.48.03,1.13.08,2.26.12,3.42h-2.72c-.03-.38-.07-.78-.11-1.26-.16.12-.3.2-.4.31-1.41,1.46-4.11,1.68-5.79.55-1.66-1.11-1.95-4.42.44-5.52,1.29-.59,2.66-.77,4.04-.94.26-.03.53-.06.79-.08.6-.04.6-.04.55-.65-.13-1.42-1.46-2.16-2.77-1.54-.44.21-.68.58-.81,1.03-.04.15-.06.3-.1.5Zm3.09,2.54c-.83.15-1.67.25-2.48.46-.78.2-1.08.88-.84,1.65.2.65.73,1.01,1.5,1.04,1.48.05,2.37-.89,2.41-2.52,0-.43-.07-.68-.58-.62Z"/>
  <path d="m40.11,20.91c-.26,1.11-.79,1.93-1.59,2.58-2.15,1.75-6.14,1.72-8.02-.53-1.15-1.37-1.47-2.98-1.38-4.71.1-1.87.76-3.47,2.36-4.54,2.78-1.86,7.95-1.09,8.63,3.89.06.46.08.93.15,1.39.05.33-.07.42-.37.41-.87,0-1.75,0-2.62,0-1.53,0-3.06.01-4.59,0-.38,0-.5.13-.45.49.21,1.57,1.08,2.62,2.53,2.6.88-.01,1.65-.33,2.01-1.25.05-.13.22-.31.34-.31.96-.03,1.93-.01,2.99-.01Zm-3.11-3.49c.08-.94-.55-1.91-1.44-2.23-1.22-.43-2.71-.12-3.19,1.72-.1.37-.05.54.39.54,1.34,0,2.68.01,4.03.02.07,0,.15-.03.22-.04Z"/>
  <path d="m99.96,19.4c-.1,1.51.73,2.79,2.01,3.02,1.17.21,2.02-.15,2.5-1.15.15-.32.33-.38.64-.37.73.03,1.47.02,2.2.03.15,0,.3.02.52.04-.19.76-.53,1.39-1,1.95-2.03,2.4-6.97,2.53-8.94-.38-1.38-2.03-1.68-6.22.72-8.35,1.72-1.52,3.73-1.75,5.83-1.04,1.91.65,2.95,2.12,3.33,4.05.11.53.12,1.08.18,1.62.05.43-.09.59-.56.58-2.33-.02-4.66,0-6.98,0-.14,0-.28,0-.44,0Zm.04-2.01s.05.05.08.05c1.5,0,3,.02,4.49,0,.08,0,.23-.2.22-.29-.14-1.27-1.26-2.21-2.52-2.15-1.27.06-2.21,1.05-2.27,2.38Z"/>
  <path d="m6.68,11.47H1.81v-2.75h13.18c0,.84.01,1.68-.02,2.51,0,.09-.25.23-.39.24-1.34.02-2.69,0-4.03,0-.15,0-.31,0-.51,0v12.85h-3.36v-12.86Z"/>
  <path d="m55.11,13.19h3.12c0,.22,0,.42,0,.61,0,1.87-.02,3.73.02,5.6.01.59.13,1.22.36,1.76.46,1.07,2.01,1.31,2.85.49.62-.61.9-1.38.91-2.23.02-1.91,0-3.83,0-5.74,0-.15,0-.3,0-.49h3.14v11.12h-2.94v-1.28c-.19.18-.3.27-.39.37-1.3,1.3-2.87,1.52-4.54.98-1.64-.54-2.38-1.87-2.46-3.47-.12-2.53-.09-5.07-.11-7.6,0-.03.02-.06.04-.11Z"/>
  <path d="m83.57,13.2h3.17c0,.35,0,.67,0,1,0,3.22-.01,6.44,0,9.66,0,.43-.13.53-.53.51-.69-.03-1.38-.02-2.06,0-.29,0-.39-.11-.38-.39.01-.28,0-.56,0-.99-.97,1.15-2.08,1.65-3.42,1.64-2.25,0-3.86-1.41-3.99-3.66-.11-1.83-.07-3.67-.09-5.5,0-.74,0-1.49,0-2.26h3.16c0,.15,0,.32,0,.48,0,2.1,0,4.2,0,6.3,0,1.57,1.18,2.46,2.66,2.04.91-.25,1.17-1.01,1.36-1.79.09-.36.1-.74.1-1.11,0-1.96,0-3.92,0-5.92Z"/>
  <path d="m68.94,15.48c-.52,0-.99.01-1.45-.01-.11,0-.31-.14-.31-.23-.03-.68-.01-1.36-.01-2.07h1.76v-2.97h3.17v2.94h2.17c0,.73.01,1.41-.02,2.09,0,.09-.21.24-.34.24-.47.03-.94.03-1.4.01-.29,0-.41.07-.4.39.02,1.38.01,2.77.01,4.15,0,.14,0,.28,0,.42.09,1.18.67,1.67,1.85,1.52.32-.04.38.09.38.35,0,.54-.01,1.09,0,1.63,0,.29-.13.47-.4.47-.87.01-1.76.11-2.61-.03-1.45-.24-2.21-1.13-2.3-2.7-.11-1.87-.08-3.76-.11-5.64,0-.18,0-.36,0-.57Z"/>
  <path d="m143.89,13.16h1.75v-2.94h3.19v2.95c.56,0,1.09.03,1.61,0,.46-.03.6.14.57.58-.03.42-.02.84,0,1.26.02.36-.1.5-.48.48-.54-.03-1.08,0-1.68,0,0,.51,0,1,0,1.49.02,1.26-.01,2.52.08,3.77.08.96.78,1.41,1.74,1.27.12-.02.24-.03.42-.05,0,.75.01,1.46-.01,2.17,0,.1-.18.25-.29.27-1.05.19-2.11.23-3.15-.1-1.22-.38-1.76-1.31-1.87-2.49-.1-1.08-.07-2.17-.09-3.26-.01-.87-.02-1.74,0-2.61,0-.32-.07-.46-.41-.44-.34.02-.69.02-1.03-.02-.12-.01-.32-.17-.32-.26-.03-.66-.01-1.33-.01-2.06Z"/>
  <path d="m135.73,24.35v-11.18c.9,0,1.78,0,2.66.01.07,0,.19.21.2.33.03.33,0,.67,0,1,.24-.21.47-.37.65-.56.84-.89,1.91-1.04,3.06-.94.3.03.43.19.43.5-.01.73,0,1.46,0,2.25-.35,0-.67,0-.99,0-1.76,0-2.84,1.04-2.86,2.8-.02,1.77-.01,3.54,0,5.31,0,.36-.09.49-.47.48-.89-.03-1.77,0-2.69,0Z"/>
  <path d="m92.24,24.33h-3.04v-11.16c.85,0,1.7,0,2.55.01.08,0,.22.19.23.31.03.35.01.7.01,1.15.14-.15.23-.26.32-.36.91-1.07,2.09-1.43,3.44-1.26.13.02.33.25.34.39.03.77.02,1.55.02,2.36-.31,0-.59,0-.86,0-1.78,0-2.87.95-2.96,2.73-.09,1.74-.04,3.48-.05,5.22,0,.2,0,.39,0,.61Z"/>
  <path d="m169.7,21.91c-.02,1.03-.32,1.96-1.27,2.49-1,.56-2.08.57-3.08-.04-1.11-.67-1.32-1.76-1.18-2.93.13-1.16.87-1.93,1.96-2.24,1.92-.55,3.59.74,3.57,2.71Zm-5.1.02c0,1.46.93,2.45,2.31,2.44,1.41,0,2.38-.99,2.39-2.43,0-1.41-1.01-2.45-2.39-2.43-1.41.01-2.31.95-2.31,2.42Z"/>
  <path d="m168.45,23.64c-.56.16-.81,0-.92-.45-.09-.36-.15-.74-.6-.87-.41-.11-.53-.02-.55.41,0,.22.02.44-.03.65-.03.13-.22.33-.28.32-.16-.05-.4-.2-.4-.32-.03-1.01-.03-2.02-.01-3.02,0-.09.18-.27.27-.26.51,0,1.03,0,1.53.1.78.15,1.02.91.51,1.52-.17.2-.17.35-.06.58.2.43.35.88.54,1.35Zm-2.07-2.48c-.04.31.04.52.44.51.34-.02.67-.09.66-.47-.01-.42-.41-.43-.73-.47-.33-.04-.39.16-.37.44Z"/>
</svg>