<?xml version="1.0" encoding="utf-8"?>
<svg xmlns="http://www.w3.org/2000/svg" id="a" viewBox="0 0 500 143">
  <path d="M81.46,37.7c-1.3,3.07-2.62,6.12-3.9,9.2-6.77,16.23-13.53,32.47-20.3,48.7-.31,.75-.51,1.59-.98,2.23-.51,.7-1.24,1.61-1.95,1.68-.55,.05-1.41-.96-1.77-1.68-1.14-2.29-2.1-4.67-3.13-7.02-7.57-17.29-15.13-34.58-22.7-51.87-.46-1.04-1-2.05-1.89-3.87-.24,1.97-.44,3.07-.5,4.18-.76,15.72-1.54,31.45-2.24,47.18-.28,6.24,.16,6.82,6.27,8.39,2.19,.56,3.37,1.44,2.39,3.78H8.33c-.83-2.04-.05-3.09,2.06-3.73,5.81-1.78,5.85-2.02,6.12-8.02,.8-17.71,1.64-35.41,2.51-53.12,.29-5.93,.25-6.16-5.62-7.55-2.27-.54-2.89-1.66-2.17-4.02,5.74,0,11.57-.25,17.35,.18,1.4,.1,3.17,2.2,3.86,3.78,7.64,17.51,15.09,35.1,22.61,52.66,.45,1.06,.96,2.1,1.71,3.74,.73-1.65,1.28-2.82,1.76-4.01,7.05-17.38,14.16-34.73,21.07-52.16,1.22-3.07,2.98-4.45,6.22-4.39,4.65,.09,9.31,.02,13.87,.02,.94,2.84-.03,3.84-2.6,4.27-4.54,.76-5.12,1.67-4.91,6.33,.83,18.64,1.77,37.28,2.47,55.92,.15,3.98,1.73,6.07,5.62,6.6,1.87,.25,3.56,.79,2.63,3.5h-27.21c-.57-1.76-.33-2.86,1.91-3.39,8.4-1.99,7.13-2.54,6.85-9.47-.64-15.96-1.5-31.91-2.27-47.86l-.7-.2Z"/>
  <path d="M195.13,90.37c-2.38,1.96-4.71,4.1-7.25,5.93-7.97,5.74-19.82,4.3-25.95-3.4-11.73-14.73-6.16-39.77,15.03-44.43,4.41-.97,9.4,.57,14.11,1.08,1.21,.13,2.37,.72,3.79,1.18,0-8.32,.07-16.31-.03-24.3-.04-3.07-2.36-3.88-4.94-4.5-1.18-.28-2.17-1.35-3.25-2.07l.58-.89c5.26-.84,10.52-1.71,15.79-2.52,2.52-.39,2.57,1.35,2.5,3.09-.2,5.12-.57,10.25-.59,15.37-.08,16.91-.04,33.82-.02,50.72,0,6.13,.04,6.08,5.8,8.02,.8,.27,1.33,1.3,1.99,1.98-.69,.42-1.34,1.09-2.09,1.22-4.02,.71-8.08,1.17-12.08,1.93-2.52,.48-3.49-.38-3.39-2.85,.08-2.06,.02-4.13,.02-5.58Zm0-20.66c0-1.63-.14-3.28,.02-4.89,.81-7.72-1.51-9.11-9.7-11.98-5.28-1.86-10.49-1.01-14.2,3.83-6.25,8.13-5.43,25.58,1.48,33.16,4.72,5.18,10.85,5.62,16.13,1.05,3.98-3.44,6.3-7.74,6.27-13.12-.01-2.68,0-5.36,0-8.04Z"/>
  <path d="M248.4,97.87c.81-.79,1.48-1.96,2.44-2.31,5.48-1.96,5.56-1.9,5.49-7.62-.1-8.04,.02-16.09-.54-24.1-.46-6.57-4.74-9.28-11.26-7.97-7.44,1.49-12.09,6.47-12.41,13.97-.3,6.98-.06,13.99-.12,20.98-.03,3.36,2.59,3.85,4.91,4.47,1.8,.49,3.2,.94,2.38,3.3h-24.57c-.69-1.8-.11-2.67,1.99-3.23,5.53-1.49,5.5-1.59,5.5-7.4,0-19.36,0-38.71,0-58.07,0-6.17-.23-6.35-6.25-8.06-.87-.25-1.47-1.41-2.19-2.15,.81-.42,1.58-1.09,2.44-1.23,4.15-.66,8.33-1.08,12.47-1.77,3.64-.61,4.05-.34,3.98,3.41-.22,11.65-.44,23.3-.65,34.95-.02,1.11,0,2.23,0,3.88,2.83-2.44,5.07-4.59,7.53-6.46,4-3.03,8.42-4.95,13.63-4.6,6.69,.45,11.59,4.49,12.39,11.15,.61,5.07,.46,10.23,.55,15.35,.08,4.08,.02,8.16,.02,12.24,0,6.43,.02,6.37,6.18,8.99,.84,.36,1.3,1.6,2.36,2.98h-25.38l-.89-.74Z"/>
  <path d="M324.64,126.29c-.66-1.69,.24-2.63,2.24-3,3.44-.64,4.62-2.67,4.59-6.21-.15-18.78-.06-37.55-.08-56.33,0-5.91-.3-6.17-5.94-8.01-.79-.26-1.34-1.28-2.23-2.18,5.67-.94,10.6-1.75,15.53-2.6,1.96-.34,2.84,.33,2.74,2.4-.11,2.29-.02,4.58,.63,7.42,.68-.87,1.3-1.8,2.05-2.6,5.69-6.16,12.57-8.88,20.86-6.57,8.33,2.32,12.49,8.55,14.45,16.5,3.86,15.67-5.2,31.48-20.29,34-5.62,.94-11.67-.67-17.82-1.14,0,6.29-.14,13.47,.14,20.63,.05,1.18,1.73,2.8,3.02,3.3,2.24,.88,4.81,.89,7.14,1.61,1.04,.32,1.81,1.5,3.25,2.76h-30.26Zm16.63-49.36c0,3.26-.04,6.53,.03,9.79,.02,.88,.07,2.04,.6,2.59,4.08,4.24,9.05,6.64,15.04,6.04,5.49-.55,8.8-4.03,10.54-9.01,2.8-8.03,2.55-16.05-.88-23.84-.91-2.08-2.37-4.05-4-5.65-4.35-4.27-9.72-4.48-14.56-.74-4.38,3.39-7.04,7.7-6.8,13.47,.1,2.44,.02,4.89,.02,7.34Z"/>
  <path d="M381.59,50.56c5.59-.93,10.31-1.67,15-2.53,2.24-.41,3.33,.13,3.15,2.62-.15,2.18-.03,4.37-.03,7.08,1-.94,1.75-1.56,2.4-2.27,5.84-6.38,12.9-9.29,21.44-6.78,8.43,2.47,12.48,8.96,14.34,17.04,3.53,15.37-5.57,30.87-20.39,33.37-5.62,.95-11.67-.64-17.85-1.1,0,6.35-.14,13.62,.15,20.88,.04,1.11,1.9,2.6,3.23,3.12,2.14,.83,4.59,.82,6.8,1.52,1.06,.33,1.87,1.45,2.79,2.22-.2,.29-.4,.58-.6,.87h-28.98c-.79-1.91-.02-2.93,2.03-3.28,3.7-.63,4.68-2.93,4.65-6.52-.14-18.43-.06-36.85-.07-55.28,0-6.45-.03-6.41-6.22-8.81-.71-.28-1.13-1.29-1.84-2.15Zm17.94,26.68c0,1.98,.3,4.02-.06,5.93-1.06,5.77,2.32,8.52,6.82,10.64,8.86,4.18,17.15,.63,19.93-8.75,2.08-7.01,1.99-14.1-.69-20.92-1.04-2.63-2.69-5.22-4.66-7.25-4.26-4.37-9.69-4.54-14.53-.81-4.38,3.38-7.05,7.68-6.83,13.45,.1,2.56,.02,5.13,.02,7.69Z"/>
  <path d="M138.02,91.18c-5.55,8.52-13.37,9.53-21.92,7.86-9.35-1.82-13.17-12.39-6.61-19.36,3.03-3.22,7.58-5.24,11.77-7.08,3.47-1.53,7.42-1.97,11.16-2.92,4.77-1.21,5.04-1.48,4.75-6.45-.12-1.95-.5-3.94-1.17-5.77-1.35-3.74-3.95-5.28-8.14-5.36-3.85-.08-6.87,1.44-7.66,5.25-1.06,5.09-4.85,5.98-8.92,6.92-2.47,.57-3.21-.83-2.72-2.62,.57-2.06,1.49-4.23,2.88-5.82,6.13-7.07,18.62-9.96,27.42-6.59,5.85,2.23,7.94,6.97,8.09,12.71,.2,7.58,.04,15.16,.15,22.74,.03,2.32,.18,4.7,.77,6.92,.73,2.75,2.53,4.37,5.77,3.65,.75-.17,1.67,.44,2.52,.68-.55,.86-.9,2.12-1.68,2.53-6.59,3.43-13.54,.46-16.43-7.29Zm-1-19.71c-5.3,1.93-10.41,3.18-14.9,5.59-4.19,2.25-5.08,6.65-4.14,11.28,.7,3.46,2.77,5.72,6.2,6.24,4.62,.7,8.18-1.39,10.64-5.19,.99-1.53,1.96-3.34,2.1-5.09,.31-3.89,.1-7.83,.1-12.84Z"/>
  <path d="M306.41,91.34c-5.28,8.17-13.03,9.4-21.61,7.76-9.74-1.86-13.54-12.66-6.59-19.76,3.03-3.09,7.46-5.07,11.58-6.76,3.95-1.62,8.32-2.23,12.53-3.23,2.4-.57,3.67-1.9,3.35-4.46-.27-2.19-.29-4.45-.88-6.54-1.21-4.25-3.87-6.12-8.23-6.24-4.43-.12-6.95,1.16-8.08,5.65-1.3,5.16-5.25,5.74-9.22,6.47-.62,.11-2.38-1.76-2.22-2.3,.65-2.16,1.45-4.5,2.9-6.16,6.18-7.08,18.68-9.91,27.44-6.5,5.67,2.21,7.82,6.82,7.99,12.43,.22,7.69,.06,15.39,.16,23.09,.03,2.2,.16,4.46,.7,6.58,.74,2.9,2.49,4.68,5.93,3.87,.71-.17,1.63,.51,2.45,.8-.48,.8-.76,1.94-1.47,2.34-6.39,3.65-13.51,.74-16.72-7.04Zm-.56-18.81l-1.29-.91c-4.81,1.86-9.93,3.19-14.35,5.74-4.12,2.37-4.77,6.87-3.67,11.44,.79,3.3,2.93,5.36,6.2,5.81,4.47,.62,7.94-1.38,10.4-5.02,.9-1.32,1.82-2.87,1.98-4.39,.45-4.2,.51-8.45,.72-12.68Z"/>
  <path d="M432.08,48.99h24.83c1,2.25-.76,2.7-2.36,2.92-2.93,.39-3.97,1.89-2.82,4.55,4.08,9.5,8.25,18.96,12.77,29.31,3.98-9.74,7.6-18.55,11.19-27.37,1.25-3.07,.87-5.37-2.83-6.42-1.02-.29-1.8-1.45-2.69-2.2,.19-.27,.38-.53,.56-.8h19.22c-1.2,1.29-1.88,2.71-2.78,2.86-3.55,.59-4.97,3-6.21,5.94-7.88,18.67-15.84,37.3-23.76,55.95-2.67,6.29-7.07,10.68-13.9,12.14-1.74,.37-4.41,1.89-5.07-1.51-.65-3.34,2.22-8.24,4.7-7.77,6.75,1.28,8.87-2.83,11.66-7.84,4.31-7.74,3.84-14.42-.27-22.06-4.9-9.1-8.65-18.83-12.92-28.27-1.41-3.11-2.82-6.17-6.95-6.6-.73-.08-1.32-1.52-2.37-2.83Z"/>
  <path d="M484.52,99.66c-4.25-.06-7.45-3.32-7.49-7.61-.03-4.33,3.46-7.84,7.73-7.77,4.08,.06,7.31,3.56,7.24,7.85-.08,4.4-3.25,7.6-7.48,7.54Z"/>
</svg>