<?xml version="1.0" encoding="utf-8"?>
<svg xmlns="http://www.w3.org/2000/svg" id="a" viewBox="0 0 474.06 187.8">
  <defs>
    <style>.b{fill:#f6f6f6;}.c{fill:#fefefe;}.d{fill:#141414;}.e{fill:#454545;}.f{fill:#1b1b1b;}.g{fill:#4a4a4a;}.h{fill:#484848;}.i{fill:#616161;}</style>
  </defs>
  <path class="e" d="M52.06,80.69c1.71-.39,3.44-.7,5.11-1.2,1.76-.52,2.53,.25,2.96,1.82,1.66,6.19,3.36,12.38,5.04,18.57,2.91,10.76,5.81,21.52,8.72,32.27,1.05,3.88,2.09,7.76,3.17,11.63,.16,.58,.08,1.52,.9,1.51,.7-.01,.57-.9,.71-1.43,4.69-17.32,9.38-34.65,14.04-51.98,1.57-5.82,3.13-11.64,4.56-17.49,.52-2.1,1.59-3.2,3.75-3.55,4.03-.66,8.03-1.56,12.05-2.28,1.82-.33,2.32,.22,2.28,2.09-.28,15.68-.49,31.36-.65,47.05-.09,9.13-.01,18.28-.38,27.41-.27,6.74-.15,13.48-.29,20.21-.05,2.63-.62,3.3-3.15,3.79-2.93,.56-5.85,1.18-8.78,1.74-2.28,.43-2.84-.01-2.82-2.34,.12-12.18,.16-24.37,.47-36.55,.12-4.53,.16-9.04,.26-14.02-1.01,1.04-1.09,2.02-1.32,2.87-4.53,16.83-9.07,33.66-13.51,50.52-.58,2.2-1.67,3.31-3.88,3.66-2.82,.45-5.61,1.08-8.4,1.67-1.65,.35-2.69,0-3.17-1.83-1.93-7.4-3.97-14.77-5.96-22.15-2.15-7.94-4.29-15.89-6.46-23.83-.19-.71-.25-1.52-.91-2.09-.59,.56-.35,1.24-.35,1.84-.05,8.23,.07,16.47-.14,24.7-.21,8.03-.3,16.07-.34,24.1,0,1.27-.34,2.3-1.53,2.91-3.08,.9-6.34,1.05-9.35,2.24-.54,.21-1.16,.11-1.74,.1-1.84-.04-2.42-.62-2.34-2.51,.4-9.75,.31-19.52,.62-29.27,.14-4.46,.13-8.92,.14-13.38,.01-9.83,.3-19.65,.46-29.48,.06-3.62,.04-7.24,.18-10.85,.39-1.42,1.4-.77,2.21-.62,5.4,1.01,10.8,2.05,16.26,2.73,2.48,.31,2.94-.28,2.21-2.68-1.32-4.32-2.21-8.76-3.58-13.07-.68-2.13-1.15-2.4-3.4-2.12-1.14,.14-2.29,.56-3.39-.18-.14-.16-.22-.34-.26-.54Z"/>
  <path class="h" d="M359.17,30.91c2.23,3.17,3.38,6.77,3.38,10.56,0,11.86-.06,23.72-.42,35.57-.19,6.22-.02,12.44-.29,18.65-.49,11.19-5.39,19.89-15.29,25.41-6.17,3.44-12.93,4.62-19.95,3.94-6.33-.61-11.69-5.63-13.55-12.35-.88-3.17-.84-6.36-.77-9.62,.18-8.49-.09-16.99,.21-25.47,.3-8.49,.07-16.98,.33-25.46,.1-3.3,.66-6.57,2.27-9.54,1.43,.8,.58,1.96,.37,2.92-.77,3.54-1.53,7.07-1.33,10.72,.04,.68-.23,1.55,.61,1.88,.71,.28,1.16-.39,1.65-.79,3.8-3.14,6.78-7.09,10.42-10.4,.91-.82,1.25-2.11,2.07-3.03,.65-.73,1.36-1.32,2.22-.22,.32,.94-.31,1.61-.71,2.33-1.2,2.21-1.86,4.54-1.85,7.07,.03,12.18-.58,24.35-.44,36.53,.04,3.35-.42,6.72-.35,10.09,.03,1.44,.24,2.83,.71,4.19,1.22,3.56,3.6,5.06,7.31,4.55,6.01-.83,10.03-5.17,10.28-11.35,.2-5.04,.53-10.08,.47-15.14-.13-11.01,.62-22.02,.38-33.03-.04-1.78-.21-3.49-1.04-5.09-1.25-2.44-3.49-3.66-6.23-3.43-1.37,.12-2.67,.5-3.98,.9-.67,.21-1.34,.57-2.06,.15-.9-1.03-.25-1.81,.64-2.12,3.57-1.22,6.31-3.81,9.52-5.58,3.93-2.17,8.18-3.2,12.71-2.76,.92,.09,1.81-.06,2.71-.09Z"/>
  <path class="h" d="M422.27,8.02l.4,.04c1.03,2.17,.57,4.45,.38,6.67-.41,4.98-.14,9.97-.17,14.95,0,1.31,.71,1.89,2.03,1.63,2.42-.49,4.86-.85,7.28-1.28,1.63-.29,2.31-1.27,2.34-2.83,.04-1.94,0-3.89,.05-5.83,.03-1.52,.72-2.35,2.22-2.72,3.47-.86,6.98-1.47,10.48-2.15,1.99-.38,3.86,.25,5.63,1.15,.86,.44,1.51,1.07,.97,2.18-.58,.52-1.2,.34-1.81,.07-2.11-.91-4.27-.94-6.49-.47-1.84,.39-3.7,.67-5.54,1.07-2.5,.55-3.13,1.32-3.16,3.89-.05,5.25,.18,10.5-.06,15.74-.43,9.39-.07,18.78-.45,28.15-.22,5.5-.22,11-.28,16.5-.04,3.47,.51,3.87,3.87,3.3,1.6-.27,3.17-.66,4.77-.97,5.24-1.02,8.29-4.27,9.47-9.37,.35-1.51,.62-3.05,.59-4.62-.24-12.56,.64-25.11,.41-37.68-.05-2.72-.06-5.44,0-8.16,.05-1.91-.67-3.68-.77-5.55,.77-1.35,1.6-.86,2.2,.07,.78,1.22,1.66,1.18,2.8,.61,2.6-1.3,5.15-2.67,7.62-4.19,1.57-.97,2.15-2.1,1.39-3.86-.34-.79-.48-1.65,.6-2.11,.12,0,.24,.02,.35,.04,1.46,3.58,1.24,7.35,1.23,11.1-.04,12.49,.09,24.99-.14,37.48-.11,5.88,.06,11.77-.62,17.63-.31,2.66-1.43,5.1-2.05,7.68-1.04,1.71-2.01,3.47-3.14,5.13-4.38,6.41-10.72,9.88-18.09,11.52-7.91,1.76-15.88,3.23-23.82,4.82-1.94,.39-2.43-.05-2.41-2.34,.11-11.98,.11-23.96,.43-35.93,.4-15.15,.19-30.3,.42-45.45,.07-4.46,.23-8.93,.28-13.39,0-.93,.11-1.81,.79-2.53Z"/>
  <path class="h" d="M400.07,25.88c1.17,3.86,1.61,7.87,2.2,11.82,1.16,7.75,2.62,15.45,3.9,23.19,1.71,10.35,3.48,20.7,5.24,31.04,.79,4.66,1.61,9.32,2.45,13.97,.52,2.87,0,3.56-2.86,4.05-2.88,.49-5.73,1.13-8.59,1.71-2.16,.44-2.68,.15-3.09-2.02-.82-4.33-1.62-8.66-2.36-13-.25-1.46-.83-1.97-2.37-1.62-3.42,.77-6.86,1.4-10.31,2.03-1.43,.26-2.02,1.01-2.26,2.45-.8,4.73-1.8,9.42-2.63,14.14-.36,2.05-1.49,2.97-3.48,3.29-2.95,.47-5.86,1.11-8.79,1.7-2.1,.42-2.76-.13-2.39-2.14,2.87-15.21,5.78-30.42,8.63-45.64,2.21-11.84,4.34-23.7,6.53-35.55,1.11-5.99,2.28-11.96,3.41-17.94,.26-1.36,.96-2.16,2.39-2.43,3.38-.62,6.75-1.33,10.12-2,1.15-.23,2.13-.09,2.37,1.28,.69,3.89,1.55,7.74,1.87,11.69-1.6,.2-1.55-1.07-1.7-2.02-.35-2.3-.82-4.58-1.22-6.88-.38-2.18-1.07-2.49-3.29-2.09-1.98,.35-3.95,.75-5.93,1.11-2.42,.44-2.79,.9-3.4,3.29-1.07,4.21-1.48,8.54-2.47,12.77-.75,3.2-.39,3.54,2.69,4.64,4.26,1.52,8.57,2.54,13.14,2.24,2.33-.15,2.66-.5,2.46-2.83-.22-2.52-.86-4.98-1.11-7.49-.1-1.02-.34-2.1,.82-2.76Z"/>
  <path class="h" d="M233.71,74.53c-1.9,5.39-4.77,10.35-6.98,15.6-.28,.66-.5,1.36-.91,1.93-2.35,3.34-1.64,6.33,.23,9.8,6.7,12.43,13.07,25.05,19.56,37.6,.92,1.77,.52,2.85-1.49,3.31-3.79,.88-7.61,1.61-11.43,2.34-1.41,.27-1.88-.93-2.38-1.89-2.54-4.89-5.06-9.79-7.59-14.68-3.33-6.45-6.67-12.89-10.01-19.34-.17-.33-.25-.84-.75-.71-.46,.13-.36,.62-.36,1-.06,7.64-.09,15.29-.18,22.93-.06,4.86-.26,9.71-.31,14.57-.02,1.65-.72,2.51-2.32,2.8-3.38,.62-6.75,1.29-10.13,1.95-1.62,.32-2.39-.4-2.28-1.98,.48-6.99,.09-13.99,.33-20.98,.46-13.34,.1-26.7,.47-40.03,.28-10.17,.07-20.34,.34-30.51,.05-1.86-.1-3.76,.67-5.53,1.14,.63,.94,1.75,.97,2.76,.18,4.99-.13,9.97-.37,14.95-.03,.71,0,1.43,.02,2.14,.04,1.54,.76,2.6,2.25,3.05,2.3,.69,4.56,1.52,6.86,2.19,1.85,.54,2.43,.03,2.57-1.96,.51-7.24,.41-14.5,.38-21.75,0-2.53-.54-3.02-3.04-2.65-2.56,.38-5.1,.97-7.64,1.47-.72,.14-1.38,.36-2.02-.17,.4-.96,1.25-1.27,2.16-1.45,3.24-.64,6.49-1.25,9.73-1.9,1.66-.33,2.54,.3,2.51,1.99-.19,9.96-.41,19.91-.59,29.87-.05,2.75,0,5.5,0,8.25l.48,.15c1.61-3.37,3.21-6.74,4.82-10.12,2.89,2.62,6.6,1.98,10.01,2.47,1.23,.18,1.99-.79,2.43-1.86,.66-1.61,1.47-3.14,2.22-4.7,.36-.74,.78-1.38,1.77-.89Z"/>
  <path class="h" d="M306.57,47.64c1.4,2.41,1.95,5.14,2.17,7.8,.83,10.08-.32,19.81-5.97,28.57-1.8,2.8-3.93,5.31-6.53,7.4-2.46,1.97-2.46,1.99-1.25,4.83,4.39,10.31,8.79,20.62,13.2,30.93,.83,1.94,.38,2.92-1.69,3.36-3.62,.77-7.26,1.41-10.87,2.18-1.64,.35-2.22-.66-2.73-1.84-2.33-5.34-4.66-10.69-6.99-16.04-1.91-4.4-3.92-8.75-5.7-13.2-1.05-2.64-2.9-1.41-4.56-1.28-1.68,.13-2.23,1.05-2.24,2.73-.06,10.23-.21,20.47-.33,30.7-.03,2.93-.34,3.35-3.14,3.96-3.11,.67-6.23,1.26-9.33,1.93-1.57,.34-2.31-.42-2.23-1.83,.58-11.39,0-22.8,.5-34.19,.32-7.24,.11-14.51,.18-21.77,.12-13.02,.26-26.04,.41-39.06,.03-2.48,.64-3.27,3.05-3.75,7.06-1.4,14.1-2.93,21.21-4.03,5.46-.84,10.73,.24,15.51,3.19,.89,.55,1.71,1.17,2.29,2.07-.73,.79-1.41,.35-2.06-.11-5.77-4.06-12.2-4.33-18.83-3.15-5.36,.95-10.65,2.26-16.03,3.14-2.59,.43-3.41,1.39-3.45,4.06-.14,8.86-.63,17.72-.39,26.58,.06,2.21-.47,4.38-.39,6.58,.08,2.49,.77,3.15,3.25,2.79,2.12-.31,4.26-.41,6.37-.73,1.63-.25,2.4-1.11,2.45-2.71,.02-.78,.04-1.55,.02-2.33-.15-6.73,.14-13.45,.44-20.18,.04-.99-.3-2.38,1.45-2.42,1,.83,.77,1.99,.81,3.07,.29,8.35-.4,16.69-.38,25.04,0,4.02,.68,4.48,4.63,3.32,11.43-3.35,15.15-13.46,13.27-23.13-.99-5.08-4.48-7.71-9.67-7.93-1.95-.08-3.88,.07-5.8,.46-.88,.18-1.81,.43-2.49-.5-.56-.99,.05-1.51,.86-1.69,3.61-.79,7.18-1.52,10.91-.35,5.46,1.72,8.89,6.04,8.92,11.79,.02,3.4,.38,6.84-.83,10.06,.5,.4,.78,.15,1.03-.01,3.33-2.12,6.54-4.43,9.78-6.69,1.51-1.06,2.13-2.46,2.17-4.29,.07-3.53-.64-6.94-1.36-10.36-.2-.97-1.03-2.13,.38-2.93Z"/>
  <path class="h" d="M154.56,60.51c1.62-.63,2.2,.2,2.18,1.64-.21,16.14-.3,32.27-.73,48.4-.23,8.81-.1,17.63-.3,26.44-.04,1.81-.2,3.62-.27,5.43-.09,2.24,.22,2.57,2.4,2.15,7.39-1.41,14.78-2.88,22.16-4.34,2.74-.54,5.47-1.08,8.2-1.66,1.56-.33,2.22,.37,2.23,1.83,0,3.57,0,7.13-.04,10.7-.02,1.55-.74,2.49-2.38,2.81-9.11,1.76-18.21,3.57-27.31,5.37-5.34,1.06-10.7,2.08-16.03,3.19-3.52,.73-4.16,.34-4.05-3.15,.54-17.17,.51-34.34,.84-51.51,.18-9.4,.07-18.8,.37-28.19,.15-4.73,.19-9.46,.22-14.19,0-.65,.01-1.3,.44-1.85,1.26,.47,.87,1.59,.96,2.49,.2,1.9,.63,2.28,2.5,1.86,2.34-.53,4.68-1.03,7.11-1.03,1.45,0,2.02-.85,2.12-2.23,.11-1.46-.32-2.81-.63-4.19Z"/>
  <path class="h" d="M122.59,67.1c3.73-1.39,7.71-1.69,11.55-2.57,1.3-.3,1.97,.59,2.02,1.78,.06,1.68-.03,3.36-.08,5.05-.03,.91-.16,1.81-.17,2.71-.16,13.67-.12,27.35-.52,41.01-.28,9.72-.06,19.44-.4,29.15-.2,5.77-.21,11.53-.26,17.29-.02,2.03-.78,3.12-2.82,3.48-3.13,.54-6.23,1.25-9.36,1.84-2.01,.38-2.7-.11-2.6-2.2,.63-13.14,.02-26.3,.65-39.44,.06-1.29,.03-2.59,.05-3.89,.3-16.84,.49-33.69,.49-50.54,0-1.37-.28-2.95,1.46-3.67,.78,1.55,.12,3.17,.17,4.75,.12,3.88,.28,4.05,3.82,2.51,1.55-.68,3.15-1.2,4.78-1.63,2.76-.72,3.46-1.81,3.14-4.67-.13-1.19-.67-1.76-1.91-1.61-2.45,.3-4.82,1-7.25,1.4-1.05,.17-2.08,.37-2.77-.75Z"/>
  <path class="d" d="M274.62,52c-1.01,.46-.78,1.38-.82,2.2-.38,7.89-.47,15.79-.35,23.68,.03,1.82-.56,2.46-2.44,2.54-2.9,.14-5.79,.65-8.68,1.02-2.47,.32-3.02-.03-2.89-2.45,.46-8.35,.13-16.7,.44-25.04,.14-3.75,.29-7.5,.26-11.25-.02-1.83,.75-2.8,2.46-3.13,3.88-.76,7.77-1.49,11.64-2.29,3.87-.8,7.72-1.8,11.69-1.88,5.01-.1,9.81,.78,13.94,3.91,.52,.39,.96,.88,1.65,.97,2.43,1.94,3.96,4.5,5.05,7.36,.83,4.37,2.05,8.67,1.97,13.2-.04,2.29-.65,3.92-2.61,5.23-3.99,2.66-7.82,5.55-11.96,8-.32,.19-.6,.52-1.29,.26,1.65-3.79,1.86-7.79,1.83-11.88-.08-9.11-7.65-13.12-15.1-11.79-1.59,.28-3.43,.06-4.78,1.34h0Z"/>
  <path class="d" d="M359.17,30.91c-.21,1.24-1.14,1.3-2.08,1.18-5.78-.76-10.9,.89-15.53,4.25-2.11,1.53-4.21,3.01-6.76,3.73-.57,.16-1.05,.51-1.36,1.04-.16,1.7-.98,2.42-2.66,2.35-.77,.32-1.14,1.02-1.6,1.64-4,5.42-8.82,10.07-13.93,14.42-.42,.36-.88,.95-1.51,.7-.75-.31-.51-1.1-.55-1.72-.38-5.42,.66-10.68,1.91-15.9,4.17-10.44,12.17-16.11,22.93-18.32,5.46-1.12,10.84-1.16,15.92,1.56,2.22,1.19,3.96,2.89,5.23,5.07Z"/>
  <path class="d" d="M233.71,74.53c-1.44,1.7-2.09,3.8-2.96,5.79-1.22,2.78-1.71,3.05-4.72,2.61-2.35-.35-4.71-.68-7.07-.94-1.59-.18-2.17-.93-1.68-2.46,3.62-8.1,7.24-16.19,10.87-24.29,1.19-2.66,2.44-5.29,3.59-7.97,.71-1.66,1.9-2.48,3.66-2.78,3.19-.55,6.37-1.23,9.55-1.85,.75-.15,1.54-.53,2.18,.22,.65,.77,.38,1.6,.03,2.38-1.19,2.66-2.4,5.31-3.61,7.96-3.27,7.12-6.55,14.23-9.82,21.35Z"/>
  <path class="h" d="M30.97,148.62c-.77-2.61-3.12-2.38-5.18-2.77-5.79-1.12-11.58-2.23-17.37-3.37-1.14-.22-2.15-.34-3,.7-.52,.63-1.14,.51-1.16-.35-.07-2.46-.03-4.92-.03-7.38,0-.33,.1-.68,.48-.74,.37-.06,.58,.24,.73,.54,.7,1.38,1.94,1.74,3.36,1.96,2.05,.32,4.08,.77,6.11,1.19,1.18,.24,1.72-.21,1.72-1.4,0-1.36,0-2.72,0-4.08q0-3.56-3.56-4.21c-1.47-.27-2.93-.56-4.39-.84-1.27-.23-2.53-.62-3.46,.84-.41,.65-.97,.3-.98-.39-.04-2.52-.02-5.05-.02-7.58,0-.33,.08-.68,.48-.73,.37-.04,.59,.26,.71,.56,.59,1.4,1.8,1.64,3.14,1.9,6.37,1.2,12.73,2.47,19.08,3.74,1.09,.22,2.11,.55,3.02-.55,.52-.63,.95-.23,.96,.45,.02,2.33,0,4.66-.02,6.99,0,.23-.1,.56-.27,.65-.37,.22-.61-.11-.74-.39-.72-1.51-2.15-1.72-3.57-1.98-2.23-.41-4.47-.79-6.69-1.27-1.4-.3-2.11,.06-2.06,1.6,.05,1.81,.04,3.63,0,5.44-.03,1.23,.46,1.95,1.7,2.18,2.8,.53,5.59,1.12,8.4,1.66,.71,.14,1.42,.11,1.98-.49,.29-.3,.55-.87,1.08-.5,.35,.24,.17,.72,.17,1.1,0,2.14,.01,4.27,.02,6.41,0,.39,.07,.79-.65,1.11Z"/>
  <path class="h" d="M31.48,89.67c.69,1.46,.02,2.94,.04,4.41,.06,4.21,.08,8.42,.11,12.63,0,.44,.22,1.03-.27,1.23-.75,.3-.76-.51-.97-.91-.44-.81-1.07-1.22-1.97-1.39-6.81-1.32-13.62-2.64-20.43-4.02-1.18-.24-2.03-.06-2.57,1.09-.16,.33-.38,.74-.88,.53-.36-.15-.34-.53-.34-.84,0-5.44,0-10.89,0-16.33,0-.86,.38-1.35,1.27-1.36,1.1-.01,2.21-.02,3.31,0,.39,0,.85,.04,.95,.49,.1,.46-.32,.63-.66,.83-2.85,1.64-4.35,5.95-3.19,9.05,.27,.7,.82,.99,1.47,1.12,2.54,.52,5.09,1.02,7.64,1.52,1.11,.22,1.52-.35,1.62-1.37,.25-2.53-.67-4.23-2.96-5.36-.51-.25-1.39-.39-1.22-1.03,.24-.91,1.11-.34,1.67-.25,2.3,.41,4.59,.88,6.87,1.36,.48,.1,1.21,.09,1.21,.74,0,.73-.73,.54-1.21,.61-2.32,.34-3.77,3.54-2.5,5.52,.27,.42,.67,.58,1.13,.66,2.93,.55,5.87,1.03,8.78,1.68,1.59,.35,1.86-.3,1.94-1.69,.23-4.22-.71-7.86-4.56-10.25-.21-.13-.38-.35-.53-.55-.06-.08,0-.24,0-.7,2.17,.86,4.57,.76,6.27,2.6-.65,.55-1.34,.56-2.06,.14,.72,.42,1.41,.41,2.05-.16Z"/>
  <path class="g" d="M4.19,170.42c0-2.85,.03-5.71-.01-8.56-.02-1.22,.45-1.84,1.71-1.75,.06,0,.13,0,.19,0,1.19,.17,3.01-.6,3.44,.45,.49,1.19-1.53,1.06-2.27,1.8-1.2,1.19-1.69,2.61-1.74,4.19-.05,1.38,1.16,1.4,2.07,1.58,5.02,1.01,10.05,1.96,15.08,2.94,1.66,.32,3.31,.67,4.97,.97,1.1,.2,2.21,.4,2.97-.78,.11-.18,.44-.35,.63-.32,.39,.07,.41,.46,.39,.78-.13,2.4-.18,4.79,.07,7.19,.04,.38,.05,.85-.39,1-.5,.17-.67-.29-.8-.64-.45-1.2-1.46-1.58-2.58-1.8-6.88-1.34-13.76-2.68-20.63-4.03-1.57-.31-1.94,.37-1.76,1.82,.3,2.42,1.54,4.21,3.43,5.65,.38,.29,1.1,.56,.72,1.17-.35,.56-.94,.12-1.4-.06-5.02-1.89-3.97-.9-4.08-5.59-.05-2.01,0-4.02,0-6.03Z"/>
  <path class="d" d="M154.56,60.51c1.09,.11,1.5,.73,1.6,1.81,.44,5.17,.42,5.19-4.71,5.65-2.45,.22-4.85,.78-7.2,1.52-1.18,.37-1.73,0-1.73-1.22,0-1.55-.01-3.1-.02-4.65,.34-.59,.84-.95,1.51-1.08,3.52-.67,7.03-1.35,10.55-2.03Z"/>
  <path class="i" d="M42.31,96.72c-.23,12.11-.5,24.21-.67,36.32-.1,6.87,.21,13.75-.13,20.61-.43,8.74,.04,17.49-.58,26.22-.14,1.91,.66,2.66,2.81,2.32,2.75-.43,5.47-1.08,8.21-1.61,.7-.13,1.41-.17,2.12-.25-1.15,.9-2.58,.84-3.9,1.05-2.18,.34-4.16,1.45-6.35,1.64-2.75,.25-3.34-.38-3.38-3.13-.12-7.7,.31-15.4,.46-23.1,.25-12.88,.02-25.77,.42-38.64,.27-8.74,.12-17.47,.31-26.21,.06-2.52,.24-5.04,.36-7.56,.03-.68,.22-1.27,.83-1.67,.28,.19,.49,.46,.65,.75,.09,.21,.14,.42,.15,.65-.13,2.84-.36,5.68-.06,8.53-.38,1.36-.5,2.81-1.24,4.07Z"/>
  <path class="e" d="M42.73,83.46c.02-.24,.05-.49,.07-.73,2.95-1.3,6.14-1.52,9.26-2.04l.08,.13c.14,.83-.45,1.23-1.05,1.38-2.54,.64-5.11,1.15-7.7,1.59-.26,.04-.48-.14-.67-.32Z"/>
  <path class="d" d="M453.79,19.74c-1.66-2.14-4.02-2.59-6.44-2.25-3.2,.45-6.34,1.32-9.52,1.87-1.86,.32-2.44,1.3-2.34,3.09,.11,2.06-.02,4.14,.03,6.21,.03,1.48-.47,2.21-2.09,2.34-3.23,.26-6.43,.77-9.55,1.69-1.16,.34-2.02,.44-2.02-1.23,0-7.31-.02-14.61,.44-21.91,.03-.5,.24-1,.37-1.5,5.05-1.05,10.09-2.2,15.17-3.13,4.75-.87,9.42-2.24,14.36-2.08,3.5,.12,6.98,.03,10.22,1.64,3.16,1.78,5.34,4.39,6.63,7.76-.13,1.21,.51,2.25,.82,3.35,.35,1.26,0,2.08-1.1,2.76-3.3,2.03-6.7,3.85-10.17,5.57-1.3,.64-2.18,.77-2.49-.97-.13-.71-.48-1.33-1.14-1.72-1.17,.1-1.45-.49-1.17-1.51Z"/>
  <path class="d" d="M42.73,83.46c2.07-1.38,4.55-1.28,6.84-1.87,.87-.22,1.77-.32,2.57-.78,1.77,.01,3.48-.37,5.2-.69,1.25-.24,2,.16,2.34,1.4,1.49,5.5,3.03,10.98,4.47,16.48,.62,2.35,.15,2.88-2.24,2.51-5.7-.88-11.39-1.87-17.08-2.82-.91-.15-1.75-.49-2.53-.97-.62-1.31-.08-2.61,.06-3.91,.45-2.28,.08-4.59,.21-6.88,.05-.82-.18-1.67,.17-2.47h0Z"/>
  <path class="d" d="M114.83,75c0,.97,0,1.94,0,2.91-.02,2.93-.36,3.43-3.32,3.55-4.85,.19-9.72-.12-14.51,.92-.92,.2-1.2-.26-.98-1.09,.75-2.74,1.5-5.48,2.28-8.21,.21-.74,.8-1.15,1.56-1.31,4.24-.88,8.48-1.77,12.73-2.62,1.53-.3,2.35,.3,2.26,1.97-.07,1.29-.01,2.59-.01,3.88h0Z"/>
  <path class="c" d="M330.78,43.46c.89-.78,1.77-1.57,2.66-2.35,1.8-.54,3.48-1.4,5.38-1.66,4.9-.67,8.88,2.33,8.96,7.33,.12,7.9,.19,15.81-.17,23.71-.21,4.53-.09,9.07-.17,13.61-.08,4.4-.16,8.81-.34,13.21-.28,6.65-5.02,11.56-11.63,12.22-5.14,.51-8.39-2.45-8.52-8.47-.19-9.26,.15-18.53,.29-27.79,.1-7.06,.24-14.12,.35-21.18,.05-3.26,1.55-5.97,3.2-8.62Z"/>
  <path class="c" d="M453.79,19.74c.39,.5,.78,1.01,1.17,1.51,1.05,2.36,1.3,4.83,1.26,7.4-.2,14.96-.33,29.92-.49,44.88-.03,2.42-.38,4.79-1.31,7.02-1.5,3.61-4.09,6.16-7.93,7.15-3.01,.78-6.09,1.27-9.13,1.96-1.73,.39-2.3-.19-2.27-1.96,.19-10.68,.29-21.37,.43-32.05,.14-10.94,.32-21.89,.41-32.83,.01-1.76,.48-2.75,2.4-3.02,2.76-.39,5.47-1.07,8.21-1.58,2.61-.49,5.02,.1,7.24,1.52Z"/>
  <path class="d" d="M400.07,25.88c.04,3.91,1.01,7.69,1.61,11.52,.32,2.06,.11,2.32-1.95,2.53-6.39,.65-12.33-1.22-18.28-3.11-.93-.3-1.18-.82-1-1.76,1.12-5.78,2.21-11.56,3.3-17.34,.22-1.18,.76-2.04,2.04-2.29,3.18-.62,6.36-1.27,9.54-1.89,1.45-.28,2.34,.17,2.57,1.79,.39,2.75,.93,5.48,1.37,8.22,.13,.84,.26,1.66,.8,2.36v-.02Z"/>
  <path class="b" d="M390.24,58.74c.83,2.27,.93,4.41,1.33,6.46,.82,4.19,1.48,8.42,2.28,12.61,.31,1.62-.16,2.44-1.84,2.65-1.54,.19-3.07,.51-4.59,.84-1.38,.3-1.73-.14-1.47-1.52,1.17-6.04,2.24-12.09,3.4-18.13,.16-.86-.03-1.82,.89-2.92Z"/>
  <path class="d" d="M198.19,52.73c2.94-1.53,6.28-1.44,9.39-2.29,.06-.02,.13-.01,.19-.02q4.1-.51,4.09,3.78c0,7.89,.05,15.78-.38,23.67-.11,2.02-.25,2.12-2.17,1.48-2.83-.94-5.67-1.85-8.52-2.73-2.78-.87-2.95-1.05-2.95-3.93,.01-6.66,.63-13.31,.34-19.98v.02Z"/>
  <path class="c" d="M274.62,52.01c2.64-.23,5.2-.98,7.9-.9,7.01,.2,11.33,4.47,11.55,11.48,.13,4.33-.32,8.5-2.46,12.39-3,5.46-7.81,8.33-13.68,9.63-4.17,.92-4.19,.81-4.11-3.55,.15-8.86,.29-17.72,.43-26.58,.01-.84-.02-1.69,.37-2.47h0Z"/>
  <path class="d" d="M122.59,67.1c3.65-.07,7.12-1.18,10.65-1.92,1.74-.37,2.29,.15,2.25,1.76-.14,5.72,.99,5.31-4.98,7.06-2.16,.63-4.23,1.61-6.32,2.47-2.04,.84-2.42,.67-2.3-1.57,.14-2.61-.68-5.31,.73-7.8h-.02Z"/>
  <path class="f" d="M31.48,89.67c-.13,.66,.04,1.52-.87,1.74-.74,.18-1.18-.41-1.6-.87-.59-.64-1.4-1.11-1.78-2.11,1.62-.01,2.88,.84,4.26,1.26v-.02Z"/>
  <path class="e" d="M42.74,83.46c-.17,3.12,.44,6.26-.38,9.35,.12-3.12-.46-6.26,.38-9.35Z"/>
</svg>