<?xml version="1.0" encoding="utf-8"?>
<svg xmlns="http://www.w3.org/2000/svg" data-name="Layer 2" id="Layer_2" viewBox="0 0 266.43 151.17">
  <path d="m43.83,121.52c-10.89,0-21.77-.02-32.66.02-1.54,0-2.19-.63-2.35-2.12-.16-1.52.62-1.94,1.91-2.06,2.85-.25,4.36-2.2,5.41-4.57,1.43-3.24,2-6.72,2.01-10.23.05-17.6.06-35.21,0-52.81-.01-3.15-.37-6.31-1.24-9.38-.98-3.45-2.95-5.94-6.59-6.75-1.16-.26-1.52-.95-1.4-2.05.11-1.09.62-1.79,1.76-1.82,1.43-.03,2.87.02,4.31.02,19.89,0,39.78,0,59.67,0,2.93,0,3.11.19,3.35,3.19.51,6.3,1.04,12.6,1.55,18.9.05.66.04,1.33,0,1.99-.07,1.05-.53,1.8-1.7,1.88-1.1.08-1.8-.46-2.12-1.48-.43-1.37-.78-2.78-1.21-4.15-2.88-9.14-10.68-15.36-20.25-16.23-4.69-.43-9.38-.35-14.07-.02-1.96.14-2.64.76-2.93,2.71-.08.55-.08,1.11-.09,1.66,0,10.05-.02,20.1-.01,30.15,0,2.46.56,3.29,2.97,3.17,3.79-.19,7.59.54,11.37-.44,3.32-.86,5.71-2.54,6.74-5.91.32-1.06.6-1.97,2.13-1.62,1.43.33,1.81,1,1.77,2.43-.11,4.44-.05,8.88-.06,13.33,0,.56,0,1.11,0,1.67,0,1.24-.44,2.22-1.74,2.48-1.3.26-1.95-.61-2.3-1.68-.81-2.48-2.42-4.25-4.8-5.19-1.69-.66-3.52-.99-5.35-1.03-2.65-.06-5.3-.04-7.96,0-2,.03-2.72.7-2.73,2.73-.03,8.55-.11,17.1.04,25.65.06,3.29.91,6.51,2.78,9.3,1.5,2.24,3.44,3.77,6.36,3.94,3.87.23,7.73.37,11.55-.36,6.88-1.31,11.6-5.67,15.21-11.37,2.67-4.21,4.35-8.85,5.28-13.74.24-1.29.87-1.88,2.12-1.79,1.34.1,1.77,1.03,1.7,2.21-.18,3.1-.41,6.2-.64,9.29-.41,5.48-.79,10.95-1.27,16.42-.29,3.27-.69,3.6-4.04,3.61-8.95.02-17.9,0-26.85,0-1.88,0-3.76,0-5.64,0,0,.01,0,.03,0,.04Z"/>
  <path d="m248.65,69.04c0,10.27,0,20.54,0,30.81,0,3.67.27,7.31,1.07,10.91.37,1.66,1.07,3.15,2.07,4.5.91,1.23,1.98,2.19,3.67,2.24,1.14.03,2.22.33,2.17,1.9-.05,1.45-.95,1.88-2.16,2-.6.06-1.21.1-1.82.1-9.61.01-19.22.01-28.83.02-.77,0-1.55.03-2.28-.31-.8-.37-1.12-1.01-1.11-1.87.01-.9.4-1.57,1.3-1.66,5.21-.55,6.09-4.64,6.99-8.65.66-2.93.73-5.93.72-8.94-.04-12.82.01-25.65-.08-38.47-.03-3.55-.47-7.07-2.03-10.36-1-2.11-2.6-3.39-4.78-4.03-.99-.29-2.18-.38-2.09-1.88.1-1.55,1.18-1.96,2.48-2.19,7.78-1.34,14.19-5.21,19.67-10.78.54-.55.93-1.24,1.45-1.82.57-.64,1.26-1.16,2.18-.83.83.3,1.08,1.04,1.18,1.86.19,1.54.31,3.08.31,4.64-.02,10.94-.01,21.87-.01,32.81-.02,0-.03,0-.05,0Z"/>
  <path d="m96.61,68.78c4.03,0,8.07,0,12.1,0,.49,0,1,.02,1.48.11.73.15,1.14.65,1.21,1.4.08.78-.32,1.21-1.02,1.51-2.54,1.07-2.77,1.56-1.41,3.98,1.11,1.98,2.46,3.82,3.69,5.73,1.26,1.96,2.52,3.92,3.75,5.89.47.75.96,1.41,1.71.36,2.71-3.78,5.61-7.44,7.69-11.63.27-.54.47-1.13.66-1.7.36-1.13.13-1.95-1.15-2.28-.47-.12-.94-.35-1.32-.65-.45-.35-.69-.89-.58-1.48.12-.65.65-.85,1.23-.92,4.63-.51,9.27-.32,13.9-.2.7.02,1.3.33,1.4,1.16.1.8-.15,1.52-.94,1.75-6.51,1.89-10,7.42-14.27,11.97-1.7,1.81-3.05,3.94-4.61,5.88-.85,1.06-.93,2.07-.13,3.18,4.2,5.85,7.72,12.18,12.11,17.9,2.64,3.44,5.45,6.75,10.02,7.74.63.14,1.38.4,1.33,1.25-.05.88-.62,1.4-1.5,1.51-.82.1-1.64.24-2.47.24-7.62.03-15.25.04-22.87.05-.44,0-.89-.02-1.31-.11-.71-.16-1.17-.62-1.24-1.38-.06-.7.31-1.14.9-1.45.7-.37,1.74-.28,1.97-1.3.28-1.27-.14-2.44-.77-3.5-1.11-1.86-2.28-3.67-3.47-5.48-1.49-2.27-3-4.53-4.55-6.75-1.05-1.5-1.54-1.55-2.65-.21-3.43,4.16-6.51,8.55-9.01,13.34-1.21,2.31-.89,3.02,1.51,3.94.53.2,1.11.38,1.1,1.07-.01.66-.39,1.2-1,1.42-.61.22-1.29.37-1.93.37-3.59.04-7.18.03-10.77.02-.49,0-.99-.1-1.48-.18-.85-.14-1.44-.61-1.52-1.51-.08-.95.53-1.51,1.35-1.62,4.96-.68,7.71-4.46,10.76-7.76,3.62-3.91,6.45-8.46,9.75-12.62.62-.78.56-1.47.05-2.27-3.75-5.89-7.67-11.67-11.99-17.15-2.28-2.9-4.75-5.78-8.78-6.38-.98-.14-1.42-.75-1.34-1.76.09-1.18.85-1.43,1.84-1.43,4.2,0,8.4,0,12.6,0v-.03Z"/>
  <path d="m179.97,94.33c-.13-4.49.98-9.57,3.47-14.13,2.04-3.74,5.01-6.86,8.81-9.05,7.27-4.19,14.85-4.92,22.59-1.75,4.46,1.83,8.13,4.78,9.36,9.86,1.38,5.69-1.29,10.95-6.81,13.23-2.97,1.23-6.06,2.07-9.2,2.75-2.65.58-5.26,1.3-7.53,2.89-3.63,2.54-3.98,5.54-1.01,8.8,4.72,5.18,10.52,6.87,17.29,5.33,2.17-.49,3.89-1.79,5.5-3.26.45-.41.85-.88,1.33-1.24.57-.43,1.26-.53,1.86-.11.69.49.48,1.17.17,1.8-.99,1.96-2.45,3.56-4.01,5.06-9.79,9.44-23.87,8.5-33.43.27-6-5.17-8.45-11.87-8.41-20.44Zm14.02-5.03c.25,2.61.36,5.16.86,7.67.26,1.32.91,1.49,1.74.55,2.11-2.38,4.87-3.75,7.55-5.3,4.93-2.86,8.9-6.54,9.78-12.65.81-5.6-3.42-9.7-8.95-8.55-2.71.56-4.86,2.04-6.63,4.13-3.5,4.11-3.84,9.18-4.35,14.16Z"/>
  <path d="m147.55,88.86c.13,5.51.52,10.61,3.4,15.08,3.9,6.05,9.19,9.32,16.67,8.6,3.51-.34,6.4-1.47,8.7-4.14.32-.37.74-.67,1.15-.95.64-.43,1.29-.27,1.84.18.54.44.34,1.02.09,1.52-.35.69-.7,1.4-1.16,2.01-4.67,6.2-10.94,9.65-18.59,10.21-3.88.28-7.63-.94-11.24-2.44-7.56-3.14-12.4-8.77-14.17-16.65-2.34-10.39-.55-20.05,7.09-27.92,3.72-3.84,8.52-5.94,13.84-6.55,4.6-.53,9.09-.18,13.48,1.61,6.45,2.63,10.46,9.57,8.8,15.88-.66,2.52-2.25,4.36-4.87,4.95-2.39.54-4.46-.49-5.91-2.22-1.68-2-1.62-4.52-.88-6.96.5-1.64,1.29-3.18,1.27-4.96-.03-2.37-1.72-4.46-4.08-4.91-6.14-1.17-11.01,1.7-13.71,8.09-1.34,3.18-1.53,6.55-1.71,9.56Z"/>
  <path d="m83.84,46.58c0-4.16-.03-8.32.02-12.49.01-1.03-.28-2.35,1.32-2.64,1.85-.33,2.71.13,3.39,1.84.64,1.61.8,1.66,1.95.22,1.18-1.47,2.49-2.66,4.44-2.95,2.7-.4,5.01.1,6.68,2.55,1.5,2.19,1.56,2.14,3.39.27,1.36-1.39,2.72-2.73,4.84-2.92,5.1-.45,8.11,2.31,8.19,7.85.1,6.38.04,12.76.05,19.15,0,.55,0,1.11-.02,1.66-.03,1.98-.44,2.41-2.27,2.45-1.95.04-2.48-.41-2.49-2.42-.04-6.1-.02-12.21-.02-18.31,0-1.01-.04-2-.37-2.96-.85-2.53-3.33-3.46-5.41-1.82-2.41,1.9-4.12,4.27-4.08,7.6.05,4.61.01,9.21,0,13.82,0,.66,0,1.34-.09,1.99-.26,1.91-.71,2.14-2.99,2.1-1.76-.03-1.92-1.11-1.91-2.45.01-5.72.02-11.43,0-17.15,0-1.22.03-2.46-.21-3.65-.6-2.97-3.52-4.06-5.81-2.12-2.32,1.96-3.8,4.5-3.84,7.63-.07,5.05,0,10.1-.02,15.15,0,2.33-.44,2.67-2.75,2.57-1.45-.06-2.06-.68-2.04-2.17.05-4.27.02-8.55.02-12.82Z"/>
  <path d="m168.18,30.45c4.92-.15,9.19,1.31,13.07,3.98,1.52,1.04,1.69,2,.72,3.49-.82,1.26-1.71,1.46-3.24.4-4.32-2.99-9.03-3.95-14.17-3.09-2.68.45-4.18,1.72-4.5,3.87-.16,1.09.2,1.79,1.07,2.39,2.18,1.51,4.76,1.79,7.23,2.19,3.05.5,6.07,1.14,9.1,1.75,3.65.74,6.2,3.39,6.57,6.6.37,3.26-1.78,6.97-5.04,8.48-7.2,3.33-14.27,2.61-21.22-.8-1.04-.51-2.04-1.12-2.96-1.81-1.22-.92-1.1-1.6.14-3.41.79-1.16,1.53-1.43,2.69-.52,3.96,3.12,8.53,4.33,13.49,4.11,2.21-.1,4.4-.44,6.35-1.65,2.18-1.35,2.2-4.41.04-5.8-1.44-.93-3.12-1.06-4.74-1.37-3.68-.71-7.41-1.24-11.01-2.32-.89-.27-1.77-.64-2.6-1.06-2.51-1.26-4.01-3.21-4.05-6.16-.04-3.11,1.21-5.47,3.88-7.02,2.89-1.68,6.03-2.42,9.2-2.25Z"/>
  <path d="m202.75,30.47c4.75-.12,9.04,1.23,12.85,4.09,1.51,1.13,1.67,1.99.63,3.5-.86,1.25-1.77,1.41-3.24.35-4.32-3.12-9.08-4.24-14.28-3.14-1.76.37-3.56.95-4.35,2.93-.55,1.38-.25,2.47.95,3.36,1.25.92,2.71,1.21,4.16,1.54,4.04.91,8.21,1.13,12.2,2.32,1.7.51,3.43,1,4.66,2.36,3.51,3.89,2.27,10.01-2.58,12.55-4.75,2.49-9.78,2.9-14.97,1.76-3.32-.73-6.49-1.8-9.26-3.84-1.42-1.05-1.53-2.2-.43-3.69.97-1.32,1.94-1.5,3.4-.36,4.73,3.7,10.09,4.45,15.84,3.59,1.59-.24,2.95-.97,4.18-1.89,1.79-1.34,1.1-4.66-1.19-5.59-2.42-.99-5.04-1.21-7.58-1.71-3.19-.63-6.44-.98-9.46-2.35-3.12-1.42-4.92-3.64-4.72-7.25.2-3.54,2.23-5.72,5.27-7.01,2.5-1.06,5.15-1.69,7.92-1.49Z"/>
  <path d="m136.17,31.42c3.15,0,6.3.03,9.44-.01,1.54-.02,2.01.75,2.03,2.16.02,1.5-.6,2.11-2.09,2.04-1.49-.07-2.98-.06-4.47.02-1.99.1-2.8.93-2.81,2.92-.03,5.38-.01,10.75-.02,16.13,0,1.52.69,2.32,2.24,2.53,1.71.24,3.42.18,5.13.2,1.37.01,2.01.55,2.02,1.98,0,1.35-.46,2.19-1.87,2.15-4.3-.13-8.59.52-12.91.13-2.19-.19-4.42-.13-6.62-.08-1.58.03-2.19-.75-2.23-2.22-.04-1.51.73-2.04,2.18-1.98,1.54.07,3.1.06,4.64-.05,2.09-.15,2.75-.87,2.75-2.95.02-5.27-.03-10.55,0-15.82.01-1.7-.73-2.5-2.38-2.79-1.44-.25-2.87-.08-4.29-.24-1.87-.22-2.58-1.18-2.16-2.75.3-1.16,1.13-1.37,2.15-1.37,3.09,0,6.19,0,9.28,0v-.02Z"/>
</svg>