<?xml version="1.0" encoding="utf-8"?>
<svg xmlns="http://www.w3.org/2000/svg" id="Layer_1" viewBox="0 0 794 572">
  <path d="M250.96,189.09c0-21.01-.09-42.02,.02-63.03,.24-47.73,29.15-89.01,73.91-105.57,11.55-4.27,23.52-6.79,35.86-6.86,24.27-.14,48.55-.43,72.81,.04,55.62,1.07,101.96,43.12,108.69,98.25,.68,5.56,1.03,11.2,1.04,16.81,.08,40.93,.15,81.87,0,122.8-.09,25.82-7.18,49.52-23.4,69.91-21.84,27.46-50.82,41.41-85.6,42.54-24.74,.8-49.53,.57-74.28,.07-46.47-.95-86.56-29.71-102.24-72.77-4.67-12.82-6.73-26.13-6.78-39.75-.07-20.81-.02-41.63-.02-62.44Zm267.6,.2c.07,0,.15,0,.22,0,0-20.22,.06-40.45-.04-60.67-.03-4.92-.22-9.89-1-14.73-6.88-42.48-40.28-72.67-83.38-74.25-25.02-.92-50.14-.96-75.16,.04-47.29,1.9-83.22,39.44-83.59,86.74-.33,41.73-.13,83.45-.04,125.18,.03,16.19,3.68,31.56,12.31,45.38,16.43,26.3,40.86,39.66,71.33,41.02,24.32,1.09,48.73,.43,73.1,.24,5.87-.04,11.81-.9,17.59-2.05,39.29-7.87,67.12-39.86,68.52-79.75,.79-22.36,.14-44.78,.14-67.17Z"/>
  <path d="M616.52,504.38c3.82-7.09,7.41-13.75,10.99-20.42,7.18-13.37,14.33-26.77,21.59-40.1,.51-.94,1.76-2.09,2.69-2.1,8.67-.16,17.35-.1,26.29-.1v18.15h-10.18v80.47h10.18v18.07h-38.78v-17.97c2.57,0,5.19-.07,7.8,.03,1.68,.06,2.5-.35,2.49-2.27-.06-17.75-.03-35.5-.05-53.26,0-.43-.15-.87-.36-2.07-2.7,5.05-5.06,9.44-7.38,13.84-6.4,12.11-12.84,24.21-19.14,36.38-1.05,2.03-2.32,2.52-4.54,2.77-4.78,.54-7.24-1.17-9.44-5.56-7.39-14.81-15.35-29.35-23.1-43.98-.49-.92-1.04-1.8-1.98-3.4-.14,1.62-.26,2.44-.26,3.26-.01,17.06,.04,34.12-.06,51.19-.01,2.46,.7,3.31,3.17,3.14,2.92-.2,5.86-.05,8.98-.05v17.91h-40.61v-17.84h10.15v-80.38h-10.14v-18.08c.32-.09,.77-.31,1.22-.31,8.68-.02,17.36,.05,26.04-.06,2-.03,2.46,1.26,3.13,2.54,9.71,18.73,19.41,37.46,29.12,56.19,.62,1.21,1.29,2.39,2.18,4.03Z"/>
  <path d="M381.83,501.6c2.41,6.63,4.73,13,7.04,19.37,2.05,5.65,4.2,11.27,6.12,16.97,.66,1.95,1.64,2.61,3.64,2.48,2.65-.17,5.31-.04,8.21-.04v17.96h-38.88v-17.89h9.45c-4.14-10.91-8.11-21.36-12.22-32.2-1.48,.68-2.78,1.27-4.07,1.87-6.87,3.23-13.76,6.42-20.59,9.73-.84,.4-1.96,1.39-1.98,2.13-.16,5.99-.09,11.99-.09,18.32h10.41v17.96h-38.96v-17.75h10.1v-80.45h-10.07v-18.24c.92-.06,1.86-.17,2.8-.17,21.11,0,42.23-.02,63.34,.02,2.26,0,4.53,.2,6.78,.48,7.96,.99,12.48,4.98,12.93,12.9,.54,9.43,.7,18.95-.03,28.35-.65,8.4-5.46,14.65-13.93,18.19Zm-43.24-1.68c.42,0,.75,.09,.99-.01,12.44-5.45,24.89-10.89,37.28-16.45,.71-.32,1.33-1.63,1.36-2.51,.14-4.03,.06-8.07,.06-12.11,0-2.91,0-5.82,0-8.68h-39.69v39.76Z"/>
  <path d="M688.65,441.82h86.34v31.96h-17.93v-13.69h-39.74v30.66h20.22v-10.07h18.14v38.9h-18.08v-10.37c-6.54,0-12.73-.05-18.92,.09-.53,.01-1.48,1.22-1.49,1.88-.1,9.07-.1,18.15,.01,27.22,0,.66,1.15,1.88,1.78,1.88,12.51,.11,25.03,.08,37.91,.08v-13.88h17.89v31.87h-86.27v-17.88h10.24v-80.38h-10.11v-18.28Z"/>
  <path d="M297.67,441.86v31.96h-17.84v-13.71h-39.82c-.07,.92-.19,1.78-.2,2.64-.01,8.39,.08,16.77-.07,25.15-.04,2.52,.78,3.18,3.19,3.11,5.69-.16,11.39-.05,17.38-.05v-10.23h18.03v38.85h-17.84v-10.39c-3.06,0-5.78-.04-8.51,.01-3.92,.08-7.84,.22-11.76,.33-.15,4-.38,8.01-.42,12.01-.07,5.82,0,11.64,.02,17.46,0,.28,.13,.56,.25,1.1h39.52v-13.62h17.89v31.86h-86.25v-17.96h10.12v-80.44h-10.04v-18.09h86.33Z"/>
  <path d="M19.02,500.77c0-12.23-.03-24.46,.03-36.69,.01-2.46,.14-4.95,.56-7.36,1.64-9.44,8.19-14.81,18.73-14.99,12.33-.2,24.66-.22,36.99-.01,10.02,.17,18.31,8.64,19.82,19.8,.28,2.04,.43,4.12,.44,6.18,.03,21.79,.19,43.59-.12,65.38-.07,4.8-1.12,9.87-2.99,14.28-3.13,7.36-9.51,10.98-17.46,11.07-12.62,.15-25.26,.25-37.86-.2-11.11-.4-17.19-6.56-17.65-17.85-.52-12.6-.35-25.23-.48-37.85,0-.59,0-1.18,0-1.78Zm57.93,39.44v-80.06H37.45v80.06h39.5Z"/>
  <path d="M151.88,530.66c5.98-23.46,11.96-46.91,18.02-70.69h-9.73v-18.07h40.63v18.02c-2.74,0-5.56,.09-8.36-.03-1.77-.08-2.6,.47-3.05,2.28-7.65,31-15.39,61.98-22.99,92.99-.63,2.59-1.56,3.52-4.28,3.44-6.7-.21-13.42-.16-20.12-.02-2.22,.05-3-.75-3.55-2.83-8.21-31.06-16.51-62.1-24.8-93.14-.23-.84-.52-1.67-.86-2.74h-10.77v-18.03h40.8v17.98h-9.82c6.1,23.93,12.09,47.42,18.08,70.91,.27-.02,.54-.04,.81-.06Z"/>
  <path d="M439.79,460.02h-14.82v13.9h-18.16v-32.09h84.6v32h-17.8v-13.66h-15.17v80.06h11.85v18.13h-42.41v-17.92h11.91v-80.41Z"/>
  <path d="M544.3,441.84v18h-11.86v80.35h11.8v18.15h-42.38v-17.88h11.88v-80.49h-11.86v-18.13h42.43Z"/>
  <path d="M294.07,189.16c0-21.01-.32-42.03,.08-63.03,.47-24.49,10.28-44.49,30.51-58.82,11.43-8.09,24.38-12.05,38.34-12.17,22.39-.19,44.79-.16,67.18-.04,34.3,.18,62.65,24.1,68.67,57.89,.76,4.25,1.28,8.61,1.29,12.92,.09,42.12,.2,84.24-.01,126.35-.1,19.5-6.41,36.83-20.57,50.7-12.83,12.57-28.56,19.08-46.36,19.44-23.96,.49-47.96,.73-71.91,0-38.92-1.19-66.85-30.73-67.18-70.22-.18-21.01-.03-42.02-.03-63.03Zm24.55,0c0,19.73-.02,39.46,.02,59.19,0,2.96,.1,5.92,.38,8.86,2.14,22.01,18.98,38.66,41.08,39.21,24.65,.62,49.34,.67,73.98-.05,15.01-.44,27.24-7.47,35.27-20.64,4.82-7.91,6.29-16.7,6.29-25.82,0-40.54,0-81.09,0-121.63,0-1.28-.05-2.56-.12-3.84-1.4-24.95-20.08-43.15-45.04-43.43-22.2-.25-44.4-.11-66.6-.03-8.98,.03-17.41,2.36-24.89,7.39-14.01,9.41-20.27,22.95-20.34,39.54-.08,20.42-.02,40.84-.02,61.26Z"/>
</svg>