<?xml version="1.0" encoding="utf-8"?>
<svg xmlns="http://www.w3.org/2000/svg" id="a" viewBox="0 0 437.01 122.33">
  <path d="M53.53,14.47c7.49,2.89,14.96,5.67,18.83,13.71,8.76,18.24-2.29,37.38-22.52,38.46-6.92,.37-13.87,.06-21.43,.06v29.29H10.22V14.47H53.53ZM28.6,52.18c7,0,13.75,.55,20.35-.17,5.75-.63,8.56-4.82,8.68-10.74,.12-6.04-2.07-10.75-8.29-11.68-6.75-1-13.67-.9-20.74-1.29v23.88Z"/>
  <path d="M429.3,95.99h-14.85c-.31-2.19-.56-3.94-.81-5.7-.56,.1-1.07,.04-1.31,.26-12.5,11.69-31.91,7.93-39.11-7.77-4.31-9.4-4.88-19.21-1.62-29.07,6.14-18.54,25.54-23.96,41.14-10.75V14.47h16.56V95.99Zm-15.47-31.23c-.19-1.25-.43-3.79-1.01-6.25-1.54-6.6-6.2-10.62-12.33-10.85-6.34-.24-11.23,3.13-13.26,9.66-.87,2.78-1.25,5.81-1.3,8.73-.19,11.63,5.34,18.99,14.05,19.03,8.84,.05,13.95-6.98,13.85-20.32Z"/>
  <path d="M149.06,116.37c-.27-4.4-.55-8.79-.84-13.45,2.31,0,3.94-.08,5.56,.01,8.87,.49,12.12-3.74,9.04-12.25-4.69-12.94-9.63-25.79-14.45-38.68-1.7-4.54-3.35-9.1-5.43-14.78,5.42,0,10.18-.32,14.84,.2,1.38,.15,3.06,2.5,3.64,4.17,3.94,11.33,7.61,22.75,11.94,35.84,3.89-12.12,7.7-22.52,10.46-33.2,1.54-5.97,4.38-7.93,10.15-7.1,2.66,.38,5.43,.07,8.93,.07-4.62,12.58-8.96,24.48-13.36,36.34-3.16,8.54-6.76,16.93-9.52,25.6-2.5,7.88-6.63,13.96-14.4,17.23h-16.56Z"/>
  <path d="M225.49,14.47c-.12,24.39-.23,48.79-.35,73.18-.01,2.5,0,5,0,7.84h-16.21V14.47h16.56Z"/>
  <path d="M99.62,54.95h-15.7c.32-8.1,4.36-13.38,11.29-16.31,10.38-4.39,21.13-4.15,31.67-.72,7.32,2.38,10.37,8.08,10.3,15.74-.13,13.9-.04,27.8-.04,41.83-12.47,1.47-13.61,1.2-15.12-2.53-7.82,1.46-15.25,3.82-22.74,4-10.19,.24-16.61-6.35-17.38-15.72-.78-9.54,4.4-16.18,14.7-18.28,5.8-1.18,11.73-1.69,17.56-2.75,3.73-.67,7.11-2.13,6.66-6.91-.43-4.6-3.38-6.49-7.71-6.86-6.56-.57-11.92,.78-13.51,8.52Zm20.81,13.1c-6.03,1.29-11.85,1.76-16.94,3.94-2.48,1.06-5,5.35-4.9,8.08,.08,2.15,3.86,5.38,6.5,6.01,10.98,2.62,16.83-4.37,15.34-18.04Z"/>
  <path d="M343.51,91.22c-8.46,6.07-17.78,7.68-27.7,4.7-7.12-2.14-10.95-7.65-11.25-15.21-.32-8.1,2.9-14.04,10.36-16.32,6.62-2.02,13.65-2.71,20.51-3.96,4.08-.74,8.46-1.48,8.1-6.95-.38-5.64-4.48-6.89-9.45-7.16-6.52-.35-10.45,2.5-12.07,8.68h-14.76c-.48-7.4,2.91-13.11,10.28-16.27,10.36-4.44,21.11-4.29,31.67-.94,7.36,2.33,10.28,7.05,10.38,14.9,.09,7.2,.02,14.4,.02,21.61,0,6.95,0,13.9,0,21.35-4.49-1.82-12.01,4.63-16.08-4.44Zm-.23-23.16c-5.78,1.19-11.34,2.11-16.78,3.51-4.23,1.09-6.79,4.5-5.38,8.54,.89,2.54,4.08,5.4,6.72,6,10.7,2.46,16.4-4.14,15.44-18.05Z"/>
  <g>
    <path d="M270.08,92.23l-4.83-5.7c.96-.56,1.82-1.08,2.7-1.56,.89-.48,1.64-.25,2.27,.51,1.61,1.95,3.34,3.8,4.8,5.86,1.34,1.89,3.13,2.7,5.28,2.98,3.73,.49,7.47,.94,11.2,1.4,.19,.02,.37,.05,.68,.09l-.16,1.69c-1.81,0-3.56,.18-5.27-.03-15.17-1.82-29.87-5.47-44-11.32-1-.41-1.93-1.01-2.95-1.38-2.56-.92-3.59-3.06-4.42-5.37-3.82-10.65-3.28-21.01,2.49-30.82,5.16-8.78,12.9-14.01,23.07-15.11,8.31-.9,15.83,1.45,22.4,6.67,1.21,.96,1.38,1.91,.54,3-5.49,7.1-10.99,14.19-16.48,21.28-.04,.06-.12,.08-.27,.18-3.96-2.56-8.01-2.17-12.11-.16-1.77,.87-3.64,1.55-5.43,2.4-.71,.33-1.17,.19-1.78-.24-5.48-3.89-6.42-11.64-4.7-16.6,.12-.36,.23-.72,.18-1.18l-1.13,1.46-.2-.1,1.89-4.29-.11-.12-2.26,2.46c1.59-3.6,4.2-6.32,7.22-8.79-.21,.08-.43,.14-.62,.25-4.42,2.53-7.67,6.15-9.88,10.7-2.88,5.92-4.25,12.13-3.44,18.74,.14,1.17,.44,1.25,1.6,1.01,.62-.13,1.56,0,1.98,.41,1.99,1.92,2.8,4.35,2.41,7.1-.2,1.39-.88,1.86-2.32,1.88-.93,.01-1.29,.57-.73,1.33,.4,.54,.99,.98,1.58,1.33,5.3,3.16,11.05,5.27,16.95,6.94,4.54,1.29,9.14,2.33,13.72,3.48l.13-.37Zm9.85-51.57c-3.05-4.42-11.39-6.74-19.59-5.46,7.05-.06,13.6,1.7,19.59,5.46Zm-13.03-2.86c2.98,1.06,6.4,2.27,9.51,3.38-2.37-2.28-6.34-3.66-9.51-3.38Z"/>
    <path d="M295.98,85.94c3.88-9.48,3.43-20.16,1.52-25.26-.93,1.34-1.49,1.41-2.78,.33-1.51-1.26-2.56-3.02-3.47-5.82-.51,.31-1.19,1.01-1.54,.87-.59-.23-1.21-.92-1.4-1.54-.29-.96-.38-2.05-.26-3.05,.06-.52,.72-1.33,1.15-1.36,.54-.04,1.17,.54,1.67,.97,.28,.24,.36,.72,.48,.97l1.96-.9-2.91-3.71,1.14-1.26c9.32,9.14,12.06,26.89,4.44,39.77Z"/>
    <path d="M261.66,85.5c-5.78-.05-10.63-5.44-10.15-11.36,.37-4.67,3.16-8.35,7.16-9.46,4.64-1.28,9.61,1.24,11.7,5.96,2.72,6.13-.5,13.09-6.75,14.6-.63,.15-1.3,.18-1.95,.26Zm-8.45-10.78c0,4.68,3.79,8.6,8.31,8.6,4.41,0,8.18-3.96,8.17-8.59,0-4.72-3.64-8.45-8.23-8.46-4.57,0-8.26,3.77-8.25,8.45Z"/>
    <path d="M270.25,67.4c-.82-.61-.27-1.04,.06-1.47,3.94-5.19,7.89-10.38,11.83-15.56,.09-.12,.18-.25,.31-.43l-1-1.17,.71-.78,1.04,.83q.74-.64-.31-1.83l.97-1.15,1.24,.93,1.58-1.9-1.19-.93c1.91-2.85,2.33-2.96,4.11-1.05-6.44,8.16-12.89,16.34-19.35,24.52Z"/>
    <path d="M271.14,82.58l.72-1c1.6,1.95,3.31,3.71,4.63,5.73,1.69,2.58,4.02,3.64,6.93,3.98,3.14,.37,6.27,.9,9.43,1.37,.17,.71-.16,.96-.93,.92-4.27-.23-8.49-.74-12.6-1.95-.69-.2-1.39-.71-1.86-1.27-2.15-2.55-4.21-5.16-6.33-7.78Z"/>
  </g>
</svg>