<?xml version="1.0" encoding="utf-8"?>
<svg xmlns="http://www.w3.org/2000/svg" id="a" viewBox="0 0 500 96.62">
  <defs>
    <style>.b{fill:#fefbfb;}.c{fill:#fefafa;}.d{fill:#fefcfc;}</style>
  </defs>
  <path d="M185.95,48.07c0-4.19,.09-8.39-.03-12.58-.08-2.8,.89-4.14,3.92-4.05,4.54,.14,9.1-.11,13.64,.11,3.81,.18,7.44,1.23,9.04,5.15,1.56,3.83,1.14,7.44-2.36,10.2-1.4,1.11-.86,1.63,.33,2.42,3.17,2.12,4.23,5.16,3.4,8.78-.9,3.9-3.76,5.86-7.5,6.52-5.91,1.05-11.9,.35-17.86,.41-2.26,.02-2.6-1.72-2.59-3.56,.03-4.47,0-8.94,0-13.41Z"/>
  <path d="M371.46,47.89c0-4.33,.02-8.66,0-12.99,0-1.7,.38-3.33,2.37-3.32,5.8,.05,11.66-.86,17.39,.62,8.46,2.2,11.31,11.26,5.48,17.73-1.6,1.77-2.14,2.95-.54,4.95,1.02,1.28,1.83,2.9,2.19,4.49,.42,1.85,2.96,4.27-.62,5.61-3.36,1.26-6.35-.15-7.53-3.19-.7-1.82-1.33-3.68-2.21-5.42-1.25-2.47-3.64-2.41-5.94-2.12-2.74,.35-2.1,2.56-2.14,4.27-.15,6.3-.65,6.88-5.2,6.61-2.36-.14-3.27-1.2-3.24-3.42,.05-4.61,.01-9.22,.01-13.83Z"/>
  <path d="M76.52,48.02c0-4.34,.05-8.68-.02-13.01-.04-2.47,1.02-3.56,3.56-3.54,6.83,.06,13.66,.09,20.49-.01,3.06-.05,3.43,1.69,3.48,4.05,.05,2.36-.71,3.74-3.37,3.69-3.98-.07-7.97,0-11.95-.02-1.94-.01-3.98,0-4.06,2.53-.09,2.75,2.06,2.95,4.17,2.96,2.85,.01,5.69,.09,8.54,0,2.84-.1,3.19,1.59,3.22,3.79,.03,2.34-1.07,3.29-3.38,3.24-2.7-.06-5.41,.03-8.11-.02-2.23-.04-4.59-.14-4.5,2.94,.09,3.04,2.53,2.83,4.7,2.83,3.7,0,7.4,.1,11.1-.03,2.87-.1,3.72,1.23,3.66,3.83-.06,2.47-.69,3.98-3.63,3.93-6.69-.11-13.38-.12-20.06,0-3.08,.06-3.94-1.37-3.86-4.12,.12-4.33,.03-8.67,.03-13.01Z"/>
  <path d="M403.95,47.88c0-4.2,.08-8.4-.03-12.59-.07-2.63,.92-3.86,3.71-3.83,6.69,.09,13.38,.13,20.06-.02,3.24-.07,3.72,1.61,3.78,4.2,.06,2.83-1.36,3.63-3.96,3.56-3.98-.1-7.97,0-11.95-.04-1.95-.02-3.5,.48-3.51,2.67,0,2.17,1.57,2.78,3.48,2.8,3.13,.03,6.26,.08,9.39,.02,2.56-.05,3.03,1.41,3.07,3.5,.04,2.17-.6,3.53-3.08,3.5-3.13-.04-6.26,.06-9.39-.02-2.01-.06-3.42,.53-3.51,2.68-.1,2.36,1.39,3.12,3.57,3.11,4.13-.03,8.25,.07,12.38-.03,2.6-.06,3.57,1.08,3.5,3.54-.07,2.27-.21,4.22-3.33,4.19-6.97-.07-13.94-.04-20.92-.01-2.36,0-3.3-1.14-3.27-3.39,.05-4.62,.01-9.23,.01-13.85Z"/>
  <path d="M41.47,48.3c0-4.33,.1-8.67-.04-13-.1-2.99,1.29-3.87,4.13-3.87,2.75,0,4.44,.72,4.32,3.73,0,.14,0,.28,0,.42,.43,9.28,.43,9.21,9.88,8.56,2.41-.16,3.3-1.14,3.21-3.38-.06-1.54,.06-3.08-.02-4.61-.15-2.93,.53-4.75,4.18-4.75,3.51,0,4.35,1.47,4.3,4.59-.14,8.25-.12,16.5,0,24.75,.04,2.84-.6,4.44-3.98,4.46-3.34,.02-4.78-1.18-4.48-4.43,.06-.69,0-1.4,0-2.1q0-6.88-6.88-6.87-6.19,0-6.21,7.56c-.01,5.35-.72,6.05-5.18,5.79-2.36-.14-3.28-1.19-3.26-3.42,.05-4.47,.01-8.95,.01-13.42Z"/>
  <path d="M292.81,48.3c0-4.33,.1-8.67-.04-13-.1-2.99,1.29-3.87,4.13-3.87,2.75,0,4.44,.73,4.32,3.73,0,.14,0,.28,0,.42,.43,9.28,.43,9.21,9.88,8.56,2.41-.17,3.3-1.14,3.21-3.38-.06-1.54,.06-3.08-.02-4.61-.15-2.93,.53-4.75,4.18-4.75,3.51,0,4.35,1.48,4.3,4.59-.14,8.25-.12,16.5,0,24.75,.04,2.85-.6,4.43-3.98,4.46-3.34,.02-4.78-1.19-4.48-4.43,.06-.69,0-1.4,0-2.1q0-6.88-6.88-6.87-6.19,0-6.21,7.56c-.01,5.35-.72,6.05-5.18,5.79-2.36-.14-3.28-1.19-3.25-3.42,.05-4.47,.01-8.95,.01-13.42Z"/>
  <path d="M273.1,65.94c-3.94-.28-8.57-1.34-11.73-5.56-.75-1.01-1.47-2.17-.83-3.49,.61-1.27,1.9-.99,3.01-1.03,2.14-.08,4.16-.01,6.08,1.31,2.2,1.51,4.86,1.49,7.42,1.03,1.43-.26,2.81-.96,2.84-2.66,.03-1.53-1.24-2.15-2.51-2.45-2.34-.56-4.72-.96-7.07-1.46-6.43-1.35-9.97-4.99-9.98-10.25-.01-5.27,3.47-8.88,9.92-10.29,6.39-1.4,13.24,.76,16.05,5.14,.73,1.14,1.83,2.39,.96,3.83-.77,1.28-2.26,.87-3.51,.95-1.91,.12-3.62-.29-5.2-1.46-1.94-1.43-4.23-1.58-6.53-1.23-1.44,.22-2.85,.77-3.05,2.45-.2,1.78,1.19,2.42,2.59,2.82,1.63,.47,3.32,.76,4.98,1.11,8.91,1.85,12.67,5.47,11.92,11.5-.74,5.92-6.44,9.8-15.38,9.74Z"/>
  <path d="M446.83,65.95c-3.98-.24-8.6-1.29-11.83-5.45-.78-1-1.52-2.18-.98-3.48,.62-1.5,2.11-1.1,3.35-1.16,2-.08,3.87,.04,5.68,1.23,2.5,1.63,5.38,1.69,8.21,.9,1.1-.31,2.1-1,2.18-2.31,.08-1.34-.81-2.09-1.98-2.38-2.47-.62-4.97-1.13-7.46-1.64-6.48-1.34-10.04-4.89-10.12-10.13-.09-5.4,3.54-9.15,10.18-10.52,6.54-1.36,13.64,1.19,16.18,5.79,1.63,2.96,1.03,4.04-2.35,4.2-2.01,.1-3.95-.04-5.66-1.36-.76-.58-1.75-1.11-2.68-1.2-2.61-.26-6.16-1.16-6.83,2.22-.63,3.23,2.97,2.95,5.17,3.53,2.6,.68,5.3,1.1,7.8,2.04,3.88,1.47,6.3,4.29,6.37,8.57,.07,4.36-2.16,7.44-5.99,9.39-2.56,1.31-5.36,1.8-9.24,1.77Z"/>
  <path d="M478.1,65.98c-4.37-.23-8.99-1.27-12.27-5.39-.79-1-1.54-2.16-1.08-3.47,.54-1.55,2.04-1.19,3.28-1.26,2.16-.12,4.15,.11,6.06,1.39,2.09,1.4,4.6,1.36,7.02,1,1.44-.21,2.85-.82,3.06-2.46,.23-1.8-1.25-2.41-2.63-2.76-2.19-.56-4.44-.92-6.66-1.36-6.7-1.35-10.31-5.03-10.24-10.45,.07-5.23,3.61-8.81,10.08-10.18,6.36-1.35,13.26,.92,15.99,5.32,.65,1.04,1.57,2.17,.99,3.48-.64,1.45-2.13,1.1-3.37,1.16-1.88,.09-3.64-.13-5.25-1.29-.89-.64-2.01-1.24-3.08-1.33-2.48-.22-5.88-.96-6.52,2.18-.68,3.32,2.86,3.05,5.06,3.62,2.74,.71,5.6,.93,8.22,2.14,3.64,1.68,5.93,4.31,6.06,8.38,.13,4.18-1.93,7.23-5.51,9.26-2.64,1.49-5.58,2-9.22,2.03Z"/>
  <path d="M150.9,43.8c0-2.8,.14-5.61-.04-8.4-.2-3.31,1.54-3.99,4.47-3.97,2.83,.01,4.23,.85,4.16,3.86-.14,5.18-.09,10.37-.02,15.55,.06,4.78,2.31,7.36,6.26,7.41,4.15,.05,6.48-2.6,6.53-7.59,.05-5.04,.14-10.09-.03-15.13-.11-3.19,1.3-4.1,4.35-4.11,3.11,0,4.38,1.04,4.29,4.17-.16,5.46,.04,10.93-.07,16.39-.17,8.99-5.64,14.02-15.06,13.98-9.42-.04-14.66-5.02-14.84-14.16-.05-2.66,0-5.32,0-7.99Z"/>
  <path d="M118.41,48.16c0-4.33,.02-8.66-.01-12.99-.01-1.82,.26-3.63,2.51-3.62,5.38,.04,10.8-.69,16.13,.48,6.32,1.38,9.5,5.11,9.57,11.04,.07,5.88-3.1,9.91-9.14,11.49-1.22,.32-2.51,.47-3.77,.54-6.35,.35-6.47,.33-6.83,6.52-.18,3.13-1.93,3.53-4.53,3.53-2.6,0-4.02-.77-3.96-3.58,.1-4.47,.03-8.94,.03-13.41Z"/>
  <path d="M338.98,48.35c0-4.47,.02-8.94-.01-13.41-.01-1.91,.52-3.46,2.76-3.41,5.24,.11,10.52-.64,15.71,.47,6.55,1.39,9.78,5.2,9.75,11.32-.03,5.94-3.56,10.12-9.77,11.46-1.1,.24-2.25,.29-3.38,.35-6.21,.29-6.33,.27-6.59,6.32-.13,3.01-1.61,3.72-4.34,3.73-2.81,0-4.25-.83-4.15-3.83,.14-4.32,.04-8.66,.04-12.99Z"/>
  <path d="M22.83,31.49c3.84,0,7.67,.07,11.51-.02,2.91-.07,3.56,1.52,3.62,3.98,.06,2.64-.93,3.9-3.73,3.75-9.01-.5-7.3,.76-7.41,7.6-.08,4.89-.07,9.78,0,14.67,.05,3.04-1.62,3.7-4.34,3.71-2.83,.01-4.21-.87-4.13-3.86,.13-5.44,.04-10.89,.04-16.34,0-5.75,0-5.85-5.89-5.75-3.18,.06-5.68-.06-5.29-4.32,.23-2.5,1.22-3.48,3.7-3.43,3.98,.08,7.95,.02,11.93,.02Z"/>
  <path d="M218.43,48.25c0-4.06,.12-8.12-.04-12.17-.12-3.02,.59-4.65,4.19-4.69,3.8-.04,4.54,1.65,4.44,4.88-.17,5.73,.05,11.47-.09,17.2-.07,2.88,1.02,4.12,3.98,3.98,2.84-.14,5.69,.05,8.53-.04,2.83-.1,3.25,1.53,3.21,3.78-.04,2.14-.24,3.95-3.11,3.94-5.97-.04-11.95-.02-17.92,0-2.39,0-3.24-1.23-3.21-3.44,.05-4.48,.02-8.95,.01-13.43Z"/>
  <path d="M256.05,48.3c0,4.47-.07,8.94,.02,13.4,.07,3.29-2.02,3.42-4.51,3.44-2.5,.02-4.1-.55-4.08-3.45,.07-8.93,.08-17.87,0-26.8-.03-3.29,2.02-3.42,4.51-3.44,2.5-.02,4.14,.55,4.08,3.45-.09,4.47-.02,8.93-.02,13.4Z"/>
  <path class="c" d="M199.81,51.66c1.99,.21,5.57-.76,5.58,2.85,.01,3.57-3.49,2.81-5.96,2.91-.85,.03-1.71,0-2.56-.02-1.89-.05-2.94-1.04-2.91-2.88,.03-1.76,.84-2.93,2.87-2.87,.85,.03,1.71,0,2.98,0Z"/>
  <path class="c" d="M198.76,44.93c-2.17,.07-4.65,.28-4.74-2.73-.1-3.35,2.59-3.03,4.87-3.04,.71,0,1.42-.04,2.13,.02,1.8,.14,3.59,.59,3.64,2.71,.06,2.34-1.75,2.94-3.77,3.03-.71,.03-1.42,0-2.12,0Z"/>
  <path class="b" d="M384.88,46.62c-2.62,.08-5.07,.41-5.1-3.57-.03-3.71,1.96-4.04,4.81-3.9,2.81,.14,6.27-.25,6.4,3.61,.14,3.93-3.28,3.78-6.11,3.86Z"/>
  <path class="d" d="M130.77,47.51c-2.43,.37-4.05-.5-4.05-4.07,0-3.37,1.27-4.52,4.55-4.31,3.06,.2,6.56,.07,6.67,4.09,.11,4.1-3.37,4.18-7.17,4.28Z"/>
  <path class="d" d="M351.1,47.53c-2.5,.43-3.77-.83-3.81-4.23-.04-3.53,1.57-4.35,4.68-4.16,3.08,.19,6.57,.14,6.53,4.22-.03,4.07-3.54,4.04-7.41,4.17Z"/>
</svg>