<?xml version="1.0" encoding="utf-8"?>
<svg xmlns="http://www.w3.org/2000/svg" data-name="Layer 1" id="Layer_1" viewBox="0 0 246.97 155.53">
  <defs>
    <style>
      .cls-1 {
        fill: #060606;
      }

      .cls-2 {
        fill: #818181;
      }

      .cls-3 {
        fill: #707070;
      }

      .cls-4 {
        fill: #6d6d6d;
      }

      .cls-5 {
        fill: #777;
      }
    </style>
  </defs>
  <path class="cls-4" d="m161.94,55.51c-.1-.01-.21-.03-.31-.04-2-.31-4.01-.61-6.01-.92-.8-.1-1.59-.21-2.39-.31-.47-.16-.94-.33-1.41-.49-4.28-.43-8.56-.86-12.84-1.29.5-.08,1.01-.17,2.09-.35-3.34-.87-6.14-1.59-8.94-2.32.02-.08.04-.16.06-.24,1.02.09,2.03.18,3.05.27.66,0,1.31,0,1.97,0h5.81c-1.2-.42-2.4-.84-3.6-1.26.04-.13.09-.26.13-.39,1.19.13,2.38.25,3.57.38,1.09.11,2.17.22,3.26.33,1.81.1,3.63.19,5.44.29,1,.12,2,.25,3,.37.94.08,1.89.17,2.83.25.21.11.41.3.63.33,2.92.4,5.83.78,8.75,1.17,2.31.3,4.63.6,6.94.9.47-.08,1.3-.09,1.34-.26.27-1.32.39-2.67.56-4.01.02-.04.03-.09.02-.13.05-.43.09-.86.14-1.29,0-.14.01-.28.02-.42.15-1.6.3-3.2.46-4.8,0-.09.02-.19.02-.28.37-2.7.73-5.4,1.15-8.52-3.79,2.87-7.2,5.49-10.69,8.01-.34.24-1.47.04-1.69-.31-2.72-4.25-5.32-8.57-7.97-12.86q-2.56-4.15-5.62-.17s-.02.05-.04.07c0,0-.01.01-.01.01-3.28,3.68-6.55,7.36-9.83,11.04-.1.11-.2.22-.31.33-1.03,1.51-1.78,1.38-2.57-.28-.5-1.05-1.33-1.93-2.02-2.89-.02-.05-.04-.1-.06-.16-2.19-3.27-4.38-6.54-6.57-9.81-.6-.93-1.19-1.85-1.79-2.78-.4-.34-.81-.67-1.21-1.01-.17-1.05-.34-2.1-.52-3.15.15-.42.3-.84.45-1.25l1.16,1.53c1.16,1.22,2.32,2.43,3.48,3.65,2.69,3.78,5.38,7.57,8.11,11.33.15.21.95.27,1.09.1,4.51-5.44,8.98-10.92,13.47-16.37.23-.28.62-.45.93-.67.09,0,.18,0,.27,0l.68.9c.07.28.06.6.21.83,2.89,4.52,6.01,8.91,8.62,13.58,1.54,2.76,2.73,2.78,4.57.6,1.15-.89,2.29-1.79,3.44-2.68.07-.07.14-.13.22-.2,3.05-2.29,6.09-4.59,9.15-6.86.13-.09.45.06.67.11,0,.25-.02.5-.02.76-.05.75-.1,1.5-.14,2.25-.06.57-.13,1.13-.19,1.7-.09.8-.18,1.61-.27,2.41-.12,1.31-.24,2.61-.36,3.92-.1,1.38-.21,2.77-.31,4.15-.1.46-.21.91-.31,1.37-.1,1.18-.19,2.35-.29,3.52-.12.89-.23,1.78-.35,2.68-.15.79-.3,1.59-.45,2.38-.06.73-.11,1.46-.17,2.19-.04.76-.09,1.51-.13,2.27-.24,1.31-.34,2.66-.77,3.9-.18.52-1.11,1.19-1.62,1.13-4.28-.49-8.54-1.13-12.81-1.72-.09-.01-.19-.02-.28-.04-.96-.15-1.92-.3-2.88-.44Z"/>
  <path class="cls-1" d="m173.97,52.17c-2.31-.3-4.63-.6-6.94-.9-2.92-.38-5.84-.77-8.75-1.17-.22-.03-.42-.22-.63-.33.63-1.04,1.26-2.09,1.88-3.13,1.49-1.21,2.98-2.41,4.47-3.62.42.33.8.74,1.27.97,1.93.94,3.88,1.82,5.82,2.72.04.04.08.08.12.12.92,1.78,1.84,3.57,2.76,5.35Z"/>
  <path class="cls-2" d="m127.43,31.11c-.3,1.56-.59,3.11-.89,4.67-.1-.01-.2-.03-.3-.04.3-3.27.61-6.53.91-9.8,0-.09,0-.17,0-.26.04-.86.08-1.72.12-2.58,0-.42,0-.85,0-1.27.02-.05.04-.11.05-.16.4.34.81.67,1.21,1.01-.14.56-.28,1.12-.42,1.68-.06.69-.12,1.37-.18,2.06-.16,1.48-.31,2.95-.47,4.43,0,.09-.01.18-.02.27Z"/>
  <path class="cls-1" d="m184.68,96.42c-.08.37-.17.74-.25,1.11-.01.62-.02,1.24-.03,1.87-.47,1.01-.94,2.02-1.41,3.04.24-1.86.46-3.72.72-5.58.05-.35.25-.68.38-1.04.18.18.39.4.59.61Z"/>
  <path class="cls-1" d="m121.4,59.12c-.09.37-.19.74-.28,1.1-.27.42-.55.84-.82,1.25-.36.31-.73.62-1.09.93-.26.22-.52.45-.78.67-.28-.52-.89-1.4-.79-1.49.6-.53,1.37-.85,2.06-1.29.59-.37,1.14-.79,1.7-1.19Z"/>
  <path class="cls-5" d="m126.66,16.93c.2.11.39.22.59.33-.15.42-.3.84-.45,1.25-.04,0-.08-.01-.12-.02,0-.52-.02-1.05-.02-1.57Z"/>
  <path class="cls-3" d="m155.75,16.83c-.09,0-.18,0-.27,0,.09,0,.18,0,.27,0Z"/>
  <path class="cls-1" d="m120.25,58.19c-.18.2-.3.34-.41.47-.16-.24-.39-.46-.46-.73-.04-.15.18-.37.29-.56.18.25.36.5.59.81Z"/>
  <path class="cls-1" d="m171.11,60.07c.47-.47.95-.95,1.42-1.42.21.21.42.42.63.63-.21.32-.42.63-.63.95-.55.49-1.05,1.09-1.68,1.44-.35.19-.93-.04-1.41-.08.01-.14,0-.4.05-.42.48-.11.97-.2,1.46-.27.2-.03.4,0,.7,0-.22-.33-.38-.59-.54-.84Z"/>
  <path class="cls-1" d="m173.17,59.28c-.21-.21-.42-.42-.63-.63,1.01.14,2.03.21,3.01.46.32.08.53.63.78.96-.58.05-1.16.11-1.74.16l-1.42-.95Z"/>
  <path class="cls-1" d="m173.17,59.28l1.42.95h-2.06c.21-.32.42-.63.63-.95Z"/>
  <path class="cls-1" d="m161.94,55.51c.96.15,1.92.3,2.88.44-.38.11-.76.22-1.14.33-.58-.26-1.16-.52-1.74-.77Z"/>
  <path class="cls-1" d="m175.61,61.52c.21.38.41.77.62,1.15-.13.06-.33.21-.38.17-.29-.22-.55-.48-.82-.73.2-.2.39-.39.59-.59Z"/>
  <path class="cls-1" d="m163.68,56.28c.38-.11.76-.22,1.14-.33.09.01.19.02.28.04-.47.15-.95.3-1.42.45v-.16Z"/>
  <path class="cls-1" d="m171.41,57.8c-.88.28-1.76.55-2.63.83-.04-.14-.09-.28-.13-.42.85-.34,1.7-.69,2.55-1.03.07.21.14.42.22.63Z"/>
  <g>
    <path class="cls-1" d="m229.75,94.61c-.1-.04.1-.89.27-2.2-2.44,2.72-4.42,4.92-6.39,7.13-.12.12-.23.24-.35.36-3.21,4.84-6.42,9.68-10.1,15.22,0-2.4,0-3.99,0-5.59,0-.1-.01-.2-.02-.3.16-1.58.33-3.17.49-4.75-.02-.05-.02-.1,0-.15-.68-1-1.37-2-2.05-3-.94,0-1.88,0-2.82,0-.75.05-1.49.11-2.24.16-.46.06-.92.11-1.38.17-.75.15-1.51.3-2.26.45-2,.48-4,.95-6,1.43-.85.21-1.7.41-2.54.62-.48.11-.95.21-1.43.32-2.29,1.33-4.57,2.67-6.86,4,.07.16.14.31.21.47,1.38-.43,2.76-.86,4.14-1.28.07.19.14.37.21.56-1.77.7-3.55,1.41-5.32,2.11.07.22.15.44.22.66,2.2-.53,4.41-1.07,6.61-1.6l.07-.02h.07c.86-.06,1.72-.13,2.58-.2.03,0,.06.01.09.02.51-.07,1.02-.14,1.53-.21-.1.38-.16.78-.32,1.13-2.05,4.51-4.12,9-6.18,13.5.3.59.59,1.18.89,1.77,1.34,1.47,2.17.94,3.02-.59,1.1-1.99,2.41-3.87,3.63-5.79.12-.25.24-.51.36-.76,1.92-3.59,3.83-7.18,5.8-10.75.13-.24.74-.21,1.13-.31.46-.01.92-.03,1.39-.04.72-.13,1.43-.27,2.15-.4.1.52.3,1.04.27,1.55-.1,1.48-.3,2.95-.46,4.43.01.05,0,.09-.01.14-.15,1.44-.31,2.88-.46,4.32,0,1.4,0,2.8,0,4.21,1.33,1.18,2.5,2.82,4.05,3.35.8.27,2.54-1.22,3.4-2.28,1.49-1.84,2.62-3.97,3.91-5.98.05-.1.1-.21.16-.31,3.63-6.12,7.33-12.2,10.79-18.4.33-.6,2.17-2.28-.22-3.15Z"/>
    <path class="cls-1" d="m231.37,53.59c-.41-.85-.82-1.69-1.23-2.54l-.62-.78c-.02-.05-.05-.1-.07-.15,0-.05,0-.1,0-.15-.08-.11-.17-.22-.25-.33-1.9-1.47-3.81-2.94-5.71-4.41-.48-.21-.97-.42-1.45-.63-1.36-.47-2.72-.94-4.09-1.42-.21.04-.42.08-.64.11l.02.05c-.64-.17-1.27-.33-1.91-.5-.37-.06-.74-.12-1.11-.18-.84.01-1.69.02-2.53.04-.21,0-.42-.02-.63-.02-.14.01-.28.03-.42.04-.07.04-.14.09-.21.13l-3.64.13c-1,.12-2,.25-3.01.37-3.9.88-7.81,1.75-11.71,2.63-2.06-.21-4.15-.52-5.21,1.94,0,.06-.01.1-.06.14-.88.84-1.76,1.68-2.64,2.52l-1.41.65c-.84.48-1.69.96-2.53,1.45-.24,1.31-.34,2.66-.77,3.9-.18.52-1.11,1.19-1.62,1.13-4.28-.49-8.54-1.13-12.81-1.72-.47.15-.95.3-1.42.45v-.16l-1.74-.77c-.1-.01-.21-.03-.31-.04h0c-2-.31-4.01-.61-6.01-.92-.8-.1-1.59-.21-2.39-.31l-1.41-.49c-4.28-.43-8.56-.86-12.84-1.29-.57.12-1.14.23-1.72.35-.04.03-.08.04-.13.02-1.06.56-2.13,1.12-3.19,1.69-.48.22-.96.45-1.44.67-.63.36-1.25.71-1.88,1.07l-1.55.84-1.93,1.89c-1.53,1.42-3.06,2.83-4.59,4.25-.42.39-.84.78-1.25,1.16-.09.04-.19.08-.28.12-.75,1.1-1.5,2.21-2.26,3.31-.28.42-.56.84-.84,1.25-.82.7-1.64,1.4-2.47,2.1,0,.04,0,.08-.03.11-.37.57-.73,1.13-1.1,1.7-1.27,2.28-2.53,4.56-3.8,6.84,0,.21.02.42.03.63-.05.42-.1.85-.14,1.27-.02.52-.04,1.05-.06,1.57.57,3.48,1.15,6.96,1.72,10.44.01.05.02.11.04.16,1.22,4.18,4.57,6.53,7.74,9.05.13.21.25.41.5.83-.68-.19-1.13-.31-1.58-.44l-4.81-2.31c-.35-.11-.71-.22-1.06-.34-.32-.15-.63-.29-.95-.44-.16-.11-.32-.22-.47-.33l-.32-.08c-1.15-.53-2.31-1.05-3.46-1.58-.74-.35-1.49-.7-2.23-1.05-.11-.04-.22-.08-.33-.12-.21-.06-.41-.12-.62-.19-.53-.27-1.06-.53-1.6-.8-.05,0-.1.02-.14.03-.16-.11-.32-.21-.49-.32-1.01-.48-2.01-.96-3.02-1.44-.37-.15-.73-.3-1.1-.44l-5.43-2.55c-.35-.15-.71-.29-1.06-.43-1.15-.6-2.31-1.2-3.46-1.8-.06-.04-.12-.08-.17-.12-.63-.28-1.26-.55-1.9-.83-.1-.01-.21-.03-.31-.04-1.9-.83-3.8-1.66-5.7-2.48h0c-.88-.45-1.77-.9-3.2-1.64,2.69-1.04,4.83-1.87,6.98-2.7.1-.04.21-.07.31-.11,1-.38,2.01-.77,3.01-1.15.22-.09.43-.18.65-.27.95-.46,1.9-.92,2.85-1.38.21-.06.42-.12.63-.19.11-.01.21-.03.32-.04.52-.21,1.05-.43,1.57-.64.53-.15,1.06-.3,1.6-.45.16-.1.32-.2.48-.3.89-.38,1.8-.73,2.67-1.16.61-.3,1.17-.72,1.75-1.08.37-.1.74-.21,1.11-.31.2-.15.4-.3.59-.45.12-.1.24-.2.37-.31.05-.11.11-.22.16-.32.67-.43,1.35-.85,2.02-1.28,1.54-.83,3.08-1.66,4.62-2.49.21-.1.42-.2.63-.29.26-.16.53-.32.79-.47,1.05-.55,2.1-1.1,3.15-1.65.11-.15.22-.3.34-.45.47-.16.94-.33,1.4-.49.22-.13.43-.27.65-.4.79-.5,1.57-1,2.36-1.5.16-.36.32-.72.48-1.08-.28-.52-.89-1.4-.79-1.49.6-.53,1.37-.85,2.06-1.29.59-.37,1.14-.79,1.7-1.19.06-.21.13-.42.19-.63.58-2.6,1.16-5.21,1.73-7.81-.52-1.24-1.05-2.49-1.57-3.73-1.06-1.3-2.12-2.6-3.19-3.9-1.6-1.12-3.2-2.23-4.8-3.35-.4-.14-.81-.29-1.21-.43-.95-.38-1.89-.76-2.84-1.14-1.1-.16-2.21-.33-3.31-.49-.42-.1-.85-.2-1.27-.3-.74-.12-1.47-.23-2.21-.35-.32,0-.63.01-.95.02-.15-.02-.31-.04-.46-.07-.28-.06-.55-.12-.83-.19.02-.02.03-.05.03-.08-1.03-.05-2.07-.09-3.1-.14-.39,0-.78,0-1.17,0-1.11.05-2.23.11-3.34.16l-.3-.04c-.42.02-.84.04-1.27.06-1.85.14-3.69.29-5.54.43-.74-.05-1.48-.11-2.21-.16-3,.33-6,.65-9,.98-.66-.1-1.32-.2-1.97-.3-.15-.47-.3-.93-.45-1.4-.04-.02-.08-.03-.12-.05-.17-.53-.34-1.05-.52-1.58-.12-.31-.23-.62-.35-.93-.09-.52-.19-1.03-.28-1.55-.79-1.07-1.58-2.13-2.36-3.2-1-.63-2-1.26-3-1.89-.73.15-1.47.3-2.2.46-.37.12-.74.24-1.02.33-.34.59-.68,1.19-1.02,1.78-.49,1.09-.98,2.18-1.46,3.26-.41,1.02-.82,2.04-1.23,3.06-.23.3-.46.6-.68.89-.3.9-.61,1.8-.91,2.7-1.13,3.05-4.36,1.74-6.34,3.04-.05,0-.11,0-.16-.01-.47.15-.94.31-1.41.46-.64.2-1.27.4-1.91.59-.63.21-1.27.42-1.9.63-.79.26-1.58.53-2.37.79-2.58.69-5.16,1.38-7.75,2.07-.37.06-.75.13-1.12.19-2.06.56-4.11,1.12-6.17,1.69-.58.26-1.16.52-1.74.78-.68.27-1.37.54-2.05.81-.53.25-1.06.49-1.59.74l-1.82.87c-.55.3-1.11.59-1.66.89-1.62.81-3.25,1.61-4.87,2.42-.48.16-.96.33-1.44.49-.06.15-.12.3-.18.45-.43.58-.85,1.16-1.28,1.74,0,.63.01,1.26.02,1.9.31,3.64,2.85,1.2,4.27,1.58-.11.76-.21,1.51-.31,2.27.15-.02.3-.05.44-.07,1.06-.43,2.12-.86,3.19-1.29.11-.04.22-.07.34-.11.37-.11.74-.22,1.11-.32h0c.84-.25,1.69-.5,2.53-.76.15-.07.3-.13.46-.2.17-.09.33-.19.5-.28.37-.17.73-.34,1.1-.52.1-.06.21-.12.31-.17.11-.04.22-.08.33-.12,2.34-.84,4.68-1.69,7.04-2.49.21-.07.52.19.79.29-.19.24-.33.59-.58.7-.69.32-1.43.54-2.02,1.2.37-.05.73-.1,1.1-.15.25-.07.49-.14.74-.22l2.11-.43c.08-.07.17-.14.25-.21.02-.04.04-.08.07-.12.42-.11.84-.21,1.26-.32.41-.07.83-.13,1.24-.2.64-.19,1.28-.37,1.92-.56.13-.02.26-.04.4-.06,2.4-.07,4.8-.13,7.2-.2,0,.52.02,1.04.03,1.56-.27.66-.55,1.32-.82,1.98l-.79,2.37c-1.39,3.79-2.78,7.58-4.16,11.38-.77.22-1.55.4-2.3.68-.37.14-.65.49-.98.74-.21,0-.42-.02-.63-.03-.63.06-1.27.12-1.9.18-.26.21-.53.41-.79.62l-1.42.63-.63.16c-.27.62-.53,1.24-.8,1.87-.05.54-.11,1.08-.16,1.62.06,1,.12,2,.18,3,.74,1.61,1.72,3.15,2.14,4.83.49,1.96.49,4.04.7,6.07-.47,1.21-.94,2.42-1.41,3.63-.31,1.11-.61,2.23-.92,3.34,0,.06-.01.1-.06.14-.21.96-.41,1.91-.62,2.87.02.05.01.09-.02.13-.14.53-.28,1.06-.42,1.6-.44,1.89-.88,3.78-1.32,5.68-.1.9-.19,1.8-.29,2.7h0c-.16,2.8-.31,5.61-.47,8.42,0,.14,0,.28-.01.42l1.08,4.27c.02.14.03.27.05.41l1,1.38c.14-.1.29-.19.43-.29-.07-.18-.14-.36-.21-.54.06-.27.12-.53.18-.79.3-.34.61-.67.91-1.01-.14-.17-.28-.35-.85-1.07,0,.04-.12-.69-.25-1.42l.36-.31c.15.29.27.61.47.86.61.77,1.23,2.25,1.93.04.06-.18.52-.24.8-.36.08.23.17.45.24.68.21.75.41,1.5.62,2.25.3-1.74.6-3.48.89-5.22.2-.03.4-.06.6-.09l.41,1.39c-.05.32-.1.65-.23,1.48,1.05-1.64,1.83-2.86,2.61-4.08.22-.4.45-.8.65-1.21,2.01-4.21,4.01-8.43,6.01-12.64.27-.42.53-.84.8-1.27.21-.37.41-.74.62-1.11.43-.58.86-1.16,1.28-1.73.91-2.58,1.82-5.16,2.73-7.73.87-3.72,2.78-.74,4.24-.66.63.13,1.26.26,1.89.39.9.44,1.81.88,2.71,1.32.42.12.83.24,1.25.36.71.26,1.42.52,2.14.78h.05s.03.03.03.03c1.26.58,2.53,1.15,3.79,1.73.16.06.32.12.48.18l2.54,1.08c.1.06.2.12.3.18,3.55,1.62,7.09,3.25,10.64,4.87.25.11.5.22.75.32.93.31,1.89.55,2.78.93,3,1.29,5.98,2.63,8.97,3.95.05,0,.09,0,.12.04,3.16,1.42,6.32,2.83,9.49,4.25.16.06.32.12.48.18,3.75,1.62,7.5,3.24,11.24,4.87.1.06.2.12.31.18.76.35,1.52.71,2.28,1.06.09.04.18.08.28.12.41.13.83.25,1.24.38.15-.51.31-1.02.46-1.53-.15.51-.31,1.02-.46,1.53.95.42,1.9.84,2.85,1.26,0,.05,0,.1.02.15.21.1.41.2.62.3.05,0,.1-.02.15-.02.1.02.21.04.31.06.59.3,1.17.59,1.76.89.21.08.41.15.62.23.05,0,.1-.02.16-.02.64.36,1.28.71,1.92,1.07.31.07.62.14.93.21l4.09,1.78c.64.24,1.28.49,1.92.73.78.28,1.57.56,2.35.84.83.31,1.66.62,2.49.92.39.15.78.29,1.17.44.21.05.42.1.63.16,3.65,1.55,7.31,3.11,10.96,4.66.51.22,1.02.42,1.74.29-.65-.48-1.29-.95-1.94-1.43.09-.17.18-.34.27-.51,2.07,1.06,4.14,2.12,6.21,3.18.16.05.32.11.48.16.05,0,.11,0,.16,0,.28.06.56.09.83.17.7.22,1.38.47,2.07.71-.2-.6-.4-1.2-.61-1.85.82.25,1.63.51,2.45.77,1.05.12,2.1.25,3.15.37.11.04.21.08.32.12.17.22.33.44.54.71.31-.38.58-.71.85-1.03.3-.15.6-.3.89-.45.14-.06.28-.11.42-.17-.06-.48-.12-.95-.19-1.43l.16-.63c.02-.05.04-.11.05-.16.05-.58.09-1.16.14-1.74.05-.06.1-.12.15-.17,0-.15-.01-.31-.02-.46.06-.11.12-.22.18-.32.12-.36.25-.73.37-1.1.25-.47.5-.95.76-1.42.13-.48.25-.96.38-1.45.22-.26.45-.51.67-.77-.29.08-.57.15-.87.23.29-.08.58-.15.87-.23.02-.1.03-.2.05-.3.03-.02.07-.03.11-.04.13-.63.26-1.25.39-1.88.3-.59.61-1.17.91-1.76.57-1.52,1.14-3.04,1.7-4.56.07-.06.13-.13.2-.19h0c.53-1.04,1.06-2.08,1.59-3.12.31-1.02.62-2.04.93-3.06.28-.88.55-1.76.83-2.63.1-.16.19-.31.29-.47.15-.89.31-1.79.46-2.68.17-.47.34-.94.51-1.41l.49-.97c.21-.63.41-1.26.62-1.89.24-1.86.46-3.72.72-5.58.05-.35.25-.68.38-1.04.18.18.39.4.59.61.18-.52.35-1.03.53-1.55.04-.12.09-.23.13-.35.17-.56.34-1.12.51-1.69.31-.86.63-1.72.94-2.58.21-.47.41-.94.62-1.41.1-.43.21-.85.31-1.28l-1.02-1.83c.34.61.68,1.22,1.02,1.83.22-.37.44-.73.65-1.1h0l.75-.96c-.03-.42-.07-.85-.1-1.27.08-.32.17-.64.25-.96.48-1.52.95-3.05,1.43-4.57.13-.47.26-.94.38-1.42.24-.74.49-1.48.73-2.22.18-.63.36-1.26.55-1.88.56-1.64,1.12-3.28,1.69-4.91.16-.47.32-.95.49-1.42h0c.12-.36.25-.72.37-1.08.14-.38.28-.75.41-1.13.46-1.05.93-2.11,1.39-3.16.17-.47.34-.94.51-1.42.52-.49.97-1.23,1.59-1.43,2.2-.72,4.46-1.26,6.7-1.86,1.83-.07,3.65-.14,5.48-.21.95.16,1.89.33,2.84.49-.21.22-.41.43-.62.65-1.12,1.52-2.24,3.04-3.36,4.56-.1.16-.19.32-.29.49-.96,1.79-1.91,3.58-2.87,5.37l-7.55,10.48c-.42.42-.85.84-1.27,1.26-1.02.99-2.03,1.97-3.05,2.96l-.46.63-.31.31c-.16.1-.31.2-.47.3-.26.24-.51.47-.77.71-.48.45-.97.89-1.45,1.34-.52.49-1.03.98-1.55,1.47-.27.32-.55.64-.82.95-.22.31-.43.62-.65.93-.42,1.01-.89,2.01-1.26,3.03-.38,1.04-1.17,2.28-.88,3.14.77,2.31,2.98,1.84,4.84,1.83.15,0,.31-.05.46-.07.26-.06.53-.13.79-.19.52.2,1.05.4,1.57.61l.8-1.24c.21,0,.42.02.63.03.21-.13.42-.25.64-.38.09,0,.18.01.27.02.28-.06.55-.13.67-.15-.03,0-.07.02-.13.03,1.15.25,1.36.29,1.57.34,1.26-.81,2.52-1.62,3.78-2.43.32-.2.65-.4.97-.6.66-.54,1.32-1.09,1.99-1.64-.27-.34-.43-.55-.59-.75-.16-.06-.32-.12-.48-.19-.1,0-.2,0-.3,0-.15-.35-.3-.71-.45-1.06.73-.5,1.45-.99,2.18-1.49.21-.14.42-.28.63-.42.11-.05.21-.11.32-.16.26-.17.53-.34.79-.51.04.02.09.03.13.02.7-.68,1.4-1.36,2.1-2.04.31-.26.63-.53.94-.79.73-.7,1.47-1.4,2.2-2.1.42-.3.84-.61,1.26-.91-.42-.21-.84-.42-1.26-.63.42.21.84.42,1.26.63.05,0,.11-.01.16-.02.27-.2.53-.41.8-.61.1-.21.21-.42.31-.63l1.42-.65c.06-.15.12-.3.18-.45.26-.21.52-.41.78-.62.36-.32.72-.65,1.08-.97.2-.37.4-.73.6-1.1.49-.41.98-.82,1.47-1.24.16-.27.33-.54.49-.81.35-.53.71-1.06,1.06-1.59.44-.58.87-1.15,1.31-1.73.14-.06.28-.12.43-.18.68-1.05,1.36-2.1,2.05-3.15.07-.1.14-.21.2-.31.26-.32.52-.64.78-.95.47-.64.95-1.28,1.42-1.92,0-.04-.02-.09-.03-.13.33-.52.67-1.04,1-1.56.11-.06.22-.12.33-.18l.67-1.08c.15-.32.29-.64.44-.96.04,0,.08-.02.12-.04.1-.52.2-1.04.3-1.55,0-.06.01-.11.02-.17.1-.68.2-1.36.29-2.04-.05-1.05-.11-2.11-.16-3.16Zm-111.71,3.78c.18.25.36.5.59.81-.18.2-.3.34-.41.47-.16-.24-.39-.46-.46-.73-.04-.15.18-.37.29-.56Zm-73.62,6.85c.05-.13.25-.21.43-.3,0,0,0,.02,0,.03-.21.08-.39.15-.43.27Zm.69-.36s0,0,0,0c-.01,0-.02,0-.03,0,.01,0,.02,0,.03-.01,0,0-.08.01-.17.02.01,0,.02-.01.04-.02.42-.64.73-1.63,1.3-1.82-.57.19-.88,1.19-1.17,1.83Zm17.65-1.05s-.08,0-.12,0c.04,0,.08,0,.12,0h0Zm3.87,3.01c-.94.52-2.07.67-3.42,1.08.42-.72.59-1.03.77-1.33.11-.94.22-1.87.32-2.81.91-5.46,4.13-8.43,9.64-8.93,2.61-.24,5.22-.48,7.83-.72,2.46-.22,4.92-.43,7.37-.65.08.23.16.47.24.7-2.89,1.62-5.77,3.24-8.66,4.86-.21.05-.42.11-.63.16-1.07.62-2.13,1.25-3.2,1.87l-.6.18c-3.22,1.87-6.42,3.79-9.68,5.59Zm107.31-6.72c.32.08.53.63.78.96l-1.74.16h-2.06c-.55.49-1.05,1.09-1.68,1.44-.35.19-.93-.04-1.41-.08.01-.14,0-.4.05-.42.48-.11.97-.2,1.46-.27.2-.03.4,0,.7,0-.22-.33-.38-.59-.54-.84l1.42-1.42c1.01.14,2.03.21,3.01.46Zm.67,3.56c-.13.06-.33.21-.38.17-.29-.22-.55-.48-.82-.73.2-.2.39-.39.59-.59.21.38.41.77.62,1.15Zm-5.03-5.5c.07.21.14.42.22.63-.88.28-1.76.55-2.63.83-.04-.14-.09-.28-.13-.42.85-.34,1.7-.69,2.55-1.03Zm-19.49-.84c-.18.2-.35.39-.52.58h0c.17-.19.34-.38.52-.58Zm-10.98,14.78s0,.01.02.02c0-.01-.02-.02-.02-.02-.37-.63-.74-1.27-1.1-1.9.37.63.74,1.27,1.1,1.9Zm-2.38-14.84c-.12.31-.26.67-.45,1.15.18-.48.33-.84.45-1.15Zm-12.16,27.98s0-.09,0-.14c1.42-1.39,2.84-2.79,4.26-4.18.54-.56,1.08-1.11,1.63-1.67.3-.32.61-.63.91-.95.53-.48,1.06-.95,1.59-1.43.31-.27.62-.54.93-.82.32-.27.64-.53.96-.8.22-.14.45-.29.67-.43-.54-.02-1.09-.04-1.63-.06.54.02,1.09.04,1.63.06.05,0,.09-.01.12-.05.22-.12.44-.25.66-.37-.07-.1-.14-.21-.21-.32.07.11.14.21.21.32l.76-.39c.16-.2.32-.41.48-.61.26-.22.52-.43.78-.65.27-.21.54-.41.81-.62.52-.34,1.03-.69,1.55-1.03,0-.04.01-.07.06-.09.26-.21.51-.42.77-.63h0l2.52-1.29c.07-.1.15-.2.22-.3,0-.04,0-.09,0-.13.56-.34,1.12-.67,1.68-1.01.74-.47,1.47-.94,2.21-1.41,0-.04.01-.09.02-.13.1-.03.21-.07.31-.1.21-.07.41-.15.62-.22.01.53.02,1.07.04,1.6-.13.47-.26.94-.39,1.41-.2.72-.4,1.45-.6,2.17-.36,3.67-3.64,4.23-6.08,5.66-4.37,2.55-8.77,5.06-13.15,7.59-1.12.65-2.22,1.32-3.33,1.98-1.05.53-2.1,1.06-3.15,1.59-.13-.15-.25-.29-.38-.44.84-.71,1.67-1.42,2.51-2.13Zm10.29-1.1c-.58.21-1.16.42-1.74.63,0,0,0,0,0,0l1.74-.63Zm-6.67,2.46c-.1.08-.18.15-.27.22-.12-.31-.23-.62-.35-.93.12.31.23.62.35.93.08-.07.17-.14.27-.22Zm50.19-17.45c-.9,2.52-1.8,5.04-2.7,7.56-.74,1.58-1.48,3.16-2.23,4.74-1.01,2.66-2.19,5.26-2.99,7.98-2.8,9.5-5.5,19.04-8.17,28.58-.37,1.31-.38,2.73-.56,4.09-.35.87-.7,1.73-1.05,2.6,0,0,0,0,0,0-2.65-1.35-5.3-2.7-7.95-4.06-.79-.37-1.58-.75-2.38-1.12-7.7-3.57-15.4-7.14-23.1-10.7l-3.32-1.74c-.43-.1-.86-.19-1.28-.29-.82-.38-1.64-.76-2.45-1.14.47-.45.94-.89,2.02-1.92-.16,0-.26.01-.34.01,1.09-.12,2.19-.25,3.28-.37.22-.41.45-.81.67-1.22.1-.06.21-.13.31-.19.42-.12.84-.24,1.26-.35.06-.03.11-.07.17-.1l4.74-2.89c.22-.14.44-.29.65-.43-.67-.28-1.33-.56-2-.85.67.28,1.33.56,2,.85.68-.48,1.36-.97,2.04-1.45,1.62-1.1,3.23-2.2,4.85-3.3.19-.2.39-.41.58-.61.19-.22.37-.44.56-.66h0c.38-.32.75-.65,1.13-.97.32-.15.63-.3.95-.45.53-.38,1.06-.76,1.58-1.14.49-.37.98-.75,1.55-1.18.02.34.03.54.04.74-.04.04-.04.08-.02.12,0,2.46,0,4.91,0,7.37-.03.03-.02.07.01.09.21,1.8.42,3.61.62,5.41.01.15.03.29.04.44,1.3,1.66,2.6,3.31,3.9,4.96.04.05.17,0,.22.05.71.69,1.42,1.38,2.1,2.1.23.25.29.64.52.89.07.08.52.02.6-.11,1.51-2.36,2.99-4.74,4.48-7.11h0c.06-.31.12-.62.18-.94.58-2.06,1.16-4.12,1.73-6.17.06-.26.11-.52.17-.77.19-.64.39-1.28.58-1.91l.57-1.88c.29-1.06.58-2.12.87-3.18.06-.17.12-.34.19-.51.31-.73.62-1.45.93-2.18.02-.21.03-.42.05-.62.25-.69.51-1.38.76-2.06l-1.53.02c.51,0,1.02-.01,1.53-.02.05-.11.1-.21.15-.32.42-1.1.85-2.21,1.27-3.32.52-1.48,1.05-2.95,1.57-4.43.06-.31.11-.63.17-.94.16-.58.32-1.16.47-1.74l.74-2.08c.28-.53.55-1.07.83-1.6.06-.25.13-.5.19-.75-.01-.05-.03-.1-.04-.16.12-.52.24-1.03.36-1.55.15.04.3.09.46.13l.16.15c.64.47,1.29.94,1.93,1.41h.07s.06.02.06.02h5.76c-.07.15-.3.64-.53,1.12Zm2.91,26.36s-.07.06-.1.09c.04-.03.08-.06.1-.09h0Zm23.26-48.72c.03-.28.05-.58.08-.94-.03.36-.06.67-.08.94Zm-16.21,43.67c-.16.05-.32.11-.47.16.12-.04.24-.08.51-.38.03.04.07.09.11.13-.06.18-.03.21,0,.24-.05-.05-.11-.11-.16-.16Zm6.99,6.61s.04,0,0,0h0Zm3.87-15.67c-.24.16-.73.84-1.23,1.52.41-.57.82-1.14,1.24-1.71,0,.06,0,.11-.01.19,0,.33.25.14.74-.25-.33.26-.55.43-.73.57,0-.1-.02-.19,0-.32Z"/>
  </g>
</svg>