<?xml version="1.0" encoding="utf-8"?>
<svg xmlns="http://www.w3.org/2000/svg" data-name="Layer 4" id="Layer_4" viewBox="0 0 88.59 13.63">
  <path d="m6.46,8.98l-1.21-1.86h-.47v1.86h-1.04V3.91h1.68c.36,0,.65.03.89.09.23.06.43.16.59.29.15.12.27.29.35.48s.13.44.13.71c0,.32-.06.61-.18.88-.12.27-.31.47-.57.61-.04.02-.07.04-.11.05-.03.01-.07.03-.11.04l1.31,1.9h-1.26Zm-1.68-4.21v1.56h.49c.13,0,.28,0,.43-.02.15-.02.27-.06.37-.13.18-.12.27-.33.27-.62s-.09-.49-.26-.62c-.1-.07-.23-.12-.37-.14-.15-.02-.29-.03-.44-.03h-.49Z"/>
  <path d="m12.88,4.82h-1.92v1.18h1.71v.9h-1.71v1.18h1.92v.91h-2.96V3.91h2.96v.91Z"/>
  <path d="m16.94,9.08c-.27,0-.53-.03-.77-.1-.24-.07-.45-.17-.63-.29-.18-.13-.34-.29-.46-.47-.12-.19-.2-.4-.24-.65l1.03-.22c.08.31.21.53.39.67.19.14.42.21.7.21.26,0,.46-.06.6-.17.14-.11.21-.26.21-.46,0-.11-.03-.21-.09-.29-.06-.08-.14-.15-.24-.2-.1-.06-.22-.11-.35-.15-.13-.04-.27-.08-.41-.13-.19-.06-.38-.12-.58-.19-.2-.07-.37-.16-.53-.27-.16-.11-.29-.25-.39-.42-.1-.17-.15-.38-.15-.64,0-.23.04-.43.13-.61.09-.18.21-.34.37-.47.16-.13.35-.23.57-.31s.46-.11.72-.11c.22,0,.45.02.66.08.22.05.42.13.6.24s.33.25.46.42c.13.17.22.38.28.63l-.93.22c-.09-.25-.21-.44-.37-.56s-.37-.18-.64-.18c-.24,0-.44.05-.59.16-.15.11-.22.25-.22.43,0,.1.03.19.08.25.06.07.13.13.22.18.09.05.2.09.33.13.12.04.26.07.4.11.2.05.4.11.6.18.21.07.39.16.56.28.17.12.31.27.42.45s.17.41.17.7c0,.23-.05.45-.14.63s-.22.35-.38.49-.36.24-.6.32c-.23.07-.5.11-.78.11Z"/>
  <path d="m23.15,9.08c-.29,0-.55-.04-.8-.11-.25-.08-.46-.19-.64-.35-.18-.16-.32-.35-.42-.59-.1-.24-.15-.52-.15-.85v-3.27h1.04v3.13c0,.39.09.67.28.84.19.17.42.25.7.25s.51-.08.7-.25c.18-.17.27-.45.27-.84v-3.13h1.04v3.27c0,.33-.05.61-.15.85-.1.24-.25.44-.43.59-.18.16-.39.27-.64.35-.24.08-.51.11-.8.11Z"/>
  <path d="m33.53,8.98h-1.05l-.32-3.99-1.3,3.99h-.7l-1.3-3.99-.32,3.99h-1.05l.42-5.07h1.53l1.08,3.16,1.08-3.16h1.53l.42,5.07Z"/>
  <path d="m38.88,4.82h-1.92v1.18h1.71v.9h-1.71v1.18h1.92v.91h-2.96V3.91h2.96v.91Z"/>
  <path d="m50.61,3.91h1.08l-1.32,5.07h-1.38l-.98-3.19-.97,3.19h-1.38l-1.32-5.07h1.08l1.01,3.96,1.15-3.96h.9l1.14,3.97,1.02-3.97Z"/>
  <path d="m56.14,9.08c-.38,0-.73-.06-1.04-.19s-.59-.31-.82-.54c-.23-.23-.41-.51-.54-.83s-.19-.68-.19-1.07.07-.75.19-1.07.31-.6.54-.83c.23-.23.5-.41.82-.54.32-.13.67-.19,1.04-.19s.73.06,1.05.19c.32.13.59.31.82.54.23.23.41.51.53.83s.19.68.19,1.07-.06.75-.19,1.07-.3.6-.53.83c-.23.23-.5.41-.82.54s-.67.19-1.05.19Zm0-.95c.23,0,.44-.04.63-.12.19-.08.36-.19.49-.34.14-.15.25-.32.32-.53s.12-.44.12-.69-.04-.48-.12-.69-.18-.38-.32-.53c-.14-.15-.3-.26-.49-.34-.19-.08-.4-.12-.63-.12s-.44.04-.63.12c-.19.08-.36.19-.49.34s-.25.32-.32.53c-.08.21-.11.44-.11.69s.04.48.11.69c.08.21.18.38.32.53s.3.26.49.34c.19.08.4.12.63.12Z"/>
  <path d="m63.77,8.98l-1.21-1.86h-.47v1.86h-1.04V3.91h1.68c.36,0,.65.03.88.09.23.06.43.16.59.29.15.12.27.29.36.48.08.2.12.44.12.71,0,.32-.06.61-.18.88-.12.27-.31.47-.57.61-.04.02-.07.04-.11.05s-.07.03-.11.04l1.31,1.9h-1.26Zm-1.68-4.21v1.56h.49c.13,0,.28,0,.43-.02.15-.02.27-.06.37-.13.18-.12.27-.33.27-.62s-.09-.49-.26-.62c-.1-.07-.22-.12-.37-.14s-.29-.03-.44-.03h-.49Z"/>
  <path d="m67.22,8.98V3.91h1.53c.44,0,.8.04,1.09.12.29.08.55.2.76.35.3.22.52.5.67.84s.22.75.22,1.22-.07.87-.22,1.22-.37.63-.67.85c-.21.15-.47.27-.76.35-.29.08-.66.12-1.09.12h-1.53Zm1.04-.91h.49c.48,0,.86-.1,1.13-.29.2-.14.34-.32.43-.54.09-.22.14-.49.14-.79s-.05-.56-.14-.79c-.09-.22-.24-.4-.43-.54-.14-.1-.3-.17-.49-.22-.19-.05-.4-.08-.65-.08h-.49v3.25Z"/>
  <path d="m76.81,4.82h-1.92v1.18h1.71v.9h-1.71v1.18h1.92v.91h-2.96V3.91h2.96v.91Z"/>
  <path d="m79.18,8.98V3.91h1.53c.44,0,.8.04,1.09.12.29.08.55.2.76.35.3.22.52.5.67.84s.22.75.22,1.22-.07.87-.22,1.22-.37.63-.67.85c-.21.15-.47.27-.76.35-.29.08-.66.12-1.09.12h-1.53Zm1.04-.91h.49c.48,0,.86-.1,1.13-.29.2-.14.34-.32.43-.54.09-.22.14-.49.14-.79s-.05-.56-.14-.79c-.09-.22-.24-.4-.43-.54-.14-.1-.3-.17-.49-.22-.19-.05-.4-.08-.65-.08h-.49v3.25Z"/>
</svg>