<?xml version="1.0" encoding="utf-8"?>
<svg xmlns="http://www.w3.org/2000/svg" data-name="Layer 3" id="Layer_3" viewBox="0 0 266.43 151.17">
  <defs>
    <style>
      .cls-1 {
        fill: none;
      }

      .cls-2 {
        fill: #fff;
      }

      .cls-3 {
        fill: #c3c3c3;
      }
    </style>
  </defs>
  <path class="cls-1" d="m133.21,119.23H7.67c-.31,0-.39-.07-.39-.38V32.31c0-.31.07-.38.39-.38h251.08c.31,0,.39.07.39.38v86.54c0,.31-.07.38-.39.38h-125.54,0ZM50.48,33.91c.03-.19-.11-.08-.18-.09-.05,0-.16,0-.07.1-1.24.05-2.48.19-3.69.46-1.12.25-2.23.58-3.32.98-1.69.61-3.28,1.4-4.79,2.36-1.25.8-2.43,1.7-3.49,2.74-.07.06-.14.07-.21.1-.88.33-1.83.43-2.72.75-1.11.39-2.21.79-3.26,1.31-2.12,1.03-4.04,2.36-5.79,3.93-.99.89-1.87,1.9-2.72,2.91-.62.74-1.1,1.59-1.62,2.42-.78,1.26-1.38,2.6-1.92,3.98-.46,1.17-.72,2.41-1.3,3.54-.38.75-.7,1.54-.97,2.34-.32.96-.6,1.95-.8,2.95-.2,1.01-.39,2.02-.46,3.04-.07.98.03,1.97,0,2.96-.01.45.11.92-.09,1.36-.56,1.24-.94,2.55-1.34,3.85-.23.74-.31,1.53-.42,2.3-.05.34-.2.67-.18,1,.08,1.16-.15,2.31,0,3.47.08.63.08,1.28.17,1.92.22,1.45.45,2.9.98,4.28.18.46.28.93.47,1.39.79,1.88,1.71,3.69,2.92,5.34,1.01,1.38,2.1,2.69,3.39,3.82.97.84,2,1.59,2.66,2.78.96,1.72,2.25,3.21,3.67,4.61,1.01.99,2.08,1.9,3.23,2.7,1.3.9,2.65,1.74,4.15,2.31.89.34,1.76.73,2.68,1,1.04.31,2.1.53,3.16.73.64.12,1.3.25,1.95.24,1.49-.02,2.97.09,4.46-.14.82-.12,1.64-.22,2.45-.41.64-.15,1.3-.3,1.95-.15,1.08.25,2.18.44,3.28.53,2.62.21,5.22.04,7.78-.58,3.18-.77,6.1-2.08,8.73-4.04.59-.44,1.14-.95,1.78-1.31,2.2-1.26,4.12-2.86,5.84-4.7.34-.36.66-.75.97-1.14,1.11-1.39,2.12-2.84,2.84-4.49.27-.61.55-1.2,1.15-1.61.48-.32.9-.73,1.32-1.13.92-.88,1.74-1.85,2.54-2.84,1.72-2.13,2.95-4.51,3.84-7.07.57-1.64.95-3.32,1.11-5.05.11-1.16.26-2.32.3-3.48.03-.93-.02-1.85-.12-2.78-.11-1.06-.28-2.11-.5-3.14-.32-1.47-.79-2.91-1.42-4.28-.12-.26-.28-.52-.29-.82-.02-.96-.04-1.91-.15-2.87-.09-.78-.15-1.56-.3-2.33-.17-.9-.39-1.79-.64-2.67-.41-1.43-1.01-2.79-1.66-4.12-.45-.92-1.04-1.78-1.65-2.61-.99-1.35-2.03-2.65-3.27-3.79-1.07-.98-2.18-1.88-3.38-2.67-1.04-.68-2.11-1.3-3.25-1.83-1.58-.73-3.19-1.34-4.9-1.7-.53-.11-.89-.52-1.31-.83-1.5-1.15-3.13-2.09-4.81-2.96-.77-.4-1.58-.74-2.37-1.1-.41-.19-.82-.41-1.23-.54-.53-.16-1.08-.29-1.61-.44-1.52-.44-3.06-.67-4.63-.78-.99-.07-1.98-.03-2.97-.04l.03.03Zm195.73,8.37c.09-.15-.05-.1-.1-.1-.06,0-.15,0-.05.1h-1.77s.07-.05.03-.07c-.03-.02-.09-.02-.13-.02-.07.1-.17.07-.27.06-1.61-.15-3.23-.03-4.85-.15-1.14-.09-2.28-.07-3.42-.08-2.58-.03-5.16-.13-7.75-.18-.5,0-1,.03-1.52-.13-.24-.08-.61.04-.92.04-1.01,0-2.03.02-3.04-.08-.39-.04-.84-.17-1.19.19-.43.44-.86.88-1.29,1.31-.53.53-1.06,1.04-1.58,1.57-.22.22-.27-.03-.29-.13-.06-.27-.09-.54-.1-.81-.02-.4.07-.72-.53-.93-1.43-.49-2.82-1.09-4.29-1.45-1.38-.34-2.77-.69-4.21-.79-1.02-.07-2.02-.32-3.05-.33-1.89,0-3.79-.09-5.68.08-1.29.12-2.57.26-3.83.53-1.61.35-3.19.83-4.74,1.38-.17.06-.32.1-.47.25-.63.68-1.3,1.32-1.96,1.97-.39.38-.8.74-1.12,1.19-.12.17-.25.17-.41,0-.71-.68-1.51-1.24-2.33-1.79-1.08-.73-2.23-1.35-3.42-1.83-1.65-.65-3.35-1.15-5.13-1.41-1.15-.17-2.29-.28-3.44-.38-1.06-.08-2.12-.04-3.18-.05.1-.09,0-.1-.05-.1-.05,0-.19-.04-.1.11-.52.07-1.05.03-1.57.1-.94.12-1.89.17-2.82.35-.54.1-1.08.15-1.62.27-1.14.24-2.26.57-3.4.8-1.21.24-2.21.71-2.98,1.68-.33.41-.49.36-.62-.14-.19-.7-.37-1.4-.57-2.09-.32-1.14-.69-2.27-.98-3.42-.33-1.33-.79-2.62-1.06-3.96-.04-.17-.12-.27-.3-.29-.12,0-.26.04-.35-.08-.09-.08-.19-.08-.28,0-.37.19-.76.06-1.14.11.04-.03.05-.06,0-.09h-.04s-.03.06,0,.09c-4.92.11-9.84.22-14.75.33.1-.09.02-.1-.05-.1-.05,0-.19-.04-.1.1-1.37.09-2.75-.04-4.13.1-1.05.11-2.12.05-3.18.07-2.11.04-4.21.15-6.32.16-1.28,0-2.57-.02-3.85.06-1.21.08-2.42.08-3.63.05-.18,0-.3.04-.41.15-.73.73-1.45,1.47-2.18,2.2-.88.89-1.74,1.81-2.66,2.65-.37.34-.51.67-.47,1.14.09,1.2.06,2.4.16,3.6.07.75.03,1.51.08,2.27.16,2.2.11,4.4.24,6.61.18,3.19.24,6.38.36,9.58.03.88.11,1.75.11,2.63,0,1.84.18,3.67.16,5.5,0,.3-.08.44-.4.39-.41-.06-.71.12-.99.41-1.01,1.04-2.01,2.09-3.05,3.1-.59.56-1.09,1.22-1.76,1.7-.2.14-.29.33-.28.6.02.41.23.84.09,1.23-.15.44.02.86.04,1.27.04.88.06,1.76.12,2.64.14,1.86.05,3.72.19,5.58h0c0,.13,0,.28-.01.42-.12,0-.07.09-.05.13s.06.02.08-.02c.11,1.07.03,2.14.12,3.22.18,2.17.04,4.35.25,6.51.05.55.03,1.11.07,1.67.02.21-.19.4-.09.56.17.27.15.56.16.84.06,2,.03,4.01.2,6.01.08.96.03,1.93.12,2.9.09.92.05,1.86.04,2.79,0,.64.15,1.26.09,1.9-.02.24-.11.53-.05.72.22.67.12,1.34.14,2.02,0,.29.08.4.38.38.71-.03,1.42-.05,2.14-.05h35.96c.82,0,1.65.01,2.47.02.29,0,.55-.05.76-.27.62-.66,1.26-1.3,1.88-1.96.16-.17.29-.21.5-.09.96.54,1.9,1.09,2.95,1.45.6.21,1.19.44,1.8.61.83.23,1.66.45,2.52.58,1.04.15,2.08.33,3.12.35,1.28.03,2.56.04,3.84-.04,1.05-.06,2.1-.14,3.13-.3,2.33-.34,4.58-1,6.66-2.15.74-.41,1.44-.88,2.09-1.47.08.28.18.5.2.72.03.27.2.39.41.46,1.23.43,2.45.91,3.71,1.26,1.78.49,3.56,1.01,5.41,1.23.99.12,1.97.32,2.97.29.89-.03,1.77,0,2.66-.06,1.32-.08,2.62-.27,3.9-.57,1.13-.27,2.23-.64,3.33-1.04.13-.05.23-.06.38-.02,1.13.29,2.26.59,3.4.82.86.17,1.74.32,2.61.36,1.23.05,2.46.08,3.71-.04,1.7-.17,3.3-.57,4.85-1.26,1.25-.55,2.34-1.34,3.29-2.33.07-.07.13-.22.26-.16.12.06.06.2.05.3,0,.39,0,.78-.02,1.17,0,.24.08.36.35.41,1.43.3,2.86.64,4.29.94,1.07.23,2.15.46,3.23.63,1.1.16,2.2.31,3.3.46,1.12.15,2.24.24,3.36.28,1.43.05,2.86.11,4.29-.06.84-.1,1.69-.08,2.54-.24,1.5-.28,2.97-.62,4.38-1.2,1.71-.7,3.24-1.68,4.55-2.99,1.75-1.74,3.5-3.48,5.24-5.24.43-.43.82-.9,1.19-1.39,1.77-2.39,2.46-5.13,2.67-8.03.11-1.49-.02-2.97-.22-4.45-.15-1.12-.42-2.19-.79-3.24-.3-.85-.78-1.63-1.21-2.43-.17-.31-.39-.62-.44-.97-.11-.8-.24-1.59-.26-2.4,0-.3.02-.66-.06-.9-.13-.4-.12-.8-.18-1.19-.11-.69-.09-1.4-.2-2.09-.2-1.2-.23-2.42-.39-3.62-.03-.23.02-.52-.32-.63-.65-.2-1.29-.43-1.94-.62-.25-.07-.36-.18-.35-.46.06-1.17-.05-2.33-.08-3.49-.09-3.22-.18-6.45-.33-9.67-.06-1.36-.06-2.72-.1-4.09-.08-2.88-.2-5.75-.25-8.63-.02-.85-.13-1.69-.1-2.55.05-1.45-.18-2.89-.11-4.34,0-.14-.02-.28-.04-.41-.06-.44-.31-.59-.76-.58-1.03.02-2.07,0-3.1-.02l.02.03Z"/>
  <path d="m153.77,33.47c.09.13.23.07.35.08.18.02.27.12.3.29.28,1.34.73,2.63,1.06,3.96.29,1.15.66,2.28.98,3.42.19.7.38,1.4.57,2.09.14.5.3.55.62.14.77-.97,1.77-1.44,2.98-1.68,1.14-.22,2.26-.55,3.4-.8.53-.11,1.08-.17,1.62-.27.93-.18,1.88-.23,2.82-.35.53-.07,1.05-.03,1.57-.1h.15c1.06,0,2.13-.03,3.18.05,1.15.09,2.3.21,3.44.38,1.78.26,3.48.76,5.13,1.41,1.2.47,2.34,1.1,3.42,1.83.82.55,1.62,1.11,2.33,1.79.16.16.3.16.41,0,.32-.45.73-.81,1.12-1.19.66-.65,1.33-1.3,1.96-1.97.14-.15.3-.19.47-.25,1.55-.55,3.13-1.03,4.74-1.38,1.26-.27,2.54-.42,3.83-.53,1.89-.17,3.78-.1,5.68-.08,1.03,0,2.03.26,3.05.33,1.44.1,2.83.45,4.21.79,1.46.36,2.86.97,4.29,1.45.61.21.51.52.53.93,0,.27.04.55.1.81.02.1.07.35.29.13.52-.53,1.06-1.05,1.58-1.57.43-.43.86-.87,1.29-1.31.35-.36.8-.23,1.19-.19,1.01.1,2.03.07,3.04.08.31,0,.68-.12.92-.04.51.16,1.01.12,1.52.13,2.58.05,5.16.14,7.75.18,1.14.02,2.29,0,3.42.08,1.62.12,3.24,0,4.85.15.1,0,.2.03.27-.06-.06.12.02.12.1.1h1.92c1.03,0,2.07.04,3.1.02.45,0,.69.14.76.58.02.14.04.28.04.41-.06,1.45.16,2.89.11,4.34-.03.85.08,1.7.1,2.55.06,2.88.17,5.75.25,8.63.04,1.36.03,2.73.1,4.09.15,3.22.24,6.45.33,9.67.03,1.16.14,2.33.08,3.49,0,.28.1.38.35.46.65.19,1.29.42,1.94.62.34.1.29.39.32.63.16,1.2.2,2.42.39,3.62.11.69.09,1.4.2,2.09.06.39.05.79.18,1.19.08.24.05.6.06.9.02.81.15,1.6.26,2.4.05.35.27.66.44.97.43.8.91,1.57,1.21,2.43.37,1.05.64,2.12.79,3.24.2,1.48.33,2.96.22,4.45-.21,2.9-.9,5.64-2.67,8.03-.37.5-.76.96-1.19,1.39-1.74,1.75-3.49,3.49-5.24,5.24-1.31,1.31-2.84,2.29-4.55,2.99-1.41.58-2.88.92-4.38,1.2-.85.16-1.69.14-2.54.24-1.43.17-2.87.11-4.29.06-1.12-.04-2.24-.14-3.36-.28-1.1-.15-2.21-.29-3.3-.46-1.08-.16-2.16-.4-3.23-.63-1.43-.3-2.86-.64-4.29-.94-.27-.06-.35-.17-.35-.41,0-.39,0-.78.02-1.17,0-.11.07-.24-.05-.3-.13-.06-.19.08-.26.16-.95.98-2.04,1.77-3.29,2.33-1.54.69-3.15,1.09-4.85,1.26-1.24.12-2.48.08-3.71.04-.87-.03-1.75-.18-2.61-.36-1.14-.23-2.27-.53-3.4-.82-.15-.04-.25-.03-.38.02-1.09.4-2.19.77-3.33,1.04-1.28.3-2.58.49-3.9.57-.89.06-1.78.03-2.66.06-1.01.04-1.99-.17-2.97-.29-1.84-.22-3.63-.74-5.41-1.23-1.26-.35-2.47-.83-3.71-1.26-.22-.08-.39-.19-.41-.46-.02-.22-.12-.44-.2-.72-.64.59-1.35,1.06-2.09,1.47-2.08,1.15-4.33,1.8-6.66,2.15-1.03.15-2.08.24-3.13.3-1.28.07-2.56.07-3.84.04-1.04-.02-2.08-.2-3.12-.35-.86-.13-1.69-.36-2.52-.58-.61-.17-1.2-.4-1.8-.61-1.05-.36-2-.91-2.95-1.45-.21-.12-.34-.08-.5.09-.62.66-1.26,1.3-1.88,1.96-.21.23-.47.27-.76.27-.82,0-1.65-.02-2.47-.02h-35.96c-.71,0-1.42.01-2.14.05-.3.01-.37-.1-.38-.38-.01-.67.08-1.35-.14-2.02-.06-.18.03-.47.05-.72.06-.64-.09-1.27-.09-1.9,0-.93.04-1.87-.04-2.79-.09-.97-.04-1.94-.12-2.9-.16-2-.14-4.01-.2-6.01,0-.28.02-.57-.16-.84-.1-.16.1-.35.09-.56-.04-.55-.02-1.12-.07-1.67-.21-2.17-.07-4.35-.25-6.51-.09-1.07-.01-2.15-.12-3.21.02-.05.05-.1-.04-.12,0-.14,0-.29.01-.43h.04-.04c-.15-1.86-.06-3.72-.19-5.58-.06-.88-.09-1.76-.12-2.64-.02-.41-.19-.82-.04-1.27.13-.39-.07-.81-.09-1.23-.01-.27.07-.46.28-.6.67-.48,1.17-1.14,1.76-1.7,1.05-1,2.05-2.05,3.05-3.1.28-.29.58-.48.99-.41.32.05.4-.09.4-.39.02-1.84-.15-3.67-.16-5.5,0-.88-.08-1.75-.11-2.63-.12-3.19-.18-6.39-.36-9.58-.12-2.2-.08-4.41-.24-6.61-.06-.76-.02-1.52-.08-2.27-.11-1.2-.08-2.4-.16-3.6-.03-.47.1-.8.47-1.14.93-.84,1.78-1.76,2.66-2.65.73-.73,1.45-1.47,2.18-2.2.11-.11.22-.15.41-.15,1.21.02,2.42.02,3.63-.05,1.28-.08,2.57-.05,3.85-.06,2.11,0,4.21-.11,6.32-.16,1.06-.02,2.12.04,3.18-.07,1.38-.14,2.75-.02,4.13-.1h.15c4.92-.11,9.84-.22,14.75-.33h0s0,0,0,0c.38-.06.78.07,1.14-.12.1.15.19.15.28,0v-.04Zm-22.95,47.34c-.12-.14-.11-.32-.12-.5-.06-.97.11-1.93.1-2.89,0-1.06-.09-2.12.07-3.17.05-.33-.15-.35-.37-.33-1.03.08-2.06.09-3.08.14-1.32.07-2.63.13-3.95.18-1.35.05-2.69.1-4.04.16-1.53.06-3.06.15-4.59.18-.31,0-.4.09-.39.4.05,1.45.08,2.91.17,4.36.09,1.41.06,2.83.15,4.24.11,1.58.08,3.16.18,4.75.09,1.43.06,2.86.15,4.29.11,1.55.07,3.11.18,4.66.09,1.32.14,2.65.17,3.97.02,1.08.19,2.16.08,3.25-.02.18-.02.37,0,.55.06.83.13,1.65.11,2.49-.02,1.32-.16,1.09,1.05,1.09h13.12c.33,0,.41-.09.42-.42.03-1.46,0-2.91.05-4.37.09-2.79.08-5.59.18-8.38.04-1.04,0-2.09,0-3.13,0-.64.02-.66.63-.56.95.16,1.89.32,2.83.49.65.12.65.13.63.79v.17c-.09,1.12-.21,2.23-.25,3.35-.04,1.32-.13,2.64-.24,3.96-.08.94-.11,1.87-.15,2.81-.02.45-.02.89-.08,1.33-.14,1.18-.1,2.38-.21,3.56-.03.29.07.41.39.41,5.17-.01,10.34-.02,15.51,0,.4,0,.47-.13.48-.49.03-2.12,0-4.23.05-6.35.08-4.09,0-8.19.1-12.28.07-3.03-.08-6.06.08-9.1.05-.93,0-1.87.02-2.8,0-.24-.07-.34-.3-.41-1.32-.39-2.64-.78-3.96-1.18-1.12-.33-2.24-.66-3.35-1.01-1.74-.54-3.49-1.08-5.23-1.63-.28-.09-.54-.04-.75.1-.6.41-1.25.75-1.76,1.29-.55.57-1.17,1.08-1.66,1.7-.54.68-1,1.41-1.43,2.16-.4.69-.7,1.43-.99,2.18h0Zm4.83-14.69c.22.16.36.25.47.36.97.94,2.05,1.74,3.16,2.5,1.37.94,2.87,1.63,4.36,2.36.74.36,1.52.6,2.26.93.78.34,1.62.51,2.4.86.21.1.56.35.84-.12.7-1.17,1.53-2.27,2.23-3.45,1.05-1.75,2.19-3.44,3.27-5.16.38-.61.81-1.2,1.21-1.79.1-.15.24-.34-.02-.44-.65-.23-1.08-.75-1.61-1.14-.54-.4-1.17-.65-1.66-1.1-.47-.43-1-.78-1.52-1.12-.47-.31-.88-.68-1.34-1-.09-.06-.19-.14-.09-.27.14-.2.27-.42.43-.59.69-.75,1.4-1.48,2.05-2.27,1-1.23,2.07-2.39,3.13-3.57.17-.19.22-.34.15-.59-.26-.86-.5-1.73-.74-2.59-.59-2.08-1.17-4.15-1.76-6.23-.38-1.35-.8-2.69-1.15-4.05-.09-.33-.23-.38-.51-.37-1.18.04-2.37.03-3.55.07-2.21.08-4.43.07-6.64.17-1.33.06-2.66-.03-4,.08-1.32.11-2.65,0-3.97.09-1.85.1-3.71.07-5.57.1-.48,0-.95.02-1.42.05-1.29.1-2.58-.07-3.87.1-.63.08-1.28.03-1.93,0-.37,0-.48.1-.46.47.07,1.6.07,3.19.18,4.79.1,1.54.06,3.08.16,4.62.11,1.55.07,3.11.17,4.66.13,2.05.08,4.1.26,6.14.09,1.01,0,2.04.08,3.06.11,1.38.07,2.77.16,4.16.11,1.8.13,3.61.18,5.41.01.33.01.66.06,1,.03.25.11.31.36.31,2.12-.01,4.25-.03,6.37-.01,2.41.02,4.82-.07,7.23.04.13,0,.51.08.47-.25-.04-.36.1-.69.11-1.04.02-1.57.05-3.15.08-4.72v-.47h-.02Zm61.78,30.88h-.05c-.22-1.17-.42-2.35-.66-3.51-.62-2.91-1.44-5.77-2.63-8.51-.72-1.67-1.54-3.27-2.61-4.75-.2-.28-.4-.34-.74-.24-1.86.52-3.74,1.02-5.61,1.52-1.43.38-2.86.74-4.28,1.12-.21.06-.53.03-.44.45.54,2.41,1.08,4.83,1.59,7.25.59,2.78,1.24,5.56,1.79,8.35.31,1.59.7,3.17,1.05,4.76.27,1.2.58,2.4.79,3.62.02.13.09.26.27.32,1.39.4,2.76.88,4.17,1.19,1.07.23,2.14.48,3.25.58,1.61.14,3.2.21,4.81.06,1.31-.12,2.57-.4,3.82-.8.98-.31,1.93-.67,2.87-1.06.1-.04.18-.09.31-.05,1.26.48,2.56.84,3.89,1.09.55.1,1.08.3,1.66.33.47.02.95-.04,1.39.05.68.15,1.36.13,2.02.06.87-.09,1.75-.2,2.61-.44,1.26-.36,2.38-.91,3.36-1.75,1.87-1.6,2.73-3.8,3.5-6.04.52-1.5.79-3.06,1.04-4.62.32-2,.47-4.01.66-6.02.1-1,.1-2,.15-2.99.06-1.39.16-2.78.11-4.17-.02-.58-.05-1.17-.02-1.74.02-.45-.11-.45-.43-.45-.85,0-1.69.02-2.54-.1-1.3-.2-2.63-.07-3.93-.24-.86-.11-1.73-.02-2.59-.13-1-.13-2.03-.09-3.04-.2-.35-.04-.51.09-.53.45-.08,1.5-.13,3-.28,4.49-.1,1.02-.1,2.05-.2,3.07-.11,1.19-.2,2.39-.27,3.59-.05.89-.02,1.78-.11,2.67-.06.57-.08,1.14-.11,1.7-.05.79-.31,1.58.02,2.44-.23-.15-.31-.33-.34-.49-.09-.5-.16-1-.22-1.5-.11-.89-.19-1.78-.31-2.67-.11-.85-.25-1.69-.36-2.54-.14-1.06-.25-2.13-.39-3.2-.17-1.28-.39-2.55-.53-3.82-.15-1.32-.34-2.62-.5-3.94-.03-.23-.13-.28-.33-.26-.34.03-.69.06-1.03.09-1.12.09-2.25.1-3.37.2-.64.06-1.28.05-1.92.1-1.61.11-3.22.28-4.83.29-.29,0-.35.1-.35.36.02.71.05,1.41.07,2.12.07,1.84.11,3.67.18,5.51.07,1.92.06,3.83.17,5.75.05.89,0,1.78,0,2.67v-.02Zm-23.09-23.78c1.35.1,2.73.02,4.09-.17,2.16-.3,4.23-.92,6.19-1.89.36-.18.55-.41.65-.79.79-3.25,1.6-6.5,2.4-9.75.23-.93.49-1.86.59-2.8.1-.94.12-1.9.06-2.86-.08-1.13-.32-2.2-.77-3.22-1.17-2.66-3.27-4.39-5.78-5.69-2.83-1.47-5.92-1.94-9.05-2.13-1.06-.07-2.14-.03-3.21.05-1.27.1-2.52.25-3.77.45-1.21.2-2.41.46-3.6.76-.29.07-.62.17-.66.53-.03.26-.13.48-.21.71-.5,1.31-.97,2.62-1.5,3.92-.33.8-.59,1.63-.94,2.43-.36.83-.64,1.72-.9,2.6-.88,3.02-1.14,6.05-.08,9.1.59,1.7,1.57,3.09,2.87,4.3,1.5,1.4,3.26,2.38,5.16,3.12,1.47.58,3,.93,4.56,1.18,1.28.2,2.58.24,3.92.16h-.02Zm67.94,17.79c0-.07.07-.09.12-.1,1.04-.15,2.07-.4,3.1-.6,1.83-.36,3.66-.69,5.49-1.02.26-.05.29-.15.26-.4-.16-1.19-.29-2.37-.42-3.56-.11-1.04-.2-2.09-.31-3.13-.06-.54-.16-1.07-.19-1.61-.04-.64-.02-.65-.64-.81-2.57-.65-5.19-.99-7.83-1.1-1.27-.05-2.53.04-3.79.17-2.03.2-3.98.66-5.81,1.6-2.01,1.03-3.61,2.46-4.48,4.6-.52,1.29-.63,2.63-.6,4,.03,1.22.31,2.37.84,3.45,1.13,2.29,3.07,3.66,5.34,4.65.78.34,1.59.63,2.39.94-1.29.08-2.56-.05-3.84.05-1.31.1-2.62.02-3.94.03-.18,0-.36.05-.54.06-.19.01-.26.11-.26.3,0,1.68.04,3.36-.06,5.05-.07,1.12,0,2.26-.02,3.38,0,.58-.02.59.56.7,1.36.25,2.7.58,4.07.81,1.23.2,2.46.4,3.7.54.84.09,1.69.16,2.53.19,1.17.05,2.35,0,3.52.02.8.02,1.59-.08,2.37-.2,1.14-.18,2.29-.42,3.39-.82,2.25-.82,4.09-2.11,5.23-4.26.99-1.88,1.38-3.9,1.4-6.01,0-.69-.14-1.37-.16-2.05-.03-1.32-.37-2.55-.88-3.75-.09-.22-.24-.28-.48-.32-.6-.1-1.2,0-1.79-.08-1.27-.16-2.54-.22-3.81-.3-1.41-.09-2.82-.24-4.24-.29-.09,0-.2.02-.24-.1l.02-.03Zm-73.65,18.27c.76-.01,1.53,0,2.29-.07,1.54-.13,3.07-.36,4.56-.77.87-.24,1.73-.54,2.54-.91.61-.28,1.19-.69,1.74-1.13.33-.26.51-.52.55-.91.04-.3.06-.6.1-.9.21-1.74.43-3.48.64-5.22.13-1.09.24-2.18.37-3.27.03-.3-.04-.43-.4-.46-1.32-.12-2.65-.28-3.97-.46-.22-.03-.52.1-.65-.13-.11-.21.12-.44.18-.66.89-3.2,1.65-6.43,2.47-9.64.06-.25.02-.45-.19-.64-1.4-1.3-3-2.26-4.79-2.92-2.14-.79-4.38-1.14-6.65-1.24-1.7-.07-3.4-.06-5.09.17-1.65.23-3.29.55-4.9.98-.51.14-.78.39-.96.89-1.07,3.03-2.12,6.07-3.27,9.06-1.09,2.82-1.28,5.67-.62,8.6.17.75.4,1.49.73,2.18.82,1.73,2.1,3.09,3.61,4.24,1.15.87,2.43,1.51,3.78,2,1.34.49,2.73.83,4.14,1.02,1.25.17,2.51.31,3.78.19h0Zm72.77-36.7h0c1.83,0,3.66-.01,5.49,0,.32,0,.43-.07.43-.42-.02-1.63-.06-3.25-.16-4.87-.06-.99-.02-1.99-.08-2.99-.06-1.01-.07-2.02-.09-3.03-.06-2.28-.16-4.57-.23-6.85-.08-2.7-.18-5.4-.19-8.1,0-.3-.09-.41-.4-.41-3.31-.05-6.61-.08-9.92-.24-1.08-.05-2.17,0-3.25-.07-1.26-.09-2.54-.07-3.81-.08-1.49-.02-2.99-.1-4.48-.11-.36,0-.47.1-.55.43-.48,2.11-.99,4.2-1.46,6.31-.14.62-.34,1.24-.43,1.86-.16,1.16-.48,2.29-.72,3.43-.2.96-.45,1.93-.68,2.89-.46,1.98-.91,3.97-1.36,5.95-.13.59-.24,1.19-.38,1.78-.17.71-.32,1.42-.51,2.12-.06.21.05.28.26.33.52.12,1.03.26,1.54.4,2.8.79,5.6,1.58,8.4,2.38.32.09.44.02.52-.3.27-1.05.56-2.08.84-3.13.06-.22.13-.38.41-.38h4.57c.21,0,.28.09.26.27-.06.78.14,1.56.07,2.34-.04.39.08.5.47.5,1.82-.02,3.63,0,5.45,0h-.01Zm-41.7-14.68c.12-.07.15-.1.18-.1.93-.12,1.87-.25,2.8-.35.73-.08,1.47-.1,2.2-.21,1.09-.16,2.17-.27,3.26-.38.66-.07,1.32-.13,1.99-.2.78-.08,1.56-.24,2.34-.31.76-.06,1.51-.16,2.27-.24.22-.02.34-.14.31-.36-.07-.54.03-1.09-.07-1.63-.05-.28-.11-.57-.11-.86,0-1.05-.14-2.1-.15-3.15,0-1.34-.21-2.66-.19-3.99,0-.34-.14-.55-.47-.64-.76-.22-1.52-.48-2.29-.66-1.45-.33-2.91-.56-4.4-.7-1.16-.11-2.32-.23-3.48-.24-1.27,0-2.54.04-3.8.17-1.89.2-3.74.59-5.56,1.13-.18.05-.37.12-.42.31-.12.47-.37.88-.53,1.33-.21.58-.42,1.16-.62,1.75-.34.97-.8,1.9-1.1,2.88-.31,1-.76,1.93-1.07,2.93-.37,1.19-.86,2.33-1,3.59-.19,1.69-.22,3.36.12,5.03.58,2.81,2.03,5.09,4.26,6.89,2.68,2.15,5.83,3.11,9.19,3.33,2.66.18,5.32.06,7.92-.63,1.73-.46,3.4-1.07,4.86-2.16.23-.17.39-.35.42-.67.15-1.62.33-3.24.49-4.86.15-1.46.27-2.92.44-4.37.03-.3-.08-.33-.31-.41-.43-.13-.87,0-1.28-.11-.68-.2-1.39-.23-2.07-.31-1.09-.13-2.19-.26-3.29-.39-.69-.09-1.39-.2-2.08-.28-1.08-.12-2.17-.27-3.25-.37-.76-.07-1.51-.17-2.26-.27-1.05-.15-2.11-.26-3.24-.48h0Zm-16.24,20.19c.52.07.97-.15,1.43-.28.27-.08.72-.01.77-.29.05-.3-.38-.47-.58-.71-.15-.18-.26-.12-.41.03-.39.42-.79.82-1.21,1.25h0Zm-29.4-.25c-.15.01-.21.1-.2.22,0,.18.14.26.3.27.11,0,.19-.09.17-.19-.03-.15-.12-.27-.28-.31h0Z"/>
  <path d="m50.48,33.91c.99,0,1.99-.02,2.97.04,1.57.1,3.11.34,4.63.78.54.15,1.09.28,1.61.44.41.13.82.35,1.23.54.79.36,1.6.7,2.37,1.1,1.67.87,3.31,1.81,4.81,2.96.41.32.77.72,1.31.83,1.71.36,3.32.96,4.9,1.7,1.13.53,2.21,1.14,3.25,1.83,1.2.79,2.32,1.69,3.38,2.67,1.24,1.14,2.28,2.44,3.27,3.79.61.83,1.2,1.69,1.65,2.61.65,1.33,1.25,2.69,1.66,4.12.25.88.46,1.77.64,2.67.15.77.21,1.55.3,2.33.11.95.13,1.91.15,2.87,0,.3.17.56.29.82.63,1.38,1.1,2.81,1.42,4.28.22,1.04.39,2.08.5,3.14.1.93.15,1.85.12,2.78-.04,1.16-.19,2.32-.3,3.48-.17,1.73-.54,3.42-1.11,5.05-.9,2.56-2.13,4.94-3.84,7.07-.8.99-1.62,1.96-2.54,2.84-.42.4-.84.8-1.32,1.13-.59.4-.88,1-1.15,1.61-.72,1.64-1.73,3.1-2.84,4.49-.31.39-.63.77-.97,1.14-1.72,1.85-3.64,3.45-5.84,4.7-.64.37-1.19.87-1.78,1.31-2.63,1.96-5.55,3.27-8.73,4.04-2.56.62-5.16.79-7.78.58-1.1-.09-2.19-.29-3.28-.53-.65-.15-1.31,0-1.95.15-.81.19-1.63.29-2.45.41-1.48.22-2.97.11-4.46.14-.65,0-1.31-.12-1.95-.24-1.06-.2-2.12-.42-3.16-.73-.92-.27-1.79-.66-2.68-1-1.5-.56-2.85-1.4-4.15-2.31-1.15-.8-2.22-1.7-3.23-2.7-1.42-1.4-2.71-2.88-3.67-4.61-.66-1.19-1.69-1.94-2.66-2.78-1.3-1.13-2.38-2.44-3.39-3.82-1.21-1.65-2.13-3.45-2.92-5.34-.19-.46-.3-.93-.47-1.39-.53-1.38-.76-2.83-.98-4.28-.1-.64-.1-1.28-.17-1.92-.14-1.16.09-2.32,0-3.47-.02-.33.13-.66.18-1,.11-.77.2-1.55.42-2.3.4-1.3.77-2.61,1.34-3.85.2-.44.08-.91.09-1.36.03-.99-.06-1.98,0-2.96.07-1.02.26-2.03.46-3.04.2-1,.48-1.98.8-2.95.26-.8.59-1.59.97-2.34.58-1.13.84-2.37,1.3-3.54.54-1.38,1.14-2.72,1.92-3.98.51-.82,1-1.68,1.62-2.42.85-1.02,1.73-2.02,2.72-2.91,1.75-1.57,3.67-2.9,5.79-3.93,1.05-.51,2.16-.92,3.26-1.31.89-.31,1.83-.41,2.72-.75.08-.03.15-.04.21-.1,1.06-1.04,2.24-1.94,3.49-2.74,1.51-.96,3.1-1.75,4.79-2.36,1.09-.4,2.2-.73,3.32-.98,1.21-.27,2.44-.41,3.68-.46.08,0,.16,0,.25,0l-.02-.03Zm20.56,9.27c.08.18.09.26.14.32.7.85,1.26,1.79,1.8,2.74.49.85.87,1.75,1.26,2.65.72,1.66,1.23,3.37,1.52,5.14.17,1,.22,2.03.36,3.04.19,1.31,0,2.6-.12,3.89-.08.91-.22,1.82-.45,2.72-.25.96-.46,1.94-.81,2.87-.45,1.2-1.02,2.35-1.61,3.5-.53,1.03-1.2,1.95-1.83,2.9-.78,1.17-1.83,2.1-2.78,3.12-.88.94-1.92,1.69-2.97,2.42-1.83,1.28-3.81,2.25-5.91,2.99-1.04.36-2.1.66-3.18.86-.46.08-.96.13-1.3-.33-.38-.5-.33-.87.2-1.46.65-.72,1.37-1.4,1.93-2.18.69-.97,1.35-1.96,1.94-3,.3-.52.33-1.01.24-1.55-.3-1.78-.84-3.48-1.56-5.13-.11-.26-.25-.57-.46-.71-.65-.44-1.36-.82-2.04-1.22-.98-.58-2.09-.83-3.1-1.32-.55-.27-1.03-.03-1.52.15-1.69.63-3.26,1.49-4.76,2.5-.31.21-.52.49-.65.84-.34.91-.61,1.84-.85,2.79-.24.98-.33,1.99-.52,2.98-.04.19.02.36.13.54.46.77.93,1.54,1.45,2.27.79,1.11,1.7,2.1,2.64,3.07.51.53,1.09.99,1.68,1.43.69.53,1.39,1.05,2.13,1.51,1.06.65,2.19,1.18,3.33,1.66.28.12.55.29.85.35,1.05.19,2.03.63,3.09.8.48.07.95.23,1.43.3.52.08,1.05.05,1.56.12,1.13.15,2.27.1,3.38,0,1.29-.12,2.59-.36,3.84-.73,2.19-.65,4.3-1.49,6.23-2.73.95-.61,1.85-1.28,2.7-2.03.82-.72,1.65-1.46,2.33-2.31,1.51-1.9,2.9-3.87,3.73-6.19.31-.86.62-1.73.91-2.6.39-1.17.58-2.39.68-3.62.18-2.14.12-4.28-.27-6.4-.49-2.62-1.5-5.05-2.86-7.33-.6-1.01-1.26-1.99-2.03-2.89-1.53-1.77-3.28-3.3-5.27-4.53-1.43-.88-2.92-1.64-4.62-2.2h-.01Zm-23.08,21.25c-4.94-.58-9.56.33-13.89,2.71-3.41,1.87-6.07,4.52-8.08,7.81-4.52,7.39-4.79,17.6,1.68,25.73,5.28,6.65,13.72,9.16,20.66,8.07-8.75-4.73-13.94-11.9-14.01-22.02-.07-10.07,4.74-17.46,13.65-22.32v.02Zm11.11,15c2.67-.84,4.94-2.23,7.01-3.92,3.83-3.15,6.27-7.2,7.44-12,2.17-8.89-1.42-19.54-11.06-24.86-8.28-4.57-18.1-2.96-23.89,1.51,4.8-.15,9.22.94,13.28,3.28,4.03,2.32,7.14,5.57,9.34,9.66,2.27,4.21,3.15,8.72,2.78,13.48-.36,4.72-2.05,8.93-4.91,12.86h0Zm-20.47-37.2c-.48-.06-.97.05-1.46.1-1.33.14-2.64.41-3.93.77-1.83.51-3.55,1.28-5.19,2.23-1.57.91-2.98,2.03-4.24,3.34-.53.55-1.09,1.06-1.56,1.65-.52.64-.99,1.33-1.45,2.02-.82,1.22-1.48,2.53-2.03,3.88-.47,1.16-.8,2.38-1.09,3.61-.28,1.15-.29,2.32-.53,3.46-.02.11-.02.24.1.29.14.06.21-.07.26-.15.41-.65.9-1.23,1.4-1.81,1.13-1.31,2.39-2.48,3.77-3.52.69-.51,1.38-1.03,2.13-1.46,1.14-.66,2.3-1.29,3.51-1.76,1.1-.43,2.26-.79,3.43-1.02,1.5-.3,3-.59,4.53-.61,1.3-.02,2.61-.1,3.92.13.81.15,1.64.21,2.44.39,2.33.5,4.55,1.31,6.63,2.49,5.72,3.23,9.57,7.98,11.58,14.21.06.17.03.47.25.48.28.01.12-.29.16-.43.53-1.88.75-3.81.8-5.76.02-.83-.08-1.65-.15-2.48-.07-.76-.15-1.51-.31-2.26-.68-3.29-2.06-6.26-4.07-8.95-.64-.86-1.32-1.69-2.1-2.43-1.54-1.45-3.21-2.72-5.07-3.73-1.61-.87-3.31-1.5-5.08-1.98-1.62-.43-3.26-.7-4.93-.71-.56,0-1.12-.05-1.71,0v.02Zm16.53,21.93c-2.44-3.36-5.64-5.71-9.45-7.22-4.08-1.62-8.34-2.17-12.61-1.2-10.29,2.34-16.15,8.97-18.03,19.23-.24,3.29-.04,6.53,1.03,9.68,1.11,3.3,2.84,6.22,5.36,8.68-1.56-6.3-1.08-12.37,1.97-18.14,3.01-5.68,7.6-9.63,13.67-11.74s12.11-1.79,18.06.7h0Z"/>
  <path class="cls-3" d="m153.77,33.47c-.1.15-.19.15-.28,0,.1-.08.19-.08.28,0Z"/>
  <path class="cls-3" d="m50.48,33.91c-.08,0-.17,0-.25,0-.09-.11.02-.11.07-.1.06,0,.2-.1.18.09Z"/>
  <path class="cls-3" d="m246.21,42.28h-.15c-.1-.09,0-.1.05-.1s.19-.05.1.1h0Z"/>
  <path class="cls-3" d="m137.57,33.91h-.15c-.08-.14.05-.1.1-.1.07,0,.14,0,.05.1h0Z"/>
  <path class="cls-3" d="m170.18,40.26h-.15c-.09-.14.05-.1.1-.11.06,0,.15,0,.05.1h0Z"/>
  <path class="cls-3" d="m105.64,88.02c.09.01.05.07.04.12-.02.04-.06.06-.08.01-.02-.04-.07-.13.05-.13h-.01Z"/>
  <path class="cls-3" d="m244.29,42.27c-.08.02-.16.03-.1-.1.04,0,.1,0,.13.02s0,.06-.03.07h0Z"/>
  <path class="cls-3" d="m152.34,33.58h-.02s-.05-.06,0-.09h.04s.03.06,0,.09h-.02Z"/>
  <path class="cls-3" d="m130.82,80.82c.29-.76.59-1.49.99-2.18.43-.75.89-1.48,1.43-2.16.5-.63,1.12-1.13,1.66-1.7.51-.54,1.16-.89,1.76-1.29.2-.14.46-.19.75-.1,1.74.55,3.48,1.09,5.23,1.63,1.11.34,2.23.67,3.35,1.01,1.32.4,2.64.79,3.96,1.18.23.07.3.17.3.41-.02.93.03,1.87-.02,2.8-.16,3.03,0,6.07-.08,9.1-.1,4.09-.02,8.19-.1,12.28-.04,2.12-.02,4.23-.05,6.35,0,.36-.08.49-.48.49-5.17-.01-10.34,0-15.51,0-.33,0-.42-.12-.39-.41.1-1.18.06-2.38.21-3.56.05-.44.06-.89.08-1.33.04-.94.07-1.87.15-2.81.11-1.32.2-2.64.24-3.96.04-1.12.16-2.23.25-3.35v-.17c.02-.66.03-.67-.63-.79-.94-.17-1.89-.33-2.83-.49-.61-.1-.63-.08-.63.56,0,1.05.03,2.09,0,3.13-.1,2.79-.09,5.59-.18,8.38-.05,1.46-.02,2.92-.05,4.37,0,.32-.1.42-.42.42h-13.12c-1.21,0-1.07.22-1.05-1.09.01-.83-.05-1.66-.11-2.49-.01-.18-.01-.37,0-.55.11-1.08-.05-2.17-.08-3.25-.03-1.32-.08-2.65-.17-3.97-.11-1.55-.07-3.11-.18-4.66-.1-1.43-.06-2.86-.15-4.29-.1-1.58-.08-3.17-.18-4.75-.1-1.41-.06-2.83-.15-4.24-.09-1.45-.12-2.9-.17-4.36-.01-.31.08-.4.39-.4,1.53-.03,3.06-.12,4.59-.18,1.35-.06,2.69-.11,4.04-.16,1.32-.05,2.63-.11,3.95-.18,1.03-.05,2.06-.06,3.08-.14.22-.02.42,0,.37.33-.16,1.05-.08,2.11-.07,3.17,0,.97-.16,1.93-.1,2.89,0,.18,0,.36.12.5h0Z"/>
  <path class="cls-3" d="m135.65,66.13v.47c-.03,1.57-.06,3.15-.08,4.72,0,.35-.15.68-.11,1.04.04.34-.34.26-.47.25-2.41-.1-4.82-.02-7.23-.04-2.12-.02-4.25,0-6.37.01-.25,0-.33-.06-.36-.31-.04-.33-.05-.67-.06-1-.05-1.81-.07-3.61-.18-5.41-.09-1.39-.05-2.78-.16-4.16-.08-1.02,0-2.05-.08-3.06-.18-2.05-.13-4.1-.26-6.14-.1-1.55-.06-3.11-.17-4.66-.11-1.54-.07-3.08-.16-4.62-.1-1.6-.11-3.19-.18-4.79-.02-.38.09-.49.46-.47.64.03,1.29.07,1.93,0,1.29-.17,2.58,0,3.87-.1.47-.04.95-.04,1.42-.05,1.86-.03,3.72,0,5.57-.1,1.33-.07,2.65.02,3.97-.09,1.34-.11,2.67,0,4-.08,2.21-.1,4.43-.09,6.64-.17,1.19-.04,2.37-.03,3.55-.07.28,0,.42.04.51.37.35,1.36.77,2.7,1.15,4.05.59,2.07,1.17,4.15,1.76,6.23.24.86.48,1.73.74,2.59.08.25.03.39-.15.59-1.06,1.18-2.13,2.34-3.13,3.57-.65.79-1.35,1.52-2.05,2.27-.17.18-.29.4-.43.59-.1.13,0,.21.09.27.46.32.88.69,1.34,1,.52.34,1.05.69,1.52,1.12.49.44,1.12.7,1.66,1.1.53.39.96.91,1.61,1.14.26.09.12.29.02.44-.4.6-.83,1.18-1.21,1.79-1.08,1.73-2.22,3.42-3.27,5.16-.7,1.17-1.53,2.27-2.23,3.45-.28.48-.63.22-.84.12-.78-.35-1.62-.52-2.4-.86-.75-.33-1.53-.57-2.26-.93-1.49-.73-2.99-1.42-4.36-2.36-1.11-.76-2.19-1.56-3.16-2.5-.12-.11-.26-.2-.47-.36h.02Zm6.3-14.93c-.21-.14-.41-.13-.6-.15-.6-.07-1.21,0-1.81-.05-1.12-.1-2.24-.12-3.36-.15-.68-.02-1.35-.05-2.02-.19-.35-.07-.51.05-.51.4v4.22c0,.11-.07.26.09.33.11.04.19-.03.29-.09,1.41-.78,2.83-1.56,4.25-2.32,1.21-.66,2.43-1.3,3.68-1.97v-.03Z"/>
  <path class="cls-3" d="m197.43,97.01c0-.89.04-1.78,0-2.67-.11-1.92-.1-3.83-.17-5.75-.07-1.84-.1-3.67-.18-5.51-.03-.71-.06-1.41-.07-2.12,0-.27.06-.36.35-.36,1.62-.01,3.22-.19,4.83-.29.64-.04,1.28-.04,1.92-.1,1.12-.1,2.25-.11,3.37-.2.34-.03.69-.06,1.03-.09.19-.02.3.02.33.26.16,1.31.36,2.62.5,3.94.14,1.28.36,2.55.53,3.82.14,1.06.25,2.13.39,3.2.11.85.25,1.69.36,2.54.11.89.2,1.78.31,2.67.06.5.13,1,.22,1.5.03.16.11.34.34.49-.33-.86-.06-1.65-.02-2.44.03-.57.05-1.14.11-1.7.09-.88.06-1.78.11-2.67.07-1.2.16-2.39.27-3.59.09-1.02.1-2.05.2-3.07.15-1.49.2-2.99.28-4.49.02-.36.18-.49.53-.45,1.01.11,2.04.07,3.04.2.87.11,1.73.02,2.59.13,1.3.17,2.63.05,3.93.24.85.13,1.69.1,2.54.1.32,0,.46,0,.43.45-.03.57,0,1.16.02,1.74.05,1.39-.04,2.79-.11,4.17-.05,1-.05,2-.15,2.99-.19,2.01-.34,4.03-.66,6.02-.25,1.56-.53,3.13-1.04,4.62-.77,2.23-1.63,4.44-3.5,6.04-.98.84-2.1,1.39-3.36,1.75-.87.24-1.74.35-2.61.44-.66.07-1.34.09-2.02-.06-.44-.1-.92-.03-1.39-.05-.58-.03-1.1-.22-1.66-.33-1.33-.25-2.63-.61-3.89-1.09-.13-.05-.2,0-.31.05-.95.39-1.9.75-2.87,1.06-1.25.39-2.52.67-3.82.8-1.61.15-3.2.08-4.81-.06-1.11-.1-2.18-.35-3.25-.58-1.41-.31-2.78-.79-4.17-1.19-.18-.05-.25-.18-.27-.32-.21-1.22-.52-2.41-.79-3.62-.35-1.59-.74-3.17-1.05-4.76-.55-2.79-1.2-5.57-1.79-8.35-.51-2.42-1.05-4.83-1.59-7.25-.09-.42.23-.4.44-.45,1.43-.38,2.86-.74,4.28-1.12,1.87-.5,3.74-.99,5.61-1.52.34-.1.54-.04.74.24,1.06,1.48,1.89,3.08,2.61,4.75,1.18,2.74,2,5.6,2.63,8.51.25,1.16.44,2.34.66,3.51h.05v.02Z"/>
  <path class="cls-3" d="m174.34,73.23c-1.33.07-2.63.04-3.92-.16-1.55-.24-3.09-.6-4.56-1.18-1.9-.74-3.66-1.72-5.16-3.12-1.3-1.21-2.28-2.61-2.87-4.3-1.06-3.05-.8-6.07.08-9.1.26-.88.54-1.76.9-2.6.34-.8.61-1.63.94-2.43.53-1.29,1.01-2.61,1.5-3.92.09-.23.18-.46.21-.71.04-.36.37-.46.66-.53,1.19-.3,2.39-.56,3.6-.76,1.25-.21,2.51-.36,3.77-.45,1.07-.08,2.15-.11,3.21-.05,3.13.2,6.22.66,9.05,2.13,2.51,1.3,4.61,3.03,5.78,5.69.45,1.03.69,2.1.77,3.22.07.96.05,1.92-.06,2.86-.1.94-.36,1.87-.59,2.8-.79,3.25-1.61,6.5-2.4,9.75-.09.39-.29.61-.65.79-1.96.97-4.04,1.59-6.19,1.89-1.36.19-2.75.27-4.09.17h.02Zm-8.4-15.02c.09.14.2.12.29.13.95.04,1.89.23,2.84.26,1.36.05,2.67.38,4.03.43.53.02,1.07.12,1.6.23.56.12,1.15.07,1.72.11.58.04,1.17.11,1.75.18.24.03.32-.06.32-.3,0-1,0-2.01,0-3.01,0-.27-.06-.37-.36-.31-1.02.2-2.06.37-3.08.56-2.37.43-4.74.86-7.11,1.3-.66.12-1.31.28-1.98.42h-.02Z"/>
  <path class="cls-3" d="m242.28,91.02c.04.13.15.1.24.1,1.41.05,2.82.21,4.24.29,1.27.08,2.54.14,3.81.3.59.07,1.19-.02,1.79.08.24.04.38.1.48.32.5,1.2.85,2.42.88,3.75,0,.68.16,1.36.16,2.05-.02,2.11-.41,4.13-1.4,6.01-1.14,2.16-2.98,3.45-5.23,4.26-1.1.4-2.25.63-3.39.82-.77.12-1.57.22-2.37.2-1.17-.03-2.35.03-3.52-.02-.84-.03-1.69-.1-2.53-.19-1.24-.13-2.47-.33-3.7-.54-1.37-.22-2.71-.56-4.07-.81-.58-.11-.57-.12-.56-.7,0-1.13-.04-2.26.02-3.38.1-1.68.07-3.36.06-5.05,0-.19.07-.29.26-.3.18-.01.36-.06.54-.06,1.31,0,2.63.08,3.94-.03,1.28-.1,2.55.03,3.84-.05-.8-.31-1.61-.6-2.39-.94-2.26-.99-4.21-2.36-5.34-4.65-.53-1.09-.82-2.23-.84-3.45-.03-1.37.08-2.72.6-4,.87-2.14,2.47-3.57,4.48-4.6,1.83-.94,3.78-1.39,5.81-1.6,1.26-.13,2.52-.22,3.79-.17,2.65.11,5.26.45,7.83,1.1.62.16.61.17.64.81.03.54.13,1.07.19,1.61.11,1.04.2,2.09.31,3.13.13,1.19.27,2.38.42,3.56.03.24,0,.35-.26.4-1.83.33-3.67.66-5.49,1.02-1.03.2-2.06.45-3.1.6-.06,0-.11.02-.12.1l-.02.03Z"/>
  <path class="cls-3" d="m168.63,109.28c-1.27.12-2.53-.01-3.78-.19-1.41-.19-2.79-.54-4.14-1.02-1.36-.49-2.64-1.13-3.78-2-1.51-1.15-2.79-2.52-3.61-4.24-.33-.69-.56-1.43-.73-2.18-.66-2.93-.47-5.78.62-8.6,1.15-3,2.2-6.03,3.27-9.06.18-.5.45-.75.96-.89,1.62-.43,3.25-.75,4.9-.98,1.69-.23,3.39-.24,5.09-.17,2.27.1,4.51.45,6.65,1.24,1.78.66,3.39,1.62,4.79,2.92.2.19.25.39.19.64-.82,3.21-1.58,6.45-2.47,9.64-.06.22-.29.44-.18.66.12.23.43.1.65.13,1.32.17,2.64.34,3.97.46.35.03.43.16.4.46-.12,1.09-.24,2.18-.37,3.27-.21,1.74-.42,3.48-.64,5.22-.04.3-.06.6-.1.9-.05.39-.23.65-.55.91-.55.44-1.13.85-1.74,1.13-.81.37-1.67.67-2.54.91-1.5.41-3.02.64-4.56.77-.77.07-1.53.05-2.29.07h0Zm-9.03-15.96c1.6.05,3.15.34,4.72.49,1.1.1,2.2.22,3.29.35.52.06,1.04.13,1.57.18.87.08,1.73.2,2.59.32.27.04.34-.09.34-.33,0-1.02,0-2.03,0-3.05,0-.3-.13-.34-.39-.3-.9.17-1.8.33-2.7.49-2.63.47-5.25.94-7.88,1.42-.52.1-1.07.13-1.54.42h0Z"/>
  <path class="cls-3" d="m241.4,72.58c-1.82,0-3.63-.01-5.45,0-.39,0-.51-.1-.47-.5.07-.78-.13-1.55-.07-2.34,0-.19-.05-.28-.26-.27-1.52,0-3.05.01-4.57,0-.28,0-.35.15-.41.38-.28,1.04-.57,2.08-.84,3.13-.08.32-.2.39-.52.3-2.8-.8-5.6-1.59-8.4-2.38-.51-.14-1.02-.28-1.54-.4-.2-.05-.31-.11-.26-.33.19-.7.33-1.42.51-2.12.14-.58.25-1.19.38-1.78.45-1.99.89-3.97,1.36-5.95.23-.96.47-1.93.68-2.89.24-1.14.56-2.27.72-3.43.09-.62.29-1.24.43-1.86.47-2.11.98-4.21,1.46-6.31.08-.33.19-.44.55-.43,1.49,0,2.99.1,4.48.11,1.27,0,2.55,0,3.81.08,1.09.08,2.17,0,3.25.07,3.3.16,6.61.19,9.92.24.31,0,.4.11.4.41,0,2.7.11,5.4.19,8.1.07,2.28.17,4.57.23,6.85.03,1.01.04,2.02.09,3.03.06,1,0,2,.08,2.99.1,1.62.15,3.25.16,4.87,0,.35-.11.42-.43.42-1.83-.01-3.66,0-5.49,0h.01Zm-6.42-16.79c0-.14,0-.28,0-.42.07-.67-.13-1.31-.17-1.97,0-.08.16-.18,0-.22-.19-.05-.14.12-.16.21-.08.28-.16.56-.24.84-.55,1.96-1.1,3.91-1.65,5.87-.07.24.03.28.24.28.53,0,1.06-.03,1.59,0,.41.03.49-.13.49-.5.02-1.36-.06-2.73-.08-4.09h-.01Z"/>
  <path class="cls-3" d="m199.7,57.9c1.13.22,2.19.33,3.24.48.75.11,1.51.21,2.26.27,1.09.1,2.17.25,3.25.37.69.07,1.39.19,2.08.28,1.09.14,2.19.27,3.29.39.68.08,1.39.12,2.07.31.41.12.86-.02,1.28.11.23.07.34.11.31.41-.17,1.45-.29,2.91-.44,4.37-.16,1.62-.34,3.24-.49,4.86-.03.32-.19.5-.42.67-1.45,1.09-3.12,1.7-4.86,2.16-2.6.69-5.27.81-7.92.63-3.36-.22-6.51-1.18-9.19-3.33-2.23-1.79-3.68-4.08-4.26-6.89-.34-1.67-.31-3.34-.12-5.03.14-1.26.63-2.41,1-3.59.31-.99.77-1.93,1.07-2.93.3-.98.76-1.91,1.1-2.88.2-.58.41-1.17.62-1.75.16-.45.41-.86.53-1.33.05-.19.25-.26.42-.31,1.82-.53,3.67-.93,5.56-1.13,1.27-.13,2.53-.18,3.8-.17,1.17,0,2.32.13,3.48.24,1.49.14,2.95.37,4.4.7.77.18,1.52.44,2.29.66.33.09.48.3.47.64-.02,1.33.18,2.66.19,3.99,0,1.05.14,2.09.15,3.15,0,.29.06.57.11.86.1.54,0,1.09.07,1.63.03.21-.08.33-.31.36-.76.08-1.51.18-2.27.24-.79.07-1.56.23-2.34.31-.66.06-1.32.13-1.99.2-1.09.11-2.18.23-3.26.38-.73.1-1.47.12-2.2.21-.94.1-1.87.23-2.8.35-.04,0-.07.04-.18.1h0Z"/>
  <path class="cls-2" d="m183.46,78.09c.42-.43.82-.83,1.21-1.25.14-.15.26-.21.41-.03.2.24.63.41.58.71-.05.28-.5.21-.77.29-.46.13-.91.35-1.43.28h0Z"/>
  <path class="cls-2" d="m154.06,77.83c.15.04.25.16.28.31.02.1-.06.19-.17.19-.16-.01-.29-.09-.3-.27,0-.12.05-.21.2-.22h0Z"/>
  <path class="cls-3" d="m71.04,43.18c1.7.56,3.2,1.32,4.62,2.2,1.99,1.23,3.74,2.76,5.27,4.53.77.89,1.43,1.87,2.03,2.89,1.36,2.28,2.37,4.71,2.86,7.33.4,2.12.45,4.25.27,6.4-.1,1.23-.29,2.45-.68,3.62-.29.87-.6,1.74-.91,2.6-.83,2.32-2.22,4.3-3.73,6.19-.67.85-1.5,1.59-2.33,2.31-.85.75-1.75,1.42-2.7,2.03-1.93,1.24-4.04,2.08-6.23,2.73-1.26.37-2.55.61-3.84.73-1.11.1-2.25.14-3.38,0-.51-.07-1.05-.04-1.56-.12-.48-.07-.95-.23-1.43-.3-1.06-.16-2.04-.6-3.09-.8-.3-.06-.57-.23-.85-.35-1.14-.49-2.27-1.01-3.33-1.66-.74-.46-1.44-.98-2.13-1.51-.58-.45-1.17-.91-1.68-1.43-.94-.97-1.85-1.97-2.64-3.07-.53-.74-.99-1.5-1.45-2.27-.11-.18-.16-.36-.13-.54.19-.99.28-2,.52-2.98.23-.94.51-1.87.85-2.79.13-.36.33-.63.65-.84,1.49-1.01,3.06-1.88,4.76-2.5.49-.18.97-.42,1.52-.15,1.01.49,2.12.75,3.1,1.32.68.4,1.38.78,2.04,1.22.22.15.35.45.46.71.72,1.65,1.26,3.35,1.56,5.13.09.54.06,1.04-.24,1.55-.59,1.04-1.26,2.03-1.94,3-.56.79-1.28,1.46-1.93,2.18-.53.59-.58.96-.2,1.46.35.45.84.41,1.3.33,1.08-.2,2.14-.49,3.18-.86,2.1-.74,4.08-1.71,5.91-2.99,1.05-.74,2.09-1.49,2.97-2.42.95-1.01,2-1.95,2.78-3.12.63-.95,1.31-1.87,1.83-2.9.59-1.15,1.16-2.3,1.61-3.5.35-.93.56-1.91.81-2.87.23-.9.37-1.81.45-2.72.12-1.29.31-2.58.12-3.89-.15-1.01-.2-2.03-.36-3.04-.29-1.77-.8-3.48-1.52-5.14-.39-.9-.77-1.8-1.26-2.65-.55-.95-1.11-1.89-1.8-2.74-.05-.06-.07-.14-.14-.32h.01Z"/>
  <path class="cls-2" d="m47.97,64.43c-8.91,4.85-13.72,12.24-13.65,22.32.07,10.12,5.26,17.29,14.01,22.02-6.94,1.08-15.37-1.43-20.66-8.07-6.47-8.14-6.2-18.35-1.68-25.73,2.01-3.29,4.67-5.94,8.08-7.81,4.33-2.38,8.95-3.29,13.89-2.71v-.02Z"/>
  <path class="cls-2" d="m59.08,79.44c2.86-3.93,4.55-8.14,4.91-12.86.36-4.76-.52-9.27-2.78-13.48-2.2-4.09-5.32-7.34-9.34-9.66-4.06-2.34-8.48-3.43-13.28-3.28,5.79-4.47,15.6-6.08,23.89-1.51,9.64,5.32,13.23,15.97,11.06,24.86-1.17,4.8-3.61,8.85-7.44,12-2.06,1.7-4.33,3.08-7.01,3.92h0Z"/>
  <path class="cls-2" d="m38.61,42.24c.59-.04,1.15,0,1.71,0,1.67,0,3.31.28,4.93.71,1.77.47,3.47,1.11,5.08,1.98,1.86,1.01,3.54,2.28,5.07,3.73.78.73,1.45,1.57,2.1,2.43,2.01,2.68,3.39,5.66,4.07,8.95.15.74.24,1.5.31,2.26.08.82.18,1.65.15,2.48-.05,1.95-.27,3.88-.8,5.76-.04.14.12.44-.16.43-.22,0-.2-.3-.25-.48-2.01-6.24-5.86-10.98-11.58-14.21-2.08-1.17-4.3-1.99-6.63-2.49-.8-.17-1.63-.24-2.44-.39-1.31-.24-2.61-.15-3.92-.13-1.53.02-3.03.3-4.53.61-1.18.24-2.33.59-3.43,1.02-1.21.48-2.38,1.1-3.51,1.76-.75.44-1.44.95-2.13,1.46-1.38,1.03-2.64,2.21-3.77,3.52-.5.58-.99,1.16-1.4,1.81-.05.08-.12.22-.26.15-.12-.06-.12-.18-.1-.29.25-1.14.25-2.32.53-3.46.3-1.23.62-2.45,1.09-3.61.55-1.35,1.21-2.66,2.03-3.88.46-.69.93-1.37,1.45-2.02.47-.59,1.04-1.11,1.56-1.65,1.26-1.31,2.67-2.43,4.24-3.34,1.64-.95,3.36-1.72,5.19-2.23,1.29-.36,2.6-.63,3.93-.77.49-.05.99-.16,1.46-.1v-.02Z"/>
  <path class="cls-2" d="m55.14,64.17c-5.95-2.49-11.99-2.82-18.06-.7-6.06,2.11-10.66,6.06-13.67,11.74-3.06,5.77-3.54,11.84-1.97,18.14-2.52-2.46-4.24-5.38-5.36-8.68-1.07-3.15-1.27-6.4-1.03-9.68,1.88-10.26,7.73-16.89,18.03-19.23,4.27-.97,8.53-.42,12.61,1.2,3.81,1.51,7.01,3.86,9.45,7.22h0Z"/>
  <path d="m141.94,51.2c-1.25.67-2.47,1.31-3.68,1.97-1.42.77-2.84,1.54-4.25,2.32-.1.06-.18.13-.29.09-.16-.06-.09-.21-.09-.33v-4.22c0-.35.15-.47.51-.4.67.14,1.34.17,2.02.19,1.12.04,2.24.05,3.36.15.6.05,1.21,0,1.81.05.19.02.39.02.6.15v.03Z"/>
  <path d="m165.95,58.21c.67-.14,1.33-.3,1.98-.42,2.37-.44,4.74-.87,7.11-1.3,1.03-.19,2.06-.36,3.08-.56.3-.06.36.04.36.31v3.01c0,.24-.08.33-.32.3-.58-.07-1.16-.13-1.75-.18-.57-.04-1.16,0-1.72-.11-.53-.11-1.06-.21-1.6-.23-1.35-.05-2.67-.38-4.03-.43-.95-.03-1.89-.22-2.84-.26-.09,0-.2,0-.29-.13h.02Z"/>
  <path d="m159.6,93.32c.47-.3,1.02-.33,1.54-.42,2.63-.48,5.25-.95,7.88-1.42.9-.16,1.8-.32,2.7-.49.26-.05.39,0,.39.3v3.05c0,.24-.07.37-.34.33-.86-.11-1.73-.24-2.59-.32-.52-.05-1.05-.12-1.57-.18-1.1-.13-2.19-.25-3.29-.35-1.57-.15-3.13-.44-4.72-.49h0Z"/>
  <path d="m234.99,55.79c.02,1.36.1,2.72.08,4.09,0,.37-.08.53-.49.5-.53-.04-1.06-.02-1.59,0-.21,0-.31-.03-.24-.28.56-1.96,1.1-3.91,1.65-5.87.08-.28.16-.56.24-.84.03-.09-.03-.26.16-.21.17.05,0,.15,0,.22.05.66.24,1.3.17,1.97,0,.14,0,.28,0,.42h.01Z"/>
</svg>