<?xml version="1.0" encoding="utf-8"?>
<svg xmlns="http://www.w3.org/2000/svg" fill="none" height="636" viewBox="0 0 608 636" width="608">
<rect fill="white" height="600.844" rx="17.2951" stroke="black" stroke-width="0.843662" width="564.41" x="0.578169" y="0.578169"/>
<mask height="600" id="mask0_48_3454" maskUnits="userSpaceOnUse" style="mask-type:alpha" width="564" x="1" y="1">
<rect fill="white" height="600" rx="16.8732" width="563.566" x="1" y="1"/>
</mask>
<g mask="url(#mask0_48_3454)">
<rect fill="#F7F5FF" height="99.5521" rx="16.4514" stroke="black" stroke-width="0.843662" width="512.103" x="26.7316" y="50.3542"/>
<path d="M60.4368 89.4606L57.4427 81.7832H55.5233L52.5402 89.4606H54.2292L54.8104 87.9251H58.2323L58.8136 89.4606H60.4368ZM56.5214 83.3626L57.7498 86.6309H55.293L56.5214 83.3626ZM63.5374 89.6251C65.0729 89.6251 66.049 88.7257 66.3451 87.5193H64.7219C64.5135 88.0238 64.1187 88.3419 63.5593 88.3419C62.7477 88.3419 62.1994 87.7057 62.1994 86.7077C62.1994 85.7206 62.7258 85.0955 63.5703 85.0955C64.3929 85.0955 64.8096 85.6877 64.6013 86.7187H66.0709C66.5535 84.9748 65.3471 83.8122 63.5703 83.8122C61.7936 83.8122 60.6529 84.9638 60.6529 86.7187C60.6529 88.4625 61.8045 89.6251 63.5374 89.6251ZM70.7818 83.9768H69.2134V82.4852H67.7218V83.9768H66.636V85.249H67.7218V87.6509C67.7218 88.3528 67.8534 89.6251 69.5973 89.6251C70.0469 89.6251 70.4089 89.5373 70.6721 89.3948V88.1006C70.3979 88.2541 70.1895 88.3419 69.8824 88.3419C69.3231 88.3419 69.2134 88.0348 69.2134 87.6399V85.249H70.7818V83.9768ZM72.309 83.2748C72.8135 83.2748 73.1974 82.891 73.1974 82.3865C73.1974 81.8819 72.8135 81.4981 72.309 81.4981C71.8045 81.4981 71.4206 81.8819 71.4206 82.3865C71.4206 82.891 71.8045 83.2748 72.309 83.2748ZM73.0438 89.4606V83.9768H71.5522V89.4606H73.0438ZM76.479 88.1006L75.2397 83.9768H73.6603L75.5687 89.4606H77.3893L79.3086 83.9768H77.7403L76.479 88.1006ZM83.3899 87.6838C83.2144 88.1115 82.8086 88.3419 82.2602 88.3419C81.4706 88.3419 81.0209 87.8703 80.9112 87.0806H84.7608C85.3421 85.3038 84.2344 83.8122 82.2383 83.8122C80.4944 83.8122 79.3428 84.9748 79.3428 86.7187C79.3428 88.4625 80.4725 89.6251 82.2383 89.6251C83.6641 89.6251 84.6841 88.8683 85.0131 87.6838H83.3899ZM82.2273 85.0516C83.006 85.0516 83.3899 85.4903 83.3241 86.1483H80.9331C81.0757 85.4355 81.5254 85.0516 82.2273 85.0516ZM90.7235 89.6251C92.2042 89.6251 93.2461 88.9561 93.2461 87.8154C93.2461 85.7206 89.7693 86.5103 89.7693 85.5451C89.7693 85.238 90.0984 84.9858 90.6577 84.9858C91.3267 84.9858 91.7435 85.3477 91.6119 85.8851H93.0596C93.279 84.5909 92.1603 83.8122 90.6577 83.8122C89.2648 83.8122 88.2339 84.4922 88.2339 85.6219C88.2339 87.7057 91.7106 86.9709 91.7106 87.9032C91.7106 88.2322 91.3048 88.4515 90.7235 88.4515C89.9997 88.4515 89.5719 88.1115 89.6048 87.5632H88.1681C88.1242 88.8354 89.1332 89.6251 90.7235 89.6251ZM97.4765 86.7406C97.4765 87.6948 97.0158 88.3528 96.292 88.3528C95.612 88.3528 95.4475 87.7386 95.4475 87.0587V83.9768H93.9559V87.0587C93.9559 88.0238 94.1862 89.5922 95.7217 89.5922C96.4784 89.5922 97.1036 89.2193 97.4765 88.5612V89.4606H98.9681V83.9768H97.4765V86.7406ZM103.376 83.8122C102.553 83.8122 101.906 84.1742 101.5 84.8103V81.7832H100.02V89.4606H101.5V88.638C101.906 89.2631 102.542 89.6251 103.354 89.6251C104.824 89.6251 105.877 88.4625 105.877 86.7187C105.877 84.9748 104.835 83.8122 103.376 83.8122ZM102.915 88.3419C102.06 88.3419 101.5 87.6948 101.5 86.7187C101.5 85.7425 102.06 85.0955 102.915 85.0955C103.76 85.0955 104.341 85.7316 104.341 86.7187C104.341 87.6948 103.771 88.3419 102.915 88.3419ZM108.996 89.6251C110.476 89.6251 111.518 88.9561 111.518 87.8154C111.518 85.7206 108.042 86.5103 108.042 85.5451C108.042 85.238 108.371 84.9858 108.93 84.9858C109.599 84.9858 110.016 85.3477 109.884 85.8851H111.332C111.551 84.5909 110.432 83.8122 108.93 83.8122C107.537 83.8122 106.506 84.4922 106.506 85.6219C106.506 87.7057 109.983 86.9709 109.983 87.9032C109.983 88.2322 109.577 88.4515 108.996 88.4515C108.272 88.4515 107.844 88.1115 107.877 87.5632H106.44C106.396 88.8354 107.405 89.6251 108.996 89.6251ZM114.948 89.6251C116.484 89.6251 117.46 88.7257 117.756 87.5193H116.133C115.924 88.0238 115.529 88.3419 114.97 88.3419C114.158 88.3419 113.61 87.7057 113.61 86.7077C113.61 85.7206 114.136 85.0955 114.981 85.0955C115.804 85.0955 116.22 85.6877 116.012 86.7187H117.482C117.964 84.9748 116.758 83.8122 114.981 83.8122C113.204 83.8122 112.064 84.9638 112.064 86.7187C112.064 88.4625 113.215 89.6251 114.948 89.6251ZM121.554 83.8122C120.842 83.8122 120.304 84.218 120.019 84.909V83.9768H118.538V89.4606H120.019V86.7625C120.019 85.7535 120.414 85.1064 120.951 85.1064C121.313 85.1064 121.544 85.3806 121.544 85.8084C121.544 86.1045 121.434 86.4225 121.225 86.7735H122.772C122.958 86.4006 123.068 85.9509 123.068 85.5122C123.068 84.4922 122.476 83.8122 121.554 83.8122ZM124.566 83.2748C125.07 83.2748 125.454 82.891 125.454 82.3865C125.454 81.8819 125.07 81.4981 124.566 81.4981C124.061 81.4981 123.677 81.8819 123.677 82.3865C123.677 82.891 124.061 83.2748 124.566 83.2748ZM125.301 89.4606V83.9768H123.809V89.4606H125.301ZM129.767 83.8122C128.944 83.8122 128.297 84.1742 127.891 84.8103V81.7832H126.411V89.4606H127.891V88.638C128.297 89.2631 128.933 89.6251 129.745 89.6251C131.214 89.6251 132.267 88.4625 132.267 86.7187C132.267 84.9748 131.225 83.8122 129.767 83.8122ZM129.306 88.3419C128.451 88.3419 127.891 87.6948 127.891 86.7187C127.891 85.7425 128.451 85.0955 129.306 85.0955C130.151 85.0955 130.732 85.7316 130.732 86.7187C130.732 87.6948 130.162 88.3419 129.306 88.3419ZM136.889 87.6838C136.714 88.1115 136.308 88.3419 135.759 88.3419C134.97 88.3419 134.52 87.8703 134.41 87.0806H138.26C138.841 85.3038 137.734 83.8122 135.737 83.8122C133.994 83.8122 132.842 84.9748 132.842 86.7187C132.842 88.4625 133.972 89.6251 135.737 89.6251C137.163 89.6251 138.183 88.8683 138.512 87.6838H136.889ZM135.727 85.0516C136.505 85.0516 136.889 85.4903 136.823 86.1483H134.432C134.575 85.4355 135.025 85.0516 135.727 85.0516ZM142.344 83.8122C141.631 83.8122 141.093 84.218 140.808 84.909V83.9768H139.328V89.4606H140.808V86.7625C140.808 85.7535 141.203 85.1064 141.74 85.1064C142.102 85.1064 142.333 85.3806 142.333 85.8084C142.333 86.1045 142.223 86.4225 142.015 86.7735H143.561C143.748 86.4006 143.857 85.9509 143.857 85.5122C143.857 84.4922 143.265 83.8122 142.344 83.8122ZM146.825 89.6251C148.306 89.6251 149.348 88.9561 149.348 87.8154C149.348 85.7206 145.871 86.5103 145.871 85.5451C145.871 85.238 146.2 84.9858 146.76 84.9858C147.429 84.9858 147.845 85.3477 147.714 85.8851H149.162C149.381 84.5909 148.262 83.8122 146.76 83.8122C145.367 83.8122 144.336 84.4922 144.336 85.6219C144.336 87.7057 147.812 86.9709 147.812 87.9032C147.812 88.2322 147.407 88.4515 146.825 88.4515C146.102 88.4515 145.674 88.1115 145.707 87.5632H144.27C144.226 88.8354 145.235 89.6251 146.825 89.6251Z" fill="black"/>
<path d="M61.9596 109.509C63.0733 108.861 63.701 107.808 63.701 106.492C63.701 104.143 61.6762 102.544 58.801 102.544C55.6018 102.544 53.3745 104.508 53.8807 107.262H56.8572C56.5535 105.966 57.3634 105.014 58.7605 105.014C59.9348 105.014 60.7043 105.642 60.7043 106.654C60.7043 107.788 59.8134 108.497 58.558 108.497H57.4646V110.684H58.558C60.1576 110.684 61.2307 111.514 61.2307 112.81C61.2307 114.024 60.2386 114.855 58.801 114.855C57.1001 114.855 56.0675 113.66 56.432 112.06H53.415C52.8886 115.199 55.2373 117.325 58.7605 117.325C62.0204 117.325 64.2476 115.503 64.2476 112.931C64.2476 111.372 63.458 110.198 61.9596 109.509ZM76.8216 107.687C76.8216 104.67 74.7563 102.544 71.4154 102.544C68.0745 102.544 65.989 104.65 65.989 107.626C65.989 108.76 66.2927 109.631 66.7989 110.42H69.8563C69.3096 109.61 69.0059 108.719 69.0059 107.748C69.0059 106.168 69.7956 105.014 71.4356 105.014C73.015 105.014 73.8047 106.128 73.8047 107.768C73.8047 110.623 71.4154 112.303 66.1914 114.713V117.021H76.8013V114.632H70.727C73.9261 113.296 76.8216 111.21 76.8216 107.687ZM80.1846 113.721C79.1317 113.721 78.3623 114.429 78.3623 115.401C78.3623 116.353 79.0508 117.062 80.0227 117.062C80.2656 117.062 80.4681 117.021 80.6706 116.94C80.4276 117.75 79.7797 118.459 78.8483 118.702V120.099C80.6908 119.755 82.1487 118.054 82.1487 116.049C82.1487 114.429 81.2173 113.721 80.1846 113.721ZM89.032 102.544C86.0758 102.544 83.6663 104.427 83.6663 107.403C83.6663 110.076 85.6304 112.02 88.5056 112.02C90.2064 112.02 91.401 111.331 92.1097 110.319C92.0085 113.194 90.8948 114.855 89.0523 114.855C87.7361 114.855 86.8857 113.984 87.1895 112.769H84.213C83.7068 115.3 85.8733 117.325 88.9713 117.325C92.5754 117.325 95.1266 114.632 95.1266 109.955C95.1266 105.257 92.5754 102.544 89.032 102.544ZM89.0118 109.55C87.6552 109.55 86.6833 108.618 86.6833 107.302C86.6833 105.966 87.6754 105.014 89.0118 105.014C90.3684 105.014 91.3605 105.925 91.3605 107.241C91.3605 108.598 90.3684 109.55 89.0118 109.55ZM105.379 109.307C106.391 108.719 107.06 107.788 107.06 106.472C107.06 104.285 105.156 102.544 102.22 102.544C99.3047 102.544 97.3811 104.265 97.3811 106.472C97.3811 107.808 98.0695 108.74 99.1022 109.307C97.7861 110.036 96.8749 111.271 96.8749 112.911C96.8749 115.523 99.0819 117.325 102.22 117.325C105.298 117.325 107.586 115.523 107.586 112.931C107.586 111.311 106.715 110.036 105.379 109.307ZM102.241 105.014C103.334 105.014 104.043 105.642 104.043 106.573C104.043 107.565 103.334 108.193 102.241 108.193C101.127 108.193 100.398 107.565 100.398 106.573C100.398 105.642 101.127 105.014 102.241 105.014ZM102.22 114.855C100.783 114.855 99.8918 114.004 99.8918 112.688C99.8918 111.331 100.783 110.441 102.241 110.441C103.678 110.441 104.569 111.331 104.569 112.688C104.569 114.004 103.658 114.855 102.22 114.855ZM113.058 102.848C112.491 104.548 110.79 106.209 108.623 106.35V108.922C110.385 108.8 111.944 107.97 113.098 106.573V117.021H116.034V102.848H113.058Z" fill="black"/>
<path d="M235.075 89.4606L232.081 81.7832H230.161L227.178 89.4606H228.867L229.448 87.9251H232.87L233.452 89.4606H235.075ZM231.159 83.3626L232.388 86.6309H229.931L231.159 83.3626ZM237.611 88.1006L236.372 83.9768H234.792L236.701 89.4606H238.521L240.441 83.9768H238.872L237.611 88.1006ZM244.22 88.2322C245.273 87.6399 245.854 86.7625 245.854 85.8632C245.854 85.589 245.799 85.3367 245.7 85.1064C246.15 84.6677 246.38 83.9329 246.26 83.2968H245.152C245.24 83.6697 245.284 84.0864 245.185 84.4155C244.746 84.0316 244.099 83.8122 243.309 83.8122C241.774 83.8122 240.754 84.6458 240.754 85.8632C240.754 87.0148 241.664 87.7496 243.002 87.7496C243.266 87.7496 243.507 87.7167 243.726 87.6619C243.244 88.0019 242.553 88.2541 241.631 88.3638V89.3399C242.136 89.2083 242.728 89.1206 243.211 89.1206C244.088 89.1206 244.505 89.4277 244.505 89.8554C244.505 90.2941 244.033 90.5354 243.419 90.5354C242.794 90.5354 242.366 90.2941 242.268 89.8664H240.611C240.842 91.0728 241.971 91.8186 243.43 91.8186C244.911 91.8186 246.062 91.0618 246.062 89.9322C246.062 89.0219 245.338 88.3967 244.22 88.2322ZM242.3 85.8851C242.3 85.4135 242.706 85.0954 243.309 85.0954C243.913 85.0954 244.308 85.4135 244.308 85.8851C244.308 86.3567 243.913 86.6748 243.309 86.6748C242.706 86.6748 242.3 86.3567 242.3 85.8851ZM247.761 89.5812C248.298 89.5812 248.704 89.1754 248.704 88.627C248.704 88.0786 248.298 87.6619 247.761 87.6619C247.202 87.6619 246.796 88.0786 246.796 88.627C246.796 89.1754 247.202 89.5812 247.761 89.5812ZM254.83 89.6251C256.563 89.6251 257.715 88.4625 257.715 86.7187C257.715 84.9748 256.563 83.8122 254.83 83.8122C253.097 83.8122 251.946 84.9748 251.946 86.7187C251.946 88.4625 253.097 89.6251 254.83 89.6251ZM254.83 88.3419C254.03 88.3419 253.492 87.6948 253.492 86.7187C253.492 85.7316 254.03 85.0954 254.83 85.0954C255.631 85.0954 256.168 85.7316 256.168 86.7187C256.168 87.6948 255.631 88.3419 254.83 88.3419ZM261.862 83.8122C261.05 83.8122 260.414 84.1742 260.008 84.7993V83.9768H258.528V91.6541H260.008V88.638C260.414 89.2631 261.05 89.6251 261.873 89.6251C263.332 89.6251 264.384 88.4625 264.384 86.7187C264.384 84.9748 263.332 83.8122 261.862 83.8122ZM261.423 88.3528C260.568 88.3528 260.008 87.6948 260.008 86.7187C260.008 85.7425 260.568 85.0954 261.423 85.0954C262.268 85.0954 262.849 85.7425 262.849 86.7187C262.849 87.6948 262.268 88.3528 261.423 88.3528ZM269.006 87.6838C268.831 88.1115 268.425 88.3419 267.876 88.3419C267.087 88.3419 266.637 87.8703 266.527 87.0806H270.377C270.958 85.3038 269.851 83.8122 267.855 83.8122C266.111 83.8122 264.959 84.9748 264.959 86.7187C264.959 88.4625 266.089 89.6251 267.855 89.6251C269.28 89.6251 270.3 88.8683 270.629 87.6838H269.006ZM267.844 85.0516C268.622 85.0516 269.006 85.4903 268.94 86.1483H266.549C266.692 85.4354 267.142 85.0516 267.844 85.0516ZM274.724 83.8122C273.89 83.8122 273.243 84.24 272.925 84.9529V83.9768H271.445V89.4606H272.925V86.7625C272.925 85.7425 273.441 85.0516 274.154 85.0516C275.009 85.0516 275.009 85.8303 275.009 86.3458V89.4606H276.501V86.3348C276.501 85.578 276.501 83.8122 274.724 83.8122ZM283.083 83.8122C282.37 83.8122 281.832 84.218 281.547 84.909V83.9768H280.067V89.4606H281.547V86.7625C281.547 85.7535 281.942 85.1064 282.48 85.1064C282.841 85.1064 283.072 85.3806 283.072 85.8083C283.072 86.1045 282.962 86.4225 282.754 86.7735H284.3C284.487 86.4006 284.596 85.9509 284.596 85.5122C284.596 84.4922 284.004 83.8122 283.083 83.8122ZM287.578 83.8122C286.13 83.8122 285.001 84.58 285.286 85.8412H286.777C286.679 85.3477 287.008 85.0735 287.567 85.0735C288.346 85.0735 288.609 85.6 288.62 86.3238C288.258 86.247 287.841 86.2032 287.424 86.2032C285.878 86.2032 284.902 86.8722 284.902 87.9799C284.902 88.9231 285.604 89.6251 286.799 89.6251C287.699 89.6251 288.368 89.2302 288.773 88.5173V89.4606H290.111V86.3567C290.111 84.8103 289.256 83.8122 287.578 83.8122ZM287.139 88.4954C286.679 88.4954 286.393 88.298 286.393 87.9141C286.393 87.4974 286.744 87.2232 287.567 87.2232C287.896 87.2232 288.313 87.278 288.664 87.3877C288.412 88.0567 287.841 88.4954 287.139 88.4954ZM294.71 83.9768H293.141V82.4852H291.65V83.9768H290.564V85.249H291.65V87.6509C291.65 88.3528 291.781 89.6251 293.525 89.6251C293.975 89.6251 294.337 89.5373 294.6 89.3948V88.1006C294.326 88.2541 294.117 88.3419 293.81 88.3419C293.251 88.3419 293.141 88.0348 293.141 87.6399V85.249H294.71V83.9768ZM299.242 87.6838C299.067 88.1115 298.661 88.3419 298.112 88.3419C297.323 88.3419 296.873 87.8703 296.763 87.0806H300.613C301.194 85.3038 300.087 83.8122 298.09 83.8122C296.347 83.8122 295.195 84.9748 295.195 86.7187C295.195 88.4625 296.325 89.6251 298.09 89.6251C299.516 89.6251 300.536 88.8683 300.865 87.6838H299.242ZM298.079 85.0516C298.858 85.0516 299.242 85.4903 299.176 86.1483H296.785C296.928 85.4354 297.378 85.0516 298.079 85.0516Z" fill="black"/>
<path d="M237.752 111.291V102.848H234.127C232.73 106.108 230.422 108.922 227.506 111.271V113.66H234.836V117.021H237.752V113.66H239.898V111.291H237.752ZM234.836 111.291H230.948C232.548 109.833 233.844 108.193 234.836 106.431V111.291ZM249.806 109.509C250.92 108.861 251.547 107.808 251.547 106.492C251.547 104.143 249.523 102.544 246.647 102.544C243.448 102.544 241.221 104.508 241.727 107.262H244.704C244.4 105.966 245.21 105.014 246.607 105.014C247.781 105.014 248.551 105.642 248.551 106.654C248.551 107.788 247.66 108.497 246.405 108.497H245.311V110.684H246.405C248.004 110.684 249.077 111.514 249.077 112.81C249.077 114.024 248.085 114.855 246.647 114.855C244.947 114.855 243.914 113.66 244.278 112.06H241.262C240.735 115.199 243.084 117.325 246.607 117.325C249.867 117.325 252.094 115.503 252.094 112.931C252.094 111.372 251.305 110.198 249.806 109.509ZM255.415 117.244C256.407 117.244 257.156 116.495 257.156 115.482C257.156 114.47 256.407 113.7 255.415 113.7C254.382 113.7 253.633 114.47 253.633 115.482C253.633 116.495 254.382 117.244 255.415 117.244ZM267.204 109.307C268.216 108.719 268.884 107.788 268.884 106.472C268.884 104.285 266.981 102.544 264.045 102.544C261.129 102.544 259.206 104.265 259.206 106.472C259.206 107.808 259.894 108.74 260.927 109.307C259.611 110.036 258.7 111.271 258.7 112.911C258.7 115.523 260.907 117.325 264.045 117.325C267.123 117.325 269.411 115.523 269.411 112.931C269.411 111.311 268.54 110.036 267.204 109.307ZM264.065 105.014C265.159 105.014 265.867 105.642 265.867 106.573C265.867 107.565 265.159 108.193 264.065 108.193C262.952 108.193 262.223 107.565 262.223 106.573C262.223 105.642 262.952 105.014 264.065 105.014ZM264.045 114.855C262.608 114.855 261.717 114.004 261.717 112.688C261.717 111.331 262.608 110.441 264.065 110.441C265.503 110.441 266.394 111.331 266.394 112.688C266.394 114.004 265.483 114.855 264.045 114.855ZM274.316 102.362C275.449 102.362 276.307 102.76 276.887 103.556C277.481 104.339 277.778 105.446 277.778 106.877C277.778 108.308 277.501 109.428 276.948 110.238C276.394 111.034 275.517 111.433 274.316 111.433C273.573 111.433 272.945 111.25 272.433 110.886C271.933 110.522 271.555 110.002 271.299 109.327C271.042 108.638 270.914 107.822 270.914 106.877C270.914 105.446 271.184 104.339 271.724 103.556C272.264 102.76 273.128 102.362 274.316 102.362ZM274.336 104.427C274.012 104.427 273.776 104.629 273.627 105.034C273.479 105.439 273.404 106.06 273.404 106.897C273.404 107.721 273.479 108.342 273.627 108.76C273.776 109.178 274.012 109.388 274.336 109.388C274.66 109.388 274.896 109.178 275.045 108.76C275.206 108.342 275.287 107.721 275.287 106.897C275.287 106.06 275.206 105.439 275.045 105.034C274.896 104.629 274.66 104.427 274.336 104.427ZM284.581 102.564L276.563 117.021H274.194L282.212 102.564H284.581ZM284.44 108.132C285.195 108.132 285.83 108.315 286.343 108.679C286.856 109.03 287.24 109.543 287.497 110.218C287.767 110.879 287.902 111.689 287.902 112.648C287.902 114.078 287.625 115.199 287.072 116.009C286.518 116.805 285.641 117.203 284.44 117.203C283.697 117.203 283.069 117.021 282.556 116.657C282.057 116.292 281.679 115.772 281.423 115.098C281.166 114.409 281.038 113.592 281.038 112.648C281.038 111.217 281.308 110.11 281.848 109.327C282.388 108.531 283.252 108.132 284.44 108.132ZM284.46 110.198C284.136 110.198 283.9 110.4 283.751 110.805C283.603 111.21 283.528 111.831 283.528 112.668C283.528 113.491 283.603 114.112 283.751 114.531C283.9 114.949 284.136 115.158 284.46 115.158C284.784 115.158 285.02 114.956 285.168 114.551C285.33 114.132 285.411 113.505 285.411 112.668C285.411 111.831 285.33 111.21 285.168 110.805C285.02 110.4 284.784 110.198 284.46 110.198Z" fill="black"/>
<path d="M405.495 89.4606L402.501 81.7832H400.581L397.598 89.4606H399.287L399.868 87.9251H403.29L403.871 89.4606H405.495ZM401.579 83.3626L402.808 86.6309H400.351L401.579 83.3626ZM408.031 88.1006L406.792 83.9768H405.212L407.121 89.4606H408.941L410.861 83.9768H409.292L408.031 88.1006ZM414.64 88.2322C415.693 87.6399 416.274 86.7625 416.274 85.8632C416.274 85.589 416.219 85.3367 416.12 85.1064C416.57 84.6677 416.8 83.9329 416.68 83.2968H415.572C415.66 83.6697 415.704 84.0864 415.605 84.4155C415.166 84.0316 414.519 83.8122 413.729 83.8122C412.194 83.8122 411.174 84.6458 411.174 85.8632C411.174 87.0148 412.084 87.7496 413.422 87.7496C413.686 87.7496 413.927 87.7167 414.146 87.6619C413.664 88.0019 412.973 88.2541 412.051 88.3638V89.3399C412.556 89.2083 413.148 89.1206 413.631 89.1206C414.508 89.1206 414.925 89.4277 414.925 89.8554C414.925 90.2941 414.453 90.5354 413.839 90.5354C413.214 90.5354 412.786 90.2941 412.687 89.8664H411.031C411.262 91.0728 412.391 91.8186 413.85 91.8186C415.331 91.8186 416.482 91.0618 416.482 89.9322C416.482 89.0219 415.758 88.3967 414.64 88.2322ZM412.72 85.8851C412.72 85.4135 413.126 85.0954 413.729 85.0954C414.333 85.0954 414.727 85.4135 414.727 85.8851C414.727 86.3567 414.333 86.6748 413.729 86.6748C413.126 86.6748 412.72 86.3567 412.72 85.8851ZM418.181 89.5812C418.718 89.5812 419.124 89.1754 419.124 88.627C419.124 88.0786 418.718 87.6619 418.181 87.6619C417.622 87.6619 417.216 88.0786 417.216 88.627C417.216 89.1754 417.622 89.5812 418.181 89.5812ZM425.25 89.6251C426.786 89.6251 427.762 88.7257 428.058 87.5193H426.435C426.226 88.0238 425.831 88.3419 425.272 88.3419C424.461 88.3419 423.912 87.7057 423.912 86.7077C423.912 85.7206 424.439 85.0954 425.283 85.0954C426.106 85.0954 426.522 85.6877 426.314 86.7187H427.784C428.266 84.9748 427.06 83.8122 425.283 83.8122C423.506 83.8122 422.366 84.9638 422.366 86.7187C422.366 88.4625 423.517 89.6251 425.25 89.6251ZM430.376 89.4606V81.7832H428.895V89.4606H430.376ZM432.287 83.2748C432.791 83.2748 433.175 82.891 433.175 82.3864C433.175 81.8819 432.791 81.4981 432.287 81.4981C431.782 81.4981 431.398 81.8819 431.398 82.3864C431.398 82.891 431.782 83.2748 432.287 83.2748ZM433.021 89.4606V83.9768H431.53V89.4606H433.021ZM436.775 89.6251C438.31 89.6251 439.286 88.7257 439.582 87.5193H437.959C437.751 88.0238 437.356 88.3419 436.797 88.3419C435.985 88.3419 435.437 87.7057 435.437 86.7077C435.437 85.7206 435.963 85.0954 436.808 85.0954C437.63 85.0954 438.047 85.6877 437.839 86.7187H439.308C439.791 84.9748 438.584 83.8122 436.808 83.8122C435.031 83.8122 433.89 84.9638 433.89 86.7187C433.89 88.4625 435.042 89.6251 436.775 89.6251ZM444.379 87.3657C445.103 87.0367 445.542 86.3896 445.542 85.5561C445.542 84.5032 444.862 83.8122 443.721 83.8122C442.833 83.8122 442.153 84.24 441.846 84.9529V81.7832H440.365V89.4606H441.846V86.7625C441.846 85.7425 442.383 85.1064 443.14 85.1064C443.644 85.1064 443.995 85.3696 443.995 85.8632C443.995 86.4335 443.513 86.8503 442.756 86.8503V87.8044C443.48 87.9251 444.039 88.5064 444.171 89.4606H445.915C445.695 88.4625 445.136 87.7386 444.379 87.3657ZM452.335 83.8122C451.622 83.8122 451.085 84.218 450.8 84.909V83.9768H449.319V89.4606H450.8V86.7625C450.8 85.7535 451.195 85.1064 451.732 85.1064C452.094 85.1064 452.324 85.3806 452.324 85.8083C452.324 86.1045 452.215 86.4225 452.006 86.7735H453.553C453.739 86.4006 453.849 85.9509 453.849 85.5122C453.849 84.4922 453.256 83.8122 452.335 83.8122ZM456.83 83.8122C455.383 83.8122 454.253 84.58 454.538 85.8412H456.03C455.931 85.3477 456.26 85.0735 456.819 85.0735C457.598 85.0735 457.861 85.6 457.872 86.3238C457.51 86.247 457.094 86.2032 456.677 86.2032C455.13 86.2032 454.154 86.8722 454.154 87.9799C454.154 88.9231 454.856 89.6251 456.052 89.6251C456.951 89.6251 457.62 89.2302 458.026 88.5173V89.4606H459.364V86.3567C459.364 84.8103 458.508 83.8122 456.83 83.8122ZM456.392 88.4954C455.931 88.4954 455.646 88.298 455.646 87.9141C455.646 87.4974 455.997 87.2232 456.819 87.2232C457.149 87.2232 457.565 87.278 457.916 87.3877C457.664 88.0567 457.094 88.4954 456.392 88.4954ZM463.962 83.9768H462.394V82.4852H460.902V83.9768H459.816V85.249H460.902V87.6509C460.902 88.3528 461.034 89.6251 462.778 89.6251C463.227 89.6251 463.589 89.5373 463.852 89.3948V88.1006C463.578 88.2541 463.37 88.3419 463.063 88.3419C462.503 88.3419 462.394 88.0348 462.394 87.6399V85.249H463.962V83.9768ZM468.495 87.6838C468.319 88.1115 467.913 88.3419 467.365 88.3419C466.575 88.3419 466.126 87.8703 466.016 87.0806H469.865C470.447 85.3038 469.339 83.8122 467.343 83.8122C465.599 83.8122 464.447 84.9748 464.447 86.7187C464.447 88.4625 465.577 89.6251 467.343 89.6251C468.769 89.6251 469.789 88.8683 470.118 87.6838H468.495ZM467.332 85.0516C468.111 85.0516 468.495 85.4903 468.429 86.1483H466.038C466.18 85.4354 466.63 85.0516 467.332 85.0516Z" fill="black"/>
<path d="M406.896 109.307C407.908 108.719 408.577 107.788 408.577 106.472C408.577 104.285 406.673 102.544 403.737 102.544C400.822 102.544 398.898 104.265 398.898 106.472C398.898 107.808 399.587 108.74 400.619 109.307C399.303 110.036 398.392 111.271 398.392 112.911C398.392 115.523 400.599 117.325 403.737 117.325C406.815 117.325 409.103 115.523 409.103 112.931C409.103 111.311 408.232 110.036 406.896 109.307ZM403.758 105.014C404.851 105.014 405.56 105.642 405.56 106.573C405.56 107.565 404.851 108.193 403.758 108.193C402.644 108.193 401.915 107.565 401.915 106.573C401.915 105.642 402.644 105.014 403.758 105.014ZM403.737 114.855C402.3 114.855 401.409 114.004 401.409 112.688C401.409 111.331 402.3 110.441 403.758 110.441C405.195 110.441 406.086 111.331 406.086 112.688C406.086 114.004 405.175 114.855 403.737 114.855ZM412.428 117.244C413.421 117.244 414.17 116.495 414.17 115.482C414.17 114.47 413.421 113.7 412.428 113.7C411.396 113.7 410.647 114.47 410.647 115.482C410.647 116.495 411.396 117.244 412.428 117.244ZM425.675 109.793C425.675 110.954 425.581 111.993 425.392 112.911C425.216 113.829 424.926 114.612 424.521 115.26C424.13 115.894 423.61 116.38 422.962 116.717C422.328 117.055 421.545 117.224 420.613 117.224C419.452 117.224 418.501 116.927 417.758 116.333C417.016 115.739 416.463 114.888 416.098 113.781C415.747 112.675 415.572 111.345 415.572 109.793C415.572 108.227 415.734 106.89 416.058 105.784C416.382 104.677 416.915 103.826 417.657 103.232C418.4 102.638 419.385 102.341 420.613 102.341C421.774 102.341 422.726 102.638 423.468 103.232C424.211 103.813 424.764 104.663 425.129 105.784C425.493 106.89 425.675 108.227 425.675 109.793ZM418.609 109.793C418.609 110.886 418.67 111.804 418.791 112.546C418.912 113.275 419.115 113.829 419.398 114.207C419.695 114.571 420.1 114.753 420.613 114.753C421.126 114.753 421.524 114.571 421.808 114.207C422.105 113.842 422.314 113.296 422.436 112.567C422.571 111.824 422.638 110.9 422.638 109.793C422.638 108.686 422.571 107.768 422.436 107.039C422.314 106.296 422.105 105.743 421.808 105.379C421.524 105.001 421.126 104.812 420.613 104.812C420.1 104.812 419.695 105.001 419.398 105.379C419.115 105.743 418.912 106.296 418.791 107.039C418.67 107.768 418.609 108.686 418.609 109.793ZM430.459 102.362C431.593 102.362 432.45 102.76 433.031 103.556C433.625 104.339 433.922 105.446 433.922 106.877C433.922 108.308 433.645 109.428 433.091 110.238C432.538 111.034 431.661 111.433 430.459 111.433C429.717 111.433 429.089 111.25 428.576 110.886C428.077 110.522 427.699 110.002 427.442 109.327C427.186 108.638 427.058 107.822 427.058 106.877C427.058 105.446 427.328 104.339 427.867 103.556C428.407 102.76 429.271 102.362 430.459 102.362ZM430.479 104.427C430.155 104.427 429.919 104.629 429.771 105.034C429.622 105.439 429.548 106.06 429.548 106.897C429.548 107.721 429.622 108.342 429.771 108.76C429.919 109.178 430.155 109.388 430.479 109.388C430.803 109.388 431.04 109.178 431.188 108.76C431.35 108.342 431.431 107.721 431.431 106.897C431.431 106.06 431.35 105.439 431.188 105.034C431.04 104.629 430.803 104.427 430.479 104.427ZM440.725 102.564L432.707 117.021H430.338L438.356 102.564H440.725ZM440.583 108.132C441.339 108.132 441.973 108.315 442.486 108.679C442.999 109.03 443.384 109.543 443.641 110.218C443.911 110.879 444.046 111.689 444.046 112.648C444.046 114.078 443.769 115.199 443.215 116.009C442.662 116.805 441.784 117.203 440.583 117.203C439.841 117.203 439.213 117.021 438.7 116.657C438.201 116.292 437.823 115.772 437.566 115.098C437.31 114.409 437.181 113.592 437.181 112.648C437.181 111.217 437.451 110.11 437.991 109.327C438.531 108.531 439.395 108.132 440.583 108.132ZM440.603 110.198C440.279 110.198 440.043 110.4 439.895 110.805C439.746 111.21 439.672 111.831 439.672 112.668C439.672 113.491 439.746 114.112 439.895 114.531C440.043 114.949 440.279 115.158 440.603 115.158C440.927 115.158 441.164 114.956 441.312 114.551C441.474 114.132 441.555 113.505 441.555 112.668C441.555 111.831 441.474 111.21 441.312 110.805C441.164 110.4 440.927 110.198 440.603 110.198Z" fill="black"/>
<rect fill="white" height="218.508" rx="16.4514" stroke="black" stroke-width="0.843662" width="248.037" x="26.7314" y="402.422"/>
<rect fill="#E3DFF1" height="69.1803" width="19.4042" x="58.3688" y="520.956"/>
<rect fill="#E3DFF1" height="39.6521" width="19.4042" x="83.6787" y="550.485"/>
<rect fill="#E3DFF1" height="17.7169" width="19.4042" x="108.989" y="572.42"/>
<rect fill="#E3DFF1" height="53.1507" width="19.4042" x="134.298" y="536.986"/>
<rect fill="#E3DFF1" height="17.7169" width="19.4042" x="159.608" y="572.42"/>
<rect fill="#E3DFF1" height="53.1507" width="19.4042" x="184.918" y="536.986"/>
<rect fill="#E3DFF1" height="39.6521" width="19.4042" x="210.228" y="550.485"/>
<path d="M52.0413 458.104V596.042H243" stroke="#C5C2D1" stroke-width="0.843662"/>
<path d="M56.3574 439.512C58.7061 439.512 60.218 438.365 60.218 436.462C60.218 432.804 54.5351 434.545 54.5351 432.439C54.5351 431.724 55.1965 431.265 56.2359 431.265C57.4913 431.265 58.1797 431.899 58.0177 433.006H59.975C60.218 430.995 58.7331 429.658 56.2764 429.658C54.0221 429.658 52.5643 430.779 52.5643 432.655C52.5643 436.367 58.2337 434.572 58.2337 436.678C58.2337 437.407 57.5453 437.906 56.3979 437.906C55.075 437.906 54.3326 437.258 54.4001 436.151H52.4428C52.2808 438.203 53.8602 439.512 56.3574 439.512ZM62.6385 431.697C63.2594 431.697 63.7318 431.224 63.7318 430.603C63.7318 429.982 63.2594 429.51 62.6385 429.51C62.0175 429.51 61.5451 429.982 61.5451 430.603C61.5451 431.224 62.0175 431.697 62.6385 431.697ZM63.5429 439.31V432.561H61.7071V439.31H63.5429ZM68.9181 437.798C70.214 437.069 70.9294 435.989 70.9294 434.882C70.9294 434.545 70.8619 434.234 70.7405 433.951C71.2939 433.411 71.5774 432.507 71.4289 431.724H70.0655C70.1735 432.183 70.2275 432.696 70.106 433.101C69.5661 432.628 68.7697 432.358 67.7978 432.358C65.908 432.358 64.6526 433.384 64.6526 434.882C64.6526 436.3 65.773 437.204 67.4198 437.204C67.7438 437.204 68.0407 437.164 68.3107 437.096C67.7168 437.515 66.8664 437.825 65.7325 437.96V439.161C66.3534 438.999 67.0823 438.891 67.6763 438.891C68.7562 438.891 69.2691 439.269 69.2691 439.796C69.2691 440.336 68.6887 440.633 67.9327 440.633C67.1633 440.633 66.6369 440.336 66.5154 439.809H64.4771C64.7606 441.294 66.1509 442.212 67.9462 442.212C69.7686 442.212 71.1859 441.281 71.1859 439.89C71.1859 438.77 70.295 438 68.9181 437.798ZM66.5559 434.909C66.5559 434.329 67.0553 433.937 67.7978 433.937C68.5402 433.937 69.0261 434.329 69.0261 434.909C69.0261 435.49 68.5402 435.881 67.7978 435.881C67.0553 435.881 66.5559 435.49 66.5559 434.909ZM76.3667 432.358C75.3408 432.358 74.5444 432.885 74.153 433.762V432.561H72.3307V439.31H74.153V435.989C74.153 434.734 74.7874 433.883 75.6648 433.883C76.7177 433.883 76.7177 434.842 76.7177 435.476V439.31H78.5535V435.463C78.5535 434.531 78.5535 432.358 76.3667 432.358ZM83.9908 435.962C83.9908 437.137 83.4239 437.947 82.533 437.947C81.696 437.947 81.4936 437.191 81.4936 436.354V432.561H79.6578V436.354C79.6578 437.542 79.9412 439.472 81.831 439.472C82.7624 439.472 83.5318 439.013 83.9908 438.203V439.31H85.8266V432.561H83.9908V435.962ZM91.2247 432.358C90.2258 432.358 89.4429 432.804 88.9434 433.573V432.561H87.1211V442.01H88.9434V438.297C89.4429 439.067 90.2258 439.512 91.2382 439.512C93.0335 439.512 94.3294 438.081 94.3294 435.935C94.3294 433.789 93.0335 432.358 91.2247 432.358ZM90.6847 437.947C89.6318 437.947 88.9434 437.137 88.9434 435.935C88.9434 434.734 89.6318 433.937 90.6847 433.937C91.7241 433.937 92.4395 434.734 92.4395 435.935C92.4395 437.137 91.7241 437.947 90.6847 437.947ZM98.1683 439.512C99.9906 439.512 101.273 438.689 101.273 437.285C101.273 434.707 96.994 435.679 96.994 434.491C96.994 434.113 97.3989 433.802 98.0873 433.802C98.9108 433.802 99.4237 434.248 99.2617 434.909H101.044C101.314 433.316 99.9366 432.358 98.0873 432.358C96.373 432.358 95.1041 433.195 95.1041 434.585C95.1041 437.15 99.3832 436.246 99.3832 437.393C99.3832 437.798 98.8838 438.068 98.1683 438.068C97.2774 438.068 96.751 437.65 96.7915 436.975H95.0232C94.9692 438.54 96.211 439.512 98.1683 439.512ZM109.535 432.358C108.536 432.358 107.753 432.804 107.254 433.573V432.561H105.431V442.01H107.254V438.297C107.753 439.067 108.536 439.512 109.548 439.512C111.344 439.512 112.639 438.081 112.639 435.935C112.639 433.789 111.344 432.358 109.535 432.358ZM108.995 437.947C107.942 437.947 107.254 437.137 107.254 435.935C107.254 434.734 107.942 433.937 108.995 433.937C110.034 433.937 110.75 434.734 110.75 435.935C110.75 437.137 110.034 437.947 108.995 437.947ZM116.574 432.358C114.792 432.358 113.402 433.303 113.753 434.855H115.589C115.467 434.248 115.872 433.91 116.561 433.91C117.519 433.91 117.843 434.558 117.857 435.449C117.411 435.355 116.898 435.301 116.385 435.301C114.482 435.301 113.281 436.124 113.281 437.488C113.281 438.648 114.144 439.512 115.616 439.512C116.723 439.512 117.546 439.026 118.046 438.149V439.31H119.692V435.49C119.692 433.586 118.639 432.358 116.574 432.358ZM116.034 438.122C115.467 438.122 115.116 437.879 115.116 437.407C115.116 436.894 115.548 436.556 116.561 436.556C116.966 436.556 117.479 436.624 117.911 436.759C117.6 437.582 116.898 438.122 116.034 438.122ZM123.729 439.512C125.551 439.512 126.833 438.689 126.833 437.285C126.833 434.707 122.554 435.679 122.554 434.491C122.554 434.113 122.959 433.802 123.648 433.802C124.471 433.802 124.984 434.248 124.822 434.909H126.604C126.874 433.316 125.497 432.358 123.648 432.358C121.933 432.358 120.664 433.195 120.664 434.585C120.664 437.15 124.944 436.246 124.944 437.393C124.944 437.798 124.444 438.068 123.729 438.068C122.838 438.068 122.311 437.65 122.352 436.975H120.583C120.529 438.54 121.771 439.512 123.729 439.512ZM132.351 432.561H130.421V430.725H128.585V432.561H127.249V434.126H128.585V437.083C128.585 437.947 128.747 439.512 130.894 439.512C131.447 439.512 131.892 439.404 132.216 439.229V437.636C131.879 437.825 131.622 437.933 131.245 437.933C130.556 437.933 130.421 437.555 130.421 437.069V434.126H132.351V432.561ZM143.469 437.488L142.281 432.561H140.337L139.095 437.582L137.84 432.561H135.896L137.907 439.31H140.148L141.295 434.828L142.443 439.31H144.683L146.681 432.561H144.764L143.469 437.488ZM151.797 437.123C151.581 437.65 151.082 437.933 150.407 437.933C149.435 437.933 148.882 437.353 148.747 436.381H153.485C154.2 434.194 152.837 432.358 150.38 432.358C148.234 432.358 146.816 433.789 146.816 435.935C146.816 438.081 148.207 439.512 150.38 439.512C152.135 439.512 153.39 438.581 153.795 437.123H151.797ZM150.367 433.883C151.325 433.883 151.797 434.423 151.716 435.233H148.774C148.949 434.356 149.503 433.883 150.367 433.883ZM159.483 437.123C159.267 437.65 158.767 437.933 158.092 437.933C157.12 437.933 156.567 437.353 156.432 436.381H161.17C161.885 434.194 160.522 432.358 158.065 432.358C155.919 432.358 154.502 433.789 154.502 435.935C154.502 438.081 155.892 439.512 158.065 439.512C159.82 439.512 161.075 438.581 161.48 437.123H159.483ZM158.052 433.883C159.01 433.883 159.483 434.423 159.402 435.233H156.459C156.634 434.356 157.188 433.883 158.052 433.883ZM167.424 436.732C168.315 436.327 168.855 435.53 168.855 434.504C168.855 433.208 168.018 432.358 166.614 432.358C165.521 432.358 164.684 432.885 164.306 433.762V429.861H162.484V439.31H164.306V435.989C164.306 434.734 164.968 433.951 165.899 433.951C166.52 433.951 166.952 434.275 166.952 434.882C166.952 435.584 166.358 436.097 165.427 436.097V437.272C166.317 437.42 167.006 438.135 167.168 439.31H169.314C169.044 438.081 168.356 437.191 167.424 436.732Z" fill="black"/>
<circle cx="18.7169" cy="15.3423" fill="black" r="3.37465"/>
<circle cx="28.8408" cy="15.3423" fill="black" r="3.37465"/>
<circle cx="38.9647" cy="15.3423" fill="black" r="3.37465"/>
</g>
<rect fill="white" height="218.156" rx="16.4514" stroke="black" stroke-width="0.843662" width="512.156" x="26.4218" y="166.422"/>
<path d="M51.7317 222.104V360.042H513.713" stroke="#C5C2D1" stroke-width="0.843662"/>
<path d="M61.1233 203.31L57.4382 193.861H55.0759L51.4043 203.31H53.4831L54.1985 201.42H58.4101L59.1255 203.31H61.1233ZM56.3043 195.805L57.8161 199.827H54.7925L56.3043 195.805ZM64.9394 203.512C66.8292 203.512 68.0306 202.405 68.395 200.921H66.3972C66.1408 201.542 65.6548 201.933 64.9664 201.933C63.9675 201.933 63.2926 201.15 63.2926 199.922C63.2926 198.707 63.9405 197.937 64.9799 197.937C65.9923 197.937 66.5052 198.666 66.2487 199.935H68.0576C68.6515 197.789 67.1667 196.358 64.9799 196.358C62.7931 196.358 61.3893 197.775 61.3893 199.935C61.3893 202.082 62.8066 203.512 64.9394 203.512ZM73.8555 196.561H71.9252V194.725H70.0894V196.561H68.7531V198.126H70.0894V201.083C70.0894 201.947 70.2514 203.512 72.3977 203.512C72.9511 203.512 73.3966 203.404 73.7205 203.229V201.636C73.3831 201.825 73.1266 201.933 72.7486 201.933C72.0602 201.933 71.9252 201.555 71.9252 201.069V198.126H73.8555V196.561ZM75.7352 195.697C76.3561 195.697 76.8286 195.224 76.8286 194.603C76.8286 193.982 76.3561 193.51 75.7352 193.51C75.1143 193.51 74.6418 193.982 74.6418 194.603C74.6418 195.224 75.1143 195.697 75.7352 195.697ZM76.6396 203.31V196.561H74.8038V203.31H76.6396ZM80.8675 201.636L79.3422 196.561H77.3984L79.7471 203.31H81.9879L84.3501 196.561H82.4198L80.8675 201.636ZM89.3732 201.123C89.1572 201.65 88.6578 201.933 87.9829 201.933C87.011 201.933 86.4575 201.353 86.3225 200.381H91.0605C91.776 198.194 90.4126 196.358 87.9559 196.358C85.8096 196.358 84.3922 197.789 84.3922 199.935C84.3922 202.082 85.7826 203.512 87.9559 203.512C89.7107 203.512 90.966 202.581 91.371 201.123H89.3732ZM87.9424 197.883C88.9008 197.883 89.3732 198.423 89.2922 199.233H86.3495C86.525 198.356 87.0784 197.883 87.9424 197.883ZM98.3992 203.512C100.222 203.512 101.504 202.689 101.504 201.285C101.504 198.707 97.2249 199.679 97.2249 198.491C97.2249 198.113 97.6298 197.802 98.3182 197.802C99.1417 197.802 99.6546 198.248 99.4926 198.909H101.274C101.544 197.316 100.168 196.358 98.3182 196.358C96.6039 196.358 95.335 197.195 95.335 198.585C95.335 201.15 99.6141 200.246 99.6141 201.393C99.6141 201.798 99.1147 202.068 98.3992 202.068C97.5083 202.068 96.9819 201.65 97.0224 200.975H95.2541C95.2001 202.54 96.4419 203.512 98.3992 203.512ZM106.711 199.962C106.711 201.137 106.144 201.947 105.253 201.947C104.416 201.947 104.213 201.191 104.213 200.354V196.561H102.378V200.354C102.378 201.542 102.661 203.472 104.551 203.472C105.482 203.472 106.252 203.013 106.711 202.203V203.31H108.546V196.561H106.711V199.962ZM113.971 196.358C112.959 196.358 112.163 196.804 111.663 197.586V193.861H109.841V203.31H111.663V202.297C112.163 203.067 112.946 203.512 113.944 203.512C115.753 203.512 117.049 202.082 117.049 199.935C117.049 197.789 115.767 196.358 113.971 196.358ZM113.404 201.933C112.352 201.933 111.663 201.137 111.663 199.935C111.663 198.734 112.352 197.937 113.404 197.937C114.444 197.937 115.159 198.72 115.159 199.935C115.159 201.137 114.457 201.933 113.404 201.933ZM120.888 203.512C122.71 203.512 123.993 202.689 123.993 201.285C123.993 198.707 119.714 199.679 119.714 198.491C119.714 198.113 120.119 197.802 120.807 197.802C121.631 197.802 122.143 198.248 121.981 198.909H123.763C124.033 197.316 122.656 196.358 120.807 196.358C119.093 196.358 117.824 197.195 117.824 198.585C117.824 201.15 122.103 200.246 122.103 201.393C122.103 201.798 121.604 202.068 120.888 202.068C119.997 202.068 119.471 201.65 119.511 200.975H117.743C117.689 202.54 118.931 203.512 120.888 203.512ZM128.214 203.512C130.104 203.512 131.305 202.405 131.67 200.921H129.672C129.415 201.542 128.929 201.933 128.241 201.933C127.242 201.933 126.567 201.15 126.567 199.922C126.567 198.707 127.215 197.937 128.255 197.937C129.267 197.937 129.78 198.666 129.523 199.935H131.332C131.926 197.789 130.441 196.358 128.255 196.358C126.068 196.358 124.664 197.775 124.664 199.935C124.664 202.082 126.081 203.512 128.214 203.512ZM136.345 196.358C135.468 196.358 134.806 196.858 134.455 197.708V196.561H132.633V203.31H134.455V199.989C134.455 198.747 134.941 197.951 135.603 197.951C136.048 197.951 136.332 198.288 136.332 198.815C136.332 199.179 136.197 199.571 135.94 200.003H137.843C138.073 199.544 138.208 198.99 138.208 198.45C138.208 197.195 137.479 196.358 136.345 196.358ZM140.051 195.697C140.672 195.697 141.145 195.224 141.145 194.603C141.145 193.982 140.672 193.51 140.051 193.51C139.43 193.51 138.958 193.982 138.958 194.603C138.958 195.224 139.43 195.697 140.051 195.697ZM140.956 203.31V196.561H139.12V203.31H140.956ZM146.452 196.358C145.44 196.358 144.644 196.804 144.144 197.586V193.861H142.322V203.31H144.144V202.297C144.644 203.067 145.427 203.512 146.425 203.512C148.234 203.512 149.53 202.082 149.53 199.935C149.53 197.789 148.248 196.358 146.452 196.358ZM145.885 201.933C144.833 201.933 144.144 201.137 144.144 199.935C144.144 198.734 144.833 197.937 145.885 197.937C146.925 197.937 147.64 198.72 147.64 199.935C147.64 201.137 146.938 201.933 145.885 201.933ZM155.218 201.123C155.002 201.65 154.503 201.933 153.828 201.933C152.856 201.933 152.303 201.353 152.168 200.381H156.906C157.621 198.194 156.258 196.358 153.801 196.358C151.655 196.358 150.237 197.789 150.237 199.935C150.237 202.082 151.628 203.512 153.801 203.512C155.556 203.512 156.811 202.581 157.216 201.123H155.218ZM153.788 197.883C154.746 197.883 155.218 198.423 155.137 199.233H152.195C152.37 198.356 152.924 197.883 153.788 197.883ZM161.932 196.358C161.054 196.358 160.393 196.858 160.042 197.708V196.561H158.22V203.31H160.042V199.989C160.042 198.747 160.528 197.951 161.189 197.951C161.635 197.951 161.918 198.288 161.918 198.815C161.918 199.179 161.783 199.571 161.527 200.003H163.43C163.66 199.544 163.795 198.99 163.795 198.45C163.795 197.195 163.066 196.358 161.932 196.358ZM167.448 203.512C169.27 203.512 170.552 202.689 170.552 201.285C170.552 198.707 166.273 199.679 166.273 198.491C166.273 198.113 166.678 197.802 167.367 197.802C168.19 197.802 168.703 198.248 168.541 198.909H170.323C170.593 197.316 169.216 196.358 167.367 196.358C165.652 196.358 164.384 197.195 164.384 198.585C164.384 201.15 168.663 200.246 168.663 201.393C168.663 201.798 168.163 202.068 167.448 202.068C166.557 202.068 166.03 201.65 166.071 200.975H164.303C164.249 202.54 165.49 203.512 167.448 203.512Z" fill="black"/>
<path d="M137.662 353.103L117.753 359H513V212L473.768 222.109L450.932 247.802C434.536 251.312 400.574 258.669 395.89 260.017C390.034 261.702 382.422 267.178 377.738 271.39C373.053 275.602 348.46 281.92 339.677 283.605C332.65 284.952 296.151 291.186 278.779 294.135L253.015 311.825L234.863 324.883C231.116 327.578 211.441 330.779 202.072 332.043L176.308 340.888L137.662 353.103Z" fill="url(#paint0_linear_48_3454)"/>
<path d="M51 359H117.753L137.662 353.103L176.308 340.888L202.072 332.043C211.441 330.779 231.116 327.578 234.863 324.883C238.611 322.187 248.526 315.054 253.015 311.825L278.779 294.135C296.151 291.186 332.65 284.952 339.677 283.605C348.46 281.92 373.053 275.602 377.738 271.39C382.422 267.178 390.034 261.702 395.89 260.017C400.574 258.669 434.536 251.312 450.932 247.802L473.768 222.109L513 212" stroke="#FF73E3" stroke-width="2.53099"/>
<rect fill="white" height="218.508" rx="16.4514" stroke="black" stroke-width="0.843662" width="248.037" x="359.422" y="416.422"/>
<path d="M389.048 453.512C391.397 453.512 392.908 452.365 392.908 450.462C392.908 446.804 387.226 448.545 387.226 446.439C387.226 445.724 387.887 445.265 388.926 445.265C390.182 445.265 390.87 445.899 390.708 447.006H392.665C392.908 444.995 391.424 443.658 388.967 443.658C386.713 443.658 385.255 444.779 385.255 446.655C385.255 450.367 390.924 448.572 390.924 450.678C390.924 451.407 390.236 451.906 389.088 451.906C387.765 451.906 387.023 451.258 387.091 450.151H385.133C384.971 452.203 386.551 453.512 389.048 453.512ZM398.49 449.962C398.49 451.137 397.923 451.946 397.032 451.946C396.195 451.946 395.993 451.191 395.993 450.354V446.561H394.157V450.354C394.157 451.542 394.44 453.472 396.33 453.472C397.261 453.472 398.031 453.013 398.49 452.203V453.31H400.326V446.561H398.49V449.962ZM405.751 446.358C404.738 446.358 403.942 446.804 403.442 447.586V443.861H401.62V453.31H403.442V452.297C403.942 453.067 404.725 453.512 405.724 453.512C407.532 453.512 408.828 452.081 408.828 449.935C408.828 447.789 407.546 446.358 405.751 446.358ZM405.184 451.933C404.131 451.933 403.442 451.137 403.442 449.935C403.442 448.734 404.131 447.937 405.184 447.937C406.223 447.937 406.939 448.72 406.939 449.935C406.939 451.137 406.237 451.933 405.184 451.933ZM412.667 453.512C414.49 453.512 415.772 452.689 415.772 451.285C415.772 448.707 411.493 449.679 411.493 448.491C411.493 448.113 411.898 447.802 412.586 447.802C413.41 447.802 413.923 448.248 413.761 448.909H415.542C415.812 447.316 414.436 446.358 412.586 446.358C410.872 446.358 409.603 447.195 409.603 448.585C409.603 451.15 413.882 450.246 413.882 451.393C413.882 451.798 413.383 452.068 412.667 452.068C411.776 452.068 411.25 451.65 411.29 450.975H409.522C409.468 452.54 410.71 453.512 412.667 453.512ZM419.993 453.512C421.883 453.512 423.084 452.405 423.449 450.921H421.451C421.195 451.542 420.709 451.933 420.02 451.933C419.021 451.933 418.346 451.15 418.346 449.922C418.346 448.707 418.994 447.937 420.034 447.937C421.046 447.937 421.559 448.666 421.303 449.935H423.111C423.705 447.789 422.221 446.358 420.034 446.358C417.847 446.358 416.443 447.775 416.443 449.935C416.443 452.081 417.86 453.512 419.993 453.512ZM428.124 446.358C427.247 446.358 426.585 446.858 426.234 447.708V446.561H424.412V453.31H426.234V449.989C426.234 448.747 426.72 447.951 427.382 447.951C427.827 447.951 428.111 448.288 428.111 448.815C428.111 449.179 427.976 449.571 427.719 450.003H429.623C429.852 449.544 429.987 448.99 429.987 448.45C429.987 447.195 429.258 446.358 428.124 446.358ZM431.83 445.697C432.451 445.697 432.924 445.224 432.924 444.603C432.924 443.982 432.451 443.51 431.83 443.51C431.21 443.51 430.737 443.982 430.737 444.603C430.737 445.224 431.21 445.697 431.83 445.697ZM432.735 453.31V446.561H430.899V453.31H432.735ZM438.232 446.358C437.219 446.358 436.423 446.804 435.923 447.586V443.861H434.101V453.31H435.923V452.297C436.423 453.067 437.206 453.512 438.205 453.512C440.013 453.512 441.309 452.081 441.309 449.935C441.309 447.789 440.027 446.358 438.232 446.358ZM437.665 451.933C436.612 451.933 435.923 451.137 435.923 449.935C435.923 448.734 436.612 447.937 437.665 447.937C438.704 447.937 439.419 448.72 439.419 449.935C439.419 451.137 438.718 451.933 437.665 451.933ZM446.998 451.123C446.782 451.65 446.282 451.933 445.607 451.933C444.635 451.933 444.082 451.353 443.947 450.381H448.685C449.4 448.194 448.037 446.358 445.58 446.358C443.434 446.358 442.017 447.789 442.017 449.935C442.017 452.081 443.407 453.512 445.58 453.512C447.335 453.512 448.59 452.581 448.995 451.123H446.998ZM445.567 447.883C446.525 447.883 446.998 448.423 446.917 449.233H443.974C444.149 448.356 444.703 447.883 445.567 447.883ZM453.711 446.358C452.834 446.358 452.172 446.858 451.821 447.708V446.561H449.999V453.31H451.821V449.989C451.821 448.747 452.307 447.951 452.968 447.951C453.414 447.951 453.697 448.288 453.697 448.815C453.697 449.179 453.562 449.571 453.306 450.003H455.209C455.439 449.544 455.574 448.99 455.574 448.45C455.574 447.195 454.845 446.358 453.711 446.358ZM466.142 448.207C466.938 447.87 467.37 447.222 467.37 446.25C467.37 444.725 466.263 443.861 464.252 443.861H460V453.31H464.252C466.628 453.31 467.95 452.311 467.95 450.57C467.95 449.368 467.316 448.558 466.142 448.207ZM465.359 446.493C465.359 447.208 464.981 447.6 464.238 447.6H461.944V445.454H464.252C464.981 445.454 465.359 445.805 465.359 446.493ZM461.944 451.717V449.139H464.265C465.359 449.139 465.939 449.584 465.939 450.408C465.939 451.258 465.345 451.717 464.252 451.717H461.944ZM472.865 446.358C471.987 446.358 471.326 446.858 470.975 447.708V446.561H469.153V453.31H470.975V449.989C470.975 448.747 471.461 447.951 472.122 447.951C472.568 447.951 472.851 448.288 472.851 448.815C472.851 449.179 472.716 449.571 472.46 450.003H474.363C474.593 449.544 474.727 448.99 474.727 448.45C474.727 447.195 473.999 446.358 472.865 446.358ZM480.204 451.123C479.988 451.65 479.488 451.933 478.813 451.933C477.841 451.933 477.288 451.353 477.153 450.381H481.891C482.606 448.194 481.243 446.358 478.786 446.358C476.64 446.358 475.223 447.789 475.223 449.935C475.223 452.081 476.613 453.512 478.786 453.512C480.541 453.512 481.796 452.581 482.201 451.123H480.204ZM478.773 447.883C479.731 447.883 480.204 448.423 480.123 449.233H477.18C477.355 448.356 477.909 447.883 478.773 447.883ZM486.148 446.358C484.367 446.358 482.976 447.303 483.327 448.855H485.163C485.042 448.248 485.447 447.91 486.135 447.91C487.093 447.91 487.417 448.558 487.431 449.449C486.985 449.355 486.472 449.301 485.959 449.301C484.056 449.301 482.855 450.124 482.855 451.488C482.855 452.648 483.719 453.512 485.19 453.512C486.297 453.512 487.12 453.026 487.62 452.149V453.31H489.267V449.49C489.267 447.586 488.214 446.358 486.148 446.358ZM485.609 452.122C485.042 452.122 484.691 451.879 484.691 451.407C484.691 450.894 485.123 450.556 486.135 450.556C486.54 450.556 487.053 450.624 487.485 450.759C487.174 451.582 486.472 452.122 485.609 452.122ZM495.409 450.732C496.3 450.327 496.84 449.53 496.84 448.504C496.84 447.208 496.003 446.358 494.599 446.358C493.505 446.358 492.668 446.885 492.291 447.762V443.861H490.468V453.31H492.291V449.989C492.291 448.734 492.952 447.951 493.883 447.951C494.504 447.951 494.936 448.275 494.936 448.882C494.936 449.584 494.342 450.097 493.411 450.097V451.272C494.302 451.42 494.99 452.135 495.152 453.31H497.299C497.029 452.081 496.34 451.191 495.409 450.732ZM502.977 447.478C502.464 446.763 501.695 446.358 500.736 446.358C498.941 446.358 497.672 447.789 497.672 449.935C497.672 452.081 498.954 453.512 500.75 453.512C501.708 453.512 502.477 453.107 502.977 452.405V453.31H504.813V443.861H502.977V447.478ZM501.33 451.933C500.277 451.933 499.575 451.137 499.575 449.935C499.575 448.734 500.277 447.937 501.33 447.937C502.369 447.937 503.071 448.734 503.071 449.935C503.071 451.137 502.369 451.933 501.33 451.933ZM509.342 453.512C511.475 453.512 512.892 452.081 512.892 449.935C512.892 447.789 511.475 446.358 509.342 446.358C507.21 446.358 505.792 447.789 505.792 449.935C505.792 452.081 507.21 453.512 509.342 453.512ZM509.342 451.933C508.357 451.933 507.695 451.137 507.695 449.935C507.695 448.72 508.357 447.937 509.342 447.937C510.328 447.937 510.989 448.72 510.989 449.935C510.989 451.137 510.328 451.933 509.342 451.933ZM520.596 451.488L519.408 446.561H517.465L516.223 451.582L514.967 446.561H513.024L515.035 453.31H517.276L518.423 448.828L519.57 453.31H521.811L523.809 446.561H521.892L520.596 451.488ZM528.607 446.358C527.581 446.358 526.784 446.885 526.393 447.762V446.561H524.571V453.31H526.393V449.989C526.393 448.734 527.027 447.883 527.905 447.883C528.958 447.883 528.958 448.842 528.958 449.476V453.31H530.793V449.463C530.793 448.531 530.793 446.358 528.607 446.358Z" fill="black"/>
<rect fill="#49DDB1" height="17" opacity="0.43" rx="8.5" width="41" x="125" y="102"/>
<path d="M140.805 107.4C140.581 108.072 139.909 108.728 139.053 108.784V109.8C139.749 109.752 140.365 109.424 140.821 108.872V113H141.981V107.4H140.805ZM146.799 110.736V107.4H145.367C144.815 108.688 143.903 109.8 142.751 110.728V111.672H145.647V113H146.799V111.672H147.647V110.736H146.799ZM145.647 110.736H144.111C144.743 110.16 145.255 109.512 145.647 108.816V110.736ZM148.778 113.088C149.17 113.088 149.466 112.792 149.466 112.392C149.466 111.992 149.17 111.688 148.778 111.688C148.37 111.688 148.074 111.992 148.074 112.392C148.074 112.792 148.37 113.088 148.778 113.088ZM151.547 107.4C151.323 108.072 150.651 108.728 149.795 108.784V109.8C150.491 109.752 151.107 109.424 151.563 108.872V113H152.723V107.4H151.547ZM154.925 107.208C155.373 107.208 155.712 107.365 155.941 107.68C156.176 107.989 156.293 108.427 156.293 108.992C156.293 109.557 156.184 110 155.965 110.32C155.746 110.635 155.4 110.792 154.925 110.792C154.632 110.792 154.384 110.72 154.181 110.576C153.984 110.432 153.834 110.227 153.733 109.96C153.632 109.688 153.581 109.365 153.581 108.992C153.581 108.427 153.688 107.989 153.901 107.68C154.114 107.365 154.456 107.208 154.925 107.208ZM154.933 108.024C154.805 108.024 154.712 108.104 154.653 108.264C154.594 108.424 154.565 108.669 154.565 109C154.565 109.325 154.594 109.571 154.653 109.736C154.712 109.901 154.805 109.984 154.933 109.984C155.061 109.984 155.154 109.901 155.213 109.736C155.277 109.571 155.309 109.325 155.309 109C155.309 108.669 155.277 108.424 155.213 108.264C155.154 108.104 155.061 108.024 154.933 108.024ZM158.981 107.288L155.813 113H154.877L158.045 107.288H158.981ZM158.925 109.488C159.224 109.488 159.474 109.56 159.677 109.704C159.88 109.843 160.032 110.045 160.133 110.312C160.24 110.573 160.293 110.893 160.293 111.272C160.293 111.837 160.184 112.28 159.965 112.6C159.746 112.915 159.4 113.072 158.925 113.072C158.632 113.072 158.384 113 158.181 112.856C157.984 112.712 157.834 112.507 157.733 112.24C157.632 111.968 157.581 111.645 157.581 111.272C157.581 110.707 157.688 110.269 157.901 109.96C158.114 109.645 158.456 109.488 158.925 109.488ZM158.933 110.304C158.805 110.304 158.712 110.384 158.653 110.544C158.594 110.704 158.565 110.949 158.565 111.28C158.565 111.605 158.594 111.851 158.653 112.016C158.712 112.181 158.805 112.264 158.933 112.264C159.061 112.264 159.154 112.184 159.213 112.024C159.277 111.859 159.309 111.611 159.309 111.28C159.309 110.949 159.277 110.704 159.213 110.544C159.154 110.384 159.061 110.304 158.933 110.304Z" fill="#137E5E"/>
<g clip-path="url(#clip0_48_3454)">
<path d="M133.349 113.637L133.349 109.359C133.349 109.347 133.353 109.334 133.36 109.324C133.368 109.314 133.378 109.306 133.39 109.301C133.402 109.297 133.414 109.296 133.427 109.299C133.439 109.302 133.45 109.309 133.459 109.318L135.359 111.477C135.423 111.545 135.51 111.586 135.604 111.59C135.697 111.594 135.788 111.562 135.858 111.501C135.928 111.439 135.972 111.353 135.979 111.26C135.987 111.167 135.958 111.074 135.899 111.002L133.439 108.207C133.383 108.143 133.314 108.092 133.236 108.057C133.159 108.022 133.074 108.004 132.989 108.004C132.904 108.004 132.82 108.022 132.742 108.057C132.665 108.092 132.596 108.143 132.539 108.207L130.08 111.002C130.022 111.074 129.993 111.166 130.001 111.259C130.009 111.351 130.053 111.437 130.122 111.498C130.192 111.56 130.283 111.592 130.376 111.588C130.468 111.584 130.556 111.544 130.62 111.477L132.52 109.317C132.529 109.308 132.54 109.301 132.552 109.298C132.564 109.295 132.577 109.296 132.589 109.301C132.601 109.305 132.611 109.313 132.618 109.323C132.626 109.334 132.63 109.346 132.63 109.359L132.63 113.637C132.632 113.731 132.671 113.82 132.738 113.885C132.806 113.951 132.896 113.988 132.99 113.988C133.083 113.988 133.174 113.951 133.241 113.885C133.308 113.82 133.347 113.731 133.35 113.637L133.349 113.637Z" fill="#137E5E"/>
</g>
<rect fill="#49DDB1" height="17" opacity="0.43" rx="8.5" width="44" x="295" y="102"/>
<path d="M313.613 109.312C313.613 108.12 312.797 107.28 311.477 107.28C310.157 107.28 309.333 108.112 309.333 109.288C309.333 109.736 309.453 110.08 309.653 110.392H310.861C310.645 110.072 310.525 109.72 310.525 109.336C310.525 108.712 310.837 108.256 311.485 108.256C312.109 108.256 312.421 108.696 312.421 109.344C312.421 110.472 311.477 111.136 309.413 112.088V113H313.605V112.056H311.205C312.469 111.528 313.613 110.704 313.613 109.312ZM317.71 110.032C318.15 109.776 318.398 109.36 318.398 108.84C318.398 107.912 317.598 107.28 316.462 107.28C315.198 107.28 314.318 108.056 314.518 109.144H315.694C315.574 108.632 315.894 108.256 316.446 108.256C316.91 108.256 317.214 108.504 317.214 108.904C317.214 109.352 316.862 109.632 316.366 109.632H315.934V110.496H316.366C316.998 110.496 317.422 110.824 317.422 111.336C317.422 111.816 317.03 112.144 316.462 112.144C315.79 112.144 315.382 111.672 315.526 111.04H314.334C314.126 112.28 315.054 113.12 316.446 113.12C317.734 113.12 318.614 112.4 318.614 111.384C318.614 110.768 318.302 110.304 317.71 110.032ZM319.926 113.088C320.318 113.088 320.614 112.792 320.614 112.392C320.614 111.992 320.318 111.688 319.926 111.688C319.518 111.688 319.222 111.992 319.222 112.392C319.222 112.792 319.518 113.088 319.926 113.088ZM323.528 109.144C323.136 109.144 322.816 109.232 322.552 109.408C322.624 109.08 322.672 108.728 322.704 108.344H325.232V107.4H321.648C321.648 108.248 321.496 109.28 321.224 110.056L322.36 110.456C322.536 110.224 322.856 110.072 323.256 110.072C323.936 110.072 324.32 110.52 324.32 111.12C324.32 111.712 323.952 112.144 323.32 112.144C322.688 112.144 322.32 111.72 322.456 111.096H321.264C321.056 112.256 321.968 113.12 323.304 113.12C324.624 113.12 325.504 112.28 325.504 111.096C325.504 109.992 324.752 109.144 323.528 109.144ZM327.441 107.208C327.889 107.208 328.227 107.365 328.457 107.68C328.691 107.989 328.809 108.427 328.809 108.992C328.809 109.557 328.699 110 328.481 110.32C328.262 110.635 327.915 110.792 327.441 110.792C327.147 110.792 326.899 110.72 326.697 110.576C326.499 110.432 326.35 110.227 326.249 109.96C326.147 109.688 326.097 109.365 326.097 108.992C326.097 108.427 326.203 107.989 326.417 107.68C326.63 107.365 326.971 107.208 327.441 107.208ZM327.449 108.024C327.321 108.024 327.227 108.104 327.169 108.264C327.11 108.424 327.081 108.669 327.081 109C327.081 109.325 327.11 109.571 327.169 109.736C327.227 109.901 327.321 109.984 327.449 109.984C327.577 109.984 327.67 109.901 327.729 109.736C327.793 109.571 327.825 109.325 327.825 109C327.825 108.669 327.793 108.424 327.729 108.264C327.67 108.104 327.577 108.024 327.449 108.024ZM331.497 107.288L328.329 113H327.393L330.561 107.288H331.497ZM331.441 109.488C331.739 109.488 331.99 109.56 332.193 109.704C332.395 109.843 332.547 110.045 332.649 110.312C332.755 110.573 332.809 110.893 332.809 111.272C332.809 111.837 332.699 112.28 332.481 112.6C332.262 112.915 331.915 113.072 331.441 113.072C331.147 113.072 330.899 113 330.697 112.856C330.499 112.712 330.35 112.507 330.249 112.24C330.147 111.968 330.097 111.645 330.097 111.272C330.097 110.707 330.203 110.269 330.417 109.96C330.63 109.645 330.971 109.488 331.441 109.488ZM331.449 110.304C331.321 110.304 331.227 110.384 331.169 110.544C331.11 110.704 331.081 110.949 331.081 111.28C331.081 111.605 331.11 111.851 331.169 112.016C331.227 112.181 331.321 112.264 331.449 112.264C331.577 112.264 331.67 112.184 331.729 112.024C331.793 111.859 331.825 111.611 331.825 111.28C331.825 110.949 331.793 110.704 331.729 110.544C331.67 110.384 331.577 110.304 331.449 110.304Z" fill="#137E5E"/>
<g clip-path="url(#clip1_48_3454)">
<path d="M303.349 113.637L303.349 109.359C303.349 109.347 303.353 109.334 303.36 109.324C303.368 109.314 303.378 109.306 303.39 109.301C303.402 109.297 303.414 109.296 303.427 109.299C303.439 109.302 303.45 109.309 303.459 109.318L305.359 111.477C305.423 111.545 305.51 111.586 305.604 111.59C305.697 111.594 305.788 111.562 305.858 111.501C305.928 111.439 305.972 111.353 305.979 111.26C305.987 111.167 305.958 111.074 305.899 111.002L303.439 108.207C303.383 108.143 303.314 108.092 303.236 108.057C303.159 108.022 303.074 108.004 302.989 108.004C302.904 108.004 302.82 108.022 302.742 108.057C302.665 108.092 302.596 108.143 302.539 108.207L300.08 111.002C300.022 111.074 299.993 111.166 300.001 111.259C300.009 111.351 300.053 111.437 300.122 111.498C300.192 111.56 300.283 111.592 300.376 111.588C300.468 111.584 300.556 111.544 300.62 111.477L302.52 109.317C302.529 109.308 302.54 109.301 302.552 109.298C302.564 109.295 302.577 109.296 302.589 109.301C302.601 109.305 302.611 109.313 302.618 109.323C302.626 109.334 302.63 109.346 302.63 109.359L302.63 113.637C302.632 113.731 302.671 113.82 302.738 113.885C302.806 113.951 302.896 113.988 302.99 113.988C303.083 113.988 303.174 113.951 303.241 113.885C303.308 113.82 303.347 113.731 303.35 113.637L303.349 113.637Z" fill="#137E5E"/>
</g>
<rect fill="#49DDB1" height="17" opacity="0.43" rx="8.5" width="39" x="450" y="102"/>
<path d="M466.949 109.376C466.285 109.376 465.805 109.648 465.525 110.04C465.565 108.912 466.005 108.256 466.733 108.256C467.253 108.256 467.589 108.6 467.461 109.088H468.645C468.845 108.032 468.077 107.28 466.837 107.28C465.325 107.28 464.333 108.344 464.333 110.192C464.333 112.048 465.333 113.12 466.741 113.12C467.901 113.12 468.861 112.376 468.861 111.2C468.861 110.144 468.085 109.376 466.949 109.376ZM466.741 112.144C466.205 112.144 465.821 111.776 465.821 111.264C465.821 110.728 466.213 110.352 466.749 110.352C467.277 110.352 467.669 110.72 467.669 111.248C467.669 111.768 467.277 112.144 466.741 112.144ZM470.176 113.088C470.568 113.088 470.864 112.792 470.864 112.392C470.864 111.992 470.568 111.688 470.176 111.688C469.768 111.688 469.472 111.992 469.472 112.392C469.472 112.792 469.768 113.088 470.176 113.088ZM471.071 108.344H473.959C472.871 109.728 472.303 111.28 472.199 113H473.415C473.535 111.096 474.239 109.504 475.271 108.256V107.4H471.071V108.344ZM477.066 107.208C477.514 107.208 477.852 107.365 478.082 107.68C478.316 107.989 478.434 108.427 478.434 108.992C478.434 109.557 478.324 110 478.106 110.32C477.887 110.635 477.54 110.792 477.066 110.792C476.772 110.792 476.524 110.72 476.322 110.576C476.124 110.432 475.975 110.227 475.874 109.96C475.772 109.688 475.722 109.365 475.722 108.992C475.722 108.427 475.828 107.989 476.042 107.68C476.255 107.365 476.596 107.208 477.066 107.208ZM477.074 108.024C476.946 108.024 476.852 108.104 476.794 108.264C476.735 108.424 476.706 108.669 476.706 109C476.706 109.325 476.735 109.571 476.794 109.736C476.852 109.901 476.946 109.984 477.074 109.984C477.202 109.984 477.295 109.901 477.354 109.736C477.418 109.571 477.45 109.325 477.45 109C477.45 108.669 477.418 108.424 477.354 108.264C477.295 108.104 477.202 108.024 477.074 108.024ZM481.122 107.288L477.954 113H477.018L480.186 107.288H481.122ZM481.066 109.488C481.364 109.488 481.615 109.56 481.818 109.704C482.02 109.843 482.172 110.045 482.274 110.312C482.38 110.573 482.434 110.893 482.434 111.272C482.434 111.837 482.324 112.28 482.106 112.6C481.887 112.915 481.54 113.072 481.066 113.072C480.772 113.072 480.524 113 480.322 112.856C480.124 112.712 479.975 112.507 479.874 112.24C479.772 111.968 479.722 111.645 479.722 111.272C479.722 110.707 479.828 110.269 480.042 109.96C480.255 109.645 480.596 109.488 481.066 109.488ZM481.074 110.304C480.946 110.304 480.852 110.384 480.794 110.544C480.735 110.704 480.706 110.949 480.706 111.28C480.706 111.605 480.735 111.851 480.794 112.016C480.852 112.181 480.946 112.264 481.074 112.264C481.202 112.264 481.295 112.184 481.354 112.024C481.418 111.859 481.45 111.611 481.45 111.28C481.45 110.949 481.418 110.704 481.354 110.544C481.295 110.384 481.202 110.304 481.074 110.304Z" fill="#137E5E"/>
<g clip-path="url(#clip2_48_3454)">
<path d="M458.349 113.637L458.349 109.359C458.349 109.347 458.353 109.334 458.36 109.324C458.368 109.314 458.378 109.306 458.39 109.301C458.402 109.297 458.414 109.296 458.427 109.299C458.439 109.302 458.45 109.309 458.459 109.318L460.359 111.477C460.423 111.545 460.51 111.586 460.604 111.59C460.697 111.594 460.788 111.562 460.858 111.501C460.928 111.439 460.972 111.353 460.979 111.26C460.987 111.167 460.958 111.074 460.899 111.002L458.439 108.207C458.383 108.143 458.314 108.092 458.236 108.057C458.159 108.022 458.074 108.004 457.989 108.004C457.904 108.004 457.82 108.022 457.742 108.057C457.665 108.092 457.596 108.143 457.539 108.207L455.08 111.002C455.022 111.074 454.993 111.166 455.001 111.259C455.009 111.351 455.053 111.437 455.122 111.498C455.192 111.56 455.283 111.592 455.376 111.588C455.468 111.584 455.556 111.544 455.62 111.477L457.52 109.317C457.529 109.308 457.54 109.301 457.552 109.298C457.564 109.295 457.577 109.296 457.589 109.301C457.601 109.305 457.611 109.313 457.618 109.323C457.626 109.334 457.63 109.346 457.63 109.359L457.63 113.637C457.632 113.731 457.671 113.82 457.738 113.885C457.806 113.951 457.896 113.988 457.99 113.988C458.083 113.988 458.174 113.951 458.241 113.885C458.308 113.82 458.347 113.731 458.35 113.637L458.349 113.637Z" fill="#137E5E"/>
</g>
<path d="M482.5 485C496.784 485 510.497 490.608 520.688 500.616C530.879 510.625 536.733 524.234 536.991 538.516C537.249 552.797 531.89 566.609 522.067 576.979C512.244 587.349 498.743 593.449 484.468 593.964C470.194 594.48 456.287 589.372 445.742 579.738C435.196 570.104 428.854 556.715 428.08 542.452C427.306 528.189 432.163 514.192 441.605 503.474C451.047 492.756 464.319 486.173 478.566 485.142L482.5 539.5L482.5 485Z" fill="#FF73E3"/>
<defs>
<linearGradient gradientUnits="userSpaceOnUse" id="paint0_linear_48_3454" x1="282" x2="282" y1="212" y2="359">
<stop stop-color="#FF72E0"/>
<stop offset="1" stop-color="#FF72E0" stop-opacity="0"/>
</linearGradient>
<clipPath id="clip0_48_3454">
<rect fill="white" height="6" transform="translate(136 108) rotate(90)" width="6"/>
</clipPath>
<clipPath id="clip1_48_3454">
<rect fill="white" height="6" transform="translate(306 108) rotate(90)" width="6"/>
</clipPath>
<clipPath id="clip2_48_3454">
<rect fill="white" height="6" transform="translate(461 108) rotate(90)" width="6"/>
</clipPath>
</defs>
</svg>