<?xml version="1.0" encoding="utf-8"?>
<svg xmlns="http://www.w3.org/2000/svg" fill="none" height="442" viewBox="0 0 491 442" width="491">
<g filter="url(#filter0_d_12_600)">
<rect fill="white" height="431.169" rx="13.7909" width="480.035" x="1.20285" y="1.26709"/>
<rect height="432.169" rx="14.2909" stroke="black" width="481.035" x="0.70285" y="0.76709"/>
</g>
<mask height="432" id="mask0_12_600" maskUnits="userSpaceOnUse" style="mask-type:alpha" width="481" x="1" y="1">
<rect fill="white" height="431.169" rx="13.7909" width="480.035" x="1.20285" y="1.26709"/>
</mask>
<g mask="url(#mask0_12_600)">
<path d="M45.9165 53.0723V43.4186H43.9306V53.0723H45.9165ZM51.7487 45.9699C50.7006 45.9699 49.8869 46.5078 49.487 47.4042V46.1768H47.6252V53.0723H49.487V49.6797C49.487 48.3971 50.1351 47.5283 51.0316 47.5283C52.1073 47.5283 52.1073 48.5075 52.1073 49.1556V53.0723H53.9828V49.1418C53.9828 48.1903 53.9828 45.9699 51.7487 45.9699ZM59.4275 45.9699C58.3932 45.9699 57.5796 46.425 57.0693 47.2249V43.4186H55.2075V53.0723H57.0693V52.0379C57.5796 52.824 58.3794 53.2791 59.4 53.2791C61.248 53.2791 62.5719 51.8173 62.5719 49.6245C62.5719 47.4318 61.2617 45.9699 59.4275 45.9699ZM58.8483 51.6656C57.7726 51.6656 57.0693 50.8519 57.0693 49.6245C57.0693 48.3971 57.7726 47.5835 58.8483 47.5835C59.9102 47.5835 60.6412 48.3833 60.6412 49.6245C60.6412 50.8519 59.924 51.6656 58.8483 51.6656ZM66.9215 53.2791C69.1005 53.2791 70.5485 51.8173 70.5485 49.6245C70.5485 47.4318 69.1005 45.9699 66.9215 45.9699C64.7426 45.9699 63.2945 47.4318 63.2945 49.6245C63.2945 51.8173 64.7426 53.2791 66.9215 53.2791ZM66.9215 51.6656C65.9148 51.6656 65.239 50.8519 65.239 49.6245C65.239 48.3833 65.9148 47.5835 66.9215 47.5835C67.9283 47.5835 68.604 48.3833 68.604 49.6245C68.604 50.8519 67.9283 51.6656 66.9215 51.6656ZM75.347 49.459L77.6225 46.1768H75.485L74.2024 48.1765L72.8785 46.1768H70.8236L73.0991 49.459L70.534 53.0723H72.644L74.2024 50.7554L75.747 53.0723H77.9122L75.347 49.459Z" fill="black"/>
<g clip-path="url(#clip0_12_600)">
<path d="M36.3259 48.166L34.1197 44.2136C33.9989 43.9951 33.822 43.8128 33.6073 43.6854C33.3925 43.5579 33.1478 43.49 32.8981 43.4885H22.6894C22.44 43.4896 22.1954 43.5571 21.9807 43.684C21.766 43.811 21.589 43.9928 21.4678 44.2107L19.2616 48.166C19.2093 48.2759 19.1777 48.3946 19.1682 48.516V52.8276C19.1682 53.1135 19.2818 53.3877 19.4839 53.5899C19.6861 53.792 19.9603 53.9056 20.2462 53.9056H35.3371C35.623 53.9056 35.8971 53.792 36.0993 53.5899C36.3014 53.3877 36.415 53.1135 36.415 52.8276V48.516C36.4099 48.3944 36.3796 48.2752 36.3259 48.166V48.166ZM22.6391 45.0156C22.6545 44.9875 22.6772 44.964 22.7047 44.9477C22.7323 44.9314 22.7638 44.9228 22.7958 44.9229L32.7594 44.9114C32.7914 44.9113 32.8228 44.9197 32.8503 44.9359C32.8779 44.9521 32.9006 44.9754 32.9161 45.0034L34.5265 47.8893C34.5418 47.9167 34.5496 47.9475 34.5493 47.9788C34.549 48.0101 34.5405 48.0408 34.5247 48.0678C34.5088 48.0948 34.4862 48.1173 34.4591 48.1328C34.4319 48.1484 34.4011 48.1566 34.3698 48.1566H31.744C31.6024 48.1562 31.4621 48.1839 31.3312 48.238C31.2003 48.2922 31.0815 48.3718 30.9815 48.4721C30.7801 48.6748 30.6667 48.9488 30.6661 49.2346C30.6661 49.5205 30.5525 49.7946 30.3504 49.9968C30.1482 50.1989 29.874 50.3125 29.5881 50.3125H25.9951C25.7092 50.3125 25.435 50.1989 25.2329 49.9968C25.0307 49.7946 24.9172 49.5205 24.9172 49.2346C24.9172 48.9487 24.8036 48.6745 24.6014 48.4724C24.3993 48.2702 24.1251 48.1566 23.8392 48.1566H21.212C21.1808 48.1565 21.1502 48.1482 21.1231 48.1327C21.0961 48.1171 21.0735 48.0948 21.0577 48.068C21.0418 48.0411 21.0332 48.0106 21.0327 47.9794C21.0321 47.9482 21.0397 47.9174 21.0546 47.89L22.6391 45.0156Z" fill="black"/>
</g>
<path d="M21.0915 81.5332H183.964C186.734 81.5332 188.98 83.7791 188.98 86.5496V143.067C188.98 145.837 186.734 148.083 183.964 148.083H21.0915C18.3211 148.083 16.0752 145.837 16.0752 143.067V86.5496C16.0752 83.7791 18.3211 81.5332 21.0915 81.5332Z" fill="#FF73E3" stroke="black"/>
<path d="M34.5925 102.531L31.7688 95.2908H29.9588L27.1454 102.531H28.7383L29.2865 101.083H32.5135L33.0617 102.531H34.5925ZM30.9 96.7802L32.0584 99.8625H29.7416L30.9 96.7802ZM36.9443 102.531V95.2908H35.4549V102.531H36.9443ZM43.8042 102.686C45.6039 102.686 46.7624 101.807 46.7624 100.349C46.7624 97.5456 42.4079 98.8799 42.4079 97.2663C42.4079 96.7181 42.9147 96.3665 43.7111 96.3665C44.673 96.3665 45.2005 96.8526 45.0764 97.7007H46.5762C46.7624 96.1596 45.6246 95.1356 43.7421 95.1356C42.0148 95.1356 40.8978 95.9941 40.8978 97.4318C40.8978 100.276 45.2419 98.9005 45.2419 100.514C45.2419 101.073 44.7144 101.455 43.8352 101.455C42.8216 101.455 42.2527 100.959 42.3044 100.111H40.8047C40.6806 101.683 41.8907 102.686 43.8042 102.686ZM51.0063 97.2043C50.2409 97.2043 49.641 97.5456 49.2583 98.1351V97.3594H47.862V104.6H49.2583V101.755C49.641 102.345 50.2409 102.686 51.0167 102.686C52.3923 102.686 53.3853 101.59 53.3853 99.9452C53.3853 98.3006 52.3923 97.2043 51.0063 97.2043ZM50.5926 101.486C49.7858 101.486 49.2583 100.866 49.2583 99.9452C49.2583 99.0247 49.7858 98.4144 50.5926 98.4144C51.389 98.4144 51.9372 99.0247 51.9372 99.9452C51.9372 100.866 51.389 101.486 50.5926 101.486ZM56.6475 102.686C58.2817 102.686 59.3677 101.59 59.3677 99.9452C59.3677 98.3006 58.2817 97.2043 56.6475 97.2043C55.0133 97.2043 53.9272 98.3006 53.9272 99.9452C53.9272 101.59 55.0133 102.686 56.6475 102.686ZM56.6475 101.476C55.8924 101.476 55.3856 100.866 55.3856 99.9452C55.3856 99.0143 55.8924 98.4144 56.6475 98.4144C57.4025 98.4144 57.9094 99.0143 57.9094 99.9452C57.9094 100.866 57.4025 101.476 56.6475 101.476ZM63.6208 97.3594H62.1417V95.9527H60.7351V97.3594H59.7111V98.5592H60.7351V100.824C60.7351 101.486 60.8592 102.686 62.5038 102.686C62.9278 102.686 63.2692 102.603 63.5174 102.469V101.248C63.2588 101.393 63.0623 101.476 62.7727 101.476C62.2452 101.476 62.1417 101.186 62.1417 100.814V98.5592H63.6208V97.3594ZM65.7541 102.531V95.2908H64.3578V102.531H65.7541ZM67.556 96.6974C68.0318 96.6974 68.3938 96.3354 68.3938 95.8596C68.3938 95.3838 68.0318 95.0218 67.556 95.0218C67.0802 95.0218 66.7182 95.3838 66.7182 95.8596C66.7182 96.3354 67.0802 96.6974 67.556 96.6974ZM68.249 102.531V97.3594H66.8423V102.531H68.249ZM72.3678 101.373C73.3607 100.814 73.9089 99.9866 73.9089 99.1384C73.9089 98.8799 73.8572 98.642 73.7641 98.4248C74.1882 98.011 74.4054 97.318 74.2916 96.7181H73.247C73.3297 97.0698 73.3711 97.4628 73.278 97.7731C72.8643 97.4111 72.254 97.2043 71.5093 97.2043C70.0613 97.2043 69.0993 97.9903 69.0993 99.1384C69.0993 100.224 69.9578 100.917 71.2197 100.917C71.4679 100.917 71.6955 100.886 71.9023 100.835C71.4472 101.155 70.7956 101.393 69.9268 101.497V102.417C70.4026 102.293 70.9611 102.21 71.4162 102.21C72.2437 102.21 72.6367 102.5 72.6367 102.903C72.6367 103.317 72.192 103.545 71.6127 103.545C71.0232 103.545 70.6198 103.317 70.5267 102.914H68.9649C69.1821 104.051 70.2474 104.755 71.6231 104.755C73.0194 104.755 74.1054 104.041 74.1054 102.976C74.1054 102.117 73.4228 101.528 72.3678 101.373ZM70.5577 99.1591C70.5577 98.7144 70.9404 98.4144 71.5093 98.4144C72.0782 98.4144 72.4505 98.7144 72.4505 99.1591C72.4505 99.6039 72.0782 99.9038 71.5093 99.9038C70.9404 99.9038 70.5577 99.6039 70.5577 99.1591ZM78.0442 97.2043C77.2581 97.2043 76.6582 97.5973 76.3789 98.2593V95.2908H74.9826V102.531H76.3789V99.9866C76.3789 99.0247 76.8651 98.373 77.527 98.373C78.0649 98.373 78.3441 98.7868 78.3441 99.4177V102.531H79.7508V99.4177C79.7508 98.0317 79.1819 97.2043 78.0442 97.2043ZM84.085 97.3594H82.606V95.9527H81.1993V97.3594H80.1753V98.5592H81.1993V100.824C81.1993 101.486 81.3234 102.686 82.968 102.686C83.392 102.686 83.7334 102.603 83.9816 102.469V101.248C83.723 101.393 83.5265 101.476 83.2369 101.476C82.7094 101.476 82.606 101.186 82.606 100.814V98.5592H84.085V97.3594Z" fill="white"/>
<path d="M33.5899 117.778L31.1427 111.503H29.574L27.1358 117.778H28.5162L28.9913 116.523H31.7881L32.2632 117.778H33.5899ZM30.3897 112.794L31.3937 115.465H29.3858L30.3897 112.794ZM35.6281 117.778V111.503H34.3373V117.778H35.6281ZM43.2497 116.155L41.0086 111.503H39.1082V117.778H40.3991V112.874L42.7566 117.778H44.5405V111.503H43.2497V116.155ZM48.7609 116.326C48.6175 116.675 48.2858 116.863 47.8376 116.863C47.1922 116.863 46.8247 116.478 46.735 115.833H49.8814C50.3565 114.38 49.4512 113.161 47.8197 113.161C46.3944 113.161 45.4532 114.112 45.4532 115.537C45.4532 116.962 46.3765 117.912 47.8197 117.912C48.985 117.912 49.8187 117.294 50.0876 116.326H48.7609ZM47.8107 114.174C48.4472 114.174 48.7609 114.533 48.7071 115.071H46.753C46.8695 114.488 47.237 114.174 47.8107 114.174ZM55.3192 116.568L54.5304 113.296H53.2395L52.4148 116.63L51.5812 113.296H50.2904L51.626 117.778H53.114L53.876 114.802L54.6379 117.778H56.126L57.4527 113.296H56.1798L55.3192 116.568ZM59.7184 117.912C60.9286 117.912 61.7802 117.365 61.7802 116.433C61.7802 114.721 58.9386 115.366 58.9386 114.578C58.9386 114.327 59.2075 114.12 59.6646 114.12C60.2115 114.12 60.5521 114.416 60.4445 114.856H61.6278C61.8071 113.798 60.8927 113.161 59.6646 113.161C58.5262 113.161 57.6836 113.717 57.6836 114.64C57.6836 116.344 60.5252 115.743 60.5252 116.505C60.5252 116.774 60.1935 116.953 59.7184 116.953C59.1268 116.953 58.7772 116.675 58.8041 116.227H57.6298C57.5939 117.267 58.4186 117.912 59.7184 117.912ZM63.678 117.778V111.503H62.4679V117.778H63.678ZM67.6959 116.326C67.5524 116.675 67.2208 116.863 66.7726 116.863C66.1271 116.863 65.7596 116.478 65.67 115.833H68.8164C69.2915 114.38 68.3861 113.161 66.7546 113.161C65.3293 113.161 64.3881 114.112 64.3881 115.537C64.3881 116.962 65.3114 117.912 66.7546 117.912C67.92 117.912 68.7536 117.294 69.0226 116.326H67.6959ZM66.7457 114.174C67.3821 114.174 67.6959 114.533 67.6421 115.071H65.6879C65.8044 114.488 66.172 114.174 66.7457 114.174ZM72.6317 113.296H71.3498V112.077H70.1307V113.296H69.2432V114.336H70.1307V116.299C70.1307 116.872 70.2382 117.912 71.6635 117.912C72.0311 117.912 72.3269 117.841 72.542 117.724V116.666C72.3179 116.792 72.1476 116.863 71.8966 116.863C71.4394 116.863 71.3498 116.612 71.3498 116.29V114.336H72.6317V113.296ZM76.2471 113.296H74.9652V112.077H73.7461V113.296H72.8586V114.336H73.7461V116.299C73.7461 116.872 73.8536 117.912 75.2789 117.912C75.6465 117.912 75.9423 117.841 76.1574 117.724V116.666C75.9333 116.792 75.763 116.863 75.512 116.863C75.0548 116.863 74.9652 116.612 74.9652 116.29V114.336H76.2471V113.296ZM79.9515 116.326C79.8081 116.675 79.4764 116.863 79.0282 116.863C78.3828 116.863 78.0152 116.478 77.9256 115.833H81.072C81.5471 114.38 80.6417 113.161 79.0103 113.161C77.585 113.161 76.6437 114.112 76.6437 115.537C76.6437 116.962 77.567 117.912 79.0103 117.912C80.1756 117.912 81.0093 117.294 81.2782 116.326H79.9515ZM79.0013 114.174C79.6377 114.174 79.9515 114.533 79.8977 115.071H77.9435C78.0601 114.488 78.4276 114.174 79.0013 114.174ZM84.4097 113.161C83.827 113.161 83.3878 113.493 83.1547 114.058V113.296H81.9445V117.778H83.1547V115.573C83.1547 114.748 83.4774 114.219 83.9166 114.219C84.2125 114.219 84.4007 114.443 84.4007 114.793C84.4007 115.035 84.3111 115.295 84.1407 115.582H85.4047C85.5571 115.277 85.6467 114.909 85.6467 114.551C85.6467 113.717 85.1627 113.161 84.4097 113.161ZM88.0727 117.912C89.2829 117.912 90.1344 117.365 90.1344 116.433C90.1344 114.721 87.2928 115.366 87.2928 114.578C87.2928 114.327 87.5617 114.12 88.0189 114.12C88.5657 114.12 88.9064 114.416 88.7988 114.856H89.9821C90.1613 113.798 89.247 113.161 88.0189 113.161C86.8805 113.161 86.0378 113.717 86.0378 114.64C86.0378 116.344 88.8795 115.743 88.8795 116.505C88.8795 116.774 88.5478 116.953 88.0727 116.953C87.4811 116.953 87.1315 116.675 87.1584 116.227H85.9841C85.9482 117.267 86.7729 117.912 88.0727 117.912ZM95.0562 117.912C96.4725 117.912 97.4137 116.962 97.4137 115.537C97.4137 114.112 96.4725 113.161 95.0562 113.161C93.6398 113.161 92.6986 114.112 92.6986 115.537C92.6986 116.962 93.6398 117.912 95.0562 117.912ZM95.0562 116.863C94.4018 116.863 93.9625 116.335 93.9625 115.537C93.9625 114.73 94.4018 114.21 95.0562 114.21C95.7105 114.21 96.1498 114.73 96.1498 115.537C96.1498 116.335 95.7105 116.863 95.0562 116.863ZM101.362 112.865C101.568 111.978 101.165 111.368 100.125 111.368C99.1387 111.368 98.5739 111.924 98.5739 112.865V113.296H97.6775V114.336H98.5739V117.778H99.7931V114.336H101.353V113.296H99.7931V112.865C99.7931 112.543 99.8917 112.355 100.107 112.355C100.322 112.355 100.403 112.543 100.304 112.865H101.362ZM107.07 113.296H105.788V112.077H104.569V113.296H103.682V114.336H104.569V116.299C104.569 116.872 104.677 117.912 106.102 117.912C106.469 117.912 106.765 117.841 106.98 117.724V116.666C106.756 116.792 106.586 116.863 106.335 116.863C105.878 116.863 105.788 116.612 105.788 116.29V114.336H107.07V113.296ZM110.317 113.161C109.636 113.161 109.116 113.502 108.874 114.076V111.503H107.664V117.778H108.874V115.573C108.874 114.739 109.295 114.174 109.869 114.174C110.335 114.174 110.577 114.533 110.577 115.08V117.778H111.796V115.08C111.796 113.878 111.303 113.161 110.317 113.161ZM115.703 116.326C115.559 116.675 115.228 116.863 114.78 116.863C114.134 116.863 113.767 116.478 113.677 115.833H116.823C117.299 114.38 116.393 113.161 114.762 113.161C113.336 113.161 112.395 114.112 112.395 115.537C112.395 116.962 113.318 117.912 114.762 117.912C115.927 117.912 116.761 117.294 117.03 116.326H115.703ZM114.753 114.174C115.389 114.174 115.703 114.533 115.649 115.071H113.695C113.811 114.488 114.179 114.174 114.753 114.174ZM125.838 116.344L124.745 111.503H123.194L122.109 116.362L120.792 111.503H119.447L121.293 117.778H122.808L123.956 112.749L125.139 117.778H126.645L128.492 111.503H127.147L125.838 116.344ZM131.732 116.326C131.588 116.675 131.256 116.863 130.808 116.863C130.163 116.863 129.795 116.478 129.706 115.833H132.852C133.327 114.38 132.422 113.161 130.79 113.161C129.365 113.161 128.424 114.112 128.424 115.537C128.424 116.962 129.347 117.912 130.79 117.912C131.956 117.912 132.789 117.294 133.058 116.326H131.732ZM130.781 114.174C131.418 114.174 131.732 114.533 131.678 115.071H129.724C129.84 114.488 130.208 114.174 130.781 114.174ZM136.835 116.326C136.692 116.675 136.36 116.863 135.912 116.863C135.266 116.863 134.899 116.478 134.809 115.833H137.956C138.431 114.38 137.525 113.161 135.894 113.161C134.469 113.161 133.527 114.112 133.527 115.537C133.527 116.962 134.451 117.912 135.894 117.912C137.059 117.912 137.893 117.294 138.162 116.326H136.835ZM135.885 114.174C136.521 114.174 136.835 114.533 136.781 115.071H134.827C134.944 114.488 135.311 114.174 135.885 114.174ZM142.109 116.066C142.701 115.797 143.059 115.268 143.059 114.587C143.059 113.726 142.503 113.161 141.571 113.161C140.845 113.161 140.289 113.511 140.038 114.094V111.503H138.828V117.778H140.038V115.573C140.038 114.739 140.478 114.219 141.096 114.219C141.508 114.219 141.795 114.434 141.795 114.838C141.795 115.304 141.401 115.644 140.782 115.644V116.424C141.374 116.523 141.831 116.998 141.939 117.778H143.364C143.185 116.962 142.728 116.37 142.109 116.066Z" fill="white"/>
<path d="M27.073 129.899H118.337" stroke="white" stroke-width="0.689547"/>
<path d="M27.073 137.085H147.082" stroke="white" stroke-width="0.689547"/>
<path d="M31.2413 173.111C33.1135 173.111 34.4581 172.004 34.7063 170.266H33.1238C32.9687 171.166 32.2757 171.849 31.2413 171.849C29.9484 171.849 29.0589 170.783 29.0589 169.325C29.0589 167.929 29.8967 166.822 31.2207 166.822C32.3274 166.822 33.0514 167.587 32.8445 168.777H34.3857C34.696 166.946 33.2583 165.56 31.2 165.56C29.0279 165.56 27.5178 167.132 27.5178 169.325C27.5178 171.435 28.9348 173.111 31.2413 173.111ZM36.2436 167.122C36.7194 167.122 37.0814 166.76 37.0814 166.284C37.0814 165.808 36.7194 165.446 36.2436 165.446C35.7678 165.446 35.4058 165.808 35.4058 166.284C35.4058 166.76 35.7678 167.122 36.2436 167.122ZM36.9366 172.956V167.784H35.5299V172.956H36.9366ZM40.8278 167.629C40.1555 167.629 39.6487 168.012 39.3798 168.663V167.784H37.9834V172.956H39.3798V170.411C39.3798 169.46 39.7521 168.849 40.2589 168.849C40.6003 168.849 40.8175 169.108 40.8175 169.511C40.8175 169.791 40.714 170.09 40.5175 170.421H41.9759C42.1517 170.07 42.2552 169.646 42.2552 169.232C42.2552 168.27 41.6966 167.629 40.8278 167.629ZM45.3548 173.111C46.8029 173.111 47.7234 172.263 48.0027 171.125H46.4719C46.2754 171.601 45.903 171.901 45.3755 171.901C44.6101 171.901 44.0929 171.301 44.0929 170.359C44.0929 169.429 44.5894 168.839 45.3858 168.839C46.1616 168.839 46.5546 169.398 46.3581 170.37H47.7441C48.1992 168.725 47.0614 167.629 45.3858 167.629C43.7102 167.629 42.6345 168.715 42.6345 170.37C42.6345 172.014 43.7206 173.111 45.3548 173.111ZM50.1888 172.956V165.715H48.7925V172.956H50.1888ZM54.8247 171.28C54.6593 171.683 54.2766 171.901 53.7594 171.901C53.0147 171.901 52.5906 171.456 52.4872 170.711H56.1177C56.6658 169.035 55.6212 167.629 53.7387 167.629C52.0941 167.629 51.0081 168.725 51.0081 170.37C51.0081 172.014 52.0735 173.111 53.7387 173.111C55.0833 173.111 56.0452 172.397 56.3555 171.28H54.8247ZM53.7284 168.798C54.4627 168.798 54.8247 169.211 54.7627 169.832H52.5079C52.6423 169.16 53.0664 168.798 53.7284 168.798Z" fill="black"/>
<path d="M33.5899 188.202L31.1427 181.928H29.574L27.1358 188.202H28.5162L28.9913 186.947H31.7881L32.2632 188.202H33.5899ZM30.3897 183.218L31.3937 185.89H29.3858L30.3897 183.218ZM35.6281 188.202V181.928H34.3373V188.202H35.6281ZM43.2497 186.58L41.0086 181.928H39.1082V188.202H40.3991V183.299L42.7566 188.202H44.5405V181.928H43.2497V186.58ZM48.7609 186.75C48.6175 187.1 48.2858 187.288 47.8376 187.288C47.1922 187.288 46.8247 186.903 46.735 186.257H49.8814C50.3565 184.805 49.4512 183.586 47.8197 183.586C46.3944 183.586 45.4532 184.536 45.4532 185.961C45.4532 187.387 46.3765 188.337 47.8197 188.337C48.985 188.337 49.8187 187.718 50.0876 186.75H48.7609ZM47.8107 184.599C48.4472 184.599 48.7609 184.957 48.7071 185.495H46.753C46.8695 184.913 47.237 184.599 47.8107 184.599ZM55.3192 186.992L54.5304 183.72H53.2395L52.4148 187.055L51.5812 183.72H50.2904L51.626 188.202H53.114L53.876 185.226L54.6379 188.202H56.126L57.4527 183.72H56.1798L55.3192 186.992ZM59.7184 188.337C60.9286 188.337 61.7802 187.79 61.7802 186.858C61.7802 185.146 58.9386 185.791 58.9386 185.002C58.9386 184.751 59.2075 184.545 59.6646 184.545C60.2115 184.545 60.5521 184.841 60.4445 185.28H61.6278C61.8071 184.222 60.8927 183.586 59.6646 183.586C58.5262 183.586 57.6836 184.142 57.6836 185.065C57.6836 186.768 60.5252 186.168 60.5252 186.929C60.5252 187.198 60.1935 187.378 59.7184 187.378C59.1268 187.378 58.7772 187.1 58.8041 186.652H57.6298C57.5939 187.691 58.4186 188.337 59.7184 188.337ZM63.678 188.202V181.928H62.4679V188.202H63.678ZM67.6959 186.75C67.5524 187.1 67.2208 187.288 66.7726 187.288C66.1271 187.288 65.7596 186.903 65.67 186.257H68.8164C69.2915 184.805 68.3861 183.586 66.7546 183.586C65.3293 183.586 64.3881 184.536 64.3881 185.961C64.3881 187.387 65.3114 188.337 66.7546 188.337C67.92 188.337 68.7536 187.718 69.0226 186.75H67.6959ZM66.7457 184.599C67.3821 184.599 67.6959 184.957 67.6421 185.495H65.6879C65.8044 184.913 66.172 184.599 66.7457 184.599ZM72.6317 183.72H71.3498V182.501H70.1307V183.72H69.2432V184.76H70.1307V186.723C70.1307 187.297 70.2382 188.337 71.6635 188.337C72.0311 188.337 72.3269 188.265 72.542 188.149V187.091C72.3179 187.216 72.1476 187.288 71.8966 187.288C71.4394 187.288 71.3498 187.037 71.3498 186.714V184.76H72.6317V183.72ZM76.2471 183.72H74.9652V182.501H73.7461V183.72H72.8586V184.76H73.7461V186.723C73.7461 187.297 73.8536 188.337 75.2789 188.337C75.6465 188.337 75.9423 188.265 76.1574 188.149V187.091C75.9333 187.216 75.763 187.288 75.512 187.288C75.0548 187.288 74.9652 187.037 74.9652 186.714V184.76H76.2471V183.72ZM79.9515 186.75C79.8081 187.1 79.4764 187.288 79.0282 187.288C78.3828 187.288 78.0152 186.903 77.9256 186.257H81.072C81.5471 184.805 80.6417 183.586 79.0103 183.586C77.585 183.586 76.6437 184.536 76.6437 185.961C76.6437 187.387 77.567 188.337 79.0103 188.337C80.1756 188.337 81.0093 187.718 81.2782 186.75H79.9515ZM79.0013 184.599C79.6377 184.599 79.9515 184.957 79.8977 185.495H77.9435C78.0601 184.913 78.4276 184.599 79.0013 184.599ZM84.4097 183.586C83.827 183.586 83.3878 183.918 83.1547 184.482V183.72H81.9445V188.202H83.1547V185.997C83.1547 185.173 83.4774 184.644 83.9166 184.644C84.2125 184.644 84.4007 184.868 84.4007 185.217C84.4007 185.459 84.3111 185.719 84.1407 186.006H85.4047C85.5571 185.701 85.6467 185.334 85.6467 184.975C85.6467 184.142 85.1627 183.586 84.4097 183.586ZM88.0727 188.337C89.2829 188.337 90.1344 187.79 90.1344 186.858C90.1344 185.146 87.2928 185.791 87.2928 185.002C87.2928 184.751 87.5617 184.545 88.0189 184.545C88.5657 184.545 88.9064 184.841 88.7988 185.28H89.9821C90.1613 184.222 89.247 183.586 88.0189 183.586C86.8805 183.586 86.0378 184.142 86.0378 185.065C86.0378 186.768 88.8795 186.168 88.8795 186.929C88.8795 187.198 88.5478 187.378 88.0727 187.378C87.4811 187.378 87.1315 187.1 87.1584 186.652H85.9841C85.9482 187.691 86.7729 188.337 88.0727 188.337ZM95.0562 188.337C96.4725 188.337 97.4137 187.387 97.4137 185.961C97.4137 184.536 96.4725 183.586 95.0562 183.586C93.6398 183.586 92.6986 184.536 92.6986 185.961C92.6986 187.387 93.6398 188.337 95.0562 188.337ZM95.0562 187.288C94.4018 187.288 93.9625 186.759 93.9625 185.961C93.9625 185.155 94.4018 184.635 95.0562 184.635C95.7105 184.635 96.1498 185.155 96.1498 185.961C96.1498 186.759 95.7105 187.288 95.0562 187.288ZM101.362 183.29C101.568 182.403 101.165 181.793 100.125 181.793C99.1387 181.793 98.5739 182.349 98.5739 183.29V183.72H97.6775V184.76H98.5739V188.202H99.7931V184.76H101.353V183.72H99.7931V183.29C99.7931 182.967 99.8917 182.779 100.107 182.779C100.322 182.779 100.403 182.967 100.304 183.29H101.362ZM107.07 183.72H105.788V182.501H104.569V183.72H103.682V184.76H104.569V186.723C104.569 187.297 104.677 188.337 106.102 188.337C106.469 188.337 106.765 188.265 106.98 188.149V187.091C106.756 187.216 106.586 187.288 106.335 187.288C105.878 187.288 105.788 187.037 105.788 186.714V184.76H107.07V183.72ZM110.317 183.586C109.636 183.586 109.116 183.927 108.874 184.5V181.928H107.664V188.202H108.874V185.997C108.874 185.164 109.295 184.599 109.869 184.599C110.335 184.599 110.577 184.957 110.577 185.504V188.202H111.796V185.504C111.796 184.303 111.303 183.586 110.317 183.586ZM115.703 186.75C115.559 187.1 115.228 187.288 114.78 187.288C114.134 187.288 113.767 186.903 113.677 186.257H116.823C117.299 184.805 116.393 183.586 114.762 183.586C113.336 183.586 112.395 184.536 112.395 185.961C112.395 187.387 113.318 188.337 114.762 188.337C115.927 188.337 116.761 187.718 117.03 186.75H115.703ZM114.753 184.599C115.389 184.599 115.703 184.957 115.649 185.495H113.695C113.811 184.913 114.179 184.599 114.753 184.599ZM125.838 186.768L124.745 181.928H123.194L122.109 186.786L120.792 181.928H119.447L121.293 188.202H122.808L123.956 183.174L125.139 188.202H126.645L128.492 181.928H127.147L125.838 186.768ZM131.732 186.75C131.588 187.1 131.256 187.288 130.808 187.288C130.163 187.288 129.795 186.903 129.706 186.257H132.852C133.327 184.805 132.422 183.586 130.79 183.586C129.365 183.586 128.424 184.536 128.424 185.961C128.424 187.387 129.347 188.337 130.79 188.337C131.956 188.337 132.789 187.718 133.058 186.75H131.732ZM130.781 184.599C131.418 184.599 131.732 184.957 131.678 185.495H129.724C129.84 184.913 130.208 184.599 130.781 184.599ZM136.835 186.75C136.692 187.1 136.36 187.288 135.912 187.288C135.266 187.288 134.899 186.903 134.809 186.257H137.956C138.431 184.805 137.525 183.586 135.894 183.586C134.469 183.586 133.527 184.536 133.527 185.961C133.527 187.387 134.451 188.337 135.894 188.337C137.059 188.337 137.893 187.718 138.162 186.75H136.835ZM135.885 184.599C136.521 184.599 136.835 184.957 136.781 185.495H134.827C134.944 184.913 135.311 184.599 135.885 184.599ZM142.109 186.49C142.701 186.221 143.059 185.692 143.059 185.011C143.059 184.151 142.503 183.586 141.571 183.586C140.845 183.586 140.289 183.935 140.038 184.518V181.928H138.828V188.202H140.038V185.997C140.038 185.164 140.478 184.644 141.096 184.644C141.508 184.644 141.795 184.859 141.795 185.262C141.795 185.728 141.401 186.069 140.782 186.069V186.849C141.374 186.947 141.831 187.423 141.939 188.202H143.364C143.185 187.387 142.728 186.795 142.109 186.49Z" fill="black"/>
<path d="M27.073 200.324H118.337" stroke="black" stroke-width="0.689547"/>
<path d="M27.073 207.51H147.082" stroke="black" stroke-width="0.689547"/>
<path d="M27.3109 224.642V225.862H29.7623V231.882H31.262V225.862H33.7134V224.642H27.3109ZM38.8067 230.486L37.8965 226.71H36.407L35.4555 230.558L34.4936 226.71H33.0041L34.5453 231.882H36.2622L37.1414 228.448L38.0206 231.882H39.7376L41.2684 226.71H39.7996L38.8067 230.486ZM42.6071 226.048C43.0829 226.048 43.4449 225.686 43.4449 225.21C43.4449 224.735 43.0829 224.373 42.6071 224.373C42.1313 224.373 41.7693 224.735 41.7693 225.21C41.7693 225.686 42.1313 226.048 42.6071 226.048ZM43.3001 231.882V226.71H41.8934V231.882H43.3001ZM47.8636 226.71H46.3845V225.304H44.9779V226.71H43.9539V227.91H44.9779V230.175C44.9779 230.837 45.102 232.037 46.7465 232.037C47.1706 232.037 47.5119 231.954 47.7602 231.82V230.599C47.5016 230.744 47.3051 230.827 47.0155 230.827C46.488 230.827 46.3845 230.537 46.3845 230.165V227.91H47.8636V226.71ZM52.0352 226.71H50.5562V225.304H49.1495V226.71H48.1255V227.91H49.1495V230.175C49.1495 230.837 49.2736 232.037 50.9182 232.037C51.3422 232.037 51.6836 231.954 51.9318 231.82V230.599C51.6732 230.744 51.4767 230.827 51.1871 230.827C50.6596 230.827 50.5562 230.537 50.5562 230.165V227.91H52.0352V226.71ZM56.3096 230.206C56.1441 230.61 55.7614 230.827 55.2442 230.827C54.4995 230.827 54.0754 230.382 53.972 229.637H57.6025C58.1507 227.962 57.106 226.555 55.2235 226.555C53.579 226.555 52.4929 227.651 52.4929 229.296C52.4929 230.941 53.5583 232.037 55.2235 232.037C56.5681 232.037 57.5301 231.323 57.8404 230.206H56.3096ZM55.2132 227.724C55.9476 227.724 56.3096 228.138 56.2475 228.758H53.9927C54.1271 228.086 54.5512 227.724 55.2132 227.724ZM61.4536 226.555C60.7813 226.555 60.2745 226.938 60.0056 227.589V226.71H58.6092V231.882H60.0056V229.337C60.0056 228.386 60.3779 227.776 60.8847 227.776C61.2261 227.776 61.4433 228.034 61.4433 228.438C61.4433 228.717 61.3398 229.017 61.1433 229.348H62.6017C62.7775 228.996 62.881 228.572 62.881 228.158C62.881 227.196 62.3224 226.555 61.4536 226.555Z" fill="black"/>
<path d="M33.5899 247.129L31.1427 240.854H29.574L27.1358 247.129H28.5162L28.9913 245.874H31.7881L32.2632 247.129H33.5899ZM30.3897 242.145L31.3937 244.816H29.3858L30.3897 242.145ZM35.6281 247.129V240.854H34.3373V247.129H35.6281ZM43.2497 245.506L41.0086 240.854H39.1082V247.129H40.3991V242.226L42.7566 247.129H44.5405V240.854H43.2497V245.506ZM48.7609 245.677C48.6175 246.026 48.2858 246.215 47.8376 246.215C47.1922 246.215 46.8247 245.829 46.735 245.184H49.8814C50.3565 243.732 49.4512 242.512 47.8197 242.512C46.3944 242.512 45.4532 243.463 45.4532 244.888C45.4532 246.313 46.3765 247.263 47.8197 247.263C48.985 247.263 49.8187 246.645 50.0876 245.677H48.7609ZM47.8107 243.525C48.4472 243.525 48.7609 243.884 48.7071 244.422H46.753C46.8695 243.839 47.237 243.525 47.8107 243.525ZM55.3192 245.919L54.5304 242.647H53.2395L52.4148 245.981L51.5812 242.647H50.2904L51.626 247.129H53.114L53.876 244.153L54.6379 247.129H56.126L57.4527 242.647H56.1798L55.3192 245.919ZM59.7184 247.263C60.9286 247.263 61.7802 246.717 61.7802 245.784C61.7802 244.072 58.9386 244.718 58.9386 243.929C58.9386 243.678 59.2075 243.472 59.6646 243.472C60.2115 243.472 60.5521 243.767 60.4445 244.207H61.6278C61.8071 243.149 60.8927 242.512 59.6646 242.512C58.5262 242.512 57.6836 243.068 57.6836 243.991C57.6836 245.695 60.5252 245.094 60.5252 245.856C60.5252 246.125 60.1935 246.304 59.7184 246.304C59.1268 246.304 58.7772 246.026 58.8041 245.578H57.6298C57.5939 246.618 58.4186 247.263 59.7184 247.263ZM63.678 247.129V240.854H62.4679V247.129H63.678ZM67.6959 245.677C67.5524 246.026 67.2208 246.215 66.7726 246.215C66.1271 246.215 65.7596 245.829 65.67 245.184H68.8164C69.2915 243.732 68.3861 242.512 66.7546 242.512C65.3293 242.512 64.3881 243.463 64.3881 244.888C64.3881 246.313 65.3114 247.263 66.7546 247.263C67.92 247.263 68.7536 246.645 69.0226 245.677H67.6959ZM66.7457 243.525C67.3821 243.525 67.6959 243.884 67.6421 244.422H65.6879C65.8044 243.839 66.172 243.525 66.7457 243.525ZM72.6317 242.647H71.3498V241.428H70.1307V242.647H69.2432V243.687H70.1307V245.65C70.1307 246.224 70.2382 247.263 71.6635 247.263C72.0311 247.263 72.3269 247.192 72.542 247.075V246.017C72.3179 246.143 72.1476 246.215 71.8966 246.215C71.4394 246.215 71.3498 245.964 71.3498 245.641V243.687H72.6317V242.647ZM76.2471 242.647H74.9652V241.428H73.7461V242.647H72.8586V243.687H73.7461V245.65C73.7461 246.224 73.8536 247.263 75.2789 247.263C75.6465 247.263 75.9423 247.192 76.1574 247.075V246.017C75.9333 246.143 75.763 246.215 75.512 246.215C75.0548 246.215 74.9652 245.964 74.9652 245.641V243.687H76.2471V242.647ZM79.9515 245.677C79.8081 246.026 79.4764 246.215 79.0282 246.215C78.3828 246.215 78.0152 245.829 77.9256 245.184H81.072C81.5471 243.732 80.6417 242.512 79.0103 242.512C77.585 242.512 76.6437 243.463 76.6437 244.888C76.6437 246.313 77.567 247.263 79.0103 247.263C80.1756 247.263 81.0093 246.645 81.2782 245.677H79.9515ZM79.0013 243.525C79.6377 243.525 79.9515 243.884 79.8977 244.422H77.9435C78.0601 243.839 78.4276 243.525 79.0013 243.525ZM84.4097 242.512C83.827 242.512 83.3878 242.844 83.1547 243.409V242.647H81.9445V247.129H83.1547V244.924C83.1547 244.099 83.4774 243.57 83.9166 243.57C84.2125 243.57 84.4007 243.794 84.4007 244.144C84.4007 244.386 84.3111 244.646 84.1407 244.933H85.4047C85.5571 244.628 85.6467 244.26 85.6467 243.902C85.6467 243.068 85.1627 242.512 84.4097 242.512ZM88.0727 247.263C89.2829 247.263 90.1344 246.717 90.1344 245.784C90.1344 244.072 87.2928 244.718 87.2928 243.929C87.2928 243.678 87.5617 243.472 88.0189 243.472C88.5657 243.472 88.9064 243.767 88.7988 244.207H89.9821C90.1613 243.149 89.247 242.512 88.0189 242.512C86.8805 242.512 86.0378 243.068 86.0378 243.991C86.0378 245.695 88.8795 245.094 88.8795 245.856C88.8795 246.125 88.5478 246.304 88.0727 246.304C87.4811 246.304 87.1315 246.026 87.1584 245.578H85.9841C85.9482 246.618 86.7729 247.263 88.0727 247.263ZM95.0562 247.263C96.4725 247.263 97.4137 246.313 97.4137 244.888C97.4137 243.463 96.4725 242.512 95.0562 242.512C93.6398 242.512 92.6986 243.463 92.6986 244.888C92.6986 246.313 93.6398 247.263 95.0562 247.263ZM95.0562 246.215C94.4018 246.215 93.9625 245.686 93.9625 244.888C93.9625 244.081 94.4018 243.561 95.0562 243.561C95.7105 243.561 96.1498 244.081 96.1498 244.888C96.1498 245.686 95.7105 246.215 95.0562 246.215ZM101.362 242.217C101.568 241.329 101.165 240.72 100.125 240.72C99.1387 240.72 98.5739 241.275 98.5739 242.217V242.647H97.6775V243.687H98.5739V247.129H99.7931V243.687H101.353V242.647H99.7931V242.217C99.7931 241.894 99.8917 241.706 100.107 241.706C100.322 241.706 100.403 241.894 100.304 242.217H101.362ZM107.07 242.647H105.788V241.428H104.569V242.647H103.682V243.687H104.569V245.65C104.569 246.224 104.677 247.263 106.102 247.263C106.469 247.263 106.765 247.192 106.98 247.075V246.017C106.756 246.143 106.586 246.215 106.335 246.215C105.878 246.215 105.788 245.964 105.788 245.641V243.687H107.07V242.647ZM110.317 242.512C109.636 242.512 109.116 242.853 108.874 243.427V240.854H107.664V247.129H108.874V244.924C108.874 244.09 109.295 243.525 109.869 243.525C110.335 243.525 110.577 243.884 110.577 244.431V247.129H111.796V244.431C111.796 243.23 111.303 242.512 110.317 242.512ZM115.703 245.677C115.559 246.026 115.228 246.215 114.78 246.215C114.134 246.215 113.767 245.829 113.677 245.184H116.823C117.299 243.732 116.393 242.512 114.762 242.512C113.336 242.512 112.395 243.463 112.395 244.888C112.395 246.313 113.318 247.263 114.762 247.263C115.927 247.263 116.761 246.645 117.03 245.677H115.703ZM114.753 243.525C115.389 243.525 115.703 243.884 115.649 244.422H113.695C113.811 243.839 114.179 243.525 114.753 243.525ZM125.838 245.695L124.745 240.854H123.194L122.109 245.713L120.792 240.854H119.447L121.293 247.129H122.808L123.956 242.1L125.139 247.129H126.645L128.492 240.854H127.147L125.838 245.695ZM131.732 245.677C131.588 246.026 131.256 246.215 130.808 246.215C130.163 246.215 129.795 245.829 129.706 245.184H132.852C133.327 243.732 132.422 242.512 130.79 242.512C129.365 242.512 128.424 243.463 128.424 244.888C128.424 246.313 129.347 247.263 130.79 247.263C131.956 247.263 132.789 246.645 133.058 245.677H131.732ZM130.781 243.525C131.418 243.525 131.732 243.884 131.678 244.422H129.724C129.84 243.839 130.208 243.525 130.781 243.525ZM136.835 245.677C136.692 246.026 136.36 246.215 135.912 246.215C135.266 246.215 134.899 245.829 134.809 245.184H137.956C138.431 243.732 137.525 242.512 135.894 242.512C134.469 242.512 133.527 243.463 133.527 244.888C133.527 246.313 134.451 247.263 135.894 247.263C137.059 247.263 137.893 246.645 138.162 245.677H136.835ZM135.885 243.525C136.521 243.525 136.835 243.884 136.781 244.422H134.827C134.944 243.839 135.311 243.525 135.885 243.525ZM142.109 245.417C142.701 245.148 143.059 244.619 143.059 243.938C143.059 243.077 142.503 242.512 141.571 242.512C140.845 242.512 140.289 242.862 140.038 243.445V240.854H138.828V247.129H140.038V244.924C140.038 244.09 140.478 243.57 141.096 243.57C141.508 243.57 141.795 243.785 141.795 244.189C141.795 244.655 141.401 244.995 140.782 244.995V245.775C141.374 245.874 141.831 246.349 141.939 247.129H143.364C143.185 246.313 142.728 245.722 142.109 245.417Z" fill="black"/>
<path d="M27.073 259.25H118.337" stroke="black" stroke-width="0.689547"/>
<path d="M27.073 266.436H147.082" stroke="black" stroke-width="0.689547"/>
<path d="M29.2755 283.76H27.7861V291H33.0197V289.78H29.2755V283.76ZM34.514 285.166C34.9898 285.166 35.3518 284.804 35.3518 284.329C35.3518 283.853 34.9898 283.491 34.514 283.491C34.0382 283.491 33.6762 283.853 33.6762 284.329C33.6762 284.804 34.0382 285.166 34.514 285.166ZM35.207 291V285.828H33.8003V291H35.207ZM39.3465 285.673C38.5604 285.673 37.9501 286.077 37.6502 286.749V285.828H36.2539V291H37.6502V288.456C37.6502 287.494 38.1363 286.842 38.8086 286.842C39.6154 286.842 39.6154 287.576 39.6154 288.063V291H41.0221V288.052C41.0221 287.339 41.0221 285.673 39.3465 285.673ZM45.7262 289.024C46.4089 288.714 46.8226 288.104 46.8226 287.318C46.8226 286.325 46.1813 285.673 45.1056 285.673C44.2678 285.673 43.6265 286.077 43.3369 286.749V283.76H41.9406V291H43.3369V288.456C43.3369 287.494 43.8438 286.894 44.5574 286.894C45.0332 286.894 45.3642 287.142 45.3642 287.607C45.3642 288.145 44.9091 288.538 44.1954 288.538V289.438C44.8781 289.552 45.4056 290.1 45.5297 291H47.1743C46.9674 290.059 46.4399 289.376 45.7262 289.024ZM51.2771 289.324C51.1116 289.728 50.7289 289.945 50.2117 289.945C49.467 289.945 49.0429 289.5 48.9395 288.756H52.57C53.1181 287.08 52.0735 285.673 50.191 285.673C48.5464 285.673 47.4604 286.77 47.4604 288.414C47.4604 290.059 48.5258 291.155 50.191 291.155C51.5356 291.155 52.4975 290.441 52.8078 289.324H51.2771ZM50.1807 286.842C50.915 286.842 51.2771 287.256 51.215 287.876H48.9602C49.0946 287.204 49.5187 286.842 50.1807 286.842ZM57.414 286.532C57.021 285.984 56.4314 285.673 55.6971 285.673C54.3214 285.673 53.3492 286.77 53.3492 288.414C53.3492 290.059 54.3318 291.155 55.7074 291.155C56.4418 291.155 57.0314 290.845 57.414 290.307V291H58.8207V283.76H57.414V286.532ZM56.1522 289.945C55.3454 289.945 54.8076 289.335 54.8076 288.414C54.8076 287.494 55.3454 286.883 56.1522 286.883C56.9486 286.883 57.4865 287.494 57.4865 288.414C57.4865 289.335 56.9486 289.945 56.1522 289.945ZM61.5778 291V283.76H60.0884V291H61.5778ZM65.952 285.673C65.1659 285.673 64.5556 286.077 64.2557 286.749V285.828H62.8593V291H64.2557V288.456C64.2557 287.494 64.7418 286.842 65.4141 286.842C66.2209 286.842 66.2209 287.576 66.2209 288.063V291H67.6276V288.052C67.6276 287.339 67.6276 285.673 65.952 285.673Z" fill="black"/>
<path d="M33.5899 306.055L31.1427 299.78H29.574L27.1358 306.055H28.5162L28.9913 304.8H31.7881L32.2632 306.055H33.5899ZM30.3897 301.071L31.3937 303.742H29.3858L30.3897 301.071ZM35.6281 306.055V299.78H34.3373V306.055H35.6281ZM43.2497 304.433L41.0086 299.78H39.1082V306.055H40.3991V301.152L42.7566 306.055H44.5405V299.78H43.2497V304.433ZM48.7609 304.603C48.6175 304.953 48.2858 305.141 47.8376 305.141C47.1922 305.141 46.8247 304.755 46.735 304.11H49.8814C50.3565 302.658 49.4512 301.439 47.8197 301.439C46.3944 301.439 45.4532 302.389 45.4532 303.814C45.4532 305.239 46.3765 306.19 47.8197 306.19C48.985 306.19 49.8187 305.571 50.0876 304.603H48.7609ZM47.8107 302.452C48.4472 302.452 48.7609 302.81 48.7071 303.348H46.753C46.8695 302.765 47.237 302.452 47.8107 302.452ZM55.3192 304.845L54.5304 301.573H53.2395L52.4148 304.908L51.5812 301.573H50.2904L51.626 306.055H53.114L53.876 303.079L54.6379 306.055H56.126L57.4527 301.573H56.1798L55.3192 304.845ZM59.7184 306.19C60.9286 306.19 61.7802 305.643 61.7802 304.711C61.7802 302.998 58.9386 303.644 58.9386 302.855C58.9386 302.604 59.2075 302.398 59.6646 302.398C60.2115 302.398 60.5521 302.694 60.4445 303.133H61.6278C61.8071 302.075 60.8927 301.439 59.6646 301.439C58.5262 301.439 57.6836 301.994 57.6836 302.918C57.6836 304.621 60.5252 304.02 60.5252 304.782C60.5252 305.051 60.1935 305.23 59.7184 305.23C59.1268 305.23 58.7772 304.953 58.8041 304.504H57.6298C57.5939 305.544 58.4186 306.19 59.7184 306.19ZM63.678 306.055V299.78H62.4679V306.055H63.678ZM67.6959 304.603C67.5524 304.953 67.2208 305.141 66.7726 305.141C66.1271 305.141 65.7596 304.755 65.67 304.11H68.8164C69.2915 302.658 68.3861 301.439 66.7546 301.439C65.3293 301.439 64.3881 302.389 64.3881 303.814C64.3881 305.239 65.3114 306.19 66.7546 306.19C67.92 306.19 68.7536 305.571 69.0226 304.603H67.6959ZM66.7457 302.452C67.3821 302.452 67.6959 302.81 67.6421 303.348H65.6879C65.8044 302.765 66.172 302.452 66.7457 302.452ZM72.6317 301.573H71.3498V300.354H70.1307V301.573H69.2432V302.613H70.1307V304.576C70.1307 305.15 70.2382 306.19 71.6635 306.19C72.0311 306.19 72.3269 306.118 72.542 306.001V304.944C72.3179 305.069 72.1476 305.141 71.8966 305.141C71.4394 305.141 71.3498 304.89 71.3498 304.567V302.613H72.6317V301.573ZM76.2471 301.573H74.9652V300.354H73.7461V301.573H72.8586V302.613H73.7461V304.576C73.7461 305.15 73.8536 306.19 75.2789 306.19C75.6465 306.19 75.9423 306.118 76.1574 306.001V304.944C75.9333 305.069 75.763 305.141 75.512 305.141C75.0548 305.141 74.9652 304.89 74.9652 304.567V302.613H76.2471V301.573ZM79.9515 304.603C79.8081 304.953 79.4764 305.141 79.0282 305.141C78.3828 305.141 78.0152 304.755 77.9256 304.11H81.072C81.5471 302.658 80.6417 301.439 79.0103 301.439C77.585 301.439 76.6437 302.389 76.6437 303.814C76.6437 305.239 77.567 306.19 79.0103 306.19C80.1756 306.19 81.0093 305.571 81.2782 304.603H79.9515ZM79.0013 302.452C79.6377 302.452 79.9515 302.81 79.8977 303.348H77.9435C78.0601 302.765 78.4276 302.452 79.0013 302.452ZM84.4097 301.439C83.827 301.439 83.3878 301.77 83.1547 302.335V301.573H81.9445V306.055H83.1547V303.85C83.1547 303.025 83.4774 302.496 83.9166 302.496C84.2125 302.496 84.4007 302.721 84.4007 303.07C84.4007 303.312 84.3111 303.572 84.1407 303.859H85.4047C85.5571 303.554 85.6467 303.187 85.6467 302.828C85.6467 301.994 85.1627 301.439 84.4097 301.439ZM88.0727 306.19C89.2829 306.19 90.1344 305.643 90.1344 304.711C90.1344 302.998 87.2928 303.644 87.2928 302.855C87.2928 302.604 87.5617 302.398 88.0189 302.398C88.5657 302.398 88.9064 302.694 88.7988 303.133H89.9821C90.1613 302.075 89.247 301.439 88.0189 301.439C86.8805 301.439 86.0378 301.994 86.0378 302.918C86.0378 304.621 88.8795 304.02 88.8795 304.782C88.8795 305.051 88.5478 305.23 88.0727 305.23C87.4811 305.23 87.1315 304.953 87.1584 304.504H85.9841C85.9482 305.544 86.7729 306.19 88.0727 306.19ZM95.0562 306.19C96.4725 306.19 97.4137 305.239 97.4137 303.814C97.4137 302.389 96.4725 301.439 95.0562 301.439C93.6398 301.439 92.6986 302.389 92.6986 303.814C92.6986 305.239 93.6398 306.19 95.0562 306.19ZM95.0562 305.141C94.4018 305.141 93.9625 304.612 93.9625 303.814C93.9625 303.007 94.4018 302.487 95.0562 302.487C95.7105 302.487 96.1498 303.007 96.1498 303.814C96.1498 304.612 95.7105 305.141 95.0562 305.141ZM101.362 301.143C101.568 300.255 101.165 299.646 100.125 299.646C99.1387 299.646 98.5739 300.202 98.5739 301.143V301.573H97.6775V302.613H98.5739V306.055H99.7931V302.613H101.353V301.573H99.7931V301.143C99.7931 300.82 99.8917 300.632 100.107 300.632C100.322 300.632 100.403 300.82 100.304 301.143H101.362ZM107.07 301.573H105.788V300.354H104.569V301.573H103.682V302.613H104.569V304.576C104.569 305.15 104.677 306.19 106.102 306.19C106.469 306.19 106.765 306.118 106.98 306.001V304.944C106.756 305.069 106.586 305.141 106.335 305.141C105.878 305.141 105.788 304.89 105.788 304.567V302.613H107.07V301.573ZM110.317 301.439C109.636 301.439 109.116 301.779 108.874 302.353V299.78H107.664V306.055H108.874V303.85C108.874 303.016 109.295 302.452 109.869 302.452C110.335 302.452 110.577 302.81 110.577 303.357V306.055H111.796V303.357C111.796 302.156 111.303 301.439 110.317 301.439ZM115.703 304.603C115.559 304.953 115.228 305.141 114.78 305.141C114.134 305.141 113.767 304.755 113.677 304.11H116.823C117.299 302.658 116.393 301.439 114.762 301.439C113.336 301.439 112.395 302.389 112.395 303.814C112.395 305.239 113.318 306.19 114.762 306.19C115.927 306.19 116.761 305.571 117.03 304.603H115.703ZM114.753 302.452C115.389 302.452 115.703 302.81 115.649 303.348H113.695C113.811 302.765 114.179 302.452 114.753 302.452ZM125.838 304.621L124.745 299.78H123.194L122.109 304.639L120.792 299.78H119.447L121.293 306.055H122.808L123.956 301.026L125.139 306.055H126.645L128.492 299.78H127.147L125.838 304.621ZM131.732 304.603C131.588 304.953 131.256 305.141 130.808 305.141C130.163 305.141 129.795 304.755 129.706 304.11H132.852C133.327 302.658 132.422 301.439 130.79 301.439C129.365 301.439 128.424 302.389 128.424 303.814C128.424 305.239 129.347 306.19 130.79 306.19C131.956 306.19 132.789 305.571 133.058 304.603H131.732ZM130.781 302.452C131.418 302.452 131.732 302.81 131.678 303.348H129.724C129.84 302.765 130.208 302.452 130.781 302.452ZM136.835 304.603C136.692 304.953 136.36 305.141 135.912 305.141C135.266 305.141 134.899 304.755 134.809 304.11H137.956C138.431 302.658 137.525 301.439 135.894 301.439C134.469 301.439 133.527 302.389 133.527 303.814C133.527 305.239 134.451 306.19 135.894 306.19C137.059 306.19 137.893 305.571 138.162 304.603H136.835ZM135.885 302.452C136.521 302.452 136.835 302.81 136.781 303.348H134.827C134.944 302.765 135.311 302.452 135.885 302.452ZM142.109 304.343C142.701 304.074 143.059 303.545 143.059 302.864C143.059 302.003 142.503 301.439 141.571 301.439C140.845 301.439 140.289 301.788 140.038 302.371V299.78H138.828V306.055H140.038V303.85C140.038 303.016 140.478 302.496 141.096 302.496C141.508 302.496 141.795 302.712 141.795 303.115C141.795 303.581 141.401 303.922 140.782 303.922V304.702C141.374 304.8 141.831 305.275 141.939 306.055H143.364C143.185 305.239 142.728 304.648 142.109 304.343Z" fill="black"/>
<path d="M27.073 318.177H118.337" stroke="black" stroke-width="0.689547"/>
<path d="M27.073 325.362H147.082" stroke="black" stroke-width="0.689547"/>
<path d="M27.3109 342.495V343.715H29.7623V349.735H31.262V343.715H33.7134V342.495H27.3109ZM35.2032 343.901C35.679 343.901 36.041 343.539 36.041 343.063C36.041 342.588 35.679 342.226 35.2032 342.226C34.7274 342.226 34.3654 342.588 34.3654 343.063C34.3654 343.539 34.7274 343.901 35.2032 343.901ZM35.8962 349.735V344.563H34.4895V349.735H35.8962ZM40.7287 347.759C41.4113 347.449 41.825 346.839 41.825 346.053C41.825 345.06 41.1838 344.408 40.1081 344.408C39.2703 344.408 38.629 344.811 38.3394 345.484V342.495H36.943V349.735H38.3394V347.19C38.3394 346.229 38.8462 345.629 39.5599 345.629C40.0357 345.629 40.3666 345.877 40.3666 346.342C40.3666 346.88 39.9115 347.273 39.1979 347.273V348.173C39.8805 348.287 40.408 348.835 40.5321 349.735H42.1767C41.9698 348.794 41.4423 348.111 40.7287 347.759ZM41.9672 342.495V343.715H44.4185V349.735H45.9183V343.715H48.3696V342.495H41.9672ZM50.4254 349.89C52.0596 349.89 53.1457 348.794 53.1457 347.149C53.1457 345.504 52.0596 344.408 50.4254 344.408C48.7912 344.408 47.7051 345.504 47.7051 347.149C47.7051 348.794 48.7912 349.89 50.4254 349.89ZM50.4254 348.68C49.6704 348.68 49.1635 348.07 49.1635 347.149C49.1635 346.218 49.6704 345.618 50.4254 345.618C51.1805 345.618 51.6873 346.218 51.6873 347.149C51.6873 348.07 51.1805 348.68 50.4254 348.68ZM57.698 347.759C58.3806 347.449 58.7944 346.839 58.7944 346.053C58.7944 345.06 58.1531 344.408 57.0774 344.408C56.2396 344.408 55.5983 344.811 55.3087 345.484V342.495H53.9124V349.735H55.3087V347.19C55.3087 346.229 55.8155 345.629 56.5292 345.629C57.005 345.629 57.336 345.877 57.336 346.342C57.336 346.88 56.8809 347.273 56.1672 347.273V348.173C56.8498 348.287 57.3773 348.835 57.5015 349.735H59.146C58.9392 348.794 58.4117 348.111 57.698 347.759Z" fill="black"/>
<path d="M33.5899 364.982L31.1427 358.707H29.574L27.1358 364.982H28.5162L28.9913 363.727H31.7881L32.2632 364.982H33.5899ZM30.3897 359.998L31.3937 362.669H29.3858L30.3897 359.998ZM35.6281 364.982V358.707H34.3373V364.982H35.6281ZM43.2497 363.359L41.0086 358.707H39.1082V364.982H40.3991V360.078L42.7566 364.982H44.5405V358.707H43.2497V363.359ZM48.7609 363.53C48.6175 363.879 48.2858 364.067 47.8376 364.067C47.1922 364.067 46.8247 363.682 46.735 363.036H49.8814C50.3565 361.584 49.4512 360.365 47.8197 360.365C46.3944 360.365 45.4532 361.315 45.4532 362.741C45.4532 364.166 46.3765 365.116 47.8197 365.116C48.985 365.116 49.8187 364.498 50.0876 363.53H48.7609ZM47.8107 361.378C48.4472 361.378 48.7609 361.737 48.7071 362.275H46.753C46.8695 361.692 47.237 361.378 47.8107 361.378ZM55.3192 363.772L54.5304 360.5H53.2395L52.4148 363.834L51.5812 360.5H50.2904L51.626 364.982H53.114L53.876 362.006L54.6379 364.982H56.126L57.4527 360.5H56.1798L55.3192 363.772ZM59.7184 365.116C60.9286 365.116 61.7802 364.569 61.7802 363.637C61.7802 361.925 58.9386 362.57 58.9386 361.782C58.9386 361.531 59.2075 361.324 59.6646 361.324C60.2115 361.324 60.5521 361.62 60.4445 362.059H61.6278C61.8071 361.002 60.8927 360.365 59.6646 360.365C58.5262 360.365 57.6836 360.921 57.6836 361.844C57.6836 363.547 60.5252 362.947 60.5252 363.709C60.5252 363.978 60.1935 364.157 59.7184 364.157C59.1268 364.157 58.7772 363.879 58.8041 363.431H57.6298C57.5939 364.471 58.4186 365.116 59.7184 365.116ZM63.678 364.982V358.707H62.4679V364.982H63.678ZM67.6959 363.53C67.5524 363.879 67.2208 364.067 66.7726 364.067C66.1271 364.067 65.7596 363.682 65.67 363.036H68.8164C69.2915 361.584 68.3861 360.365 66.7546 360.365C65.3293 360.365 64.3881 361.315 64.3881 362.741C64.3881 364.166 65.3114 365.116 66.7546 365.116C67.92 365.116 68.7536 364.498 69.0226 363.53H67.6959ZM66.7457 361.378C67.3821 361.378 67.6959 361.737 67.6421 362.275H65.6879C65.8044 361.692 66.172 361.378 66.7457 361.378ZM72.6317 360.5H71.3498V359.281H70.1307V360.5H69.2432V361.539H70.1307V363.503C70.1307 364.076 70.2382 365.116 71.6635 365.116C72.0311 365.116 72.3269 365.044 72.542 364.928V363.87C72.3179 363.996 72.1476 364.067 71.8966 364.067C71.4394 364.067 71.3498 363.816 71.3498 363.494V361.539H72.6317V360.5ZM76.2471 360.5H74.9652V359.281H73.7461V360.5H72.8586V361.539H73.7461V363.503C73.7461 364.076 73.8536 365.116 75.2789 365.116C75.6465 365.116 75.9423 365.044 76.1574 364.928V363.87C75.9333 363.996 75.763 364.067 75.512 364.067C75.0548 364.067 74.9652 363.816 74.9652 363.494V361.539H76.2471V360.5ZM79.9515 363.53C79.8081 363.879 79.4764 364.067 79.0282 364.067C78.3828 364.067 78.0152 363.682 77.9256 363.036H81.072C81.5471 361.584 80.6417 360.365 79.0103 360.365C77.585 360.365 76.6437 361.315 76.6437 362.741C76.6437 364.166 77.567 365.116 79.0103 365.116C80.1756 365.116 81.0093 364.498 81.2782 363.53H79.9515ZM79.0013 361.378C79.6377 361.378 79.9515 361.737 79.8977 362.275H77.9435C78.0601 361.692 78.4276 361.378 79.0013 361.378ZM84.4097 360.365C83.827 360.365 83.3878 360.697 83.1547 361.262V360.5H81.9445V364.982H83.1547V362.777C83.1547 361.952 83.4774 361.423 83.9166 361.423C84.2125 361.423 84.4007 361.647 84.4007 361.997C84.4007 362.239 84.3111 362.499 84.1407 362.785H85.4047C85.5571 362.481 85.6467 362.113 85.6467 361.755C85.6467 360.921 85.1627 360.365 84.4097 360.365ZM88.0727 365.116C89.2829 365.116 90.1344 364.569 90.1344 363.637C90.1344 361.925 87.2928 362.57 87.2928 361.782C87.2928 361.531 87.5617 361.324 88.0189 361.324C88.5657 361.324 88.9064 361.62 88.7988 362.059H89.9821C90.1613 361.002 89.247 360.365 88.0189 360.365C86.8805 360.365 86.0378 360.921 86.0378 361.844C86.0378 363.547 88.8795 362.947 88.8795 363.709C88.8795 363.978 88.5478 364.157 88.0727 364.157C87.4811 364.157 87.1315 363.879 87.1584 363.431H85.9841C85.9482 364.471 86.7729 365.116 88.0727 365.116ZM95.0562 365.116C96.4725 365.116 97.4137 364.166 97.4137 362.741C97.4137 361.315 96.4725 360.365 95.0562 360.365C93.6398 360.365 92.6986 361.315 92.6986 362.741C92.6986 364.166 93.6398 365.116 95.0562 365.116ZM95.0562 364.067C94.4018 364.067 93.9625 363.538 93.9625 362.741C93.9625 361.934 94.4018 361.414 95.0562 361.414C95.7105 361.414 96.1498 361.934 96.1498 362.741C96.1498 363.538 95.7105 364.067 95.0562 364.067ZM101.362 360.069C101.568 359.182 101.165 358.572 100.125 358.572C99.1387 358.572 98.5739 359.128 98.5739 360.069V360.5H97.6775V361.539H98.5739V364.982H99.7931V361.539H101.353V360.5H99.7931V360.069C99.7931 359.747 99.8917 359.558 100.107 359.558C100.322 359.558 100.403 359.747 100.304 360.069H101.362ZM107.07 360.5H105.788V359.281H104.569V360.5H103.682V361.539H104.569V363.503C104.569 364.076 104.677 365.116 106.102 365.116C106.469 365.116 106.765 365.044 106.98 364.928V363.87C106.756 363.996 106.586 364.067 106.335 364.067C105.878 364.067 105.788 363.816 105.788 363.494V361.539H107.07V360.5ZM110.317 360.365C109.636 360.365 109.116 360.706 108.874 361.28V358.707H107.664V364.982H108.874V362.777C108.874 361.943 109.295 361.378 109.869 361.378C110.335 361.378 110.577 361.737 110.577 362.283V364.982H111.796V362.283C111.796 361.082 111.303 360.365 110.317 360.365ZM115.703 363.53C115.559 363.879 115.228 364.067 114.78 364.067C114.134 364.067 113.767 363.682 113.677 363.036H116.823C117.299 361.584 116.393 360.365 114.762 360.365C113.336 360.365 112.395 361.315 112.395 362.741C112.395 364.166 113.318 365.116 114.762 365.116C115.927 365.116 116.761 364.498 117.03 363.53H115.703ZM114.753 361.378C115.389 361.378 115.703 361.737 115.649 362.275H113.695C113.811 361.692 114.179 361.378 114.753 361.378ZM125.838 363.547L124.745 358.707H123.194L122.109 363.565L120.792 358.707H119.447L121.293 364.982H122.808L123.956 359.953L125.139 364.982H126.645L128.492 358.707H127.147L125.838 363.547ZM131.732 363.53C131.588 363.879 131.256 364.067 130.808 364.067C130.163 364.067 129.795 363.682 129.706 363.036H132.852C133.327 361.584 132.422 360.365 130.79 360.365C129.365 360.365 128.424 361.315 128.424 362.741C128.424 364.166 129.347 365.116 130.79 365.116C131.956 365.116 132.789 364.498 133.058 363.53H131.732ZM130.781 361.378C131.418 361.378 131.732 361.737 131.678 362.275H129.724C129.84 361.692 130.208 361.378 130.781 361.378ZM136.835 363.53C136.692 363.879 136.36 364.067 135.912 364.067C135.266 364.067 134.899 363.682 134.809 363.036H137.956C138.431 361.584 137.525 360.365 135.894 360.365C134.469 360.365 133.527 361.315 133.527 362.741C133.527 364.166 134.451 365.116 135.894 365.116C137.059 365.116 137.893 364.498 138.162 363.53H136.835ZM135.885 361.378C136.521 361.378 136.835 361.737 136.781 362.275H134.827C134.944 361.692 135.311 361.378 135.885 361.378ZM142.109 363.27C142.701 363.001 143.059 362.472 143.059 361.79C143.059 360.93 142.503 360.365 141.571 360.365C140.845 360.365 140.289 360.715 140.038 361.297V358.707H138.828V364.982H140.038V362.777C140.038 361.943 140.478 361.423 141.096 361.423C141.508 361.423 141.795 361.638 141.795 362.041C141.795 362.508 141.401 362.848 140.782 362.848V363.628C141.374 363.727 141.831 364.202 141.939 364.982H143.364C143.185 364.166 142.728 363.574 142.109 363.27Z" fill="black"/>
<path d="M27.073 377.103H118.337" stroke="black" stroke-width="0.689547"/>
<path d="M27.073 384.289H147.082" stroke="black" stroke-width="0.689547"/>
<circle cx="16.2938" cy="13.4833" fill="black" r="2.87446"/>
<circle cx="24.9172" cy="13.4833" fill="black" r="2.87446"/>
<circle cx="33.5405" cy="13.4833" fill="black" r="2.87446"/>
<rect fill="#F7F5FF" height="348.966" rx="13.2909" stroke="black" width="251.953" x="204.352" y="39.135"/>
<path d="M235.854 239.882L230.583 226.367H227.204L221.953 239.882H224.926L225.949 237.179H231.973L232.997 239.882H235.854ZM228.961 229.147L231.124 234.901H226.799L228.961 229.147ZM240.244 239.882V226.367H237.464V239.882H240.244ZM256.66 236.387L251.833 226.367H247.74V239.882H250.52V229.321L255.598 239.882H259.44V226.367H256.66V236.387ZM268.53 236.754C268.221 237.507 267.507 237.912 266.541 237.912C265.151 237.912 264.36 237.082 264.167 235.692H270.944C271.967 232.564 270.017 229.939 266.503 229.939C263.433 229.939 261.406 231.985 261.406 235.055C261.406 238.125 263.394 240.171 266.503 240.171C269.013 240.171 270.808 238.839 271.388 236.754H268.53ZM266.484 232.12C267.854 232.12 268.53 232.893 268.414 234.051H264.205C264.456 232.796 265.248 232.12 266.484 232.12ZM282.656 237.275L280.957 230.228H278.176L276.4 237.41L274.605 230.228H271.824L274.701 239.882H277.906L279.547 233.472L281.188 239.882H284.393L287.251 230.228H284.509L282.656 237.275ZM292.131 240.171C294.737 240.171 296.572 238.994 296.572 236.986C296.572 233.298 290.451 234.688 290.451 232.989C290.451 232.449 291.03 232.004 292.015 232.004C293.193 232.004 293.926 232.642 293.695 233.588H296.243C296.63 231.309 294.66 229.939 292.015 229.939C289.563 229.939 287.748 231.136 287.748 233.124C287.748 236.793 293.869 235.499 293.869 237.14C293.869 237.719 293.154 238.106 292.131 238.106C290.857 238.106 290.104 237.507 290.162 236.542H287.632C287.555 238.781 289.331 240.171 292.131 240.171ZM300.659 239.882V226.367H298.053V239.882H300.659ZM309.313 236.754C309.004 237.507 308.29 237.912 307.324 237.912C305.934 237.912 305.143 237.082 304.95 235.692H311.726C312.75 232.564 310.8 229.939 307.286 229.939C304.216 229.939 302.189 231.985 302.189 235.055C302.189 238.125 304.177 240.171 307.286 240.171C309.796 240.171 311.591 238.839 312.171 236.754H309.313ZM307.266 232.12C308.637 232.12 309.313 232.893 309.197 234.051H304.988C305.239 232.796 306.031 232.12 307.266 232.12ZM319.944 230.228H317.183V227.602H314.557V230.228H312.646V232.468H314.557V236.696C314.557 237.932 314.789 240.171 317.859 240.171C318.65 240.171 319.288 240.017 319.751 239.766V237.488C319.268 237.758 318.901 237.912 318.361 237.912C317.376 237.912 317.183 237.372 317.183 236.677V232.468H319.944V230.228ZM327.731 230.228H324.97V227.602H322.344V230.228H320.433V232.468H322.344V236.696C322.344 237.932 322.576 240.171 325.646 240.171C326.437 240.171 327.075 240.017 327.538 239.766V237.488C327.055 237.758 326.688 237.912 326.148 237.912C325.163 237.912 324.97 237.372 324.97 236.677V232.468H327.731V230.228ZM335.71 236.754C335.401 237.507 334.687 237.912 333.721 237.912C332.331 237.912 331.539 237.082 331.346 235.692H338.123C339.146 232.564 337.196 229.939 333.683 229.939C330.613 229.939 328.585 231.985 328.585 235.055C328.585 238.125 330.574 240.171 333.683 240.171C336.192 240.171 337.988 238.839 338.567 236.754H335.71ZM333.663 232.12C335.034 232.12 335.71 232.893 335.594 234.051H331.385C331.636 232.796 332.428 232.12 333.663 232.12ZM345.312 229.939C344.057 229.939 343.111 230.653 342.609 231.869V230.228H340.003V239.882H342.609V235.132C342.609 233.356 343.304 232.217 344.25 232.217C344.887 232.217 345.293 232.7 345.293 233.452C345.293 233.974 345.1 234.534 344.733 235.152H347.455C347.783 234.495 347.976 233.703 347.976 232.931C347.976 231.136 346.934 229.939 345.312 229.939ZM353.202 240.171C355.808 240.171 357.642 238.994 357.642 236.986C357.642 233.298 351.522 234.688 351.522 232.989C351.522 232.449 352.101 232.004 353.086 232.004C354.264 232.004 354.997 232.642 354.766 233.588H357.314C357.7 231.309 355.731 229.939 353.086 229.939C350.634 229.939 348.819 231.136 348.819 233.124C348.819 236.793 354.939 235.499 354.939 237.14C354.939 237.719 354.225 238.106 353.202 238.106C351.927 238.106 351.174 237.507 351.232 236.542H348.703C348.626 238.781 350.402 240.171 353.202 240.171ZM368.243 240.171C371.293 240.171 373.321 238.125 373.321 235.055C373.321 231.985 371.293 229.939 368.243 229.939C365.192 229.939 363.165 231.985 363.165 235.055C363.165 238.125 365.192 240.171 368.243 240.171ZM368.243 237.912C366.833 237.912 365.887 236.773 365.887 235.055C365.887 233.317 366.833 232.198 368.243 232.198C369.652 232.198 370.598 233.317 370.598 235.055C370.598 236.773 369.652 237.912 368.243 237.912ZM381.824 229.301C382.268 227.39 381.4 226.077 379.16 226.077C377.036 226.077 375.82 227.274 375.82 229.301V230.228H373.889V232.468H375.82V239.882H378.445V232.468H381.805V230.228H378.445V229.301C378.445 228.606 378.658 228.201 379.121 228.201C379.585 228.201 379.758 228.606 379.546 229.301H381.824ZM229.309 252.228H226.548V249.602H223.922V252.228H222.011V254.468H223.922V258.696C223.922 259.932 224.154 262.171 227.224 262.171C228.015 262.171 228.652 262.017 229.116 261.766V259.488C228.633 259.758 228.266 259.912 227.726 259.912C226.741 259.912 226.548 259.372 226.548 258.677V254.468H229.309V252.228ZM236.303 251.939C234.836 251.939 233.716 252.672 233.195 253.908V248.367H230.588V261.882H233.195V257.132C233.195 255.337 234.102 254.12 235.338 254.12C236.342 254.12 236.863 254.893 236.863 256.07V261.882H239.489V256.07C239.489 253.483 238.427 251.939 236.303 251.939ZM247.903 258.754C247.594 259.507 246.88 259.912 245.914 259.912C244.524 259.912 243.733 259.082 243.539 257.692H250.316C251.34 254.564 249.39 251.939 245.876 251.939C242.806 251.939 240.779 253.985 240.779 257.055C240.779 260.125 242.767 262.171 245.876 262.171C248.386 262.171 250.181 260.839 250.76 258.754H247.903ZM245.856 254.12C247.227 254.12 247.903 254.893 247.787 256.051H243.578C243.829 254.796 244.621 254.12 245.856 254.12ZM269.733 258.793L267.378 248.367H264.037L261.701 258.831L258.863 248.367H255.967L259.944 261.882H263.207L265.679 251.05L268.227 261.882H271.471L275.448 248.367H272.552L269.733 258.793ZM282.426 258.754C282.117 259.507 281.403 259.912 280.437 259.912C279.047 259.912 278.256 259.082 278.063 257.692H284.84C285.863 254.564 283.913 251.939 280.399 251.939C277.329 251.939 275.302 253.985 275.302 257.055C275.302 260.125 277.29 262.171 280.399 262.171C282.909 262.171 284.704 260.839 285.284 258.754H282.426ZM280.38 254.12C281.75 254.12 282.426 254.893 282.31 256.051H278.101C278.352 254.796 279.144 254.12 280.38 254.12ZM293.418 258.754C293.11 259.507 292.395 259.912 291.43 259.912C290.04 259.912 289.248 259.082 289.055 257.692H295.832C296.855 254.564 294.905 251.939 291.391 251.939C288.321 251.939 286.294 253.985 286.294 257.055C286.294 260.125 288.283 262.171 291.391 262.171C293.901 262.171 295.697 260.839 296.276 258.754H293.418ZM291.372 254.12C292.743 254.12 293.418 254.893 293.303 256.051H289.094C289.345 254.796 290.136 254.12 291.372 254.12ZM304.778 258.194C306.052 257.615 306.824 256.476 306.824 255.008C306.824 253.155 305.627 251.939 303.619 251.939C302.055 251.939 300.858 252.692 300.318 253.947V248.367H297.711V261.882H300.318V257.132C300.318 255.337 301.264 254.217 302.596 254.217C303.484 254.217 304.102 254.68 304.102 255.549C304.102 256.553 303.252 257.287 301.92 257.287V258.966C303.194 259.179 304.179 260.202 304.411 261.882H307.481C307.095 260.125 306.11 258.851 304.778 258.194Z" fill="black"/>
<rect fill="white" height="152.317" rx="14.1357" stroke="black" stroke-width="0.689547" width="224.897" x="217.88" y="52.6623"/>
<mask height="152" id="mask1_12_600" maskUnits="userSpaceOnUse" style="mask-type:alpha" width="225" x="218" y="53">
<rect fill="white" height="151.628" rx="13.7909" width="224.208" x="218.225" y="53.0071"/>
</mask>
<g mask="url(#mask1_12_600)">
<g clip-path="url(#clip1_12_600)">
<rect fill="white" height="1040" transform="matrix(1 0 0 -1 216.787 614.246)" width="1664"/>
<mask height="1051" id="mask2_12_600" maskUnits="userSpaceOnUse" style="mask-type:alpha" width="1665" x="216" y="-431">
<rect fill="#C4C4C4" height="1049.53" transform="matrix(1 0 0 -1 216.787 619.157)" width="1664"/>
</mask>
<g mask="url(#mask2_12_600)">
<rect fill="black" height="1049.53" transform="matrix(1 0 0 -1 216.79 619.156)" width="1010.53"/>
<g filter="url(#filter1_f_12_600)">
<circle cx="427.267" cy="427.267" fill="#00D0F6" r="427.267" transform="matrix(1 0 0 -1 98.055 586.223)"/>
</g>
<g filter="url(#filter2_f_12_600)">
<path d="M1074.79 61.0226C1074.79 -132.351 993.999 -471.544 783.155 -471.544C572.311 -471.544 -98.2437 -974.211 283.955 61.0226C360.427 268.156 482.179 411.156 693.023 411.156C903.867 411.156 1074.79 254.396 1074.79 61.0226Z" fill="black"/>
</g>
<g filter="url(#filter3_f_12_600)">
<path d="M412.441 -609.53C230.637 -714.495 -9.47016 -638.98 -123.853 -440.864C-238.235 -242.747 -46.0496 -290.076 135.755 -185.111C373.222 -114.044 448.381 68.6378 436.626 -248.755C911.708 273.892 594.245 -504.566 412.441 -609.53Z" fill="black"/>
</g>
<g filter="url(#filter4_f_12_600)">
<path d="M524.922 765.317C491.434 816.944 446.423 921.49 451.338 1096.28L953.302 1262.22L1509.4 -419.963L1258.66 -531.006C1282.92 -572.265 1270.81 -554.014 1256.78 -531.839L1258.66 -531.006C1246.9 -511.012 1226.61 -477.041 1193.85 -422.767C1068.42 -214.932 940.896 -188.893 869.279 -150.889C787.81 -107.658 896.994 0.09088 864.518 98.33C846.672 152.311 816.128 168.917 741.845 217.508C667.562 266.1 581.122 292.758 595.892 464.836C610.661 636.914 558.41 713.689 524.922 765.317Z" fill="url(#paint0_linear_12_600)"/>
</g>
<g filter="url(#filter5_f_12_600)">
<path d="M524.921 765.316C491.433 816.944 446.422 921.49 451.337 1096.28L953.301 1262.22L1509.4 -419.963L1208.92 -547.662C1229.75 -580.583 1201.75 -610.54 1121.15 -437.744C1018.54 -217.747 912.72 -166.044 810.02 -83.2777C761.486 3.38897 883.827 -4.26186 851.351 93.9773C833.505 147.958 816.127 168.916 741.844 217.508C667.561 266.099 581.121 292.758 595.891 464.836C610.66 636.914 558.409 713.688 524.921 765.316Z" fill="url(#paint1_linear_12_600)"/>
</g>
<g filter="url(#filter6_f_12_600)">
<path d="M557.671 793C527.784 846.792 490.011 954.166 506.84 1128.21L1018.96 1259.52L1458.99 -456.685L1150.49 -563.585C1169.03 -597.851 1139.05 -625.828 1070.43 -447.936C983.068 -221.45 881.023 -162.648 784.209 -73.0676C741.702 16.7084 863.235 0.728541 837.537 100.955C823.416 156.027 807.509 178.122 736.714 231.668C665.919 285.215 581.5 317.709 607.975 488.378C634.45 659.048 587.559 739.208 557.671 793Z" fill="url(#paint2_linear_12_600)"/>
</g>
<g filter="url(#filter7_f_12_600)">
<path d="M524.922 765.317C491.434 816.944 446.423 921.49 451.338 1096.28L953.302 1262.22L1467.8 -419.963L1193.65 -538.957C1214.48 -571.878 1194.46 -613.33 1130.72 -429.885C1044.02 -180.344 982.449 -178.142 910.832 -140.138C829.364 -96.907 905.36 2.85666 872.883 101.096C855.038 155.077 816.128 168.917 741.845 217.508C667.562 266.1 581.122 292.758 595.892 464.836C610.661 636.914 558.41 713.689 524.922 765.317Z" fill="url(#paint3_linear_12_600)"/>
</g>
<g filter="url(#filter8_f_12_600)">
<path d="M524.922 765.316C491.434 816.944 446.423 921.49 451.338 1096.28L953.302 1262.22L1509.4 -419.963L1223.29 -538.169C1247.51 -579.37 1235.41 -561.124 1221.38 -538.957L1223.29 -538.169C1211.54 -518.181 1191.23 -484.199 1158.45 -429.885C1033.02 -222.051 992.326 -171.891 920.709 -133.888C839.24 -90.6567 883.828 -4.26167 851.352 93.9775C833.506 147.959 816.128 168.917 741.845 217.508C667.562 266.099 581.122 292.758 595.892 464.836C610.661 636.914 558.41 713.689 524.922 765.316Z" fill="url(#paint4_linear_12_600)"/>
</g>
<path d="M445.168 415.01C459.938 587.088 407.687 663.862 374.199 715.49L1911.99 642.122L1957.49 -422.767L1258.95 -531.501C1282.82 -572.119 1270.76 -553.925 1256.78 -531.839L1258.95 -531.501C1247.24 -511.574 1226.88 -477.491 1193.85 -422.767C1068.42 -214.932 927.73 -193.246 856.113 -155.242C774.645 -112.011 733.104 -54.0882 700.628 44.1509C682.783 98.132 665.405 119.09 591.122 167.681C516.839 216.273 430.399 242.932 445.168 415.01Z" fill="url(#paint5_linear_12_600)"/>
<mask height="1272" id="mask3_12_600" maskUnits="userSpaceOnUse" style="mask-type:alpha" width="941" x="374" y="-556">
<path d="M445.169 415.009C459.938 587.087 407.688 663.862 374.199 715.489L1269.35 642.121L1314.85 -422.768L1257.91 -529.725C1283.17 -572.638 1270.96 -554.241 1256.78 -531.84L1257.91 -529.725C1246.04 -509.572 1225.92 -475.898 1193.85 -422.768C1068.42 -214.933 927.731 -193.246 856.114 -155.243C774.646 -112.012 733.105 -54.0889 700.629 44.1503C682.784 98.1315 665.406 119.089 591.123 167.681C516.839 216.272 430.4 242.931 445.169 415.009Z" fill="url(#paint6_linear_12_600)"/>
</mask>
<g mask="url(#mask3_12_600)">
<g filter="url(#filter9_f_12_600)">
<path d="M461.621 453.189C469.854 811.989 250.587 760.422 84.1875 811.989L129.687 551.555C303.31 300.078 659.048 -204.698 693.021 -211.978C735.488 -221.078 716.854 -88.4779 704.721 32.8554C695.014 129.922 623.688 164.589 556.521 202.722C489.354 240.855 442.394 352.655 461.621 453.189Z" fill="white" fill-opacity="0.82"/>
</g>
</g>
</g>
</g>
</g>
<rect fill="black" height="0.718615" width="218.459" x="221.099" y="282.246"/>
<rect fill="black" height="0.718615" width="153.784" x="221.099" y="296.618"/>
<rect fill="#209BF1" height="28.026" rx="14.013" width="102.043" x="221.099" y="341.891"/>
</g>
<g clip-path="url(#clip2_12_600)" style="mix-blend-mode:soft-light">
<path d="M354.187 103.813H305.812C301.36 103.813 297.75 107.422 297.75 111.875V149.5C297.75 153.953 301.36 157.563 305.812 157.563H354.187C358.64 157.563 362.25 153.953 362.25 149.5V111.875C362.25 107.422 358.64 103.813 354.187 103.813Z" stroke="white" stroke-linecap="round" stroke-linejoin="round" stroke-width="0.689547"/>
<path d="M342.094 133.375H317.906C314.196 133.375 311.187 136.383 311.187 140.094C311.187 143.805 314.196 146.813 317.906 146.813H342.094C345.804 146.813 348.812 143.805 348.812 140.094C348.812 136.383 345.804 133.375 342.094 133.375Z" stroke="white" stroke-linecap="round" stroke-linejoin="round" stroke-width="0.689547"/>
<path d="M335.375 133.375V146.813" stroke="white" stroke-linecap="round" stroke-linejoin="round" stroke-width="0.689547"/>
<path d="M324.625 133.375V146.813" stroke="white" stroke-linecap="round" stroke-linejoin="round" stroke-width="0.689547"/>
<path d="M330 103.813V90.375" stroke="white" stroke-linecap="round" stroke-linejoin="round" stroke-width="0.689547"/>
<path d="M315.219 125.313C317.445 125.313 319.25 123.508 319.25 121.281C319.25 119.055 317.445 117.25 315.219 117.25C312.992 117.25 311.187 119.055 311.187 121.281C311.187 123.508 312.992 125.313 315.219 125.313Z" fill="white"/>
<path d="M344.781 125.313C347.008 125.313 348.812 123.508 348.812 121.281C348.812 119.055 347.008 117.25 344.781 117.25C342.555 117.25 340.75 119.055 340.75 121.281C340.75 123.508 342.555 125.313 344.781 125.313Z" fill="white"/>
</g>
<defs>
<filter color-interpolation-filters="sRGB" filterUnits="userSpaceOnUse" height="441.169" id="filter0_d_12_600" width="490.035" x="0.20285" y="0.26709">
<feFlood flood-opacity="0" result="BackgroundImageFix"/>
<feColorMatrix in="SourceAlpha" result="hardAlpha" type="matrix" values="0 0 0 0 0 0 0 0 0 0 0 0 0 0 0 0 0 0 127 0"/>
<feOffset dx="8" dy="8"/>
<feComposite in2="hardAlpha" operator="out"/>
<feColorMatrix type="matrix" values="0 0 0 0 0 0 0 0 0 0 0 0 0 0 0 0 0 0 0.2 0"/>
<feBlend in2="BackgroundImageFix" mode="normal" result="effect1_dropShadow_12_600"/>
<feBlend in="SourceGraphic" in2="effect1_dropShadow_12_600" mode="normal" result="shape"/>
</filter>
<filter color-interpolation-filters="sRGB" filterUnits="userSpaceOnUse" height="1291.33" id="filter1_f_12_600" width="1291.33" x="-120.345" y="-486.711">
<feFlood flood-opacity="0" result="BackgroundImageFix"/>
<feBlend in="SourceGraphic" in2="BackgroundImageFix" mode="normal" result="shape"/>
<feGaussianBlur result="effect1_foregroundBlur_12_600" stdDeviation="109.2"/>
</filter>
<filter color-interpolation-filters="sRGB" filterUnits="userSpaceOnUse" height="1288.98" id="filter2_f_12_600" width="1190.66" x="26.2624" y="-735.688">
<feFlood flood-opacity="0" result="BackgroundImageFix"/>
<feBlend in="SourceGraphic" in2="BackgroundImageFix" mode="normal" result="shape"/>
<feGaussianBlur result="effect1_foregroundBlur_12_600" stdDeviation="71.0667"/>
</filter>
<filter color-interpolation-filters="sRGB" filterUnits="userSpaceOnUse" height="1053.31" id="filter3_f_12_600" width="1308.72" x="-390.557" y="-889.115">
<feFlood flood-opacity="0" result="BackgroundImageFix"/>
<feBlend in="SourceGraphic" in2="BackgroundImageFix" mode="normal" result="shape"/>
<feGaussianBlur result="effect1_foregroundBlur_12_600" stdDeviation="116.133"/>
</filter>
<filter color-interpolation-filters="sRGB" filterUnits="userSpaceOnUse" height="1919.94" id="filter4_f_12_600" width="1160.51" x="399.929" y="-606.681">
<feFlood flood-opacity="0" result="BackgroundImageFix"/>
<feBlend in="SourceGraphic" in2="BackgroundImageFix" mode="normal" result="shape"/>
<feGaussianBlur result="effect1_foregroundBlur_12_600" stdDeviation="25.5193"/>
</filter>
<filter color-interpolation-filters="sRGB" filterUnits="userSpaceOnUse" height="1995.27" id="filter5_f_12_600" width="1218.51" x="370.93" y="-653.013">
<feFlood flood-opacity="0" result="BackgroundImageFix"/>
<feBlend in="SourceGraphic" in2="BackgroundImageFix" mode="normal" result="shape"/>
<feGaussianBlur result="effect1_foregroundBlur_12_600" stdDeviation="40.0183"/>
</filter>
<filter color-interpolation-filters="sRGB" filterUnits="userSpaceOnUse" height="2147.24" id="filter6_f_12_600" width="1255.05" x="353.314" y="-738.347">
<feFlood flood-opacity="0" result="BackgroundImageFix"/>
<feBlend in="SourceGraphic" in2="BackgroundImageFix" mode="normal" result="shape"/>
<feGaussianBlur result="effect1_foregroundBlur_12_600" stdDeviation="74.685"/>
</filter>
<filter color-interpolation-filters="sRGB" filterUnits="userSpaceOnUse" height="2294.91" id="filter7_f_12_600" width="1481.85" x="218.458" y="-800.177">
<feFlood flood-opacity="0" result="BackgroundImageFix"/>
<feBlend in="SourceGraphic" in2="BackgroundImageFix" mode="normal" result="shape"/>
<feGaussianBlur result="effect1_foregroundBlur_12_600" stdDeviation="116.255"/>
</filter>
<filter color-interpolation-filters="sRGB" filterUnits="userSpaceOnUse" height="2017.79" id="filter8_f_12_600" width="1251.25" x="354.561" y="-659.167">
<feFlood flood-opacity="0" result="BackgroundImageFix"/>
<feBlend in="SourceGraphic" in2="BackgroundImageFix" mode="normal" result="shape"/>
<feGaussianBlur result="effect1_foregroundBlur_12_600" stdDeviation="48.2032"/>
</filter>
<filter color-interpolation-filters="sRGB" filterUnits="userSpaceOnUse" height="1142.28" id="filter9_f_12_600" width="753.106" x="25.2541" y="-271.355">
<feFlood flood-opacity="0" result="BackgroundImageFix"/>
<feBlend in="SourceGraphic" in2="BackgroundImageFix" mode="normal" result="shape"/>
<feGaussianBlur result="effect1_foregroundBlur_12_600" stdDeviation="29.4667"/>
</filter>
<linearGradient gradientUnits="userSpaceOnUse" id="paint0_linear_12_600" x1="356.868" x2="1240.42" y1="1435.72" y2="79.5691">
<stop/>
<stop offset="0.536458" stop-color="#252525"/>
<stop offset="1"/>
</linearGradient>
<linearGradient gradientUnits="userSpaceOnUse" id="paint1_linear_12_600" x1="357.029" x2="1238.88" y1="1435.23" y2="80.6185">
<stop/>
<stop offset="0.536458" stop-color="#252525"/>
<stop offset="1"/>
</linearGradient>
<linearGradient gradientUnits="userSpaceOnUse" id="paint2_linear_12_600" x1="435.876" x2="1223.25" y1="1472.8" y2="61.1872">
<stop/>
<stop offset="0.536458" stop-color="#252525"/>
<stop offset="1"/>
</linearGradient>
<linearGradient gradientUnits="userSpaceOnUse" id="paint3_linear_12_600" x1="357.577" x2="1233.68" y1="1433.57" y2="84.1792">
<stop/>
<stop offset="0.536458" stop-color="#252525"/>
<stop offset="1"/>
</linearGradient>
<linearGradient gradientUnits="userSpaceOnUse" id="paint4_linear_12_600" x1="357.131" x2="1237.91" y1="1434.92" y2="81.2763">
<stop/>
<stop offset="0.536458" stop-color="#252525"/>
<stop offset="1"/>
</linearGradient>
<linearGradient gradientUnits="userSpaceOnUse" id="paint5_linear_12_600" x1="468.516" x2="1046.91" y1="1066.9" y2="-251.687">
<stop/>
<stop offset="0.536458" stop-color="#252525"/>
<stop offset="1"/>
</linearGradient>
<linearGradient gradientUnits="userSpaceOnUse" id="paint6_linear_12_600" x1="468.743" x2="1045.47" y1="1066.21" y2="-249.388">
<stop stop-color="#CD2F8D"/>
<stop offset="0.536458" stop-color="#F72D55"/>
<stop offset="1" stop-color="#FF974D"/>
</linearGradient>
<clipPath id="clip0_12_600">
<rect fill="white" height="17.2468" transform="translate(19.1682 40.0723)" width="17.2468"/>
</clipPath>
<clipPath id="clip1_12_600">
<rect fill="white" height="1040" transform="matrix(1 0 0 -1 216.787 614.246)" width="1664"/>
</clipPath>
<clipPath id="clip2_12_600">
<rect fill="white" height="86" transform="translate(287 85)" width="86"/>
</clipPath>
</defs>
</svg>