<?xml version="1.0" encoding="utf-8"?>
<svg xmlns="http://www.w3.org/2000/svg" fill="none" height="602" viewBox="0 0 565 602" width="565">
<rect fill="white" height="600.842" rx="17.2587" stroke="black" stroke-width="0.841889" width="563.224" x="0.579055" y="0.579055"/>
<mask height="600" id="mask0_338_1826" maskUnits="userSpaceOnUse" style="mask-type:alpha" width="563" x="1" y="1">
<rect fill="black" height="600" rx="16.8378" width="562.382" x="1" y="1"/>
</mask>
<g mask="url(#mask0_338_1826)">
<rect height="27" rx="2.02782" stroke="black" width="252" x="129.5" y="388.5"/>
<path d="M141.253 402.152H145.078V401.294H141.253V398.745H145.692V397.887H140.315V406H145.808V405.142H141.253V402.152ZM150.145 400.066C149.23 400.066 148.476 400.541 148.048 401.341V400.205H147.167V406H148.048V403.207C148.048 401.828 148.789 400.912 149.879 400.912C151.107 400.912 151.107 402.071 151.107 402.882V406H151.988V402.836C151.988 401.874 151.988 400.066 150.145 400.066ZM156.338 400.205H154.704V398.71H153.823V400.205H152.78V401.005H153.823V404.354C153.823 404.818 153.835 406.139 155.365 406.139C155.689 406.139 155.99 406.07 156.222 405.988V405.189C156.014 405.27 155.782 405.328 155.515 405.328C154.797 405.328 154.704 404.887 154.704 404.343V401.005H156.338V400.205ZM161.594 404.25C161.35 404.922 160.725 405.328 159.925 405.328C158.859 405.328 158.175 404.632 158.059 403.439H162.324C162.811 401.538 161.93 400.066 159.983 400.066C158.221 400.066 157.108 401.271 157.108 403.102C157.108 404.934 158.21 406.139 159.936 406.139C161.258 406.139 162.22 405.42 162.556 404.25H161.594ZM159.948 400.854C161.072 400.854 161.663 401.549 161.547 402.639H158.07C158.21 401.515 158.87 400.854 159.948 400.854ZM166.227 400.066C165.543 400.066 165.01 400.483 164.674 401.213V400.205H163.793V406H164.674V403.184C164.674 401.816 165.173 400.912 165.914 400.912C166.355 400.912 166.645 401.225 166.645 401.723C166.645 401.955 166.587 402.21 166.424 402.453H167.363C167.491 402.187 167.583 401.874 167.583 401.526C167.583 400.715 167.062 400.066 166.227 400.066ZM173.631 405.27L171.846 400.205H170.908L173.226 406.301L173.168 406.487C172.971 407.066 172.635 407.599 171.858 407.599C171.58 407.599 171.313 407.541 171.035 407.426V408.237C171.29 408.341 171.626 408.411 171.951 408.411C173.005 408.411 173.654 407.692 174.06 406.487L176.193 400.205H175.289L173.631 405.27ZM179.438 406.139C181.118 406.139 182.242 404.922 182.242 403.102C182.242 401.283 181.118 400.066 179.438 400.066C177.746 400.066 176.621 401.283 176.621 403.102C176.621 404.922 177.746 406.139 179.438 406.139ZM179.438 405.328C178.313 405.328 177.56 404.435 177.56 403.102C177.56 401.77 178.313 400.877 179.438 400.877C180.55 400.877 181.304 401.77 181.304 403.102C181.304 404.435 180.55 405.328 179.438 405.328ZM187.196 403.207C187.196 404.435 186.478 405.293 185.469 405.293C184.438 405.293 184.241 404.389 184.241 403.578V400.205H183.36V403.589C183.36 404.632 183.65 406.139 185.226 406.139C186.072 406.139 186.768 405.71 187.196 404.806V406H188.077V400.205H187.196V403.207ZM192.033 400.066C191.349 400.066 190.816 400.483 190.48 401.213V400.205H189.599V406H190.48V403.184C190.48 401.816 190.978 400.912 191.72 400.912C192.161 400.912 192.45 401.225 192.45 401.723C192.45 401.955 192.392 402.21 192.23 402.453H193.169C193.296 402.187 193.389 401.874 193.389 401.526C193.389 400.715 192.868 400.066 192.033 400.066ZM201.593 404.25C201.35 404.922 200.724 405.328 199.924 405.328C198.858 405.328 198.174 404.632 198.058 403.439H202.323C202.81 401.538 201.929 400.066 199.982 400.066C198.22 400.066 197.108 401.271 197.108 403.102C197.108 404.934 198.209 406.139 199.936 406.139C201.257 406.139 202.219 405.42 202.555 404.25H201.593ZM199.947 400.854C201.071 400.854 201.662 401.549 201.547 402.639H198.07C198.209 401.515 198.869 400.854 199.947 400.854ZM210.213 400.066C209.332 400.066 208.602 400.553 208.243 401.352C208.011 400.564 207.42 400.066 206.539 400.066C205.589 400.066 204.975 400.622 204.673 401.26V400.205H203.792V406H204.673V403.207C204.673 401.816 205.346 400.912 206.307 400.912C207.084 400.912 207.466 401.515 207.466 402.419V406H208.347V403.207C208.347 401.816 209.02 400.912 209.982 400.912C210.758 400.912 211.141 401.515 211.141 402.419V406H212.021V402.187C212.021 400.912 211.407 400.066 210.213 400.066ZM215.696 400.066C214.235 400.066 213.204 400.982 213.517 402.21H214.456C214.247 401.341 214.815 400.877 215.684 400.877C216.808 400.877 217.168 401.665 217.168 402.697V402.743C216.716 402.616 216.194 402.546 215.696 402.546C214.108 402.546 213.088 403.265 213.088 404.424C213.088 405.455 213.911 406.139 215.081 406.139C216.032 406.139 216.762 405.687 217.179 404.945V406H218.049V402.708C218.049 401.144 217.295 400.066 215.696 400.066ZM215.174 405.351C214.456 405.351 214.027 405.026 214.027 404.459C214.027 403.763 214.653 403.311 215.765 403.311C216.24 403.311 216.75 403.392 217.168 403.52C217.063 404.632 216.229 405.351 215.174 405.351ZM219.955 399.22C220.326 399.22 220.616 398.93 220.616 398.548C220.616 398.177 220.326 397.887 219.955 397.887C219.573 397.887 219.283 398.177 219.283 398.548C219.283 398.93 219.573 399.22 219.955 399.22ZM220.396 406V400.205H219.515V406H220.396ZM222.92 406V397.887H222.039V406H222.92Z" fill="black"/>
<rect fill="#209BF1" height="27.806" rx="2.52782" width="80.0475" x="356" y="388"/>
<path d="M182.636 285.082C184.028 284.492 184.783 283.36 184.783 281.661C184.783 278.995 182.849 277.485 179.333 277.485H171.902V294H179.333C183.486 294 185.798 292.254 185.798 289.211C185.798 287.111 184.689 285.695 182.636 285.082ZM181.268 282.086C181.268 283.336 180.607 284.02 179.31 284.02H175.299V280.269H179.333C180.607 280.269 181.268 280.882 181.268 282.086ZM175.299 291.216V286.71H179.357C181.268 286.71 182.283 287.488 182.283 288.928C182.283 290.414 181.244 291.216 179.333 291.216H175.299ZM196.086 290.178C195.708 291.098 194.835 291.594 193.656 291.594C191.957 291.594 190.99 290.579 190.754 288.88H199.035C200.285 285.058 197.902 281.85 193.608 281.85C189.857 281.85 187.38 284.35 187.38 288.102C187.38 291.853 189.81 294.354 193.608 294.354C196.675 294.354 198.87 292.726 199.577 290.178H196.086ZM193.585 284.516C195.26 284.516 196.086 285.459 195.944 286.875H190.801C191.108 285.341 192.075 284.516 193.585 284.516ZM209.518 290.178C209.14 291.098 208.268 291.594 207.088 291.594C205.389 291.594 204.422 290.579 204.186 288.88H212.467C213.718 285.058 211.335 281.85 207.041 281.85C203.289 281.85 200.812 284.35 200.812 288.102C200.812 291.853 203.242 294.354 207.041 294.354C210.108 294.354 212.302 292.726 213.01 290.178H209.518ZM207.017 284.516C208.692 284.516 209.518 285.459 209.376 286.875H204.233C204.54 285.341 205.507 284.516 207.017 284.516ZM223.399 289.494C224.956 288.786 225.899 287.394 225.899 285.601C225.899 283.336 224.437 281.85 221.983 281.85C220.072 281.85 218.609 282.77 217.949 284.303V277.485H214.764V294H217.949V288.196C217.949 286.002 219.105 284.634 220.733 284.634C221.818 284.634 222.573 285.2 222.573 286.262C222.573 287.488 221.535 288.385 219.907 288.385V290.437C221.464 290.697 222.667 291.947 222.95 294H226.702C226.23 291.853 225.026 290.296 223.399 289.494ZM236.06 290.178C235.683 291.098 234.81 291.594 233.63 291.594C231.931 291.594 230.964 290.579 230.728 288.88H239.009C240.26 285.058 237.877 281.85 233.583 281.85C229.832 281.85 227.354 284.35 227.354 288.102C227.354 291.853 229.784 294.354 233.583 294.354C236.65 294.354 238.844 292.726 239.552 290.178H236.06ZM233.559 284.516C235.234 284.516 236.06 285.459 235.918 286.875H230.775C231.082 285.341 232.049 284.516 233.559 284.516ZM249.492 290.178C249.115 291.098 248.242 291.594 247.062 291.594C245.364 291.594 244.396 290.579 244.16 288.88H252.441C253.692 285.058 251.309 281.85 247.015 281.85C243.264 281.85 240.787 284.35 240.787 288.102C240.787 291.853 243.217 294.354 247.015 294.354C250.082 294.354 252.276 292.726 252.984 290.178H249.492ZM246.992 284.516C248.667 284.516 249.492 285.459 249.351 286.875H244.208C244.514 285.341 245.482 284.516 246.992 284.516ZM261.91 281.85C260.164 281.85 258.796 282.628 257.923 283.973V282.204H254.738V298.719H257.923V292.231C258.796 293.575 260.164 294.354 261.934 294.354C265.072 294.354 267.337 291.853 267.337 288.102C267.337 284.35 265.072 281.85 261.91 281.85ZM260.966 291.617C259.126 291.617 257.923 290.202 257.923 288.102C257.923 286.002 259.126 284.61 260.966 284.61C262.783 284.61 264.034 286.002 264.034 288.102C264.034 290.202 262.783 291.617 260.966 291.617ZM277.279 290.178C276.901 291.098 276.028 291.594 274.849 291.594C273.15 291.594 272.183 290.579 271.947 288.88H280.228C281.478 285.058 279.095 281.85 274.801 281.85C271.05 281.85 268.573 284.35 268.573 288.102C268.573 291.853 271.003 294.354 274.801 294.354C277.868 294.354 280.063 292.726 280.77 290.178H277.279ZM274.778 284.516C276.453 284.516 277.279 285.459 277.137 286.875H271.994C272.3 285.341 273.268 284.516 274.778 284.516ZM289.012 281.85C287.479 281.85 286.323 282.723 285.709 284.209V282.204H282.524V294H285.709V288.196C285.709 286.026 286.559 284.634 287.715 284.634C288.493 284.634 288.989 285.223 288.989 286.144C288.989 286.781 288.753 287.465 288.304 288.22H291.631C292.032 287.418 292.268 286.45 292.268 285.507C292.268 283.312 290.994 281.85 289.012 281.85ZM298.653 294.354C301.838 294.354 304.079 292.915 304.079 290.461C304.079 285.955 296.6 287.653 296.6 285.577C296.6 284.917 297.308 284.374 298.511 284.374C299.951 284.374 300.847 285.153 300.564 286.309H303.678C304.15 283.525 301.744 281.85 298.511 281.85C295.515 281.85 293.297 283.312 293.297 285.742C293.297 290.225 300.776 288.644 300.776 290.65C300.776 291.358 299.903 291.829 298.653 291.829C297.096 291.829 296.176 291.098 296.247 289.918H293.156C293.062 292.655 295.232 294.354 298.653 294.354ZM327.202 290.225L324.323 277.485H320.242L317.387 290.272L313.919 277.485H310.38L315.24 294H319.227L322.247 280.764L325.361 294H329.325L334.185 277.485H330.646L327.202 290.225ZM342.712 290.178C342.335 291.098 341.462 291.594 340.282 291.594C338.583 291.594 337.616 290.579 337.38 288.88H345.661C346.912 285.058 344.529 281.85 340.235 281.85C336.484 281.85 334.006 284.35 334.006 288.102C334.006 291.853 336.436 294.354 340.235 294.354C343.302 294.354 345.496 292.726 346.204 290.178H342.712ZM340.211 284.516C341.886 284.516 342.712 285.459 342.571 286.875H337.427C337.734 285.341 338.701 284.516 340.211 284.516ZM356.144 290.178C355.767 291.098 354.894 291.594 353.714 291.594C352.016 291.594 351.048 290.579 350.812 288.88H359.094C360.344 285.058 357.961 281.85 353.667 281.85C349.916 281.85 347.439 284.35 347.439 288.102C347.439 291.853 349.869 294.354 353.667 294.354C356.734 294.354 358.928 292.726 359.636 290.178H356.144ZM353.644 284.516C355.319 284.516 356.144 285.459 356.003 286.875H350.86C351.166 285.341 352.134 284.516 353.644 284.516ZM370.025 289.494C371.582 288.786 372.526 287.394 372.526 285.601C372.526 283.336 371.063 281.85 368.609 281.85C366.698 281.85 365.236 282.77 364.575 284.303V277.485H361.39V294H364.575V288.196C364.575 286.002 365.731 284.634 367.359 284.634C368.444 284.634 369.199 285.2 369.199 286.262C369.199 287.488 368.161 288.385 366.533 288.385V290.437C368.09 290.697 369.294 291.947 369.577 294H373.328C372.856 291.853 371.653 290.296 370.025 289.494ZM378.379 294V277.485H375.194V294H378.379ZM385.91 290.768L383.102 282.204H379.705L384.494 294.637C384.117 295.463 383.456 296.312 382.111 296.312C381.64 296.312 381.097 296.194 380.484 295.982V298.695C381.144 298.955 381.852 299.049 382.465 299.049C385.91 299.049 387.042 296.312 387.538 294.873L391.832 282.204H388.482L385.91 290.768Z" fill="black"/>
<rect fill="black" height="0.842605" width="256.152" x="154" y="329"/>
<rect fill="black" height="0.842605" width="180.318" x="192" y="345.852"/>
<circle cx="18.6796" cy="15.3121" fill="black" r="3.36756"/>
<circle cx="28.7821" cy="15.3121" fill="black" r="3.36756"/>
<circle cx="38.8851" cy="15.3121" fill="black" r="3.36756"/>
</g>
<rect fill="#FF73E3" height="54" rx="4" width="54" x="255" y="186"/>
<g clip-path="url(#clip0_338_1826)">
<path clip-rule="evenodd" d="M270.219 217.579C270.14 216.524 270.267 215.478 270.584 214.48C270.948 213.322 271.567 212.252 272.415 211.357C273.263 210.453 274.293 209.764 275.419 209.328C276.37 208.955 277.392 208.765 278.431 208.765C278.843 209.383 279.39 209.874 280.016 210.223C279.239 210.731 278.549 211.349 277.971 212.07C276.964 213.314 276.298 214.836 276.1 216.493C275.339 217.349 274.325 217.88 273.255 218.062C272.24 218.229 271.178 218.078 270.219 217.587V217.579ZM279.707 202.4C279.556 202.218 279.398 202.052 279.223 201.901C278.819 201.552 278.351 201.299 277.844 201.14C277.265 200.958 276.94 200.347 277.123 199.769C277.305 199.19 277.915 198.865 278.494 199.048C279.279 199.293 280.016 199.697 280.65 200.236C281.118 200.633 281.522 201.108 281.863 201.655C281.997 201.647 282.132 201.639 282.267 201.639C282.402 201.639 282.536 201.639 282.671 201.655C283.004 201.108 283.416 200.633 283.884 200.236C284.518 199.697 285.255 199.293 286.04 199.048C286.618 198.865 287.236 199.19 287.411 199.769C287.593 200.347 287.268 200.966 286.69 201.14C286.182 201.299 285.715 201.552 285.31 201.901C285.136 202.052 284.977 202.218 284.827 202.4C285.374 202.765 285.849 203.248 286.214 203.827C286.666 204.564 286.896 205.396 286.896 206.221C286.896 206.347 286.896 206.474 286.88 206.593C287.934 206.664 288.956 206.902 289.931 207.275C291.358 207.83 292.658 208.701 293.736 209.851C294.814 211 295.598 212.355 296.058 213.814C296.518 215.272 296.66 216.834 296.439 218.387L296.367 218.886L295.955 219.156C294.417 220.162 292.626 220.487 290.938 220.21C290.066 220.067 289.218 219.758 288.449 219.291C288.33 220.107 288.1 220.9 287.775 221.653C287.125 223.166 286.071 224.506 284.716 225.513C284.494 225.679 284.137 225.893 283.741 226.107L283.305 226.963L282.275 228.984L281.244 226.963L280.808 226.107C280.42 225.893 280.063 225.679 279.833 225.513C278.478 224.506 277.424 223.174 276.774 221.653C276.449 220.9 276.227 220.107 276.1 219.291C275.332 219.75 274.483 220.059 273.612 220.21C271.923 220.487 270.132 220.155 268.594 219.156L268.182 218.886L268.111 218.387C267.897 216.834 268.032 215.272 268.491 213.814C268.951 212.355 269.744 211 270.814 209.851C271.884 208.709 273.191 207.838 274.618 207.275C275.593 206.894 276.616 206.664 277.67 206.593C277.662 206.466 277.654 206.339 277.654 206.221C277.654 205.396 277.884 204.564 278.335 203.827C278.692 203.24 279.168 202.757 279.723 202.4H279.707ZM294.306 217.579C294.386 216.524 294.259 215.478 293.942 214.48C293.577 213.322 292.959 212.252 292.111 211.357C291.263 210.453 290.232 209.764 289.107 209.328C288.156 208.955 287.133 208.765 286.095 208.765C285.683 209.383 285.136 209.874 284.51 210.223C285.287 210.731 285.976 211.349 286.555 212.07C287.561 213.314 288.227 214.836 288.425 216.493C289.186 217.349 290.201 217.88 291.271 218.062C292.285 218.229 293.347 218.078 294.306 217.587V217.579ZM284.676 206.221C284.676 205.785 284.557 205.349 284.328 204.968C284.09 204.588 283.765 204.287 283.376 204.096C283.083 203.946 282.758 203.859 282.425 203.843C282.37 203.843 282.314 203.843 282.259 203.843C282.203 203.843 282.148 203.843 282.092 203.843C281.76 203.859 281.435 203.946 281.141 204.088C280.753 204.287 280.428 204.58 280.19 204.96C279.952 205.341 279.841 205.777 279.841 206.213C279.841 206.649 279.96 207.085 280.19 207.465C280.428 207.845 280.753 208.147 281.141 208.337C281.435 208.487 281.76 208.575 282.092 208.59C282.148 208.59 282.203 208.59 282.259 208.59C282.314 208.59 282.37 208.59 282.425 208.59C282.758 208.575 283.083 208.487 283.376 208.345C283.765 208.147 284.09 207.853 284.328 207.473C284.565 207.092 284.676 206.657 284.676 206.221ZM282.259 224.419C282.322 224.387 282.394 224.347 282.457 224.316C282.861 224.094 283.226 223.888 283.392 223.769C284.431 223 285.239 221.97 285.738 220.804C286.198 219.742 286.404 218.561 286.309 217.357L286.285 217.024C286.182 215.684 285.667 214.448 284.867 213.449C284.193 212.609 283.305 211.935 282.275 211.515C281.244 211.935 280.357 212.609 279.683 213.449C278.874 214.448 278.367 215.684 278.264 217.024L278.24 217.349C278.145 218.561 278.351 219.742 278.811 220.804C279.318 221.97 280.119 223 281.157 223.769C281.324 223.888 281.688 224.102 282.092 224.316C282.156 224.355 282.227 224.387 282.291 224.419H282.259Z" fill="white" fill-rule="evenodd"/>
</g>
<defs>
<clipPath id="clip0_338_1826">
<rect fill="white" height="30" transform="translate(268 199)" width="28.5258"/>
</clipPath>
</defs>
</svg>