<?xml version="1.0" encoding="utf-8"?>
<svg xmlns="http://www.w3.org/2000/svg" data-name="Layer 4" id="Layer_4" viewBox="0 0 183.39 63.05">
  <defs>
    <style>
      .cls-1 {
        fill: #0d0d10;
      }
    </style>
  </defs>
  <path class="cls-1" d="m128.68,41.61c0,.52-.04,1.04,0,1.55.07.77-.14,1.51-.19,2.27-.02.44-.22.89-.39,1.31-.31.76-.56,1.54-1.09,2.19-.13.66-.61,1.1-.96,1.63-.28.41-.61.77-.98,1.05-.32.25-.62.52-.9.8-.32.32-.68.58-1.09.76-.4.18-.66.62-1.17.56-.09.52-.76.14-.92.58-.02.05-.24.02-.36.04-.15.02-.39-.09-.37.23,0,.02-.17.06-.27.08-.17.03-.38,0-.5.1-.4.3-.9.21-1.33.35-.47.15-.99.15-1.49.17-.52.03-1.04,0-1.56,0s-1,.06-1.48-.01c-.86-.14-1.77-.09-2.57-.55-.28-.16-.61-.05-.93-.19-.63-.29-1.32-.43-1.93-.79-.22-.13-.52-.12-.58-.44-.33-.03-.46-.47-.87-.37-.14.03-.35-.13-.51-.24-.25-.16-.37-.48-.7-.56-.07-.02-.04-.3-.13-.39s-.27-.08-.41-.12c-.02,0-.05-.03-.05-.05-.05-.48-.54-.59-.76-.92-.51-.75-1.04-1.47-1.5-2.26-.48-.84-.84-1.73-1.17-2.62-.19-.51-.43-1.04-.41-1.62.01-.31-.1-.63-.14-.95-.04-.32.08-.66-.16-.95.09-.7-.18-1.43.14-2.12.06-.13.02-.3.02-.46,0-.47-.01-.93,0-1.4.04-1.06.34-2.06.71-3.05.2-.54.43-1.07.7-1.57.28-.51.6-1.01.95-1.47.3-.38.67-.72,1.04-1.05.34-.3.56-.74,1.03-.88.74-.74,1.66-1.2,2.59-1.64.8-.38,1.64-.69,2.53-.86.32-.06.63-.11.95-.17.32-.06.66-.06.94-.15.6-.2,1.21-.11,1.81-.13.6-.02,1.21-.09,1.79.01.98.18,2.02.1,2.94.6,1.15.15,2.15.7,3.14,1.26.68.39,1.36.78,1.94,1.32.31.29.69.52.97.83,1.08,1.21,2.01,2.53,2.65,4.03.35.82.7,1.65.85,2.52.11.63.26,1.28.2,1.95-.06.59-.01,1.19-.01,1.79Zm-13.45,7.76c.62.1,1.37-.08,2.13-.16.21-.02.42-.13.59-.25.23-.15.46-.32.63-.53.19-.22.65,0,.66-.45.62.07.66-.67,1.13-.82-.03-.4.35-.47.54-.7.06-.07.1-.17.14-.25.22-.45.47-.89.65-1.37.19-.5.13-1.04.41-1.54.22-.38.15-.92.18-1.39.02-.36-.04-.73.02-1.09.06-.37-.21-.67-.16-1.02.04-.29-.08-.53-.18-.79-.05-.14-.1-.27-.14-.41-.11-.42-.16-.87-.33-1.26-.18-.42-.47-.79-.69-1.19-.33-.63-.92-1.01-1.38-1.53-.17-.19-.32-.37-.64-.36-.12,0-.43-.1-.44-.4,0-.07-.14-.19-.22-.19-.51,0-.92-.3-1.36-.49-.52-.23-1.07-.14-1.6-.26-.84-.2-1.72.04-2.57.14-.12.01-.38.05-.45.3-.04.12-.25.28-.37.28-.33-.01-.55.21-.82.3-.42.14-.76.35-1.05.65-.32.32-.67.61-.86,1.04-.03.07-.1.14-.16.2-.4.34-.68.74-.78,1.27-.03.14-.09.27-.15.4-.18.38-.38.75-.32,1.19.01.08-.04.19-.1.27-.21.28-.22.6-.21.93.01.49.05.99,0,1.48-.09.82.3,1.55.37,2.35.04.44.22.89.43,1.29.21.4.24.94.75,1.16-.05.51.4.68.67.96.33.34.73.62,1.08.94.62.55,1.34.89,2.16.98.16.02.27.08.41.15.24.13.5.19.79.17.36-.03.73,0,1.23,0Z"/>
  <path class="cls-1" d="m28.89,45.88c0,2.2-.02,4.41.02,6.61,0,.37-.17.51-.41.59-.48.16-.88.55-1.43.51-.07.27-.57-.06-.55.38,0,.02-.33.08-.49.06-.29-.04-.56.04-.79.17-.6.37-.75.47-1.2.45-.48-.02-.94.05-1.38.24-.09.04-.18.07-.28.07-.65.06-1.32.03-1.96.17-1.2.27-2.41.18-3.59.11-1.25-.08-2.53-.21-3.69-.83-.32-.17-.66-.27-.97-.48-.21-.14-.56-.11-.82-.25-1.39-.73-2.6-1.69-3.63-2.86-.6-.68-1.11-1.44-1.54-2.23-.36-.66-.54-1.39-.79-2.08-.27-.73-.34-1.51-.61-2.23,0-.02,0-.05,0-.08.11-.95-.27-1.88-.13-2.81.11-.73.04-1.48.16-2.19.12-.66.22-1.34.41-2,.19-.65.42-1.28.65-1.91.38-1,1.03-1.85,1.56-2.78.07-.13.22-.21.31-.34.24-.32.68-.48.77-.92.38-.12.58-.48.87-.71.58-.45,1.14-.92,1.82-1.24.54-.26,1.07-.55,1.6-.82.7-.35,1.45-.51,2.14-.85.24-.12.52-.02.8-.14.42-.17.93-.18,1.4-.19,1.09-.02,2.18-.03,3.27,0,.6.01,1.22.02,1.8.17.61.16,1.24.22,1.84.45.56.21,1.12.44,1.68.64.72.25,1.33.68,1.97,1.08.41.26.7.6.58,1.13-.03.11-.07.24-.14.33-.73.89-1.38,1.85-2.18,2.68-.29.3-.55.65-.84.97-.18.2-.36.25-.59.08-.14-.1-.31-.16-.42-.28-.15-.16-.23-.4-.4-.52-.17-.12-.42-.1-.62-.2-.35-.17-.63-.46-1.02-.54-.28-.06-.63-.08-.82-.25-.26-.24-.57-.06-.84-.26-.2-.15-.6-.03-.91-.03-.54,0-1.1-.07-1.63.02-.49.08-.94.36-1.41.53-.92.32-1.71.81-2.43,1.48-.85.79-1.42,1.48-1.85,2.49-.32.73-.48,1.51-.7,2.28-.24.85-.14,1.72-.15,2.58-.02,1.51-.06,1.53.48,2.91.38.97.87,1.91,1.64,2.67.71.7,1.64,1.03,2.48,1.53.7,0,1.34.33,2.05.32,1.11-.03,2.23,0,3.35,0,.2,0,.4.02.55-.18.06-.08.21-.1.33-.13.1-.02.21.02.31,0,.21-.05.46-.09.6-.22.09-.09.04-.34.04-.52,0-1.48,0-2.95,0-4.43,0-.27-.13-.32-.32-.27-1.11.3-2.24.08-3.36.16-.29.02-.58.1-.87.15-.17.03-.28,0-.28-.23.01-1.61,0-3.21,0-4.82,0-.15.03-.25.21-.23.1,0,.21,0,.31,0h9.57s.05,0,.08,0c.42,0,.42,0,.42.4,0,2.23,0,4.46,0,6.68Z"/>
  <path class="cls-1" d="m154.98,34.06c0,1.27-.02,2.54,0,3.81.02.91.12,1.82.14,2.73.03.91,0,1.81,0,2.72s.02,1.87,0,2.8c-.02.7-.09,1.41-.16,2.11-.01.11-.1.21-.15.33-.06.13-.16.27-.15.4.06.46-.21.8-.38,1.17-.33.73-.7,1.44-1.2,2.07-.39.5-.87.94-1.34,1.37-.29.26-.66.43-.95.69-.17.15-.57-.05-.54.37-.21.11-.42.24-.64.32-.23.08-.47.13-.7.18-.24.06-.48.08-.71.16-.23.08-.43.23-.65.3-.21.06-.45.05-.67.08-.49.07-.97.2-1.46.23-.75.04-1.52.09-2.25-.01-.82-.12-1.66-.1-2.47-.42-.4-.16-.87-.13-1.2-.48-.59.08-.95-.45-1.48-.58-.33-.08-.7-.22-.96-.54-.24-.29-.68-.41-.77-.84-.37-.14-.6-.46-.87-.72-.75-.73-1.27-1.6-1.67-2.57-.24-.58-.51-1.14-.64-1.76-.08-.36-.24-.71-.23-1.06.03-1.12-.27-2.23-.18-3.36.05-.59,0-1.19,0-1.79,0-.79-.22-1.55-.17-2.35.05-.8.01-1.61.01-2.41v-4.9c0-.8,0-1.61,0-2.41,0-.4-.23-.76-.16-1.18.03-.2.02-.32.28-.32,1.24.01,2.49-.06,3.73.04.57.04,1.15.11,1.73.13.38,0,.49.11.49.5,0,.8-.08,1.62.02,2.41.2,1.53.12,3.07.13,4.6.02,1.55-.12,3.12.04,4.66.14,1.44,0,2.87.15,4.29.07.66.07,1.38.44,1.99.03.83.51,1.44,1.07,1.96.59.56,1.29.95,2.12,1.06.07,0,.15.02.21.06.63.35,1.32.25,2,.24.21,0,.42-.11.62-.18.09-.03.17-.11.26-.12.15-.02.31,0,.47,0,.04,0,.08-.06.12-.09.33-.26.75-.34,1.07-.61.14-.12.2-.36.34-.47.16-.12.36-.14.3-.42-.02-.08.14-.2.23-.28.18-.14.27-.3.22-.53,0-.05-.02-.13,0-.15.39-.39.21-.9.33-1.35.26-1.04.22-2.1.1-3.12-.18-1.51-.08-3.02-.11-4.52-.03-1.53,0-3.06,0-4.58v-4.58c0-.1,0-.21,0-.31-.02-.18.02-.28.25-.27.7.01,1.42-.1,2.1.03,1.1.22,2.19.07,3.29.13.54.03.6.07.6.63,0,1.58,0,3.16,0,4.74Z"/>
  <path class="cls-1" d="m83.84,49.14c0,1.58,0,3.16,0,4.74,0,.22-.02.32-.28.32-1.79-.01-3.58-.01-5.37,0-.28,0-.25-.14-.27-.33-.31-2.95.01-5.92-.18-8.87-.15-2.21-.09-4.41-.12-6.62-.03-2.2,0-4.4,0-6.61-.3-1.32-.09-2.65-.16-3.98-.01-.26.03-.37.33-.35.49.03,1-.07,1.47.02,1.27.26,2.55.08,3.83.13.25,0,.23.14.3.3.13.27.13.53.13.8,0,.39.01.78,0,1.17-.09,2.73.27,5.45.16,8.17,0,.11-.07.28.14.29.13,0,.29.07.33-.18.05-.33.34-.54.56-.78.24-.26.45-.54.66-.81.22-.27.55-.44.67-.81.05-.15.24-.26.37-.39.45-.44.83-.93,1.16-1.46.07-.11.18-.18.27-.28.75-.85,1.53-1.69,2.25-2.57.54-.67,1.12-1.29,1.65-1.96.27-.34.59-.63.83-.98.27-.39.6-.5,1.03-.5,1.27,0,2.55-.09,3.81.03.92.09,1.83.1,2.74.12.2,0,.19.14.17.26-.02.09-.06.19-.13.26-.35.37-.67.75-1,1.13-.87,1-1.82,1.95-2.74,2.92-.74.78-1.52,1.53-2.18,2.37-.43.54-.94,1-1.39,1.52-.93,1.08-1.85,2.16-2.86,3.17-.25.25-.14.73.12,1,.28.28.55.59.77.92.37.57.89,1.01,1.27,1.57.53.79,1.28,1.4,1.76,2.22.63.42,1,1.08,1.45,1.65.46.57,1.07,1.04,1.36,1.76.15.36.57.55.79.91.19.31.44.62.77.85.32.23.56.58.78.91.48.73,1.17,1.29,1.61,2.05.13.22.36.37.54.56.26.27.23.23-.08.44-.18.12-.33.11-.5.11-2.2,0-4.41,0-6.61,0-.27,0-.42-.07-.59-.33-.25-.37-.44-.82-.92-1.02-.24-.1-.59-.76-.77-1.15-.06-.13-.21-.21-.3-.33-.32-.38-.63-.77-.95-1.16-.25-.3-.54-.58-.61-.99-.01-.06-.13-.1-.2-.15-.22-.16-.63-.68-.73-.91-.05-.11-.13-.21-.2-.3-.27-.35-.73-.55-.79-1.08-.02-.21-.34-.26-.49-.47-.35-.47-.74-.92-1.02-1.45-.08-.15-.3-.22-.43-.36-.13-.14-.22-.32-.34-.48-.1-.14-.2-.29-.31-.41-.42-.46-.77-.97-1.12-1.48-.06-.08-.14-.15-.23-.2-.15-.09-.38.04-.36.22.06.6-.16,1.22.14,1.81.06.12,0,.31,0,.46v4.59Z"/>
  <path class="cls-1" d="m42.33,27.6c2.75,0,5.5,0,8.25,0,.42,0,.41-.08.42.41.04,1.3.1,2.6.15,3.9,0,.08,0,.16,0,.23,0,.18.05.41-.04.52-.08.1-.35.01-.5.08-.64.27-1.31.13-1.96.14-1.09.02-2.19-.09-3.27.03-1.8.19-3.59.1-5.39.13-.17,0-.21.07-.21.23,0,1.55,0,3.11,0,4.66,0,.23.1.24.28.24,1.4,0,2.81.1,4.2-.04.94-.09,1.88-.09,2.82-.12.96-.02,1.92,0,2.88,0,.36,0,.52.14.57.5.01.1,0,.21,0,.31,0,1.22,0,2.44,0,3.65,0,.66-.01.67-.71.67-3.09,0-6.17,0-9.26,0-.18,0-.36,0-.54,0-.16,0-.25.05-.22.22.07.42-.16.87.14,1.26.05.07.01.2.01.3,0,.88.01,1.76,0,2.64,0,.32-.1.63-.15.95-.02.16.03.24.21.23.18,0,.36,0,.54,0,3.66,0,7.32,0,10.97,0,.43,0,.42-.07.42.41,0,1.53,0,3.06,0,4.59,0,.24-.1.25-.3.31-.65.19-1.31.12-1.96.14-1.22.04-2.45-.01-3.67.12-1.23.14-2.49.03-3.73.03h-7.47c-.18,0-.36,0-.54,0-.16,0-.23-.05-.22-.22.02-.53-.22-1.03-.16-1.57.05-.51.01-1.04.01-1.55,0-4.38,0-8.76,0-13.14,0-.78-.12-1.56-.14-2.35-.03-.78,0-1.55,0-2.33v-4.74c0-.13,0-.26,0-.39,0-.46,0-.46.44-.46,2.72,0,5.45,0,8.17,0Z"/>
  <path class="cls-1" d="m64.28,27.45c2.75,0,5.5,0,8.25,0,.44,0,.42-.06.42.41,0,1.55,0,3.11,0,4.66,0,.37.08.37-.38.37-3.37,0-6.74,0-10.12,0-.28,0-.67-.08-.81.07-.15.15-.06.53-.06.81,0,.41-.07.84.01,1.24.17.88.14,1.77.14,2.66,0,.19.1.19.25.19,1.74.05,3.48.11,5.23.15.62.02,1.25.04,1.87,0,1.03-.08,2.03.2,3.05.16.18,0,.2.08.2.24,0,.6-.02,1.19,0,1.79.02.47-.03.94.12,1.42.11.37-.07.83-.13,1.25,0,.05-.09.12-.14.12-.18.02-.36,0-.54,0h-8.72c-.18,0-.37-.03-.54,0-.19.04-.34.21-.56.15-.02.17-.07.34-.07.51,0,1.53,0,3.06,0,4.59,0,.27.05.32.33.35,1.79.24,3.59.12,5.38.14,1.79.02,3.58,0,5.37,0,.18,0,.37-.03.54,0,.13.03.31.13.35.24.09.25.16.52.16.79.02,1.17.02,2.33,0,3.5,0,.26-.09.53-.15.79-.04.2-.2.12-.31.12-2.2,0-4.41,0-6.61,0-1.37-.31-2.76-.12-4.14-.15-1.4-.03-2.8-.02-4.2,0-.66,0-1.29-.27-1.96-.16-.15.02-.34.04-.45-.02-.17-.1.03-.4-.22-.53-.05-.03,0-.24,0-.37.11-6.35-.25-12.7-.16-19.05.03-2.02,0-4.04,0-6.06,0-.37,0-.38.37-.38,2.75,0,5.5,0,8.25,0Z"/>
  <path class="cls-1" d="m171.33,39.34c0,1.37-.01,2.75,0,4.12.01.81.21,1.6.16,2.42-.05.8,0,1.61,0,2.41v2.49c0,.8-.09,1.62.03,2.41.11.76.11,1.51.13,2.27,0,.25-.1.25-.3.3-.86.25-1.74.23-2.58.11-1.02-.14-2.04-.08-3.05-.12-.33-.02-.46-.13-.45-.46.05-.87-.23-1.71-.17-2.58.06-.88.03-1.76,0-2.64-.04-1.35-.11-2.7-.14-4.05,0-.32.01-.63.11-.96.11-.35.14-.79-.08-1.19-.09-.16-.04-.4-.04-.6,0-2.72,0-5.44,0-8.16,0-.18,0-.36,0-.54.01-.18-.02-.28-.24-.28-.62.01-1.28.13-1.85-.04-.6-.17-1.16-.06-1.74-.1-.62-.04-1.24,0-1.87,0-.13,0-.26-.01-.39,0-.36.03-.69-.06-1.03-.15-.17-.04-.2-.09-.2-.24.02-.79-.22-1.55-.17-2.35.06-.8.02-1.61,0-2.41,0-.23.06-.3.3-.3,2.15,0,4.31,0,6.46,0,1.42.31,2.86.12,4.29.15,1.45.03,2.9,0,4.36,0,.62,0,1.26-.09,1.86.02.63.12,1.25.12,1.89.13.62,0,1.24,0,1.87,0,.34,0,.46.12.46.44,0,1.63,0,3.26,0,4.9,0,.2-.06.26-.26.26-1.27,0-2.56.12-3.81-.04-1.05-.13-2.09-.06-3.13-.11-.43-.02-.43,0-.43.46,0,1.48,0,2.95,0,4.43Z"/>
  <path class="cls-1" d="m117.16,11.91v.6c0,2.15-.02,4.3.01,6.45,0,.56-.18,1.09-.18,1.64,0,.05-.12.15-.19.15-.75.01-1.5,0-2.26,0-.18,0-.2-.09-.2-.24,0-.23,0-.47,0-.7,0-3.91,0-7.82,0-11.73,0-.39,0-.39.35-.39,1.14,0,2.28,0,3.42,0,.48,0,.47.01.59.56.05.23.12.47.23.68.47.85.66,1.8,1,2.69.36.91.69,1.84,1.02,2.76.09.25.18.5.22.76.04.27.09.54.37.62.22.06.33-.1.41-.57.09-.53.26-1.03.47-1.52.2-.46.5-.89.49-1.44,0-.14.28-.3.26-.42-.08-.51.53-.83.34-1.34.29-.32.26-.77.44-1.14.15-.3.26-.62.33-.95.06-.27.17-.4.45-.4,1.3,0,2.59,0,3.89,0,.06,0,.14.1.18.17.03.06,0,.15,0,.23,0,4.04,0,8.08,0,12.12,0,.37,0,.38-.36.38-.78,0-1.56,0-2.33,0-.19,0-.27-.04-.27-.25,0-2.25,0-4.51,0-6.76.21-.45.15-.94.15-1.41,0-.11.07-.27-.15-.29-.21-.02-.13.17-.19.26-.64.87-.82,1.94-1.23,2.91-.45,1.06-.69,2.2-1.18,3.24-.23.47-.35.99-.52,1.49-.2.6-.26.65-.9.65-.18,0-.36.01-.54,0-.25-.02-.53,0-.74-.1-.35-.18-.56-.55-.59-.9-.09-.87-.35-1.65-.79-2.4-.25-.43-.3-.96-.49-1.43-.37-.94-.59-1.93-1.04-2.83-.19-.38-.29-.8-.42-1.2-.03,0-.06,0-.09,0Z"/>
  <path class="cls-1" d="m68.12,13.72c0,.23,0,.47,0,.7.04,1.25-.09,1.54-.64,2.69-.21.44-.49.86-.86,1.2-.51.46-.93,1.01-1.53,1.38-.74.46-1.51.79-2.4.78-.73-.01-1.45,0-2.18,0-.62-.01-1.23-.12-1.81-.31-.53-.18-1.05-.39-1.45-.81-.17-.17-.41-.28-.59-.45-.82-.8-1.35-1.79-1.74-2.85-.15-.41-.16-.88-.18-1.32-.03-.52-.03-1.04,0-1.55.03-.57.03-1.16.17-1.72.12-.48.38-.93.64-1.36.4-.66.98-1.17,1.54-1.69.29-.27,1.74-.93,2.15-1,.68-.12,1.37-.31,2.05-.29,1.35.02,2.68.25,3.86.98.69.43,1.35.89,1.82,1.62.42.66.86,1.29,1.08,2.04.05.16.08.34.08.51.01.49,0,.98,0,1.47Zm-3.11.32s.03,0,.05,0c-.07-.6-.09-1.2-.22-1.79-.07-.31-.11-.69-.45-.9-.11-.06-.22-.16-.27-.27-.29-.6-.85-.81-1.42-1.05-.48-.21-.95-.13-1.42-.13-1.07-.02-2.14.55-2.74,1.41-.34.48-.61,1.03-.65,1.58-.06.72-.08,1.45.1,2.19.23.97.8,1.65,1.5,2.25.28.24.67.43,1.03.48.59.08,1.19.07,1.78,0,.34-.04.68-.22,1-.38.18-.09.34-.2.49-.39.32-.4.63-.8.89-1.25.21-.36.37-.69.34-1.11-.02-.21,0-.41,0-.62Z"/>
  <path class="cls-1" d="m142.22,15.57c0-1.48.01-2.95,0-4.43-.01-.94.27-1.86.17-2.81,0-.05.12-.16.18-.16.93-.01,1.88-.1,2.79.02.61.08,1.21.04,1.8.14,1.2.21,2.45.2,3.57.76.45-.06.67.38,1.05.47.69.74,1.61,1.32,1.82,2.42.66,1.16.68,2.44.58,3.71-.03.44-.09.92-.29,1.35-.23.48-.46.95-.72,1.41-.28.49-.65.93-1.1,1.24-.95.67-1.97,1.19-3.15,1.4-1.02.19-2.03.08-3.05.12-.78.03-1.55.02-2.33,0-.39-.01-.79-.09-1.18-.15-.05,0-.12-.09-.13-.14-.02-.15,0-.31,0-.47v-4.89Zm2.96-.87c0,1.16,0,2.33,0,3.49,0,.38,0,.36.35.39,1.13.1,2.23-.16,3.36-.16.05,0,.13-.02.13-.04.05-.39.42-.34.63-.5.38-.29.73-.63.95-1.07.16-.32.39-.63.47-.97.08-.37.02-.77.02-1.16,0-.35-.09-.69-.13-1.03-.04-.39-.13-.72-.34-1.03-.13-.2-.39-.33-.33-.65.01-.06-.18-.24-.26-.23-.25.02-.35-.17-.52-.26-.39-.2-.76-.47-1.24-.38-.17.03-.41.06-.53-.02-.36-.25-.75-.07-1.12-.13-.39-.06-.79-.1-1.18-.16-.28-.04-.27.12-.27.32,0,1.19,0,2.38,0,3.57Z"/>
  <path class="cls-1" d="m16.13,14.2c0-2.05,0-4.09,0-6.14,0-.35,0-.36.38-.36.73,0,1.45,0,2.18,0,.39,0,.39,0,.39.43,0,1.32,0,2.64,0,3.96,0,.42,0,.43.39.43,1.4,0,2.8,0,4.2,0,.38,0,.39,0,.39-.36,0-1.22,0-2.43,0-3.65,0-.16-.02-.31,0-.47.05-.36.2-.5.57-.5.7,0,1.4.01,2.1,0,.25,0,.29.08.29.31,0,1.48-.12,2.96.03,4.42.13,1.31.08,2.6.11,3.9.03,1.29,0,2.59,0,3.88,0,.54,0,.55-.51.55-.65,0-1.3,0-1.94,0-.5,0-.5,0-.5-.47,0-1.53,0-3.06,0-4.58,0-.38,0-.38-.36-.38-1.48,0-2.96,0-4.43,0-.26,0-.36.03-.35.33.03.78.03,1.55,0,2.33-.02.7.11,1.42-.14,2.11-.09.25-.06.55-.08.82-.28,0-.57,0-.85,0-.52,0-1.04-.03-1.56,0-.32.02-.33-.11-.33-.36,0-2.07,0-4.14,0-6.21Z"/>
  <path class="cls-1" d="m172.3,21.7c-.32,0-.58-.02-.84,0-.39.04-.59-.16-.76-.49-.29-.56-.65-1.08-.92-1.64-.17-.37-.39-.53-.8-.53-1.37.02-2.75.02-4.12,0-.28,0-.37.12-.48.33-.26.5-.28,1.07-.52,1.57-.19.41-.15.44-.56.44-.83,0-1.66,0-2.49,0-.24,0-.25-.11-.24-.28,0-.1-.01-.22.04-.29.24-.37.3-.81.46-1.21.29-.73.64-1.44.91-2.18.18-.49.36-1,.63-1.44.23-.36.28-.77.45-1.14.17-.37.31-.75.47-1.12.09-.22.25-.42.3-.65.07-.31.45-.37.49-.72.04-.3.2-.59.3-.88.1-.3.35-.53.32-.88,0-.08.08-.18.15-.24.31-.29.33-.65.32-1.04-.01-.41.41-.81.81-.82.54,0,1.09-.02,1.63,0,.29.01.59.07.86.16.11.04.2.2.26.33.32.72.64,1.44.93,2.17.41,1.02.78,2.06,1.18,3.08.22.58.5,1.14.68,1.73.18.6.45,1.17.67,1.74.19.48.39.98.62,1.45.3.62.58,1.26.82,1.91.13.35.09.29-.24.48-.47.26-.95.07-1.36.14Zm-4.05-4.98c.44,0,.44,0,.44-.38,0-.18-.07-.32-.14-.48-.32-.82-.65-1.65-.81-2.53-.04-.24-.17-.45-.16-.71,0-.08-.16-.2-.27-.24-.06-.02-.19.06-.24.13-.15.22-.32.44-.4.68-.36,1.06-.66,2.15-1.23,3.13-.07.12-.03.24.16.25.91.05,1.83-.14,2.65.15Z"/>
  <path class="cls-1" d="m99.43,20.61c-.68-.27-1.47-.11-2.26-.16-.5-.03-.71-.26-.72-.75-.01-.58-.36-1.04-.54-1.57-.05-.15-.21-.18-.39-.18-.54.02-1.09,0-1.63,0-.96,0-1.92,0-2.88,0-.2,0-.29.02-.34.27-.06.29-.09.64-.38.85-.06.04-.05.18-.06.28-.11.69-.56,1.08-1.26,1.09-.62,0-1.24,0-1.87,0-.27,0-.39-.14-.29-.37.2-.44.34-.9.54-1.33.3-.63.55-1.28.79-1.93.23-.63.47-1.27.72-1.88.29-.7.56-1.43.88-2.12.41-.89.7-1.83,1.11-2.72.3-.66.49-1.35.77-2.01.05-.11.14-.21.14-.33.01-.17.06-.22.23-.22.65,0,1.3.01,1.95,0,.3,0,.55.25.87.18.05-.01.22.23.22.35-.01.26.15.4.26.6.22.37.41.77.52,1.18.24.86.67,1.64.98,2.47.43,1.17.97,2.29,1.37,3.47.21.61.54,1.18.76,1.78.3.83.58,1.68.94,2.49.02.04,0,.1,0,.15.04.37.02.39-.45.39Zm-6.13-5.13c.31,0,.62,0,.93,0,.72,0,.76-.02.49-.72-.31-.8-.42-1.67-.86-2.44-.15-.27-.29-.63-.23-.99.03-.15-.25-.3-.37-.2-.11.09-.18.23-.24.36-.06.13-.05.29-.1.42-.2.57-.39,1.13-.6,1.69-.16.42-.27.87-.48,1.28-.22.41-.08.59.37.59.36,0,.73,0,1.09,0Z"/>
  <path class="cls-1" d="m131.48,15.01c0-1.68.03-3.37-.01-5.05-.01-.61.22-1.19.18-1.8,0-.05.12-.13.2-.14.18-.02.36,0,.54,0h6.61c.18,0,.36-.02.54,0,.37.04.5.2.5.56,0,.67,0,1.34-.01,2.01-.67.02-1.33.05-2,.06-.83.01-1.66.01-2.49,0-.24,0-.48.06-.73-.13-.2-.16-.52.08-.53.35-.01.7,0,1.4,0,2.1,0,.06.11.16.17.17.18.02.36,0,.54,0,1.4,0,2.8,0,4.2,0,.43,0,.52.1.53.54,0,.62,0,1.24,0,1.86,0,.24-.11.27-.28.23-1.37-.32-2.76-.07-4.14-.16-.24-.02-.47-.11-.71-.15-.19-.03-.34-.02-.33.26.02.8.02,1.61,0,2.41,0,.26.1.29.31.29,1.22,0,2.44-.02,3.65,0,.6.01,1.2.09,1.8.16.06,0,.14.13.14.2.01.75.01,1.5,0,2.25,0,.06-.11.18-.16.18-.55-.07-1.12.18-1.65-.14-.12-.07-.31,0-.46,0-.91,0-1.82.02-2.72,0-1.17-.03-2.34-.1-3.51-.15-.27,0-.2-.18-.2-.32,0-1.86,0-3.73,0-5.59Z"/>
  <path class="cls-1" d="m29.67,14.32c0-1.53.01-3.05,0-4.58,0-.6.09-1.21-.14-1.8-.11-.3-.01-.39.26-.39,2.13,0,4.25,0,6.38,0,.51.21,1.04.13,1.57.16.22.01.35.16.35.41,0,.49,0,.98,0,1.48,0,.32-.13.43-.47.44-.13,0-.26,0-.39,0-.93,0-1.87,0-2.8,0-.59,0-1.18.03-1.77.05,0,.57-.02,1.13-.02,1.7,0,.08,0,.16,0,.23,0,.5,0,.5.47.5,1.43,0,2.85,0,4.28,0,.38,0,.38,0,.39.36,0,.67,0,1.35,0,2.02,0,.19-.03.27-.25.27-.83-.01-1.68.11-2.48-.04-.74-.14-1.47-.06-2.2-.12-.17-.01-.22.06-.22.22,0,.78.01,1.55,0,2.33,0,.22.08.25.27.25,1.63,0,3.27,0,4.9,0,.18,0,.36,0,.54,0,.17,0,.21.07.21.23,0,.72-.01,1.45,0,2.17,0,.22-.09.25-.27.25-2.77,0-5.55,0-8.32,0-.25,0-.29-.09-.29-.31,0-1.94,0-3.88,0-5.82Z"/>
  <path class="cls-1" d="m76.52,20.61c-.31,0-.62,0-.93,0-.44-.01-1.34-.17-1.91-.46-.74-.39-1.51-.77-2.05-1.41-.72-.86-1.35-1.78-1.67-2.88-.29-1-.37-2.07-.14-3.08.07-.33.03-.67.15-1.03.31-.89.76-1.68,1.39-2.38.51-.57,1.11-1.03,1.75-1.41.52-.3,1.09-.54,1.71-.55.61-.01,1.18-.24,1.8-.17.88.1,1.78.16,2.6.5.62.25,1.16.7,1.73,1.07.13.08.11.2,0,.32-.35.4-.68.81-1.05,1.19-.68.7-.67.67-1.5.15-.56-.35-1.15-.71-1.86-.56-.52.1-1.08.16-1.55.39-.51.25-.93.66-1.27,1.14-.3.42-.49.99-.64,1.43-.14.45-.13.89-.14,1.34-.03.95.42,1.74.86,2.51.23.4.66.67,1.13.8.07.02.14.05.2.09.64.49,1.38.42,2.1.36.49-.05.97-.28,1.38-.59.08-.06.14-.15.22-.22.41-.33.5-.33.86.03.44.44.88.88,1.32,1.32.25.26.26.27-.02.54-.63.6-1.42.93-2.19,1.28-.73.33-1.5.35-2.28.31Z"/>
  <path class="cls-1" d="m49.3,7.39c.34,0,.68.02,1.01,0,.67-.04,1.23.26,1.79.57.24.13.43.33.65.49.31.22.31.22.16.53-.07.13-.13.27-.22.37-.32.34-.65.67-.99.99-.22.21-.48.22-.74.05-.32-.21-.61-.46-1.01-.56-.66-.17-1.66-.13-2.15.23-.32.24-.56.57-.54,1.02,0,.19.05.33.19.47.49.51,1.07.86,1.78.98.03,0,.06,0,.08,0,1.22.54,2.48,1.03,3.3,2.16.32.45.54.97.58,1.54.07.9-.13,1.71-.62,2.46-.49.75-1.14,1.27-1.98,1.62-.62.26-1.25.32-1.9.3-.1,0-.21-.01-.31,0-.87.11-1.7-.1-2.51-.34-.64-.19-1.24-.56-1.75-1.02-.16-.14-.16-.31-.06-.47.1-.17.2-.34.33-.48.36-.38.74-.73,1.09-1.11.2-.21.31-.15.49.02.73.67,1.58,1.08,2.59,1.07.75,0,1.24-.4,1.57-1.06.18-.35.07-.7.07-1.05,0-.07-.17-.17-.28-.22-.72-.32-1.42-.69-2.17-.96-.95-.35-1.93-.72-2.63-1.55-.38-.45-.68-.9-.67-1.52,0-.18-.15-.38-.14-.56.06-.92.17-1.83.93-2.49.34-.3.63-.64,1.02-.91.54-.37,1.13-.46,1.72-.56.43-.07.88-.01,1.32-.01Z"/>
  <path class="cls-1" d="m8.19,15.72c0-1.63,0-3.26,0-4.89,0-.3-.09-.34-.35-.33-.99.01-1.97,0-2.96.01-.26,0-.31-.09-.28-.31.06-.63-.25-1.24-.16-1.88.03-.22.05-.31.3-.31.86.02,1.71,0,2.57,0,1.22,0,2.44.02,3.66,0,.55-.01,1.1-.12,1.65-.14.57-.03,1.14,0,1.71,0,.49,0,.4,0,.41.42,0,.65-.01,1.3,0,1.94,0,.25-.09.29-.31.29-.88-.01-1.76,0-2.64,0-.47,0-.47,0-.47.5,0,2.41,0,4.82,0,7.22,0,.41.02.83,0,1.24-.02.39-.08.79-.16,1.18-.02.11-.21.25-.32.26-.83.02-1.66.01-2.49,0-.04,0-.12-.09-.13-.14-.02-.15,0-.31,0-.47v-4.58Z"/>
  <path class="cls-1" d="m104.08,10.98c0,.78-.02,1.55,0,2.33.02.7.12,1.41.14,2.11.03.7,0,1.4,0,2.1,0,.32.13.44.47.44,1.06,0,2.13,0,3.19,0,.22,0,.42,0,.65.13.32.2.51.31.52.63,0,.54,0,1.09,0,1.63,0,.22-.09.25-.27.25-.96,0-1.93.11-2.87-.03-1.46-.21-2.92-.07-4.37-.13-.18,0-.29-.02-.27-.25.1-1.28-.19-2.54-.17-3.82.05-2.82.02-5.64.02-8.46,0-.37,0-.38.36-.38.78,0,1.56,0,2.33,0,.2,0,.27.05.26.26,0,1.06,0,2.12,0,3.18Z"/>
  <path class="cls-1" d="m156.23,15.87v-4.28c0-.31-.02-.62,0-.93.02-.29.12-.58.14-.87.04-.48.05-.97.07-1.45.49,0,.98-.01,1.47-.01.42,0,.83,0,1.24,0,.06,0,.16.11.17.17.03.15,0,.31,0,.47,0,2.62.08,5.24-.03,7.85-.06,1.43-.1,2.86-.13,4.29,0,.32-.18.51-.48.42-.73-.23-1.46-.12-2.2-.13-.26,0-.28-.1-.28-.32,0-1.74,0-3.47,0-5.21Z"/>
  <path class="cls-1" d="m82.6,13.98c0-2.04,0-4.09,0-6.13,0-.22.04-.32.29-.31.78.02,1.55.02,2.33,0,.26,0,.36.03.35.33-.03.7,0,1.4,0,2.09,0,2.95-.01,5.9.01,8.85,0,.46-.18.88-.18,1.33,0,.05-.12.14-.2.14-.21.02-.42.03-.62,0-.57-.09-1.09.15-1.65.17-.29,0-.34-.08-.34-.35.01-2.04,0-4.09,0-6.13Z"/>
</svg>