<?xml version="1.0" encoding="utf-8"?>
<svg xmlns="http://www.w3.org/2000/svg" data-name="Layer 1" id="Layer_1" viewBox="0 0 148.78 148.36">
  <path d="m107.63,89.26c3.03,2.08,5.98,4.29,8.24,7.25,4.09,5.37,6.77,11.34,7.74,18.07.47,3.21.68,6.42.77,9.65.01.39.14.76-.5.7-3.72-.32-7.45-.12-11.18-.13-9.41-.03-18.82,0-28.23,0-1.71,0-1.87-.12-1.81-1.84.21-5.83-.81-11.39-3.68-16.53-2.97-5.31-7.42-8.7-13.35-10.13-1.05-.25-1.28.16-1.28,1.14.02,8.58-.03,17.16,0,25.74,0,1.26-.36,1.63-1.62,1.62-12.15-.05-24.29-.03-36.44-.05-1.89,0-1.9-.02-1.9-1.97,0-32.46,0-64.92,0-97.39,0-1.81.03-1.88,1.87-1.93,2.4-.06,4.81-.06,7.21-.06,19.2,0,38.39-.02,57.59,0,10.48.01,18.85,4.47,25.45,12.43,4.17,5.03,6.29,10.94,7.26,17.32,1.06,6.95.36,13.71-2.24,20.25-2.57,6.44-7.1,11.21-12.84,14.93-.31.2-.62.4-.93.62-.06.04-.07.14-.13.27Zm5.31-30.17c0-10.47-4.83-17.67-13.79-21.34-4.21-1.72-8.66-2.12-13.12-2.44-.33-.02-.71-.01-.86.35-.15.37.21.59.4.85,2.68,3.76,5.14,7.61,6.57,12.06,1.46,4.54,2.44,9.15,1.98,13.92-.73,7.47-3.76,14.02-8.39,19.87-.29.36-.9.7-.54,1.25.31.47.93.28,1.4.22,3.12-.42,6.22-.91,9.24-1.87,5.22-1.65,9.76-4.27,13.06-8.79,3.25-4.45,3.92-9.56,4.05-14.08Zm-60.43.34s.02,0,.02,0c0-7.46,0-14.91,0-22.37,0-1.77,0-1.85-1.8-1.77-4.43.19-8.86.31-13.28,0-1.16-.08-1.25.58-1.25,1.48.01,15.12.02,30.24,0,45.37,0,1.14.35,1.53,1.5,1.51,4.39-.05,8.78-.03,13.17-.03,1.64,0,1.64-.01,1.64-1.68,0-7.5,0-15,0-22.5Zm11.83,1.31s.02,0,.03,0c0,7.04.02,14.08-.02,21.12,0,1.09.34,1.31,1.3.96,5.58-2.09,10.29-5.34,13.53-10.43,3.94-6.19,4.42-13,3.08-19.99-1.76-9.21-9.37-14.53-16.93-16.19-1-.22-1.28.14-1.22,1.06.1,1.61.21,3.22.22,4.84.03,6.21.01,12.42.01,18.64Zm-28.12,43.66s0,0,0,0c0,2.61.03,5.22-.02,7.83-.02.97.3,1.32,1.28,1.32,4.51-.04,9.03-.06,13.54-.02,1.11,0,1.53-.34,1.51-1.5-.05-5.09-.05-10.19,0-15.28,0-1.12-.36-1.55-1.5-1.54-4.47.04-8.94.04-13.42,0-1.02,0-1.42.35-1.4,1.36.04,2.61.01,5.22.01,7.83Zm66.4,9.58h0c2.48,0,4.97,0,7.45,0,1.6,0,1.72-.14,1.22-1.62-2.36-7-6.8-12.13-13.67-15.02-3.65-1.54-7.51-1.9-11.41-2.09-.32-.02-.73-.09-.91.24-.22.39.21.57.39.81.89,1.2,1.82,2.36,2.67,3.58,2.62,3.76,4.3,7.92,5.05,12.43.23,1.36.8,1.77,2.13,1.71,2.36-.1,4.72-.03,7.08-.03Z"/>
</svg>