<?xml version="1.0" encoding="utf-8"?>
<svg xmlns="http://www.w3.org/2000/svg" id="Layer_1" viewBox="0 0 919 410">
  <defs>
    <style>.cls-1{fill:#f3f3f3;}.cls-2{fill:#f8f8f8;}.cls-3{fill:#010101;}.cls-4{fill:#030303;}.cls-5{fill:#020202;}.cls-6{fill:#e6e6e6;}.cls-7{fill:#f4f4f4;}.cls-8{fill:#e7e7e7;}.cls-9{fill:#ededed;}.cls-10{fill:#fefefe;}.cls-11{fill:#e5e5e5;}.cls-12{fill:#e2e2e2;}.cls-13{fill:#cdcdcd;}.cls-14{fill:#acacac;}.cls-15{fill:#bcbcbc;}.cls-16{fill:#d8d8d8;}.cls-17{fill:#b2b2b2;}.cls-18{fill:#ababab;}.cls-19{fill:#ccc;}.cls-20{fill:#cacaca;}.cls-21{fill:#c9c9c9;}.cls-22{fill:#c7c7c7;}.cls-23{fill:#ddd;}.cls-24{fill:#cbcbcb;}.cls-25{fill:#c5c5c5;}.cls-26{fill:#dfdfdf;}.cls-27{fill:#9b9b9b;}.cls-28{fill:#a2a2a2;}</style>
  </defs>
  <path d="M221.39,233.51c0,31.58-.54,63.18,.2,94.75,.46,19.72-7.98,33.16-25,41.6-40.88,20.27-83.13,22.95-125.52,6.25-38.24-15.07-56.93-45.66-60.18-85.64-2.12-26.1,.28-51.78,14.63-74.97,17.37-28.08,43.75-41.09,75.34-45.29,14.24-1.9,28.58-2.22,42.58,1.83,5.02,1.46,6.22-.04,6.18-4.9-.17-17.88,.26-35.76-.17-53.63-.16-6.54,2.36-8.74,8.37-9.75,10.95-1.84,21.91-2.29,32.95-1.79,20.89,.93,30.33,10.44,30.44,31.44,.19,33.37,.05,66.74,.05,100.12h.15Z"/>
  <path d="M702.42,242.06c13.8-12.86,27.82-25.65,41.52-38.77,8.81-8.44,17.34-17.2,25.61-26.17,3.67-3.97,7.61-5.3,12.72-4.52,7.67,1.17,15.31,2.36,22.25,6.19,20.5,11.29,24.74,32.49,9.46,50.25-13.26,15.42-29.52,27.72-45.18,40.53-5.49,4.5-5.71,6.61-.78,11.41,18.98,18.51,37.49,37.51,56.42,56.06,4.36,4.27,5.43,8.31,3.96,14.25-7.91,32.05-40.16,42.98-66.78,22.27-10.45-8.13-18.12-18.86-26.25-29.14-10.29-12.99-20.61-25.96-32.96-38.47,0,8.44,0,16.87,0,25.31,0,13.71-.17,27.42,.13,41.12,.11,5.17-1.57,7.32-6.83,8.14-12.42,1.93-24.83,3.28-37.38,2.03-17.82-1.77-27.33-11.26-27.39-29.11-.27-80.46-.09-160.92-.29-241.37-.01-5.53,2.34-7.09,7.05-8.03,11.49-2.3,23.07-2.84,34.69-2.05,20.29,1.38,29.63,10.87,29.86,31.39,.37,33.07,.14,66.15,.16,99.23,0,3.55,0,7.1,0,9.44Z"/>
  <path d="M456.02,306.03c0,22.04-.17,44.08,.11,66.11,.07,5.51-1.55,8.01-7.17,8.8-11.54,1.61-23.06,2.76-34.71,1.75-20.53-1.77-29.49-10.93-29.75-31.46-.33-25.61-.12-51.22-.13-76.83,0-16.08,.45-32.18-.12-48.24-.54-15.31,6.11-26.12,18.33-34.45,16.85-11.5,35.64-17.92,55.59-20.63,28.64-3.89,57.17-3.9,84.23,8.16,28.43,12.66,42.87,35.26,43.26,66.12,.54,42.28,.15,84.57,.3,126.86,.02,4.89-1.13,7.68-6.56,8.52-13.31,2.06-26.62,3.3-40.02,1.39-15.8-2.25-24.1-10.52-24.87-26.54-.84-17.53-.52-35.12-.59-52.69-.07-17.27,.17-34.55-.01-51.81-.18-16.98-8.18-25.04-25.19-25.8-2.96-.13-5.96,0-8.92,.28-20.97,2-23.77,5.09-23.77,25.96,0,18.17,0,36.33,0,54.5Z"/>
  <path d="M267.38,269.8c0-27.68,.19-55.36-.13-83.03-.08-6.69,2.02-9.29,8.77-10.17,12.74-1.67,25.38-3.15,38.19-1.13,14.93,2.35,22.67,10.17,24.31,25.24,.61,5.6,.58,11.29,.58,16.93,.04,50.29-.25,100.59,.26,150.88,.09,9.04-3.03,11.81-11.23,12.78-10.68,1.26-21.3,2.35-32.03,1.27-19.66-1.98-28.25-10.9-28.47-30.64-.31-27.37-.08-54.76-.08-82.13-.06,0-.12,0-.18,0Z"/>
  <path class="cls-3" d="M908,357.05c-.11,18.43-11.91,29.98-30.4,29.72-17.88-.25-29.88-12.87-29.58-31.11,.29-17.6,12.59-29.8,30.04-29.81,18.57,0,30.05,11.96,29.94,31.19Z"/>
  <path class="cls-5" d="M456.37,84.9c0-9.51,.2-19.04-.08-28.54-.15-5.16,.59-8.88,6.9-8.66,5.63,.2,13.14-.68,12.7,7.26-.62,11.24,4.03,12.19,13.63,11.69,14.55-.75,22.34,7.8,22.73,22.57,.24,9.21-.02,18.44,.13,27.65,.08,4.85-.06,8.94-6.75,8.74-6.22-.18-12.66,.05-13.15-8.29-.5-8.59-.14-17.24-.25-25.86-.06-4.46-1.17-8.46-6.44-9.17-5.32-.71-9.51,.12-9.31,7.14,.26,8.91-.05,17.84,.15,26.76,.11,5.2-.02,9.45-7.14,9.41-6.5-.03-12.52-.47-12.85-8.61-.42-10.69-.1-21.4-.1-32.1-.06,0-.12,0-.17,0Z"/>
  <path class="cls-15" d="M371.81,102.25c-7.16,14.71-16.5,27.51-31.24,35.56-3.11,1.7-6.08,3.82-9.86,3.83-2.95-5.52,1.3-8.23,4.76-10.5,3.21-2.1,5.53-4.09,5-8.19,.16-4.95,7.98-4.52,7.1-10.18,.01-3.64-3.18-3.59-5.4-4.66-.72-.41-1.29-.97-1.77-1.64-1.83-4.63,1.55-6.72,4.26-9.44,3.06-3.08,8.45-5.02,6.6-11.09-.63-3.2,1.31-5.7,2.9-7.88,3.96-5.45,2.66-8.73-3.42-10.74-1.61-1.34-3.54-2.24-5.13-3.61-4.11-2.76-6.91-6.29-6.68-11.56,.3-6.76-5.92-9.78-8.51-14.87-1.43-10.11-8.71-12.15-17.23-12.51-10.98-6.36-22.31-10.11-35.04-5.36-1.6,.6-3.39-.6-4.65-1.97-1.33-2.27,.09-3.46,1.78-4.56,25.31-12.36,48.99-8.27,71.53,7.13,2.63,2.38,3.5,5.73,4.92,8.79,1.69,4.64,5.17,7.71,9.1,10.39,7.66,2.89,7.98,11.62,13.17,16.5,4.63,15.78,6.55,31.43-2.19,46.56Z"/>
  <path class="cls-18" d="M292.98,145.28c-5.66,.29-10.59-2.51-15.88-3.76-4.71-3.03-11.56-4.23-10.4-12.25,5.64-3.94,12.7-3.07,18.97-5.5,6.94-2.69,12.09-6.41,15.19-12.6,3.12-6.21,7.47-12.08,7.56-19.52,.01-1.65,.39-3.26,.61-4.88,.43-4.59,6.14-8.9,.69-13.78-2.88-2.24-5.94-3.41-9.5-1.62-2.74,1.38-5.4,1.76-7.93-.47-.4-.45-1.03-1.14-.85-1.47,4.06-7.32,.33-13.59-2.61-19.97,1.82-5.35,2.88-10.82,2.65-16.52,.29-.91,.8-1.66,1.49-2.31,6.44-3.56,11.45-.26,15.92,3.8,4.66,4.23,9.43,8.07,15.42,10.26,4.81,1.75,6.97,5.34,6.43,10.41-.63,5.99,1.07,10.83,5.52,15.19,4.37,4.28,3.02,10.45,2.74,15.71-.45,8.28-.71,16.52-.29,24.79,.07,1.85-.4,3.57-1.34,5.16-3.4,2.69-7.21,4.78-9.09,9.23-4.61,10.86-4.77,10.79-16.2,7.92-1.8,.1-2.98,.78-2.77,2.87,.5,3.38,7.28,6.78-.04,10.07-5.44-.38-10.94,.89-16.3-.76Z"/>
  <path class="cls-4" d="M539.08,104.94c7.06,8.25,15.17,7.24,23.25,5.22,4.32-1.08,8.68-3.97,10.68,2.77,1.73,5.83-1.56,9.29-6.42,11.02-13.11,4.65-26.26,4.37-37.32-4.52-10.96-8.8-12.32-21.49-8.8-34.29,3.07-11.14,11.45-17.21,22.8-18.56,12-1.42,22.76,1.27,29.49,12.32,7.73,12.7,1.62,22.52-14.44,23.14-6.2,.24-12.24,.55-19.24,2.9Z"/>
  <path class="cls-3" d="M412.84,85c0-6.85,.23-13.71-.07-20.55-.25-5.53,.66-9.33,7.45-8.96,5.89,.32,12.43,.37,12.09,8.28-.33,7.58,2.89,9.35,9.37,8.53,5.82-.74,8.37,2.39,8.2,7.71-.18,5.38-3.37,8.33-8.79,7.69-12.63-1.49-7.75,7.91-8.49,13.57-.9,6.84,2.39,10.21,9.35,9.28,3.31-.44,6.04-.35,6.86,3.57,.88,4.18-.21,7.65-3.93,10.08-12.57,8.23-31.15-.96-31.9-15.97-.39-7.73-.07-15.49-.07-23.23-.03,0-.05,0-.08,0Z"/>
  <path class="cls-14" d="M246.78,116.51c-16.74-24.27-15.19-49.38-3.47-74.97,3.51-3.59,5.13-10.9,12.73-6.51,4.72,1.15,4.7-5.19,8.53-5.41,.8-.36,1.63-.66,2.38-1.1,2.96-1.76,4.33-6.68,9.29-4.44,4.48,2.02,3.29,6.34,4.25,9.8-3.3,5.7,.43,11.73-.77,17.54-3.83,4.63-8.7,2.29-13.16,1.73-7.61-.95-13.4,.63-15.08,9.2-9.76,6.62-7.85,15.98-5.95,25.33-2.41,6.79-.1,12.5,4.14,17.76,.47,.71,.91,1.43,1.39,2.14,2.23,2.74,5.72,4.84,4.7,9.22-3.18,6.04-6.14,4.38-8.99-.29Z"/>
  <path class="cls-17" d="M311.01,145.08c-1.49-4.22-7.45-2.78-8.91-7.03,3.02-4.12,9.04-5.25,10.69-10.73,5.14,2.77,9.96,6.69,10.55-4.24,.23-4.29,6.83-5.97,10.91-8.33,5.07,.9,5.23,6.73,8.98,8.95,4.36,.55,4,2.29,1.29,4.81-4.64,4.33-9.22,8.74-13.82,13.12-.49,.09-.98,.12-1.48,.11-6.09,1.05-11.6,5.24-18.22,3.34Z"/>
  <path class="cls-13" d="M246.78,116.51c2.35,1.77,4.7,2.69,7.04-.02,9.28-1.53,14.08,2.7,14.26,12.59-.16,6.44,5.85,8.41,9.02,12.44-13.35-4.41-23.37-12.84-30.32-25Z"/>
  <path class="cls-22" d="M255.66,41.32q-6.48-4.23-12.34,.22c7.13-13.48,17.64-23.21,31.97-28.67-.6,1.18-1.21,2.35-1.81,3.53-.42,4.95-3.46,8.69-5.92,12.7-6.48,1.63-9.76,6.37-11.9,12.22Z"/>
  <path class="cls-1" d="M371.81,102.25c3.79-16.06,6.21-32.11-.15-48.14-.43-.74-.34-1.4,.32-1.96,5.85,3.73,7.59,9.06,7.14,15.86-.48,7.34,.09,14.73-.06,22.1-.1,5.31-1.89,9.86-7.25,12.14Z"/>
  <path class="cls-20" d="M371.98,52.15c-.11,.65-.21,1.31-.32,1.96-.86,.1-1.72,.2-2.58,.31,.49-8.18-7.1-9.16-11.55-12.93-.58-5.56-2.78-9.79-8.9-10.77-3.42-3.1-1.95-7.02-1.81-10.72,4.64,.8,6.94,5.04,10.63,7.23,4.5,2.1,5.75,6.44,7.29,10.59,3.39,4.29,5.57,9.18,7.24,14.34Z"/>
  <path class="cls-15" d="M311.01,145.08c6.08-1.06,11.88-3.66,18.22-3.34-11.51,7.07-23.75,6.58-36.25,3.54,6.01-.06,12.02-.13,18.03-.19Z"/>
  <path class="cls-9" d="M364.74,37.81c-2.79-3.28-5.98-6.29-7.29-10.59,7.88-.22,7.18,5.46,7.29,10.59Z"/>
  <path class="cls-10" d="M150.02,276.84c0,13.1-.31,26.21,.13,39.3,.18,5.5-2.29,8.14-6.69,10.2-23.53,11.01-50.84-1.32-57.82-26.29-4.26-15.25-4.27-30.61,.26-45.78,7.02-23.48,37.63-36.7,59.86-26.27,3.7,1.74,4.34,4.2,4.31,7.76-.12,13.7-.05,27.39-.06,41.09Z"/>
  <path class="cls-17" d="M266.33,27.17c.81-4.63,.38-10.09,7.15-10.77,14.7-5.71,28.69-5.98,41.16,5.39,3.82,2.5,4.07,7.73,7.85,10.26,.63,.5,1.33,.89,2.09,1.16,2.84,.38,5.54,1.15,7.9,2.86,7.47,2.61,12.11,7.04,10.91,15.78-.47,3.39,1.42,6.3,3.37,9,1.65,5.31-1.77,10.3-.93,15.56,.16,5.38,5.82,6.17,8.14,9.75,1.7-.03,4.22-.77,4.94,.06,1.59,1.83-1.11,2.7-1.94,4.06-3.92,6.46-10.39,10.32-15.55,15.51-.39,3.17-.9,6.24-5.35,5.36-1.59-10.06-4.88-20.03-.54-30.27,1.09-2.58,.08-5.29-2.39-7.05-6.51-4.65-8.83-10.77-6.93-18.6,.72-2.98-.58-5.52-3.49-6.33-7.48-2.09-12.76-7.03-18.01-12.36-2.97-3.02-7.36-3.6-11.54-4.01-5.47-.36-10.42,4.12-16.11,1.75-.3-2.51,.53-5.85-2.47-6.86-3.06-1.03-3.2,2.64-4.61,4.21-1.7,1.91-3.57,1.52-5.56,.84-1.3-2.46,.57-3.78,1.91-5.29Z"/>
  <path class="cls-20" d="M353.97,86.16c-8.47,3.02-10.35-3.17-12.51-8.96,5.7-4.1,7.41-11.27,12.34-15.96,7.2,7.48,7.24,13.83,.17,24.92Z"/>
  <path class="cls-21" d="M336.07,111.14c1.78-1.79,3.57-3.57,5.35-5.36,.59,0,1.19,.01,1.78,.02,1.83,3.88,7.96,2.4,9.01,7.25-1.13,5.12-5.55,7.46-8.97,10.65-9.47,3.51-8.55-3.4-8.98-8.95,.61-1.2,1.21-2.41,1.82-3.61Z"/>
  <path class="cls-9" d="M353.8,61.25c.26,12.58-1.18,14.45-12.34,15.96-.35-6.14-.32-12.15,5.3-16.35,2.35,.13,4.7,.26,7.05,.39Z"/>
  <path class="cls-24" d="M332.48,36.07c-3.57,1.64-7.14,2.5-10.72,.05-6.28-2.83-7.24-8.31-7.13-14.33,13.32,.68,16.32,3.08,17.85,14.28Z"/>
  <path class="cls-7" d="M352.21,113.05c-4.92-.03-12.03,2.65-9-7.25,5.88-1.16,11.31-1.76,9,7.25Z"/>
  <path class="cls-23" d="M348.62,30.72c6.51-4.86,7.12,2.41,9.72,5,1.59,1.58,5.4,4.73-.81,5.77-2.97-3.59-5.94-7.18-8.9-10.77Z"/>
  <path class="cls-28" d="M268.09,129.08c-4.36-4.64-8.51-9.52-14.26-12.59-1.79-2.95-5.98-3.51-7.13-7.11,4.12-6.79,10.68-10.9,16.92-15.38,4.68,1.07,3.81,5.08,4.56,8.36,1.67,7.29,5.5,9.65,12.01,7.65,1.57-1.84,1.87-4.51,3.91-6.04,5.21-8.26,2.25-16.75-.17-24.73-1.78-5.89-7.82-6.59-13.42-6.34-4.19,.18-7.27,1.84-8.67,6.22-3.32,10.4-8.68,19.76-15.16,28.51-4.31-4.65-6.25-10.48-8.07-16.35-1.61-5.2,1.31-4.57,4.55-3.37,1.97-2,3.89-4.06,5.67-6.23,2.19-4.72,1.23-9.58,.58-14.41-.05-2.04-.58-4.15,.77-6.01-1.85-.77-3.71-1.55-5.56-2.32,3.19-11.39,11.73-11.69,21.16-10.26,4.34,.66,8.7,1.17,13.05,1.74,1.64-3.02,4.62-2.66,7.36-2.91,1.83-.11,3.72-.48,5.19,1.12,4.5,5.66,10.26,9.64,18.81,12.58-7.1,2.8-15.37,.24-16.99,8.9,.63,.62,1.66,1.18,1.78,1.93,1.5,9.72,6.56,16.43,16.08,19.49,1.64,.87,3.06,1.97,2.97,4.04-.49,11.02-14.69,28.51-25.58,31.84-6.7,2.04-12.94,8.61-20.35,1.68Z"/>
  <path class="cls-19" d="M311.05,91.52c-16.06-.06-21.16-6.17-17.86-21.42,12.14-7,14.93-6.97,21.2,.24-1.52,5.7-5.24,11.16-1.78,17.37-.52,1.27-1.04,2.54-1.56,3.81Z"/>
  <path class="cls-21" d="M287.73,50.35c-2.97,.02-5.94,.04-8.9,.07-7.87-6.48-8.11-8.74-1.77-16.15,4.95-4.49,10.05-7.55,16.11-1.75,.05,.6,.1,1.21,.14,1.81,.52,.7,.64,1.46,.36,2.28-4.28,2.75-7.12,6.12-5.02,11.62,0,.85-.28,1.56-.93,2.12Z"/>
  <path class="cls-20" d="M312.79,127.32c2.93,10.62,.21,13.35-10.69,10.73-2.44-9.42-1.31-10.56,10.69-10.73Z"/>
  <path class="cls-2" d="M312.61,87.71c-8.47,.1-6.77-5.02-4.93-9.93,1.23-3.27,3.08-6.22,6.71-7.44,2.5,6.11,2.37,11.94-1.78,17.37Z"/>
  <path class="cls-17" d="M287.73,50.35c-.02-.64-.04-1.28-.07-1.92-.84-5.29,.81-9.47,5.48-12.32,.06-.6,.12-1.19,.17-1.79,8.53,6.02,1.39,9.9-1.94,14.3-1.21,.57-2.43,1.15-3.64,1.72Z"/>
  <path class="cls-26" d="M543.3,90.25c-2.32-.35-5.55,1.1-4.96-2.39,.78-4.68,4.51-6.86,9.02-7.13,3.71-.22,9.1,1.33,8.25,4.64-1.49,5.79-8.47,3.03-12.31,4.89Z"/>
  <path class="cls-27" d="M264.59,95.11c-3.59,5.11-8.91,9.36-17.89,14.27,0-.59-.02-1.17-.02-1.76,.08-7.63,2.42-14.59,6.6-20.88,2.31-3.48,4.96-6.61,3.44-11.34-.87-2.69,.7-4.64,3.38-5.35,8.51-2.26,17.47-4.06,24.78,2.04,6.14,5.12,7.78,12.65,5.98,20.74-1.03,4.61,3.3,11.15-4.92,13.03-3.63,.71-5.38-1.93-7.37-4.13-2.53-6.7-10.09-2.76-13.97-6.6Z"/>
  <path class="cls-21" d="M251.85,84.24c-1.99,3.38-5.23,3.78-8.69,3.66-1.66-5.46-2.35-11.02-1.48-16.7,.77-5.06,2.76-9.12,8.5-9.95,.56,1.76,1.12,3.52,1.69,5.28-2.65,5.9-2.72,11.8-.02,17.7Z"/>
  <path class="cls-16" d="M266.33,27.17c-.64,1.76-1.27,3.53-1.91,5.29-2.64,3.23-4.91,6.83-8.77,8.86-2.41-9.22,4.54-11.38,10.67-14.15Z"/>
  <path class="cls-6" d="M321.76,36.12c-.88-2.71-1.79-5.55,2.64-5.66,1.72-.04,4.42,.29,4.3,2.21-.29,4.39-4.3,2.86-6.94,3.45,0,0,0,0,0,0Z"/>
  <path class="cls-25" d="M264.59,95.11c6.71-2.65,12.89-2.7,17.76,3.64-2.22,5.09-2.06,9.88,1.82,14.18-4.38,5.21-9.43,4.34-14.19,1-6.7-4.7-8.06-11.26-5.4-18.82Z"/>
  <path class="cls-12" d="M251.85,84.24c-8.19-2.29-4.51-8.99-4.99-13.99-.31-3.18,1.44-5.04,5.01-3.72,3,5.9,1.89,11.8-.02,17.7Z"/>
  <path class="cls-8" d="M284.17,112.93c-5.94-.62-7.8-4.96-8.12-9.87-.27-4.07,3.28-4.19,6.3-4.31,1.19,2.37,2.39,4.73,3.59,7.09-.59,2.36-1.18,4.72-1.76,7.09Z"/>
  <path class="cls-11" d="M293.14,36.12c-.08,4.88-2.5,8.72-5.48,12.32-4.83-2.59-2.71-6.3-1.47-9.74,1.24-3.45,3.77-4.03,6.94-2.58Z"/>
</svg>